ISO-10303-21;
HEADER;
FILE_DESCRIPTION (( 'STEP AP203' ),
    '1' );
FILE_NAME ('Link L_Default_sldprt.STEP',
    '2025-11-20T16:13:59',
    ( '' ),
    ( '' ),
    'SwSTEP 2.0',
    'SolidWorks 2025',
    '' );
FILE_SCHEMA (( 'CONFIG_CONTROL_DESIGN' ));
ENDSEC;

DATA;
#1 = LINE ( 'NONE', #210, #511 ) ;
#2 = CARTESIAN_POINT ( 'NONE',  ( -0.8661902986644255398, 0.2000000000000000111, -0.5000000000000000000 ) ) ;
#3 = ORIENTED_EDGE ( 'NONE', *, *, #149, .F. ) ;
#4 = PERSON_AND_ORGANIZATION ( #233, #129 ) ;
#5 = LINE ( 'NONE', #271, #250 ) ;
#6 = CALENDAR_DATE ( 2025, 20, 11 ) ;
#7 = CARTESIAN_POINT ( 'NONE',  ( -1.366190298664425429, 0.2000000000000000111, -0.7499999999999982236 ) ) ;
#8 = ORIENTED_EDGE ( 'NONE', *, *, #321, .F. ) ;
#9 = DATE_AND_TIME ( #277, #394 ) ;
#10 = VECTOR ( 'NONE', #370, 100.0000000000000000 ) ;
#11 = DIRECTION ( 'NONE',  ( 0.000000000000000000, 0.000000000000000000, 1.000000000000000000 ) ) ;
#12 = ORIENTED_EDGE ( 'NONE', *, *, #425, .F. ) ;
#13 = AXIS2_PLACEMENT_3D ( 'NONE', #156, #406, #490 ) ;
#14 = ORIENTED_EDGE ( 'NONE', *, *, #118, .F. ) ;
#15 = AXIS2_PLACEMENT_3D ( 'NONE', #132, #453, #422 ) ;
#16 = ORIENTED_EDGE ( 'NONE', *, *, #412, .T. ) ;
#17 = DESIGN_CONTEXT ( 'detailed design', #517, 'design' ) ;
#18 = EDGE_LOOP ( 'NONE', ( #248, #421, #142, #214 ) ) ;
#19 = FACE_BOUND ( 'NONE', #255, .T. ) ;
#20 = AXIS2_PLACEMENT_3D ( 'NONE', #397, #477, #433 ) ;
#21 = LINE ( 'NONE', #354, #309 ) ;
#22 = EDGE_CURVE ( 'NONE', #521, #378, #57, .T. ) ;
#23 = DIRECTION ( 'NONE',  ( 0.000000000000000000, 1.000000000000000000, 0.000000000000000000 ) ) ;
#24 =( GEOMETRIC_REPRESENTATION_CONTEXT ( 3 ) GLOBAL_UNCERTAINTY_ASSIGNED_CONTEXT ( ( #498 ) ) GLOBAL_UNIT_ASSIGNED_CONTEXT ( ( #70, #110, #519 ) ) REPRESENTATION_CONTEXT ( 'NONE', 'WORKASPACE' ) );
#25 = FACE_OUTER_BOUND ( 'NONE', #154, .T. ) ;
#26 = DIRECTION ( 'NONE',  ( 0.000000000000000000, 0.000000000000000000, 1.000000000000000000 ) ) ;
#27 = DIRECTION ( 'NONE',  ( 0.000000000000000000, 0.000000000000000000, -1.000000000000000000 ) ) ;
#28 = APPROVAL_ROLE ( '' ) ;
#29 = EDGE_CURVE ( 'NONE', #225, #180, #228, .T. ) ;
#30 = CARTESIAN_POINT ( 'NONE',  ( 6.433809701335574616, 0.2000000000000000111, -0.2500000000000017764 ) ) ;
#31 = CYLINDRICAL_SURFACE ( 'NONE', #353, 0.2499999999999999722 ) ;
#32 = AXIS2_PLACEMENT_3D ( 'NONE', #429, #472, #344 ) ;
#33 = DIRECTION ( 'NONE',  ( -0.000000000000000000, -1.000000000000000000, -0.000000000000000000 ) ) ;
#34 = FACE_OUTER_BOUND ( 'NONE', #39, .T. ) ;
#35 = ORIENTED_EDGE ( 'NONE', *, *, #380, .T. ) ;
#36 = ADVANCED_FACE ( 'NONE', ( #473 ), #510, .T. ) ;
#37 = DIRECTION ( 'NONE',  ( -0.000000000000000000, -0.000000000000000000, 1.000000000000000000 ) ) ;
#38 = DIRECTION ( 'NONE',  ( 0.000000000000000000, 1.000000000000000000, 0.000000000000000000 ) ) ;
#39 = EDGE_LOOP ( 'NONE', ( #64, #252, #152, #495 ) ) ;
#40 = CIRCLE ( 'NONE', #351, 0.2500000000000001110 ) ;
#41 = CARTESIAN_POINT ( 'NONE',  ( -1.116190298664423652, -6.432523497922047490E-18, 6.796163540241560659E-18 ) ) ;
#42 = DIRECTION ( 'NONE',  ( 0.000000000000000000, 0.000000000000000000, 1.000000000000000000 ) ) ;
#43 = VERTEX_POINT ( 'NONE', #195 ) ;
#44 = APPROVAL_ROLE ( '' ) ;
#45 = CARTESIAN_POINT ( 'NONE',  ( 5.933809701335573727, 0.2000000000000000111, -0.5000000000000000000 ) ) ;
#46 = EDGE_CURVE ( 'NONE', #424, #385, #311, .T. ) ;
#47 = ORIENTED_EDGE ( 'NONE', *, *, #403, .T. ) ;
#48 = AXIS2_PLACEMENT_3D ( 'NONE', #114, #437, #27 ) ;
#49 = CARTESIAN_POINT ( 'NONE',  ( 5.933809701335573727, 0.2000000000000000111, -0.2499999999999997780 ) ) ;
#50 = EDGE_LOOP ( 'NONE', ( #489, #423 ) ) ;
#51 = COORDINATED_UNIVERSAL_TIME_OFFSET ( 7, 0, .BEHIND. ) ;
#52 = CARTESIAN_POINT ( 'NONE',  ( -1.366190298664425429, 0.000000000000000000, -0.2500000000000017764 ) ) ;
#53 = ORIENTED_EDGE ( 'NONE', *, *, #503, .T. ) ;
#54 = EDGE_CURVE ( 'NONE', #201, #99, #40, .T. ) ;
#55 = LINE ( 'NONE', #300, #368 ) ;
#56 = ORIENTED_EDGE ( 'NONE', *, *, #203, .T. ) ;
#57 = CIRCLE ( 'NONE', #272, 0.2500000000000001110 ) ;
#58 = ORIENTED_EDGE ( 'NONE', *, *, #306, .F. ) ;
#59 = VECTOR ( 'NONE', #499, 100.0000000000000000 ) ;
#60 = ORIENTED_EDGE ( 'NONE', *, *, #349, .F. ) ;
#61 = CC_DESIGN_PERSON_AND_ORGANIZATION_ASSIGNMENT ( #191, #478, ( #77 ) ) ;
#62 = DIRECTION ( 'NONE',  ( 0.000000000000000000, 1.000000000000000000, 0.000000000000000000 ) ) ;
#63 = DIRECTION ( 'NONE',  ( 0.000000000000000000, 1.000000000000000000, 0.000000000000000000 ) ) ;
#64 = ORIENTED_EDGE ( 'NONE', *, *, #425, .T. ) ;
#65 = DIRECTION ( 'NONE',  ( 0.000000000000000000, 1.000000000000000000, 0.000000000000000000 ) ) ;
#66 = LOCAL_TIME ( 9, 13, 59.00000000000000000, #342 ) ;
#67 = DIRECTION ( 'NONE',  ( 0.000000000000000000, 0.000000000000000000, -1.000000000000000000 ) ) ;
#68 = COORDINATED_UNIVERSAL_TIME_OFFSET ( 7, 0, .BEHIND. ) ;
#69 = CARTESIAN_POINT ( 'NONE',  ( 5.933809701335573727, 0.000000000000000000, -0.5000000000000000000 ) ) ;
#70 =( LENGTH_UNIT ( ) NAMED_UNIT ( * ) SI_UNIT ( .CENTI., .METRE. ) );
#71 = CARTESIAN_POINT ( 'NONE',  ( 6.183809701335574616, 0.2000000000000000111, -0.7500000000000001110 ) ) ;
#72 = AXIS2_PLACEMENT_3D ( 'NONE', #91, #119, #75 ) ;
#73 = APPLICATION_PROTOCOL_DEFINITION ( 'international standard', 'config_control_design', 1994, #491 ) ;
#74 = VECTOR ( 'NONE', #105, 100.0000000000000000 ) ;
#75 = DIRECTION ( 'NONE',  ( 0.000000000000000000, 0.000000000000000000, -1.000000000000000000 ) ) ;
#76 = ORIENTED_EDGE ( 'NONE', *, *, #503, .F. ) ;
#77 = PRODUCT_DEFINITION ( 'UNKNOWN', '', #460, #17 ) ;
#78 = DIRECTION ( 'NONE',  ( -1.000000000000000000, 0.000000000000000000, 0.000000000000000000 ) ) ;
#79 = CARTESIAN_POINT ( 'NONE',  ( 5.933809701335573727, 0.000000000000000000, -0.2499999999999997780 ) ) ;
#80 = ORIENTED_EDGE ( 'NONE', *, *, #90, .F. ) ;
#81 = CARTESIAN_POINT ( 'NONE',  ( -1.116190298664425429, 0.2000000000000000111, -0.7500000000000001110 ) ) ;
#82 = DIRECTION ( 'NONE',  ( 0.000000000000000000, 1.000000000000000000, 0.000000000000000000 ) ) ;
#83 = ORIENTED_EDGE ( 'NONE', *, *, #396, .F. ) ;
#84 = AXIS2_PLACEMENT_3D ( 'NONE', #207, #166, #330 ) ;
#85 = CC_DESIGN_SECURITY_CLASSIFICATION ( #204, ( #460 ) ) ;
#86 = FACE_OUTER_BOUND ( 'NONE', #221, .T. ) ;
#87 = LOCAL_TIME ( 9, 13, 59.00000000000000000, #68 ) ;
#88 = EDGE_LOOP ( 'NONE', ( #16, #426, #164, #102 ) ) ;
#89 = APPROVAL_ROLE ( '' ) ;
#90 = EDGE_CURVE ( 'NONE', #201, #291, #192, .T. ) ;
#91 = CARTESIAN_POINT ( 'NONE',  ( -1.366190298664425429, 0.2000000000000000111, -0.2500000000000017764 ) ) ;
#92 = DIRECTION ( 'NONE',  ( -0.000000000000000000, -1.000000000000000000, -0.000000000000000000 ) ) ;
#93 = VERTEX_POINT ( 'NONE', #270 ) ;
#94 = COORDINATED_UNIVERSAL_TIME_OFFSET ( 7, 0, .BEHIND. ) ;
#95 = FACE_BOUND ( 'NONE', #240, .T. ) ;
#96 = ORIENTED_EDGE ( 'NONE', *, *, #343, .T. ) ;
#97 = APPROVAL ( #512, 'UNSPECIFIED' ) ;
#98 = DIRECTION ( 'NONE',  ( 0.000000000000000000, 0.000000000000000000, -1.000000000000000000 ) ) ;
#99 = VERTEX_POINT ( 'NONE', #229 ) ;
#100 = VERTEX_POINT ( 'NONE', #235 ) ;
#101 = CC_DESIGN_DATE_AND_TIME_ASSIGNMENT ( #415, #334, ( #204 ) ) ;
#102 = ORIENTED_EDGE ( 'NONE', *, *, #155, .T. ) ;
#103 = AXIS2_PLACEMENT_3D ( 'NONE', #333, #482, #125 ) ;
#104 = FACE_OUTER_BOUND ( 'NONE', #177, .T. ) ;
#105 = DIRECTION ( 'NONE',  ( -0.000000000000000000, -1.000000000000000000, -0.000000000000000000 ) ) ;
#106 = CARTESIAN_POINT ( 'NONE',  ( -1.116190298664423652, 0.2000000000000000111, 0.000000000000000000 ) ) ;
#107 = DIRECTION ( 'NONE',  ( -0.000000000000000000, -1.000000000000000000, -0.000000000000000000 ) ) ;
#108 = CARTESIAN_POINT ( 'NONE',  ( 6.183809701335574616, 0.2000000000000000111, -0.2499999999999999722 ) ) ;
#109 = EDGE_CURVE ( 'NONE', #185, #378, #359, .T. ) ;
#110 =( NAMED_UNIT ( * ) PLANE_ANGLE_UNIT ( ) SI_UNIT ( $, .RADIAN. ) );
#111 = VECTOR ( 'NONE', #115, 100.0000000000000000 ) ;
#112 = DIRECTION ( 'NONE',  ( 0.000000000000000000, 1.000000000000000000, -0.000000000000000000 ) ) ;
#113 = COORDINATED_UNIVERSAL_TIME_OFFSET ( 7, 0, .BEHIND. ) ;
#114 = CARTESIAN_POINT ( 'NONE',  ( -1.116190298664425429, 0.2000000000000000111, -0.2499999999999999722 ) ) ;
#115 = DIRECTION ( 'NONE',  ( -0.000000000000000000, -1.000000000000000000, -0.000000000000000000 ) ) ;
#116 = DIRECTION ( 'NONE',  ( 0.000000000000000000, 0.000000000000000000, -1.000000000000000000 ) ) ;
#117 = AXIS2_PLACEMENT_3D ( 'NONE', #121, #363, #436 ) ;
#118 = EDGE_CURVE ( 'NONE', #265, #451, #430, .T. ) ;
#119 = DIRECTION ( 'NONE',  ( 1.000000000000000000, -0.000000000000000000, 0.000000000000000000 ) ) ;
#120 = ORIENTED_EDGE ( 'NONE', *, *, #523, .T. ) ;
#121 = CARTESIAN_POINT ( 'NONE',  ( -0.8661902986644255398, 0.2000000000000000111, -0.5000000000000000000 ) ) ;
#122 = CARTESIAN_POINT ( 'NONE',  ( -1.366190298664425429, -6.432523497922047490E-18, -0.7499999999999982236 ) ) ;
#123 = APPROVAL ( #332, 'UNSPECIFIED' ) ;
#124 = PERSON_AND_ORGANIZATION_ROLE ( 'creator' ) ;
#125 = DIRECTION ( 'NONE',  ( 0.000000000000000000, 0.000000000000000000, -1.000000000000000000 ) ) ;
#126 = ORIENTED_EDGE ( 'NONE', *, *, #29, .F. ) ;
#127 = ADVANCED_FACE ( 'NONE', ( #104 ), #361, .T. ) ;
#128 = VECTOR ( 'NONE', #232, 100.0000000000000000 ) ;
#129 = ORGANIZATION ( 'UNSPECIFIED', 'UNSPECIFIED', '' ) ;
#130 = DIRECTION ( 'NONE',  ( 0.000000000000000000, 1.000000000000000000, -0.000000000000000000 ) ) ;
#131 = VERTEX_POINT ( 'NONE', #399 ) ;
#132 = CARTESIAN_POINT ( 'NONE',  ( 6.183809701335574616, 0.000000000000000000, -0.2499999999999999722 ) ) ;
#133 = ORIENTED_EDGE ( 'NONE', *, *, #523, .F. ) ;
#134 = EDGE_CURVE ( 'NONE', #265, #201, #516, .T. ) ;
#135 = CARTESIAN_POINT ( 'NONE',  ( 4.750000000000000000, 0.2000000000000000111, -0.2499999999999999722 ) ) ;
#136 = VERTEX_POINT ( 'NONE', #316 ) ;
#137 = CIRCLE ( 'NONE', #176, 0.2499999999999999722 ) ;
#138 = LINE ( 'NONE', #507, #59 ) ;
#139 = ORIENTED_EDGE ( 'NONE', *, *, #157, .T. ) ;
#140 = APPROVAL_PERSON_ORGANIZATION ( #452, #171, #44 ) ;
#141 = ORIENTED_EDGE ( 'NONE', *, *, #403, .F. ) ;
#142 = ORIENTED_EDGE ( 'NONE', *, *, #54, .F. ) ;
#143 = VECTOR ( 'NONE', #158, 100.0000000000000000 ) ;
#144 = ORIENTED_EDGE ( 'NONE', *, *, #343, .F. ) ;
#145 = CIRCLE ( 'NONE', #162, 0.2499999999999999722 ) ;
#146 = LINE ( 'NONE', #52, #476 ) ;
#147 = CARTESIAN_POINT ( 'NONE',  ( -0.8661902986644255398, 0.000000000000000000, -0.5000000000000000000 ) ) ;
#148 = CARTESIAN_POINT ( 'NONE',  ( -1.116190298664423652, 0.2000000000000000111, 6.796163540241560659E-18 ) ) ;
#149 = EDGE_CURVE ( 'NONE', #385, #265, #366, .T. ) ;
#150 = CARTESIAN_POINT ( 'NONE',  ( -0.8661902986644255398, 0.2000000000000000111, -0.7500000000000001110 ) ) ;
#151 = LINE ( 'NONE', #283, #111 ) ;
#152 = ORIENTED_EDGE ( 'NONE', *, *, #226, .F. ) ;
#153 = CARTESIAN_POINT ( 'NONE',  ( -1.366190298664425429, -6.432523497922047490E-18, -0.2500000000000017208 ) ) ;
#154 = EDGE_LOOP ( 'NONE', ( #320, #58, #76, #264 ) ) ;
#155 = EDGE_CURVE ( 'NONE', #345, #136, #401, .T. ) ;
#156 = CARTESIAN_POINT ( 'NONE',  ( 1.683809701335575726, 0.2000000000000000111, 0.000000000000000000 ) ) ;
#157 = EDGE_CURVE ( 'NONE', #173, #497, #21, .T. ) ;
#158 = DIRECTION ( 'NONE',  ( -0.000000000000000000, -1.000000000000000000, -0.000000000000000000 ) ) ;
#159 = VECTOR ( 'NONE', #410, 100.0000000000000000 ) ;
#160 = ORIENTED_EDGE ( 'NONE', *, *, #149, .T. ) ;
#161 = DIRECTION ( 'NONE',  ( 1.000000000000000000, 0.000000000000000000, 0.000000000000000000 ) ) ;
#162 = AXIS2_PLACEMENT_3D ( 'NONE', #355, #469, #183 ) ;
#163 = LINE ( 'NONE', #251, #159 ) ;
#164 = ORIENTED_EDGE ( 'NONE', *, *, #285, .F. ) ;
#165 = DIRECTION ( 'NONE',  ( 0.000000000000000000, 0.000000000000000000, -1.000000000000000000 ) ) ;
#166 = DIRECTION ( 'NONE',  ( 0.000000000000000000, 1.000000000000000000, 0.000000000000000000 ) ) ;
#167 = EDGE_LOOP ( 'NONE', ( #295, #347, #428, #60, #500, #12, #8, #466 ) ) ;
#168 = CIRCLE ( 'NONE', #237, 0.2499999999999999722 ) ;
#169 = DIRECTION ( 'NONE',  ( 0.000000000000000000, 1.000000000000000000, -0.000000000000000000 ) ) ;
#170 = ADVANCED_FACE ( 'NONE', ( #25 ), #188, .F. ) ;
#171 = APPROVAL ( #249, 'UNSPECIFIED' ) ;
#172 = CYLINDRICAL_SURFACE ( 'NONE', #310, 0.2500000000000001110 ) ;
#173 = VERTEX_POINT ( 'NONE', #41 ) ;
#174 = CARTESIAN_POINT ( 'NONE',  ( -1.116190298664425429, 0.000000000000000000, -0.7500000000000001110 ) ) ;
#175 = ORIENTED_EDGE ( 'NONE', *, *, #46, .F. ) ;
#176 = AXIS2_PLACEMENT_3D ( 'NONE', #402, #445, #254 ) ;
#177 = EDGE_LOOP ( 'NONE', ( #218, #388, #141, #513 ) ) ;
#178 = CIRCLE ( 'NONE', #362, 0.2499999999999999722 ) ;
#179 = PRODUCT_RELATED_PRODUCT_CATEGORY ( 'detail', '', ( #427 ) ) ;
#180 = VERTEX_POINT ( 'NONE', #79 ) ;
#181 = ORIENTED_EDGE ( 'NONE', *, *, #244, .F. ) ;
#182 = ADVANCED_FACE ( 'NONE', ( #34 ), #289, .F. ) ;
#183 = DIRECTION ( 'NONE',  ( 0.000000000000000000, 0.000000000000000000, -1.000000000000000000 ) ) ;
#184 = AXIS2_PLACEMENT_3D ( 'NONE', #69, #190, #364 ) ;
#185 = VERTEX_POINT ( 'NONE', #367 ) ;
#186 = CARTESIAN_POINT ( 'NONE',  ( -1.116190298664425429, 0.2000000000000000111, -0.2499999999999999722 ) ) ;
#187 = CC_DESIGN_PERSON_AND_ORGANIZATION_ASSIGNMENT ( #483, #287, ( #427 ) ) ;
#188 = PLANE ( 'NONE',  #72 ) ;
#189 = APPLICATION_PROTOCOL_DEFINITION ( 'international standard', 'config_control_design', 1994, #517 ) ;
#190 = DIRECTION ( 'NONE',  ( 0.000000000000000000, 1.000000000000000000, 0.000000000000000000 ) ) ;
#191 = PERSON_AND_ORGANIZATION ( #233, #129 ) ;
#192 = LINE ( 'NONE', #276, #438 ) ;
#193 = CC_DESIGN_PERSON_AND_ORGANIZATION_ASSIGNMENT ( #245, #124, ( #460 ) ) ;
#194 = DIRECTION ( 'NONE',  ( -0.000000000000000000, -1.000000000000000000, -0.000000000000000000 ) ) ;
#195 = CARTESIAN_POINT ( 'NONE',  ( 6.183809701335572839, 6.750900371936476819E-18, -1.000000000000000000 ) ) ;
#196 = EDGE_CURVE ( 'NONE', #180, #225, #505, .T. ) ;
#197 = CALENDAR_DATE ( 2025, 20, 11 ) ;
#198 = CARTESIAN_POINT ( 'NONE',  ( 1.683809701335575726, 0.2000000000000000111, -1.000000000000000000 ) ) ;
#199 = DIRECTION ( 'NONE',  ( -0.000000000000000000, -1.000000000000000000, -0.000000000000000000 ) ) ;
#200 = DIRECTION ( 'NONE',  ( 0.000000000000000000, 0.000000000000000000, -1.000000000000000000 ) ) ;
#201 = VERTEX_POINT ( 'NONE', #443 ) ;
#202 = DATE_TIME_ROLE ( 'creation_date' ) ;
#203 = EDGE_CURVE ( 'NONE', #385, #497, #448, .T. ) ;
#204 = SECURITY_CLASSIFICATION ( '', '', #296 ) ;
#205 = CARTESIAN_POINT ( 'NONE',  ( 6.433809701335574616, 6.750900371936476819E-18, -0.7499999999999983347 ) ) ;
#206 = PERSON_AND_ORGANIZATION ( #233, #129 ) ;
#207 = CARTESIAN_POINT ( 'NONE',  ( -0.8661902986644255398, 0.000000000000000000, -0.5000000000000000000 ) ) ;
#208 = ORIENTED_EDGE ( 'NONE', *, *, #196, .F. ) ;
#209 = DATE_AND_TIME ( #6, #525 ) ;
#210 = CARTESIAN_POINT ( 'NONE',  ( 6.433809701335574616, 0.000000000000000000, -0.2500000000000017764 ) ) ;
#211 = AXIS2_PLACEMENT_3D ( 'NONE', #45, #488, #200 ) ;
#212 = CIRCLE ( 'NONE', #485, 0.2500000000000001110 ) ;
#213 = FACE_OUTER_BOUND ( 'NONE', #455, .T. ) ;
#214 = ORIENTED_EDGE ( 'NONE', *, *, #90, .T. ) ;
#215 = ADVANCED_FACE ( 'NONE', ( #86 ), #242, .F. ) ;
#216 = PERSON_AND_ORGANIZATION_ROLE ( 'design_supplier' ) ;
#217 = DIRECTION ( 'NONE',  ( 0.000000000000000000, -0.000000000000000000, 1.000000000000000000 ) ) ;
#218 = ORIENTED_EDGE ( 'NONE', *, *, #358, .T. ) ;
#219 = CARTESIAN_POINT ( 'NONE',  ( 6.433809701335574616, 6.750900371936476819E-18, -0.2500000000000017764 ) ) ;
#220 = MANIFOLD_SOLID_BREP ( 'Flex1', #290 ) ;
#221 = EDGE_LOOP ( 'NONE', ( #301, #175, #243, #139 ) ) ;
#222 = ADVANCED_FACE ( 'NONE', ( #246 ), #325, .F. ) ;
#223 = ORIENTED_EDGE ( 'NONE', *, *, #134, .T. ) ;
#224 = ORIENTED_EDGE ( 'NONE', *, *, #380, .F. ) ;
#225 = VERTEX_POINT ( 'NONE', #365 ) ;
#226 = EDGE_CURVE ( 'NONE', #99, #345, #163, .T. ) ;
#227 = DIRECTION ( 'NONE',  ( -0.000000000000000000, -0.000000000000000000, 1.000000000000000000 ) ) ;
#228 = CIRCLE ( 'NONE', #184, 0.2500000000000002220 ) ;
#229 = CARTESIAN_POINT ( 'NONE',  ( 6.183809701335572839, 0.2000000000000000111, -1.000000000000000000 ) ) ;
#230 = APPROVAL_PERSON_ORGANIZATION ( #206, #123, #89 ) ;
#231 = DIRECTION ( 'NONE',  ( -0.000000000000000000, -1.000000000000000000, -0.000000000000000000 ) ) ;
#232 = DIRECTION ( 'NONE',  ( -0.000000000000000000, -1.000000000000000000, -0.000000000000000000 ) ) ;
#233 = PERSON ( 'UNSPECIFIED', 'UNSPECIFIED', 'UNSPECIFIED', ('UNSPECIFIED'), ('UNSPECIFIED'), ('UNSPECIFIED') ) ;
#234 = DATE_AND_TIME ( #197, #87 ) ;
#235 = CARTESIAN_POINT ( 'NONE',  ( 5.933809701335573727, 0.2000000000000000111, -0.2499999999999997780 ) ) ;
#236 = DIRECTION ( 'NONE',  ( 0.000000000000000000, 0.000000000000000000, -1.000000000000000000 ) ) ;
#237 = AXIS2_PLACEMENT_3D ( 'NONE', #186, #169, #263 ) ;
#238 = MECHANICAL_CONTEXT ( 'NONE', #491, 'mechanical' ) ;
#239 = DIRECTION ( 'NONE',  ( 0.000000000000000000, 0.000000000000000000, 1.000000000000000000 ) ) ;
#240 = EDGE_LOOP ( 'NONE', ( #350, #308 ) ) ;
#241 = LINE ( 'NONE', #405, #260 ) ;
#242 = PLANE ( 'NONE',  #13 ) ;
#243 = ORIENTED_EDGE ( 'NONE', *, *, #449, .T. ) ;
#244 = EDGE_CURVE ( 'NONE', #185, #486, #409, .T. ) ;
#245 = PERSON_AND_ORGANIZATION ( #233, #129 ) ;
#246 = FACE_OUTER_BOUND ( 'NONE', #518, .T. ) ;
#247 = VECTOR ( 'NONE', #391, 100.0000000000000000 ) ;
#248 = ORIENTED_EDGE ( 'NONE', *, *, #321, .T. ) ;
#249 = APPROVAL_STATUS ( 'not_yet_approved' ) ;
#250 = VECTOR ( 'NONE', #315, 100.0000000000000000 ) ;
#251 = CARTESIAN_POINT ( 'NONE',  ( 1.683809701335575726, 0.2000000000000000111, -1.000000000000000000 ) ) ;
#252 = ORIENTED_EDGE ( 'NONE', *, *, #155, .F. ) ;
#253 = CALENDAR_DATE ( 2025, 20, 11 ) ;
#254 = DIRECTION ( 'NONE',  ( 0.000000000000000000, 0.000000000000000000, -1.000000000000000000 ) ) ;
#255 = EDGE_LOOP ( 'NONE', ( #181, #83 ) ) ;
#256 = PERSON_AND_ORGANIZATION_ROLE ( 'classification_officer' ) ;
#257 = CARTESIAN_POINT ( 'NONE',  ( 6.183809701335572839, 0.2000000000000000111, -1.000000000000000000 ) ) ;
#258 = EDGE_CURVE ( 'NONE', #378, #521, #302, .T. ) ;
#259 = VERTEX_POINT ( 'NONE', #122 ) ;
#260 = VECTOR ( 'NONE', #37, 100.0000000000000000 ) ;
#261 = CARTESIAN_POINT ( 'NONE',  ( 6.183809701335574616, 0.2000000000000000111, -0.2499999999999999722 ) ) ;
#262 = ORIENTED_EDGE ( 'NONE', *, *, #118, .T. ) ;
#263 = DIRECTION ( 'NONE',  ( 0.000000000000000000, 0.000000000000000000, -1.000000000000000000 ) ) ;
#264 = ORIENTED_EDGE ( 'NONE', *, *, #383, .T. ) ;
#265 = VERTEX_POINT ( 'NONE', #294 ) ;
#266 = CIRCLE ( 'NONE', #292, 0.2500000000000001110 ) ;
#267 = ORIENTED_EDGE ( 'NONE', *, *, #109, .T. ) ;
#268 = CARTESIAN_POINT ( 'NONE',  ( -1.116190298664425429, 0.2000000000000000111, -1.000000000000000000 ) ) ;
#269 = CARTESIAN_POINT ( 'NONE',  ( -0.8661902986644255398, 0.000000000000000000, -0.7500000000000001110 ) ) ;
#270 = CARTESIAN_POINT ( 'NONE',  ( 5.933809701335573727, 0.2000000000000000111, -0.7500000000000002220 ) ) ;
#271 = CARTESIAN_POINT ( 'NONE',  ( 1.683809701335575726, 0.000000000000000000, -1.000000000000000000 ) ) ;
#272 = AXIS2_PLACEMENT_3D ( 'NONE', #147, #479, #471 ) ;
#273 = VERTEX_POINT ( 'NONE', #288 ) ;
#274 = APPROVAL_PERSON_ORGANIZATION ( #357, #97, #28 ) ;
#275 = FACE_OUTER_BOUND ( 'NONE', #286, .T. ) ;
#276 = CARTESIAN_POINT ( 'NONE',  ( 6.433809701335574616, 0.2000000000000000111, -0.7499999999999983347 ) ) ;
#277 = CALENDAR_DATE ( 2025, 20, 11 ) ;
#278 = DIRECTION ( 'NONE',  ( 0.000000000000000000, 0.000000000000000000, 1.000000000000000000 ) ) ;
#279 = DIRECTION ( 'NONE',  ( 0.000000000000000000, 0.000000000000000000, -1.000000000000000000 ) ) ;
#280 = VECTOR ( 'NONE', #395, 100.0000000000000000 ) ;
#281 = FACE_OUTER_BOUND ( 'NONE', #407, .T. ) ;
#282 = VECTOR ( 'NONE', #231, 100.0000000000000000 ) ;
#283 = CARTESIAN_POINT ( 'NONE',  ( -0.8661902986644255398, 0.2000000000000000111, -0.2499999999999998890 ) ) ;
#284 = DIRECTION ( 'NONE',  ( 0.000000000000000000, 0.000000000000000000, 1.000000000000000000 ) ) ;
#285 = EDGE_CURVE ( 'NONE', #345, #273, #137, .T. ) ;
#286 = EDGE_LOOP ( 'NONE', ( #459, #80, #314, #262 ) ) ;
#287 = PERSON_AND_ORGANIZATION_ROLE ( 'design_owner' ) ;
#288 = CARTESIAN_POINT ( 'NONE',  ( -1.366190298664425429, 0.2000000000000000111, -0.7499999999999982236 ) ) ;
#289 = PLANE ( 'NONE',  #375 ) ;
#290 = CLOSED_SHELL ( 'NONE', ( #389, #222, #317, #470, #326, #446, #182, #215, #458, #481, #36, #465, #170, #127 ) ) ;
#291 = VERTEX_POINT ( 'NONE', #205 ) ;
#292 = AXIS2_PLACEMENT_3D ( 'NONE', #450, #130, #116 ) ;
#293 = CC_DESIGN_DATE_AND_TIME_ASSIGNMENT ( #9, #202, ( #77 ) ) ;
#294 = CARTESIAN_POINT ( 'NONE',  ( 6.433809701335574616, 0.2000000000000000111, -0.2500000000000017764 ) ) ;
#295 = ORIENTED_EDGE ( 'NONE', *, *, #297, .F. ) ;
#296 = SECURITY_CLASSIFICATION_LEVEL ( 'unclassified' ) ;
#297 = EDGE_CURVE ( 'NONE', #497, #451, #474, .T. ) ;
#298 = LINE ( 'NONE', #7, #467 ) ;
#299 = ORIENTED_EDGE ( 'NONE', *, *, #226, .T. ) ;
#300 = CARTESIAN_POINT ( 'NONE',  ( -1.116190298664423652, 0.2000000000000000111, 0.000000000000000000 ) ) ;
#301 = ORIENTED_EDGE ( 'NONE', *, *, #203, .F. ) ;
#302 = CIRCLE ( 'NONE', #84, 0.2500000000000001110 ) ;
#303 = CC_DESIGN_APPROVAL ( #123, ( #460 ) ) ;
#304 = DIRECTION ( 'NONE',  ( 0.000000000000000000, 0.000000000000000000, 1.000000000000000000 ) ) ;
#305 = ORIENTED_EDGE ( 'NONE', *, *, #431, .T. ) ;
#306 = EDGE_CURVE ( 'NONE', #131, #506, #492, .T. ) ;
#307 = EDGE_LOOP ( 'NONE', ( #464, #120, #348, #373 ) ) ;
#308 = ORIENTED_EDGE ( 'NONE', *, *, #196, .T. ) ;
#309 = VECTOR ( 'NONE', #508, 100.0000000000000000 ) ;
#310 = AXIS2_PLACEMENT_3D ( 'NONE', #261, #199, #279 ) ;
#311 = LINE ( 'NONE', #106, #247 ) ;
#312 = PLANE ( 'NONE',  #376 ) ;
#313 = EDGE_CURVE ( 'NONE', #451, #291, #1, .T. ) ;
#314 = ORIENTED_EDGE ( 'NONE', *, *, #134, .F. ) ;
#315 = DIRECTION ( 'NONE',  ( -1.000000000000000000, -0.000000000000000000, -0.000000000000000000 ) ) ;
#316 = CARTESIAN_POINT ( 'NONE',  ( -1.116190298664425429, -6.432523497922047490E-18, -1.000000000000000000 ) ) ;
#317 = ADVANCED_FACE ( 'NONE', ( #374 ), #416, .F. ) ;
#318 = PRODUCT_DEFINITION_SHAPE ( 'NONE', 'NONE',  #77 ) ;
#319 = AXIS2_PLACEMENT_3D ( 'NONE', #335, #82, #239 ) ;
#320 = ORIENTED_EDGE ( 'NONE', *, *, #349, .T. ) ;
#321 = EDGE_CURVE ( 'NONE', #291, #43, #266, .T. ) ;
#322 = CARTESIAN_POINT ( 'NONE',  ( 6.183809701335572839, 6.750900371936476819E-18, -7.132538728599895709E-18 ) ) ;
#323 = ORIENTED_EDGE ( 'NONE', *, *, #396, .T. ) ;
#324 = CARTESIAN_POINT ( 'NONE',  ( 0.000000000000000000, 0.000000000000000000, 0.000000000000000000 ) ) ;
#325 = CYLINDRICAL_SURFACE ( 'NONE', #211, 0.2500000000000002220 ) ;
#326 = ADVANCED_FACE ( 'NONE', ( #281, #440, #19 ), #312, .T. ) ;
#327 = DIRECTION ( 'NONE',  ( 0.000000000000000000, 1.000000000000000000, 0.000000000000000000 ) ) ;
#328 = AXIS2_PLACEMENT_3D ( 'NONE', #324, #26, #161 ) ;
#329 = EDGE_CURVE ( 'NONE', #100, #93, #493, .T. ) ;
#330 = DIRECTION ( 'NONE',  ( 0.000000000000000000, 0.000000000000000000, 1.000000000000000000 ) ) ;
#331 = ORIENTED_EDGE ( 'NONE', *, *, #431, .F. ) ;
#332 = APPROVAL_STATUS ( 'not_yet_approved' ) ;
#333 = CARTESIAN_POINT ( 'NONE',  ( 5.933809701335573727, 0.2000000000000000111, -0.5000000000000000000 ) ) ;
#334 = DATE_TIME_ROLE ( 'classification_date' ) ;
#335 = CARTESIAN_POINT ( 'NONE',  ( 6.183809701335574616, 0.000000000000000000, -0.2499999999999999722 ) ) ;
#336 = CALENDAR_DATE ( 2025, 20, 11 ) ;
#337 = AXIS2_PLACEMENT_3D ( 'NONE', #393, #107, #98 ) ;
#338 = FACE_OUTER_BOUND ( 'NONE', #167, .T. ) ;
#339 = SHAPE_DEFINITION_REPRESENTATION ( #318, #515 ) ;
#340 = LINE ( 'NONE', #257, #74 ) ;
#341 = ORIENTED_EDGE ( 'NONE', *, *, #297, .T. ) ;
#342 = COORDINATED_UNIVERSAL_TIME_OFFSET ( 7, 0, .BEHIND. ) ;
#343 = EDGE_CURVE ( 'NONE', #93, #225, #138, .T. ) ;
#344 = DIRECTION ( 'NONE',  ( 0.000000000000000000, 0.000000000000000000, 1.000000000000000000 ) ) ;
#345 = VERTEX_POINT ( 'NONE', #496 ) ;
#346 = AXIS2_PLACEMENT_3D ( 'NONE', #108, #62, #278 ) ;
#347 = ORIENTED_EDGE ( 'NONE', *, *, #157, .F. ) ;
#348 = ORIENTED_EDGE ( 'NONE', *, *, #258, .F. ) ;
#349 = EDGE_CURVE ( 'NONE', #259, #506, #146, .T. ) ;
#350 = ORIENTED_EDGE ( 'NONE', *, *, #29, .T. ) ;
#351 = AXIS2_PLACEMENT_3D ( 'NONE', #71, #112, #67 ) ;
#352 = CARTESIAN_POINT ( 'NONE',  ( 5.933809701335573727, 0.2000000000000000111, -0.5000000000000000000 ) ) ;
#353 = AXIS2_PLACEMENT_3D ( 'NONE', #81, #194, #475 ) ;
#354 = CARTESIAN_POINT ( 'NONE',  ( -1.116190298664423652, 0.000000000000000000, 0.000000000000000000 ) ) ;
#355 = CARTESIAN_POINT ( 'NONE',  ( -1.116190298664425429, 0.000000000000000000, -0.2499999999999999722 ) ) ;
#356 = ORIENTED_EDGE ( 'NONE', *, *, #22, .F. ) ;
#357 = PERSON_AND_ORGANIZATION ( #233, #129 ) ;
#358 = EDGE_CURVE ( 'NONE', #506, #173, #145, .T. ) ;
#359 = LINE ( 'NONE', #150, #128 ) ;
#360 = CYLINDRICAL_SURFACE ( 'NONE', #117, 0.2500000000000001110 ) ;
#361 = CYLINDRICAL_SURFACE ( 'NONE', #48, 0.2499999999999999722 ) ;
#362 = AXIS2_PLACEMENT_3D ( 'NONE', #174, #418, #509 ) ;
#363 = DIRECTION ( 'NONE',  ( -0.000000000000000000, -1.000000000000000000, -0.000000000000000000 ) ) ;
#364 = DIRECTION ( 'NONE',  ( 0.000000000000000000, 0.000000000000000000, 1.000000000000000000 ) ) ;
#365 = CARTESIAN_POINT ( 'NONE',  ( 5.933809701335573727, 0.000000000000000000, -0.7500000000000002220 ) ) ;
#366 = CIRCLE ( 'NONE', #346, 0.2500000000000001110 ) ;
#367 = CARTESIAN_POINT ( 'NONE',  ( -0.8661902986644255398, 0.2000000000000000111, -0.7500000000000001110 ) ) ;
#368 = VECTOR ( 'NONE', #92, 100.0000000000000000 ) ;
#369 = DATE_AND_TIME ( #336, #411 ) ;
#370 = DIRECTION ( 'NONE',  ( -0.000000000000000000, -1.000000000000000000, -0.000000000000000000 ) ) ;
#371 = DIRECTION ( 'NONE',  ( 1.000000000000000000, 0.000000000000000000, -0.000000000000000000 ) ) ;
#372 = EDGE_CURVE ( 'NONE', #99, #43, #340, .T. ) ;
#373 = ORIENTED_EDGE ( 'NONE', *, *, #109, .F. ) ;
#374 = FACE_OUTER_BOUND ( 'NONE', #462, .T. ) ;
#375 = AXIS2_PLACEMENT_3D ( 'NONE', #198, #284, #371 ) ;
#376 = AXIS2_PLACEMENT_3D ( 'NONE', #135, #23, #217 ) ;
#377 = CYLINDRICAL_SURFACE ( 'NONE', #337, 0.2500000000000001110 ) ;
#378 = VERTEX_POINT ( 'NONE', #269 ) ;
#379 = APPROVAL_DATE_TIME ( #369, #171 ) ;
#380 = EDGE_CURVE ( 'NONE', #93, #100, #514, .T. ) ;
#381 = CARTESIAN_POINT ( 'NONE',  ( -0.8661902986644255398, 0.2000000000000000111, -0.5000000000000000000 ) ) ;
#382 = ORIENTED_EDGE ( 'NONE', *, *, #46, .T. ) ;
#383 = EDGE_CURVE ( 'NONE', #273, #259, #298, .T. ) ;
#384 = FACE_OUTER_BOUND ( 'NONE', #307, .T. ) ;
#385 = VERTEX_POINT ( 'NONE', #461 ) ;
#386 = AXIS2_PLACEMENT_3D ( 'NONE', #480, #78, #434 ) ;
#387 = CC_DESIGN_APPROVAL ( #171, ( #204 ) ) ;
#388 = ORIENTED_EDGE ( 'NONE', *, *, #449, .F. ) ;
#389 = ADVANCED_FACE ( 'NONE', ( #384 ), #377, .F. ) ;
#390 = ORIENTED_EDGE ( 'NONE', *, *, #329, .T. ) ;
#391 = DIRECTION ( 'NONE',  ( 1.000000000000000000, 0.000000000000000000, 0.000000000000000000 ) ) ;
#392 = AXIS2_PLACEMENT_3D ( 'NONE', #524, #38, #42 ) ;
#393 = CARTESIAN_POINT ( 'NONE',  ( -0.8661902986644255398, 0.2000000000000000111, -0.5000000000000000000 ) ) ;
#394 = LOCAL_TIME ( 9, 13, 59.00000000000000000, #113 ) ;
#395 = DIRECTION ( 'NONE',  ( -0.000000000000000000, -1.000000000000000000, -0.000000000000000000 ) ) ;
#396 = EDGE_CURVE ( 'NONE', #486, #185, #212, .T. ) ;
#397 = CARTESIAN_POINT ( 'NONE',  ( 6.183809701335574616, 0.2000000000000000111, -0.7500000000000001110 ) ) ;
#398 = APPROVAL_DATE_TIME ( #234, #97 ) ;
#399 = CARTESIAN_POINT ( 'NONE',  ( -1.366190298664425429, 0.2000000000000000111, -0.2500000000000017208 ) ) ;
#400 = PLANE ( 'NONE',  #386 ) ;
#401 = LINE ( 'NONE', #268, #522 ) ;
#402 = CARTESIAN_POINT ( 'NONE',  ( -1.116190298664425429, 0.2000000000000000111, -0.7500000000000001110 ) ) ;
#403 = EDGE_CURVE ( 'NONE', #131, #424, #168, .T. ) ;
#404 = EDGE_LOOP ( 'NONE', ( #224, #414 ) ) ;
#405 = CARTESIAN_POINT ( 'NONE',  ( -1.366190298664425429, 0.2000000000000000111, -0.2500000000000017764 ) ) ;
#406 = DIRECTION ( 'NONE',  ( 0.000000000000000000, 0.000000000000000000, -1.000000000000000000 ) ) ;
#407 = EDGE_LOOP ( 'NONE', ( #382, #160, #223, #502, #299, #504, #53, #47 ) ) ;
#408 = PERSON_AND_ORGANIZATION ( #233, #129 ) ;
#409 = CIRCLE ( 'NONE', #457, 0.2500000000000001110 ) ;
#410 = DIRECTION ( 'NONE',  ( -1.000000000000000000, -0.000000000000000000, -0.000000000000000000 ) ) ;
#411 = LOCAL_TIME ( 9, 13, 59.00000000000000000, #94 ) ;
#412 = EDGE_CURVE ( 'NONE', #136, #259, #178, .T. ) ;
#413 = DIRECTION ( 'NONE',  ( 0.000000000000000000, 0.000000000000000000, 1.000000000000000000 ) ) ;
#414 = ORIENTED_EDGE ( 'NONE', *, *, #329, .F. ) ;
#415 = DATE_AND_TIME ( #253, #66 ) ;
#416 = CYLINDRICAL_SURFACE ( 'NONE', #103, 0.2500000000000002220 ) ;
#417 = APPROVAL_DATE_TIME ( #209, #123 ) ;
#418 = DIRECTION ( 'NONE',  ( 0.000000000000000000, 1.000000000000000000, -0.000000000000000000 ) ) ;
#419 = EDGE_LOOP ( 'NONE', ( #133, #323, #267, #356 ) ) ;
#420 = DIRECTION ( 'NONE',  ( -0.000000000000000000, -1.000000000000000000, -0.000000000000000000 ) ) ;
#421 = ORIENTED_EDGE ( 'NONE', *, *, #372, .F. ) ;
#422 = DIRECTION ( 'NONE',  ( 0.000000000000000000, -0.000000000000000000, 1.000000000000000000 ) ) ;
#423 = ORIENTED_EDGE ( 'NONE', *, *, #22, .T. ) ;
#424 = VERTEX_POINT ( 'NONE', #148 ) ;
#425 = EDGE_CURVE ( 'NONE', #43, #136, #5, .T. ) ;
#426 = ORIENTED_EDGE ( 'NONE', *, *, #383, .F. ) ;
#427 = PRODUCT ( 'Link L_Default_sldprt', 'Link L_Default_sldprt', '', ( #238 ) ) ;
#428 = ORIENTED_EDGE ( 'NONE', *, *, #358, .F. ) ;
#429 = CARTESIAN_POINT ( 'NONE',  ( 5.933809701335573727, 0.2000000000000000111, -0.5000000000000000000 ) ) ;
#430 = LINE ( 'NONE', #435, #280 ) ;
#431 = EDGE_CURVE ( 'NONE', #100, #180, #432, .T. ) ;
#432 = LINE ( 'NONE', #49, #282 ) ;
#433 = DIRECTION ( 'NONE',  ( 0.000000000000000000, 0.000000000000000000, -1.000000000000000000 ) ) ;
#434 = DIRECTION ( 'NONE',  ( 0.000000000000000000, 0.000000000000000000, 1.000000000000000000 ) ) ;
#435 = CARTESIAN_POINT ( 'NONE',  ( 6.433809701335574616, 0.2000000000000000111, -0.2500000000000017764 ) ) ;
#436 = DIRECTION ( 'NONE',  ( 0.000000000000000000, 0.000000000000000000, -1.000000000000000000 ) ) ;
#437 = DIRECTION ( 'NONE',  ( -0.000000000000000000, -1.000000000000000000, -0.000000000000000000 ) ) ;
#438 = VECTOR ( 'NONE', #468, 100.0000000000000000 ) ;
#439 = CARTESIAN_POINT ( 'NONE',  ( -0.8661902986644255398, 0.000000000000000000, -0.2499999999999998890 ) ) ;
#440 = FACE_BOUND ( 'NONE', #404, .T. ) ;
#441 = AXIS2_PLACEMENT_3D ( 'NONE', #352, #63, #304 ) ;
#442 = FACE_OUTER_BOUND ( 'NONE', #419, .T. ) ;
#443 = CARTESIAN_POINT ( 'NONE',  ( 6.433809701335574616, 0.2000000000000000111, -0.7499999999999983347 ) ) ;
#444 = CARTESIAN_POINT ( 'NONE',  ( -0.8661902986644255398, 0.2000000000000000111, -0.2499999999999998890 ) ) ;
#445 = DIRECTION ( 'NONE',  ( 0.000000000000000000, 1.000000000000000000, -0.000000000000000000 ) ) ;
#446 = ADVANCED_FACE ( 'NONE', ( #95, #338, #494 ), #456, .F. ) ;
#447 = VECTOR ( 'NONE', #236, 100.0000000000000000 ) ;
#448 = LINE ( 'NONE', #520, #143 ) ;
#449 = EDGE_CURVE ( 'NONE', #424, #173, #55, .T. ) ;
#450 = CARTESIAN_POINT ( 'NONE',  ( 6.183809701335574616, 0.000000000000000000, -0.7500000000000001110 ) ) ;
#451 = VERTEX_POINT ( 'NONE', #219 ) ;
#452 = PERSON_AND_ORGANIZATION ( #233, #129 ) ;
#453 = DIRECTION ( 'NONE',  ( 0.000000000000000000, 1.000000000000000000, 0.000000000000000000 ) ) ;
#454 = CC_DESIGN_PERSON_AND_ORGANIZATION_ASSIGNMENT ( #408, #216, ( #460 ) ) ;
#455 = EDGE_LOOP ( 'NONE', ( #341, #14, #3, #56 ) ) ;
#456 = PLANE ( 'NONE',  #15 ) ;
#457 = AXIS2_PLACEMENT_3D ( 'NONE', #2, #327, #413 ) ;
#458 = ADVANCED_FACE ( 'NONE', ( #213 ), #172, .T. ) ;
#459 = ORIENTED_EDGE ( 'NONE', *, *, #313, .T. ) ;
#460 = PRODUCT_DEFINITION_FORMATION_WITH_SPECIFIED_SOURCE ( 'ANY', '', #427, .NOT_KNOWN. ) ;
#461 = CARTESIAN_POINT ( 'NONE',  ( 6.183809701335572839, 0.2000000000000000111, -7.132538728599895709E-18 ) ) ;
#462 = EDGE_LOOP ( 'NONE', ( #331, #390, #96, #208 ) ) ;
#463 = CC_DESIGN_PERSON_AND_ORGANIZATION_ASSIGNMENT ( #4, #256, ( #204 ) ) ;
#464 = ORIENTED_EDGE ( 'NONE', *, *, #244, .T. ) ;
#465 = ADVANCED_FACE ( 'NONE', ( #487 ), #31, .T. ) ;
#466 = ORIENTED_EDGE ( 'NONE', *, *, #313, .F. ) ;
#467 = VECTOR ( 'NONE', #420, 100.0000000000000000 ) ;
#468 = DIRECTION ( 'NONE',  ( -0.000000000000000000, -1.000000000000000000, -0.000000000000000000 ) ) ;
#469 = DIRECTION ( 'NONE',  ( 0.000000000000000000, 1.000000000000000000, -0.000000000000000000 ) ) ;
#470 = ADVANCED_FACE ( 'NONE', ( #442 ), #360, .F. ) ;
#471 = DIRECTION ( 'NONE',  ( 0.000000000000000000, 0.000000000000000000, 1.000000000000000000 ) ) ;
#472 = DIRECTION ( 'NONE',  ( 0.000000000000000000, 1.000000000000000000, 0.000000000000000000 ) ) ;
#473 = FACE_OUTER_BOUND ( 'NONE', #18, .T. ) ;
#474 = CIRCLE ( 'NONE', #319, 0.2500000000000001110 ) ;
#475 = DIRECTION ( 'NONE',  ( 0.000000000000000000, 0.000000000000000000, -1.000000000000000000 ) ) ;
#476 = VECTOR ( 'NONE', #227, 100.0000000000000000 ) ;
#477 = DIRECTION ( 'NONE',  ( -0.000000000000000000, -1.000000000000000000, -0.000000000000000000 ) ) ;
#478 = PERSON_AND_ORGANIZATION_ROLE ( 'creator' ) ;
#479 = DIRECTION ( 'NONE',  ( 0.000000000000000000, 1.000000000000000000, 0.000000000000000000 ) ) ;
#480 = CARTESIAN_POINT ( 'NONE',  ( 6.433809701335574616, 0.2000000000000000111, -0.2500000000000017764 ) ) ;
#481 = ADVANCED_FACE ( 'NONE', ( #275 ), #400, .F. ) ;
#482 = DIRECTION ( 'NONE',  ( -0.000000000000000000, -1.000000000000000000, -0.000000000000000000 ) ) ;
#483 = PERSON_AND_ORGANIZATION ( #233, #129 ) ;
#484 = CARTESIAN_POINT ( 'NONE',  ( -1.366190298664425429, 0.2000000000000000111, -0.2500000000000017208 ) ) ;
#485 = AXIS2_PLACEMENT_3D ( 'NONE', #381, #65, #11 ) ;
#486 = VERTEX_POINT ( 'NONE', #444 ) ;
#487 = FACE_OUTER_BOUND ( 'NONE', #88, .T. ) ;
#488 = DIRECTION ( 'NONE',  ( -0.000000000000000000, -1.000000000000000000, -0.000000000000000000 ) ) ;
#489 = ORIENTED_EDGE ( 'NONE', *, *, #258, .T. ) ;
#490 = DIRECTION ( 'NONE',  ( -1.000000000000000000, 0.000000000000000000, -0.000000000000000000 ) ) ;
#491 = APPLICATION_CONTEXT ( 'configuration controlled 3d designs of mechanical parts and assemblies' ) ;
#492 = LINE ( 'NONE', #484, #10 ) ;
#493 = CIRCLE ( 'NONE', #32, 0.2500000000000002220 ) ;
#494 = FACE_BOUND ( 'NONE', #50, .T. ) ;
#495 = ORIENTED_EDGE ( 'NONE', *, *, #372, .T. ) ;
#496 = CARTESIAN_POINT ( 'NONE',  ( -1.116190298664425429, 0.2000000000000000111, -1.000000000000000000 ) ) ;
#497 = VERTEX_POINT ( 'NONE', #322 ) ;
#498 = UNCERTAINTY_MEASURE_WITH_UNIT (LENGTH_MEASURE( 1.000000000000000082E-05 ), #70, 'distance_accuracy_value', 'NONE');
#499 = DIRECTION ( 'NONE',  ( -0.000000000000000000, -1.000000000000000000, -0.000000000000000000 ) ) ;
#500 = ORIENTED_EDGE ( 'NONE', *, *, #412, .F. ) ;
#501 = CC_DESIGN_APPROVAL ( #97, ( #77 ) ) ;
#502 = ORIENTED_EDGE ( 'NONE', *, *, #54, .T. ) ;
#503 = EDGE_CURVE ( 'NONE', #273, #131, #241, .T. ) ;
#504 = ORIENTED_EDGE ( 'NONE', *, *, #285, .T. ) ;
#505 = CIRCLE ( 'NONE', #392, 0.2500000000000002220 ) ;
#506 = VERTEX_POINT ( 'NONE', #153 ) ;
#507 = CARTESIAN_POINT ( 'NONE',  ( 5.933809701335573727, 0.2000000000000000111, -0.7500000000000002220 ) ) ;
#508 = DIRECTION ( 'NONE',  ( 1.000000000000000000, 0.000000000000000000, 0.000000000000000000 ) ) ;
#509 = DIRECTION ( 'NONE',  ( 0.000000000000000000, 0.000000000000000000, -1.000000000000000000 ) ) ;
#510 = CYLINDRICAL_SURFACE ( 'NONE', #20, 0.2500000000000001110 ) ;
#511 = VECTOR ( 'NONE', #165, 100.0000000000000000 ) ;
#512 = APPROVAL_STATUS ( 'not_yet_approved' ) ;
#513 = ORIENTED_EDGE ( 'NONE', *, *, #306, .T. ) ;
#514 = CIRCLE ( 'NONE', #441, 0.2500000000000002220 ) ;
#515 = ADVANCED_BREP_SHAPE_REPRESENTATION ( 'Link L_Default_sldprt', ( #220, #328 ), #24 ) ;
#516 = LINE ( 'NONE', #30, #447 ) ;
#517 = APPLICATION_CONTEXT ( 'configuration controlled 3d designs of mechanical parts and assemblies' ) ;
#518 = EDGE_LOOP ( 'NONE', ( #35, #305, #126, #144 ) ) ;
#519 =( NAMED_UNIT ( * ) SI_UNIT ( $, .STERADIAN. ) SOLID_ANGLE_UNIT ( ) );
#520 = CARTESIAN_POINT ( 'NONE',  ( 6.183809701335572839, 0.2000000000000000111, 0.000000000000000000 ) ) ;
#521 = VERTEX_POINT ( 'NONE', #439 ) ;
#522 = VECTOR ( 'NONE', #33, 100.0000000000000000 ) ;
#523 = EDGE_CURVE ( 'NONE', #486, #521, #151, .T. ) ;
#524 = CARTESIAN_POINT ( 'NONE',  ( 5.933809701335573727, 0.000000000000000000, -0.5000000000000000000 ) ) ;
#525 = LOCAL_TIME ( 9, 13, 59.00000000000000000, #51 ) ;
ENDSEC;
END-ISO-10303-21;
