ISO-10303-21;
HEADER;
FILE_DESCRIPTION (( 'STEP AP203' ),
    '1' );
FILE_NAME ('Link K_Default_sldprt.STEP',
    '2025-11-20T16:13:56',
    ( '' ),
    ( '' ),
    'SwSTEP 2.0',
    'SolidWorks 2025',
    '' );
FILE_SCHEMA (( 'CONFIG_CONTROL_DESIGN' ));
ENDSEC;

DATA;
#1 = PERSON_AND_ORGANIZATION_ROLE ( 'classification_officer' ) ;
#2 = FACE_BOUND ( 'NONE', #489, .T. ) ;
#3 = CYLINDRICAL_SURFACE ( 'NONE', #108, 0.2499999999999999722 ) ;
#4 = EDGE_CURVE ( 'NONE', #333, #50, #390, .T. ) ;
#5 = CARTESIAN_POINT ( 'NONE',  ( 33.63706143071220112, 0.2000000000000001221, -0.5000000000000002220 ) ) ;
#6 = CC_DESIGN_DATE_AND_TIME_ASSIGNMENT ( #405, #192, ( #75 ) ) ;
#7 = ORIENTED_EDGE ( 'NONE', *, *, #305, .T. ) ;
#8 = EDGE_LOOP ( 'NONE', ( #92, #285, #491, #43 ) ) ;
#9 = CARTESIAN_POINT ( 'NONE',  ( 33.88706143071220112, 1.371879397011376478E-16, -1.000000000000000222 ) ) ;
#10 = ORIENTED_EDGE ( 'NONE', *, *, #474, .T. ) ;
#11 = EDGE_LOOP ( 'NONE', ( #7, #326, #294, #380 ) ) ;
#12 = DIRECTION ( 'NONE',  ( 0.000000000000000000, -0.000000000000000000, 1.000000000000000000 ) ) ;
#13 = ORIENTED_EDGE ( 'NONE', *, *, #194, .F. ) ;
#14 = ORIENTED_EDGE ( 'NONE', *, *, #57, .F. ) ;
#15 = DIRECTION ( 'NONE',  ( 0.000000000000000000, 0.000000000000000000, -1.000000000000000000 ) ) ;
#16 = AXIS2_PLACEMENT_3D ( 'NONE', #39, #71, #41 ) ;
#17 = VERTEX_POINT ( 'NONE', #176 ) ;
#18 = ORIENTED_EDGE ( 'NONE', *, *, #430, .T. ) ;
#19 = CARTESIAN_POINT ( 'NONE',  ( 33.88706143071220112, 0.2000000000000001221, -1.449433763061906885E-16 ) ) ;
#20 = ORIENTED_EDGE ( 'NONE', *, *, #109, .F. ) ;
#21 = CYLINDRICAL_SURFACE ( 'NONE', #102, 0.2500000000000001110 ) ;
#22 = FACE_OUTER_BOUND ( 'NONE', #8, .T. ) ;
#23 = DIRECTION ( 'NONE',  ( -0.000000000000000000, -0.000000000000000000, 1.000000000000000000 ) ) ;
#24 = ADVANCED_FACE ( 'NONE', ( #22 ), #96, .F. ) ;
#25 = VECTOR ( 'NONE', #155, 100.0000000000000000 ) ;
#26 = DIRECTION ( 'NONE',  ( 0.000000000000000000, 0.000000000000000000, 1.000000000000000000 ) ) ;
#27 = EDGE_CURVE ( 'NONE', #301, #341, #233, .T. ) ;
#28 = DIRECTION ( 'NONE',  ( -0.000000000000000000, -1.000000000000000000, -0.000000000000000000 ) ) ;
#29 = APPLICATION_PROTOCOL_DEFINITION ( 'international standard', 'config_control_design', 1994, #412 ) ;
#30 = DIRECTION ( 'NONE',  ( -0.000000000000000000, -1.000000000000000000, -0.000000000000000000 ) ) ;
#31 = APPROVAL ( #360, 'UNSPECIFIED' ) ;
#32 = DIRECTION ( 'NONE',  ( 0.000000000000000000, 1.000000000000000000, 0.000000000000000000 ) ) ;
#33 = EDGE_CURVE ( 'NONE', #341, #329, #404, .T. ) ;
#34 = DIRECTION ( 'NONE',  ( -0.000000000000000000, -1.000000000000000000, -0.000000000000000000 ) ) ;
#35 = CARTESIAN_POINT ( 'NONE',  ( 33.88706143071220112, 0.2000000000000001221, -0.2500000000000001110 ) ) ;
#36 = CIRCLE ( 'NONE', #356, 0.2499999999999999722 ) ;
#37 = PRODUCT_DEFINITION_FORMATION_WITH_SPECIFIED_SOURCE ( 'ANY', '', #221, .NOT_KNOWN. ) ;
#38 = SECURITY_CLASSIFICATION_LEVEL ( 'unclassified' ) ;
#39 = CARTESIAN_POINT ( 'NONE',  ( 33.88706143071220112, 1.301042606982605321E-16, -0.2500000000000001110 ) ) ;
#40 = APPROVAL_ROLE ( '' ) ;
#41 = DIRECTION ( 'NONE',  ( 0.000000000000000000, -0.000000000000000000, 1.000000000000000000 ) ) ;
#42 = EDGE_CURVE ( 'NONE', #50, #163, #110, .T. ) ;
#43 = ORIENTED_EDGE ( 'NONE', *, *, #42, .T. ) ;
#44 = DIRECTION ( 'NONE',  ( -0.000000000000000000, -1.000000000000000000, -0.000000000000000000 ) ) ;
#45 = VECTOR ( 'NONE', #498, 100.0000000000000000 ) ;
#46 = ORIENTED_EDGE ( 'NONE', *, *, #500, .T. ) ;
#47 = FACE_OUTER_BOUND ( 'NONE', #501, .T. ) ;
#48 = EDGE_CURVE ( 'NONE', #258, #493, #271, .T. ) ;
#49 = EDGE_CURVE ( 'NONE', #408, #371, #290, .T. ) ;
#50 = VERTEX_POINT ( 'NONE', #151 ) ;
#51 = DIRECTION ( 'NONE',  ( -0.000000000000000000, -1.000000000000000000, -0.000000000000000000 ) ) ;
#52 = VERTEX_POINT ( 'NONE', #485 ) ;
#53 = DIRECTION ( 'NONE',  ( -0.000000000000000000, -0.000000000000000000, 1.000000000000000000 ) ) ;
#54 = AXIS2_PLACEMENT_3D ( 'NONE', #177, #148, #342 ) ;
#55 = ORIENTED_EDGE ( 'NONE', *, *, #305, .F. ) ;
#56 = ORIENTED_EDGE ( 'NONE', *, *, #243, .T. ) ;
#57 = EDGE_CURVE ( 'NONE', #376, #411, #145, .T. ) ;
#58 = LINE ( 'NONE', #82, #524 ) ;
#59 = DIRECTION ( 'NONE',  ( 0.000000000000000000, 1.000000000000000000, 0.000000000000000000 ) ) ;
#60 = VERTEX_POINT ( 'NONE', #278 ) ;
#61 = DIRECTION ( 'NONE',  ( 0.000000000000000000, 0.000000000000000000, -1.000000000000000000 ) ) ;
#62 = PLANE ( 'NONE',  #189 ) ;
#63 = VECTOR ( 'NONE', #120, 100.0000000000000000 ) ;
#64 = CARTESIAN_POINT ( 'NONE',  ( -27.26293856928778681, 0.1999999999999998723, -0.7500000000000000000 ) ) ;
#65 = FACE_OUTER_BOUND ( 'NONE', #335, .T. ) ;
#66 = LINE ( 'NONE', #306, #197 ) ;
#67 = APPROVAL_DATE_TIME ( #316, #31 ) ;
#68 = CIRCLE ( 'NONE', #118, 0.2500000000000001110 ) ;
#69 = CYLINDRICAL_SURFACE ( 'NONE', #187, 0.2500000000000002220 ) ;
#70 = PERSON_AND_ORGANIZATION_ROLE ( 'design_supplier' ) ;
#71 = DIRECTION ( 'NONE',  ( 0.000000000000000000, 1.000000000000000000, 0.000000000000000000 ) ) ;
#72 = PERSON_AND_ORGANIZATION ( #448, #313 ) ;
#73 = CARTESIAN_POINT ( 'NONE',  ( -27.76293856928778681, 0.1999999999999998723, -0.2500000000000015543 ) ) ;
#74 = AXIS2_PLACEMENT_3D ( 'NONE', #94, #413, #125 ) ;
#75 = SECURITY_CLASSIFICATION ( '', '', #38 ) ;
#76 = EDGE_CURVE ( 'NONE', #173, #80, #443, .T. ) ;
#77 = CARTESIAN_POINT ( 'NONE',  ( 33.88706143071220112, 0.2000000000000001221, -1.734723475976807094E-16 ) ) ;
#78 = VERTEX_POINT ( 'NONE', #73 ) ;
#79 = DIRECTION ( 'NONE',  ( -0.000000000000000000, -1.000000000000000000, -0.000000000000000000 ) ) ;
#80 = VERTEX_POINT ( 'NONE', #523 ) ;
#81 = ADVANCED_BREP_SHAPE_REPRESENTATION ( 'Link K_Default_sldprt', ( #397, #272 ), #111 ) ;
#82 = CARTESIAN_POINT ( 'NONE',  ( -27.51293856928778681, 0.1999999999999998723, 1.734723475976807094E-16 ) ) ;
#83 = AXIS2_PLACEMENT_3D ( 'NONE', #201, #319, #481 ) ;
#84 = ORIENTED_EDGE ( 'NONE', *, *, #27, .T. ) ;
#85 = PLANE ( 'NONE',  #496 ) ;
#86 = ORIENTED_EDGE ( 'NONE', *, *, #500, .F. ) ;
#87 = CARTESIAN_POINT ( 'NONE',  ( -27.26293856928778681, 0.1999999999999998723, -0.2499999999999996947 ) ) ;
#88 = ADVANCED_FACE ( 'NONE', ( #196, #116, #2 ), #153, .F. ) ;
#89 = ORIENTED_EDGE ( 'NONE', *, *, #442, .T. ) ;
#90 = VERTEX_POINT ( 'NONE', #359 ) ;
#91 = CARTESIAN_POINT ( 'NONE',  ( 33.63706143071220112, 1.301042606982605321E-16, -0.7500000000000004441 ) ) ;
#92 = ORIENTED_EDGE ( 'NONE', *, *, #115, .T. ) ;
#93 = LOCAL_TIME ( 9, 13, 56.00000000000000000, #438 ) ;
#94 = CARTESIAN_POINT ( 'NONE',  ( 33.63706143071220112, 0.2000000000000001221, -0.5000000000000002220 ) ) ;
#95 = LINE ( 'NONE', #511, #456 ) ;
#96 = PLANE ( 'NONE',  #275 ) ;
#97 = CARTESIAN_POINT ( 'NONE',  ( -27.26293856928778681, -1.301042606982605321E-16, -0.4999999999999998335 ) ) ;
#98 = DIRECTION ( 'NONE',  ( 0.000000000000000000, 0.000000000000000000, 1.000000000000000000 ) ) ;
#99 = DIRECTION ( 'NONE',  ( 0.000000000000000000, 1.000000000000000000, 0.000000000000000000 ) ) ;
#100 = PERSON_AND_ORGANIZATION_ROLE ( 'creator' ) ;
#101 = ADVANCED_FACE ( 'NONE', ( #321 ), #3, .T. ) ;
#102 = AXIS2_PLACEMENT_3D ( 'NONE', #165, #259, #15 ) ;
#103 = DIRECTION ( 'NONE',  ( 0.000000000000000000, 0.000000000000000000, 1.000000000000000000 ) ) ;
#104 = APPROVAL_PERSON_ORGANIZATION ( #72, #31, #198 ) ;
#105 = LINE ( 'NONE', #270, #154 ) ;
#106 = DIRECTION ( 'NONE',  ( 0.000000000000000000, 1.000000000000000000, 0.000000000000000000 ) ) ;
#107 = APPROVAL_DATE_TIME ( #200, #460 ) ;
#108 = AXIS2_PLACEMENT_3D ( 'NONE', #157, #324, #277 ) ;
#109 = EDGE_CURVE ( 'NONE', #17, #60, #441, .T. ) ;
#110 = LINE ( 'NONE', #484, #320 ) ;
#111 =( GEOMETRIC_REPRESENTATION_CONTEXT ( 3 ) GLOBAL_UNCERTAINTY_ASSIGNED_CONTEXT ( ( #225 ) ) GLOBAL_UNIT_ASSIGNED_CONTEXT ( ( #513, #175, #350 ) ) REPRESENTATION_CONTEXT ( 'NONE', 'WORKASPACE' ) );
#112 = DIRECTION ( 'NONE',  ( 0.000000000000000000, 0.000000000000000000, 1.000000000000000000 ) ) ;
#113 = EDGE_CURVE ( 'NONE', #408, #493, #361, .T. ) ;
#114 = CARTESIAN_POINT ( 'NONE',  ( -27.76293856928778681, 0.1999999999999998723, -0.7499999999999981126 ) ) ;
#115 = EDGE_CURVE ( 'NONE', #163, #161, #246, .T. ) ;
#116 = FACE_OUTER_BOUND ( 'NONE', #494, .T. ) ;
#117 = VECTOR ( 'NONE', #53, 100.0000000000000000 ) ;
#118 = AXIS2_PLACEMENT_3D ( 'NONE', #184, #106, #429 ) ;
#119 = ORIENTED_EDGE ( 'NONE', *, *, #76, .T. ) ;
#120 = DIRECTION ( 'NONE',  ( -1.000000000000000000, -0.000000000000000000, -0.000000000000000000 ) ) ;
#121 = ORIENTED_EDGE ( 'NONE', *, *, #179, .F. ) ;
#122 = FACE_OUTER_BOUND ( 'NONE', #164, .T. ) ;
#123 = ORIENTED_EDGE ( 'NONE', *, *, #368, .F. ) ;
#124 = ORIENTED_EDGE ( 'NONE', *, *, #508, .F. ) ;
#125 = DIRECTION ( 'NONE',  ( 0.000000000000000000, 0.000000000000000000, 1.000000000000000000 ) ) ;
#126 = AXIS2_PLACEMENT_3D ( 'NONE', #509, #32, #310 ) ;
#127 = ORIENTED_EDGE ( 'NONE', *, *, #33, .T. ) ;
#128 = ORIENTED_EDGE ( 'NONE', *, *, #368, .T. ) ;
#129 = FACE_BOUND ( 'NONE', #137, .T. ) ;
#130 = ORIENTED_EDGE ( 'NONE', *, *, #508, .T. ) ;
#131 = PLANE ( 'NONE',  #349 ) ;
#132 = CC_DESIGN_DATE_AND_TIME_ASSIGNMENT ( #520, #357, ( #396 ) ) ;
#133 = EDGE_LOOP ( 'NONE', ( #219, #373 ) ) ;
#134 = CARTESIAN_POINT ( 'NONE',  ( 4.750000000000000000, 0.2000000000000000111, -0.2499999999999999722 ) ) ;
#135 = AXIS2_PLACEMENT_3D ( 'NONE', #300, #492, #502 ) ;
#136 = CARTESIAN_POINT ( 'NONE',  ( 33.63706143071220112, 1.301042606982605321E-16, -0.5000000000000002220 ) ) ;
#137 = EDGE_LOOP ( 'NONE', ( #55, #450 ) ) ;
#138 = LINE ( 'NONE', #64, #506 ) ;
#139 = EDGE_CURVE ( 'NONE', #50, #301, #281, .T. ) ;
#140 = CARTESIAN_POINT ( 'NONE',  ( 34.13706143071220112, 0.2000000000000001221, -0.2500000000000019429 ) ) ;
#141 = ADVANCED_FACE ( 'NONE', ( #400 ), #406, .T. ) ;
#142 = LINE ( 'NONE', #345, #436 ) ;
#143 = APPROVAL_STATUS ( 'not_yet_approved' ) ;
#144 = PERSON_AND_ORGANIZATION_ROLE ( 'design_owner' ) ;
#145 = CIRCLE ( 'NONE', #169, 0.2499999999999999722 ) ;
#146 = DIRECTION ( 'NONE',  ( 1.000000000000000000, -0.000000000000000000, 0.000000000000000000 ) ) ;
#147 = ADVANCED_FACE ( 'NONE', ( #446 ), #191, .F. ) ;
#148 = DIRECTION ( 'NONE',  ( 0.000000000000000000, 1.000000000000000000, 0.000000000000000000 ) ) ;
#149 = ADVANCED_FACE ( 'NONE', ( #273 ), #69, .F. ) ;
#150 = CALENDAR_DATE ( 2025, 20, 11 ) ;
#151 = CARTESIAN_POINT ( 'NONE',  ( 33.88706143071220112, 0.2000000000000001221, -1.000000000000000222 ) ) ;
#152 = AXIS2_PLACEMENT_3D ( 'NONE', #5, #521, #159 ) ;
#153 = PLANE ( 'NONE',  #16 ) ;
#154 = VECTOR ( 'NONE', #23, 100.0000000000000000 ) ;
#155 = DIRECTION ( 'NONE',  ( -0.000000000000000000, -1.000000000000000000, -0.000000000000000000 ) ) ;
#156 = CALENDAR_DATE ( 2025, 20, 11 ) ;
#157 = CARTESIAN_POINT ( 'NONE',  ( -27.51293856928778681, 0.1999999999999998723, -0.7499999999999998890 ) ) ;
#158 = PERSON_AND_ORGANIZATION ( #448, #313 ) ;
#159 = DIRECTION ( 'NONE',  ( 0.000000000000000000, 0.000000000000000000, 1.000000000000000000 ) ) ;
#160 = ORIENTED_EDGE ( 'NONE', *, *, #239, .F. ) ;
#161 = VERTEX_POINT ( 'NONE', #331 ) ;
#162 = DIRECTION ( 'NONE',  ( 0.000000000000000000, 1.000000000000000000, -0.000000000000000000 ) ) ;
#163 = VERTEX_POINT ( 'NONE', #9 ) ;
#164 = EDGE_LOOP ( 'NONE', ( #374, #89, #248, #447, #414, #84, #223, #289 ) ) ;
#165 = CARTESIAN_POINT ( 'NONE',  ( 33.88706143071220112, 0.2000000000000001221, -0.7500000000000002220 ) ) ;
#166 = ORIENTED_EDGE ( 'NONE', *, *, #109, .T. ) ;
#167 = EDGE_LOOP ( 'NONE', ( #464, #56, #123, #453 ) ) ;
#168 = CARTESIAN_POINT ( 'NONE',  ( -27.76293856928778681, 0.1999999999999998723, -0.2500000000000014988 ) ) ;
#169 = AXIS2_PLACEMENT_3D ( 'NONE', #398, #363, #449 ) ;
#170 = ORIENTED_EDGE ( 'NONE', *, *, #430, .F. ) ;
#171 = ORIENTED_EDGE ( 'NONE', *, *, #190, .T. ) ;
#172 = CARTESIAN_POINT ( 'NONE',  ( 33.88706143071220112, 1.301042606982605321E-16, -0.7500000000000002220 ) ) ;
#173 = VERTEX_POINT ( 'NONE', #19 ) ;
#174 = DIRECTION ( 'NONE',  ( 0.000000000000000000, 0.000000000000000000, -1.000000000000000000 ) ) ;
#175 =( NAMED_UNIT ( * ) PLANE_ANGLE_UNIT ( ) SI_UNIT ( $, .RADIAN. ) );
#176 = CARTESIAN_POINT ( 'NONE',  ( 34.13706143071220112, 0.2000000000000001221, -0.2500000000000018874 ) ) ;
#177 = CARTESIAN_POINT ( 'NONE',  ( -27.26293856928778681, -1.301042606982605321E-16, -0.4999999999999998335 ) ) ;
#178 = VECTOR ( 'NONE', #44, 100.0000000000000000 ) ;
#179 = EDGE_CURVE ( 'NONE', #417, #163, #452, .T. ) ;
#180 = CC_DESIGN_APPROVAL ( #477, ( #396 ) ) ;
#181 = DIRECTION ( 'NONE',  ( -0.000000000000000000, -1.000000000000000000, -0.000000000000000000 ) ) ;
#182 = CARTESIAN_POINT ( 'NONE',  ( -27.76293856928778681, -1.307180667970587529E-16, -0.2500000000000015543 ) ) ;
#183 = MECHANICAL_CONTEXT ( 'NONE', #412, 'mechanical' ) ;
#184 = CARTESIAN_POINT ( 'NONE',  ( 33.88706143071220112, 0.2000000000000001221, -0.2500000000000001110 ) ) ;
#185 = ADVANCED_FACE ( 'NONE', ( #455 ), #85, .F. ) ;
#186 = DIRECTION ( 'NONE',  ( 0.000000000000000000, 0.000000000000000000, 1.000000000000000000 ) ) ;
#187 = AXIS2_PLACEMENT_3D ( 'NONE', #379, #51, #254 ) ;
#188 = CYLINDRICAL_SURFACE ( 'NONE', #499, 0.2500000000000002220 ) ;
#189 = AXIS2_PLACEMENT_3D ( 'NONE', #140, #228, #432 ) ;
#190 = EDGE_CURVE ( 'NONE', #411, #80, #495, .T. ) ;
#191 = CYLINDRICAL_SURFACE ( 'NONE', #83, 0.2500000000000001110 ) ;
#192 = DATE_TIME_ROLE ( 'classification_date' ) ;
#193 = DIRECTION ( 'NONE',  ( 0.000000000000000000, 1.000000000000000000, 0.000000000000000000 ) ) ;
#194 = EDGE_CURVE ( 'NONE', #78, #376, #205, .T. ) ;
#195 = VECTOR ( 'NONE', #79, 100.0000000000000000 ) ;
#196 = FACE_BOUND ( 'NONE', #133, .T. ) ;
#197 = VECTOR ( 'NONE', #61, 100.0000000000000000 ) ;
#198 = APPROVAL_ROLE ( '' ) ;
#199 = CARTESIAN_POINT ( 'NONE',  ( 34.13706143071220112, 0.2000000000000001221, -0.2500000000000019429 ) ) ;
#200 = DATE_AND_TIME ( #445, #394 ) ;
#201 = CARTESIAN_POINT ( 'NONE',  ( -27.26293856928778681, 0.1999999999999998723, -0.4999999999999998335 ) ) ;
#202 = EDGE_LOOP ( 'NONE', ( #211, #170 ) ) ;
#203 = ORIENTED_EDGE ( 'NONE', *, *, #422, .F. ) ;
#204 = VECTOR ( 'NONE', #28, 100.0000000000000000 ) ;
#205 = LINE ( 'NONE', #168, #178 ) ;
#206 = CIRCLE ( 'NONE', #268, 0.2500000000000001110 ) ;
#207 = EDGE_CURVE ( 'NONE', #90, #411, #58, .T. ) ;
#208 = ORIENTED_EDGE ( 'NONE', *, *, #190, .F. ) ;
#209 = ORIENTED_EDGE ( 'NONE', *, *, #115, .F. ) ;
#210 = CARTESIAN_POINT ( 'NONE',  ( -27.51293856928778681, 0.1999999999999998723, -0.2499999999999997780 ) ) ;
#211 = ORIENTED_EDGE ( 'NONE', *, *, #469, .F. ) ;
#212 = ORIENTED_EDGE ( 'NONE', *, *, #207, .F. ) ;
#213 = DIRECTION ( 'NONE',  ( 1.000000000000000000, 0.000000000000000000, 0.000000000000000000 ) ) ;
#214 = EDGE_LOOP ( 'NONE', ( #415, #18, #480, #203 ) ) ;
#215 = CC_DESIGN_PERSON_AND_ORGANIZATION_ASSIGNMENT ( #222, #100, ( #396 ) ) ;
#216 = DIRECTION ( 'NONE',  ( -0.000000000000000000, -1.000000000000000000, -0.000000000000000000 ) ) ;
#217 = VECTOR ( 'NONE', #340, 100.0000000000000000 ) ;
#218 = APPROVAL_PERSON_ORGANIZATION ( #470, #477, #302 ) ;
#219 = ORIENTED_EDGE ( 'NONE', *, *, #48, .T. ) ;
#220 = ORIENTED_EDGE ( 'NONE', *, *, #179, .T. ) ;
#221 = PRODUCT ( 'Link K_Default_sldprt', 'Link K_Default_sldprt', '', ( #183 ) ) ;
#222 = PERSON_AND_ORGANIZATION ( #448, #313 ) ;
#223 = ORIENTED_EDGE ( 'NONE', *, *, #318, .T. ) ;
#224 = CARTESIAN_POINT ( 'NONE',  ( -27.26293856928778681, 0.1999999999999998723, -0.4999999999999998335 ) ) ;
#225 = UNCERTAINTY_MEASURE_WITH_UNIT (LENGTH_MEASURE( 1.000000000000000082E-05 ), #513, 'distance_accuracy_value', 'NONE');
#226 = ADVANCED_FACE ( 'NONE', ( #366 ), #328, .F. ) ;
#227 = CC_DESIGN_PERSON_AND_ORGANIZATION_ASSIGNMENT ( #479, #70, ( #37 ) ) ;
#228 = DIRECTION ( 'NONE',  ( -1.000000000000000000, 0.000000000000000000, 0.000000000000000000 ) ) ;
#229 = VECTOR ( 'NONE', #213, 100.0000000000000000 ) ;
#230 = CARTESIAN_POINT ( 'NONE',  ( 33.63706143071220112, 0.2000000000000001221, -0.2499999999999999722 ) ) ;
#231 = DIRECTION ( 'NONE',  ( 1.000000000000000000, 0.000000000000000000, 0.000000000000000000 ) ) ;
#232 = CARTESIAN_POINT ( 'NONE',  ( -27.76293856928778681, -1.307180667970587529E-16, -0.7499999999999981126 ) ) ;
#233 = CIRCLE ( 'NONE', #343, 0.2499999999999999722 ) ;
#234 = CARTESIAN_POINT ( 'NONE',  ( -27.51293856928778681, 0.1999999999999998723, -0.9999999999999998890 ) ) ;
#235 = DESIGN_CONTEXT ( 'detailed design', #476, 'design' ) ;
#236 = ADVANCED_FACE ( 'NONE', ( #122, #129, #256 ), #131, .T. ) ;
#237 = PERSON_AND_ORGANIZATION ( #448, #313 ) ;
#238 = DIRECTION ( 'NONE',  ( 0.000000000000000000, 0.000000000000000000, -1.000000000000000000 ) ) ;
#239 = EDGE_CURVE ( 'NONE', #78, #90, #36, .T. ) ;
#240 = CARTESIAN_POINT ( 'NONE',  ( 33.63706143071220112, 0.2000000000000001221, -0.2499999999999999722 ) ) ;
#241 = DIRECTION ( 'NONE',  ( 0.000000000000000000, 1.000000000000000000, -0.000000000000000000 ) ) ;
#242 = CALENDAR_DATE ( 2025, 20, 11 ) ;
#243 = EDGE_CURVE ( 'NONE', #504, #252, #297, .T. ) ;
#244 = DIRECTION ( 'NONE',  ( -0.000000000000000000, -1.000000000000000000, -0.000000000000000000 ) ) ;
#245 = ORIENTED_EDGE ( 'NONE', *, *, #378, .F. ) ;
#246 = LINE ( 'NONE', #323, #63 ) ;
#247 = PRODUCT_RELATED_PRODUCT_CATEGORY ( 'detail', '', ( #221 ) ) ;
#248 = ORIENTED_EDGE ( 'NONE', *, *, #402, .T. ) ;
#249 = ORIENTED_EDGE ( 'NONE', *, *, #318, .F. ) ;
#250 = DIRECTION ( 'NONE',  ( 0.000000000000000000, 0.000000000000000000, -1.000000000000000000 ) ) ;
#251 = CIRCLE ( 'NONE', #437, 0.2500000000000001110 ) ;
#252 = VERTEX_POINT ( 'NONE', #505 ) ;
#253 = ORIENTED_EDGE ( 'NONE', *, *, #33, .F. ) ;
#254 = DIRECTION ( 'NONE',  ( 0.000000000000000000, 0.000000000000000000, -1.000000000000000000 ) ) ;
#255 = ORIENTED_EDGE ( 'NONE', *, *, #57, .T. ) ;
#256 = FACE_BOUND ( 'NONE', #202, .T. ) ;
#257 = EDGE_LOOP ( 'NONE', ( #497, #330, #296, #171 ) ) ;
#258 = VERTEX_POINT ( 'NONE', #91 ) ;
#259 = DIRECTION ( 'NONE',  ( -0.000000000000000000, -1.000000000000000000, -0.000000000000000000 ) ) ;
#260 = LOCAL_TIME ( 9, 13, 56.00000000000000000, #482 ) ;
#261 = ORIENTED_EDGE ( 'NONE', *, *, #4, .F. ) ;
#262 = CARTESIAN_POINT ( 'NONE',  ( -27.51293856928778681, -1.301042606982605321E-16, 1.734723475976807094E-16 ) ) ;
#263 = DIRECTION ( 'NONE',  ( 0.000000000000000000, 1.000000000000000000, -0.000000000000000000 ) ) ;
#264 = CLOSED_SHELL ( 'NONE', ( #226, #149, #435, #147, #236, #88, #24, #185, #141, #433, #283, #101, #483, #312 ) ) ;
#265 = DIRECTION ( 'NONE',  ( -0.000000000000000000, -1.000000000000000000, -0.000000000000000000 ) ) ;
#266 = CARTESIAN_POINT ( 'NONE',  ( 34.13706143071220112, 0.2000000000000001221, -0.7499999999999984457 ) ) ;
#267 = AXIS2_PLACEMENT_3D ( 'NONE', #486, #193, #112 ) ;
#268 = AXIS2_PLACEMENT_3D ( 'NONE', #224, #385, #26 ) ;
#269 = CARTESIAN_POINT ( 'NONE',  ( -27.76293856928778681, 0.1999999999999998723, -0.7499999999999981126 ) ) ;
#270 = CARTESIAN_POINT ( 'NONE',  ( -27.76293856928778681, -1.301042606982605321E-16, -0.2500000000000016098 ) ) ;
#271 = CIRCLE ( 'NONE', #267, 0.2500000000000002220 ) ;
#272 = AXIS2_PLACEMENT_3D ( 'NONE', #382, #98, #231 ) ;
#273 = FACE_OUTER_BOUND ( 'NONE', #11, .T. ) ;
#274 = CC_DESIGN_PERSON_AND_ORGANIZATION_ASSIGNMENT ( #158, #1, ( #75 ) ) ;
#275 = AXIS2_PLACEMENT_3D ( 'NONE', #428, #507, #353 ) ;
#276 = APPROVAL_STATUS ( 'not_yet_approved' ) ;
#277 = DIRECTION ( 'NONE',  ( 0.000000000000000000, 0.000000000000000000, -1.000000000000000000 ) ) ;
#278 = CARTESIAN_POINT ( 'NONE',  ( 34.13706143071220112, 1.371879397011376478E-16, -0.2500000000000018874 ) ) ;
#279 = PERSON_AND_ORGANIZATION ( #448, #313 ) ;
#280 = AXIS2_PLACEMENT_3D ( 'NONE', #210, #295, #372 ) ;
#281 = LINE ( 'NONE', #322, #386 ) ;
#282 = ORIENTED_EDGE ( 'NONE', *, *, #402, .F. ) ;
#283 = ADVANCED_FACE ( 'NONE', ( #375 ), #21, .T. ) ;
#284 = DIRECTION ( 'NONE',  ( -0.000000000000000000, -1.000000000000000000, -0.000000000000000000 ) ) ;
#285 = ORIENTED_EDGE ( 'NONE', *, *, #388, .F. ) ;
#286 = EDGE_LOOP ( 'NONE', ( #130, #20, #327, #119 ) ) ;
#287 = DIRECTION ( 'NONE',  ( -1.000000000000000000, 0.000000000000000000, -0.000000000000000000 ) ) ;
#288 = ORIENTED_EDGE ( 'NONE', *, *, #292, .F. ) ;
#289 = ORIENTED_EDGE ( 'NONE', *, *, #239, .T. ) ;
#290 = CIRCLE ( 'NONE', #152, 0.2500000000000002220 ) ;
#291 = CYLINDRICAL_SURFACE ( 'NONE', #280, 0.2499999999999999722 ) ;
#292 = EDGE_CURVE ( 'NONE', #60, #417, #451, .T. ) ;
#293 = CC_DESIGN_APPROVAL ( #460, ( #75 ) ) ;
#294 = ORIENTED_EDGE ( 'NONE', *, *, #48, .F. ) ;
#295 = DIRECTION ( 'NONE',  ( -0.000000000000000000, -1.000000000000000000, -0.000000000000000000 ) ) ;
#296 = ORIENTED_EDGE ( 'NONE', *, *, #207, .T. ) ;
#297 = LINE ( 'NONE', #87, #217 ) ;
#298 = AXIS2_PLACEMENT_3D ( 'NONE', #304, #263, #383 ) ;
#299 = EDGE_LOOP ( 'NONE', ( #46, #13, #249, #127 ) ) ;
#300 = CARTESIAN_POINT ( 'NONE',  ( -27.26293856928778681, 0.1999999999999998723, -0.4999999999999998335 ) ) ;
#301 = VERTEX_POINT ( 'NONE', #465 ) ;
#302 = APPROVAL_ROLE ( '' ) ;
#303 = DIRECTION ( 'NONE',  ( 0.000000000000000000, 0.000000000000000000, 1.000000000000000000 ) ) ;
#304 = CARTESIAN_POINT ( 'NONE',  ( 33.88706143071220112, 0.2000000000000001221, -0.7500000000000002220 ) ) ;
#305 = EDGE_CURVE ( 'NONE', #371, #408, #311, .T. ) ;
#306 = CARTESIAN_POINT ( 'NONE',  ( 34.13706143071220112, 0.2000000000000001221, -0.2500000000000019429 ) ) ;
#307 = COORDINATED_UNIVERSAL_TIME_OFFSET ( 7, 0, .BEHIND. ) ;
#308 = APPLICATION_PROTOCOL_DEFINITION ( 'international standard', 'config_control_design', 1994, #476 ) ;
#309 = LINE ( 'NONE', #348, #510 ) ;
#310 = DIRECTION ( 'NONE',  ( 0.000000000000000000, 0.000000000000000000, 1.000000000000000000 ) ) ;
#311 = CIRCLE ( 'NONE', #74, 0.2500000000000002220 ) ;
#312 = ADVANCED_FACE ( 'NONE', ( #47 ), #291, .T. ) ;
#313 = ORGANIZATION ( 'UNSPECIFIED', 'UNSPECIFIED', '' ) ;
#314 = DIRECTION ( 'NONE',  ( 0.000000000000000000, 0.000000000000000000, -1.000000000000000000 ) ) ;
#315 = FACE_OUTER_BOUND ( 'NONE', #299, .T. ) ;
#316 = DATE_AND_TIME ( #156, #260 ) ;
#317 = ORIENTED_EDGE ( 'NONE', *, *, #194, .T. ) ;
#318 = EDGE_CURVE ( 'NONE', #341, #78, #418, .T. ) ;
#319 = DIRECTION ( 'NONE',  ( -0.000000000000000000, -1.000000000000000000, -0.000000000000000000 ) ) ;
#320 = VECTOR ( 'NONE', #244, 100.0000000000000000 ) ;
#321 = FACE_OUTER_BOUND ( 'NONE', #461, .T. ) ;
#322 = CARTESIAN_POINT ( 'NONE',  ( 29.38706143071220112, 0.2000000000000001221, -1.000000000000000222 ) ) ;
#323 = CARTESIAN_POINT ( 'NONE',  ( 29.38706143071220112, 1.301042606982605321E-16, -1.000000000000000222 ) ) ;
#324 = DIRECTION ( 'NONE',  ( -0.000000000000000000, -1.000000000000000000, -0.000000000000000000 ) ) ;
#325 = APPROVAL_PERSON_ORGANIZATION ( #279, #460, #40 ) ;
#326 = ORIENTED_EDGE ( 'NONE', *, *, #113, .T. ) ;
#327 = ORIENTED_EDGE ( 'NONE', *, *, #442, .F. ) ;
#328 = CYLINDRICAL_SURFACE ( 'NONE', #135, 0.2500000000000001110 ) ;
#329 = VERTEX_POINT ( 'NONE', #232 ) ;
#330 = ORIENTED_EDGE ( 'NONE', *, *, #522, .F. ) ;
#331 = CARTESIAN_POINT ( 'NONE',  ( -27.51293856928778681, -1.307180667970587529E-16, -0.9999999999999998890 ) ) ;
#332 = ORIENTED_EDGE ( 'NONE', *, *, #515, .F. ) ;
#333 = VERTEX_POINT ( 'NONE', #266 ) ;
#334 = CARTESIAN_POINT ( 'NONE',  ( 34.13706143071220112, 1.301042606982605321E-16, -0.2500000000000019429 ) ) ;
#335 = EDGE_LOOP ( 'NONE', ( #365, #245, #282, #166 ) ) ;
#336 = ORIENTED_EDGE ( 'NONE', *, *, #378, .T. ) ;
#337 = DIRECTION ( 'NONE',  ( 0.000000000000000000, 1.000000000000000000, -0.000000000000000000 ) ) ;
#338 = CALENDAR_DATE ( 2025, 20, 11 ) ;
#339 = ORIENTED_EDGE ( 'NONE', *, *, #422, .T. ) ;
#340 = DIRECTION ( 'NONE',  ( -0.000000000000000000, -1.000000000000000000, -0.000000000000000000 ) ) ;
#341 = VERTEX_POINT ( 'NONE', #269 ) ;
#342 = DIRECTION ( 'NONE',  ( 0.000000000000000000, 0.000000000000000000, 1.000000000000000000 ) ) ;
#343 = AXIS2_PLACEMENT_3D ( 'NONE', #439, #241, #238 ) ;
#344 = PERSON_AND_ORGANIZATION ( #448, #313 ) ;
#345 = CARTESIAN_POINT ( 'NONE',  ( 34.13706143071220112, 0.2000000000000001221, -0.7499999999999984457 ) ) ;
#346 = CARTESIAN_POINT ( 'NONE',  ( -27.51293856928778681, -1.307180667970587529E-16, 1.381077519427659871E-16 ) ) ;
#347 = CC_DESIGN_PERSON_AND_ORGANIZATION_ASSIGNMENT ( #344, #144, ( #221 ) ) ;
#348 = CARTESIAN_POINT ( 'NONE',  ( 33.63706143071220112, 0.2000000000000001221, -0.7500000000000004441 ) ) ;
#349 = AXIS2_PLACEMENT_3D ( 'NONE', #134, #381, #12 ) ;
#350 =( NAMED_UNIT ( * ) SI_UNIT ( $, .STERADIAN. ) SOLID_ANGLE_UNIT ( ) );
#351 = CIRCLE ( 'NONE', #126, 0.2500000000000001110 ) ;
#352 = DIRECTION ( 'NONE',  ( 0.000000000000000000, 0.000000000000000000, -1.000000000000000000 ) ) ;
#353 = DIRECTION ( 'NONE',  ( 1.000000000000000000, 0.000000000000000000, -0.000000000000000000 ) ) ;
#354 = SHAPE_DEFINITION_REPRESENTATION ( #457, #81 ) ;
#355 = DIRECTION ( 'NONE',  ( -0.000000000000000000, -1.000000000000000000, -0.000000000000000000 ) ) ;
#356 = AXIS2_PLACEMENT_3D ( 'NONE', #416, #162, #250 ) ;
#357 = DATE_TIME_ROLE ( 'creation_date' ) ;
#358 = LOCAL_TIME ( 9, 13, 56.00000000000000000, #395 ) ;
#359 = CARTESIAN_POINT ( 'NONE',  ( -27.51293856928778681, 0.1999999999999998723, 1.381077519427659871E-16 ) ) ;
#360 = APPROVAL_STATUS ( 'not_yet_approved' ) ;
#361 = LINE ( 'NONE', #240, #195 ) ;
#362 = CC_DESIGN_PERSON_AND_ORGANIZATION_ASSIGNMENT ( #237, #440, ( #37 ) ) ;
#363 = DIRECTION ( 'NONE',  ( 0.000000000000000000, 1.000000000000000000, -0.000000000000000000 ) ) ;
#364 = ORIENTED_EDGE ( 'NONE', *, *, #369, .F. ) ;
#365 = ORIENTED_EDGE ( 'NONE', *, *, #292, .T. ) ;
#366 = FACE_OUTER_BOUND ( 'NONE', #167, .T. ) ;
#367 = LOCAL_TIME ( 9, 13, 56.00000000000000000, #307 ) ;
#368 = EDGE_CURVE ( 'NONE', #454, #252, #377, .T. ) ;
#369 = EDGE_CURVE ( 'NONE', #161, #329, #421, .T. ) ;
#370 = ORIENTED_EDGE ( 'NONE', *, *, #27, .F. ) ;
#371 = VERTEX_POINT ( 'NONE', #434 ) ;
#372 = DIRECTION ( 'NONE',  ( 0.000000000000000000, 0.000000000000000000, -1.000000000000000000 ) ) ;
#373 = ORIENTED_EDGE ( 'NONE', *, *, #515, .T. ) ;
#374 = ORIENTED_EDGE ( 'NONE', *, *, #522, .T. ) ;
#375 = FACE_OUTER_BOUND ( 'NONE', #467, .T. ) ;
#376 = VERTEX_POINT ( 'NONE', #182 ) ;
#377 = CIRCLE ( 'NONE', #54, 0.2500000000000001110 ) ;
#378 = EDGE_CURVE ( 'NONE', #333, #417, #142, .T. ) ;
#379 = CARTESIAN_POINT ( 'NONE',  ( 33.63706143071220112, 0.2000000000000001221, -0.5000000000000002220 ) ) ;
#380 = ORIENTED_EDGE ( 'NONE', *, *, #474, .F. ) ;
#381 = DIRECTION ( 'NONE',  ( 0.000000000000000000, 1.000000000000000000, 0.000000000000000000 ) ) ;
#382 = CARTESIAN_POINT ( 'NONE',  ( 0.000000000000000000, 0.000000000000000000, 0.000000000000000000 ) ) ;
#383 = DIRECTION ( 'NONE',  ( 0.000000000000000000, 0.000000000000000000, -1.000000000000000000 ) ) ;
#384 = DIRECTION ( 'NONE',  ( 0.000000000000000000, 1.000000000000000000, 0.000000000000000000 ) ) ;
#385 = DIRECTION ( 'NONE',  ( 0.000000000000000000, 1.000000000000000000, 0.000000000000000000 ) ) ;
#386 = VECTOR ( 'NONE', #490, 100.0000000000000000 ) ;
#387 = CIRCLE ( 'NONE', #525, 0.2500000000000002220 ) ;
#388 = EDGE_CURVE ( 'NONE', #301, #161, #512, .T. ) ;
#389 = DIRECTION ( 'NONE',  ( 0.000000000000000000, 0.000000000000000000, -1.000000000000000000 ) ) ;
#390 = CIRCLE ( 'NONE', #298, 0.2500000000000001110 ) ;
#391 = CARTESIAN_POINT ( 'NONE',  ( 33.63706143071220112, 0.2000000000000001221, -0.5000000000000002220 ) ) ;
#392 = DIRECTION ( 'NONE',  ( 0.000000000000000000, 1.000000000000000000, -0.000000000000000000 ) ) ;
#393 = EDGE_CURVE ( 'NONE', #52, #454, #138, .T. ) ;
#394 = LOCAL_TIME ( 9, 13, 56.00000000000000000, #399 ) ;
#395 = COORDINATED_UNIVERSAL_TIME_OFFSET ( 7, 0, .BEHIND. ) ;
#396 = PRODUCT_DEFINITION ( 'UNKNOWN', '', #37, #235 ) ;
#397 = MANIFOLD_SOLID_BREP ( 'Flex1', #264 ) ;
#398 = CARTESIAN_POINT ( 'NONE',  ( -27.51293856928778681, -1.301042606982605321E-16, -0.2499999999999997780 ) ) ;
#399 = COORDINATED_UNIVERSAL_TIME_OFFSET ( 7, 0, .BEHIND. ) ;
#400 = FACE_OUTER_BOUND ( 'NONE', #286, .T. ) ;
#401 = EDGE_LOOP ( 'NONE', ( #420, #426, #10, #332 ) ) ;
#402 = EDGE_CURVE ( 'NONE', #17, #333, #66, .T. ) ;
#403 = CC_DESIGN_APPROVAL ( #31, ( #37 ) ) ;
#404 = LINE ( 'NONE', #114, #410 ) ;
#405 = DATE_AND_TIME ( #242, #93 ) ;
#406 = CYLINDRICAL_SURFACE ( 'NONE', #473, 0.2500000000000001110 ) ;
#407 = ORIENTED_EDGE ( 'NONE', *, *, #369, .T. ) ;
#408 = VERTEX_POINT ( 'NONE', #230 ) ;
#409 = DIRECTION ( 'NONE',  ( 0.000000000000000000, 0.000000000000000000, -1.000000000000000000 ) ) ;
#410 = VECTOR ( 'NONE', #34, 100.0000000000000000 ) ;
#411 = VERTEX_POINT ( 'NONE', #346 ) ;
#412 = APPLICATION_CONTEXT ( 'configuration controlled 3d designs of mechanical parts and assemblies' ) ;
#413 = DIRECTION ( 'NONE',  ( 0.000000000000000000, 1.000000000000000000, 0.000000000000000000 ) ) ;
#414 = ORIENTED_EDGE ( 'NONE', *, *, #139, .T. ) ;
#415 = ORIENTED_EDGE ( 'NONE', *, *, #243, .F. ) ;
#416 = CARTESIAN_POINT ( 'NONE',  ( -27.51293856928778681, 0.1999999999999998723, -0.2499999999999997780 ) ) ;
#417 = VERTEX_POINT ( 'NONE', #472 ) ;
#418 = LINE ( 'NONE', #459, #117 ) ;
#419 = ORIENTED_EDGE ( 'NONE', *, *, #42, .F. ) ;
#420 = ORIENTED_EDGE ( 'NONE', *, *, #113, .F. ) ;
#421 = CIRCLE ( 'NONE', #487, 0.2499999999999999722 ) ;
#422 = EDGE_CURVE ( 'NONE', #252, #454, #251, .T. ) ;
#423 = DIRECTION ( 'NONE',  ( 0.000000000000000000, 0.000000000000000000, -1.000000000000000000 ) ) ;
#424 = CIRCLE ( 'NONE', #518, 0.2500000000000001110 ) ;
#425 = DIRECTION ( 'NONE',  ( 1.000000000000000000, 0.000000000000000000, 0.000000000000000000 ) ) ;
#426 = ORIENTED_EDGE ( 'NONE', *, *, #49, .T. ) ;
#427 = CARTESIAN_POINT ( 'NONE',  ( -27.26293856928778681, 0.1999999999999998723, -0.2499999999999996947 ) ) ;
#428 = CARTESIAN_POINT ( 'NONE',  ( 29.38706143071220112, 0.2000000000000001221, -1.000000000000000222 ) ) ;
#429 = DIRECTION ( 'NONE',  ( 0.000000000000000000, 0.000000000000000000, 1.000000000000000000 ) ) ;
#430 = EDGE_CURVE ( 'NONE', #504, #52, #351, .T. ) ;
#431 = CARTESIAN_POINT ( 'NONE',  ( -27.76293856928778681, 0.1999999999999998723, -0.2500000000000016098 ) ) ;
#432 = DIRECTION ( 'NONE',  ( 0.000000000000000000, 0.000000000000000000, 1.000000000000000000 ) ) ;
#433 = ADVANCED_FACE ( 'NONE', ( #65 ), #62, .F. ) ;
#434 = CARTESIAN_POINT ( 'NONE',  ( 33.63706143071220112, 0.2000000000000001221, -0.7500000000000004441 ) ) ;
#435 = ADVANCED_FACE ( 'NONE', ( #516 ), #188, .F. ) ;
#436 = VECTOR ( 'NONE', #181, 100.0000000000000000 ) ;
#437 = AXIS2_PLACEMENT_3D ( 'NONE', #97, #99, #103 ) ;
#438 = COORDINATED_UNIVERSAL_TIME_OFFSET ( 7, 0, .BEHIND. ) ;
#439 = CARTESIAN_POINT ( 'NONE',  ( -27.51293856928778681, 0.1999999999999998723, -0.7499999999999998890 ) ) ;
#440 = PERSON_AND_ORGANIZATION_ROLE ( 'creator' ) ;
#441 = LINE ( 'NONE', #199, #25 ) ;
#442 = EDGE_CURVE ( 'NONE', #173, #17, #68, .T. ) ;
#443 = LINE ( 'NONE', #77, #444 ) ;
#444 = VECTOR ( 'NONE', #355, 100.0000000000000000 ) ;
#445 = CALENDAR_DATE ( 2025, 20, 11 ) ;
#446 = FACE_OUTER_BOUND ( 'NONE', #214, .T. ) ;
#447 = ORIENTED_EDGE ( 'NONE', *, *, #4, .T. ) ;
#448 = PERSON ( 'UNSPECIFIED', 'UNSPECIFIED', 'UNSPECIFIED', ('UNSPECIFIED'), ('UNSPECIFIED'), ('UNSPECIFIED') ) ;
#449 = DIRECTION ( 'NONE',  ( 0.000000000000000000, 0.000000000000000000, -1.000000000000000000 ) ) ;
#450 = ORIENTED_EDGE ( 'NONE', *, *, #49, .F. ) ;
#451 = LINE ( 'NONE', #334, #45 ) ;
#452 = CIRCLE ( 'NONE', #517, 0.2500000000000001110 ) ;
#453 = ORIENTED_EDGE ( 'NONE', *, *, #393, .F. ) ;
#454 = VERTEX_POINT ( 'NONE', #468 ) ;
#455 = FACE_OUTER_BOUND ( 'NONE', #257, .T. ) ;
#456 = VECTOR ( 'NONE', #425, 100.0000000000000000 ) ;
#457 = PRODUCT_DEFINITION_SHAPE ( 'NONE', 'NONE',  #396 ) ;
#458 = ORIENTED_EDGE ( 'NONE', *, *, #388, .T. ) ;
#459 = CARTESIAN_POINT ( 'NONE',  ( -27.76293856928778681, 0.1999999999999998723, -0.2500000000000016098 ) ) ;
#460 = APPROVAL ( #276, 'UNSPECIFIED' ) ;
#461 = EDGE_LOOP ( 'NONE', ( #407, #253, #370, #458 ) ) ;
#462 = CARTESIAN_POINT ( 'NONE',  ( 29.38706143071220112, 0.2000000000000001221, -1.734723475976807094E-16 ) ) ;
#463 = APPROVAL_DATE_TIME ( #503, #477 ) ;
#464 = ORIENTED_EDGE ( 'NONE', *, *, #469, .T. ) ;
#465 = CARTESIAN_POINT ( 'NONE',  ( -27.51293856928778681, 0.1999999999999998723, -0.9999999999999998890 ) ) ;
#466 = CC_DESIGN_SECURITY_CLASSIFICATION ( #75, ( #37 ) ) ;
#467 = EDGE_LOOP ( 'NONE', ( #220, #419, #261, #336 ) ) ;
#468 = CARTESIAN_POINT ( 'NONE',  ( -27.26293856928778681, -1.301042606982605321E-16, -0.7500000000000000000 ) ) ;
#469 = EDGE_CURVE ( 'NONE', #52, #504, #206, .T. ) ;
#470 = PERSON_AND_ORGANIZATION ( #448, #313 ) ;
#471 = PLANE ( 'NONE',  #488 ) ;
#472 = CARTESIAN_POINT ( 'NONE',  ( 34.13706143071220112, 1.371879397011376478E-16, -0.7499999999999984457 ) ) ;
#473 = AXIS2_PLACEMENT_3D ( 'NONE', #35, #284, #409 ) ;
#474 = EDGE_CURVE ( 'NONE', #371, #258, #309, .T. ) ;
#475 = CARTESIAN_POINT ( 'NONE',  ( 33.63706143071220112, 1.301042606982605321E-16, -0.2499999999999999722 ) ) ;
#476 = APPLICATION_CONTEXT ( 'configuration controlled 3d designs of mechanical parts and assemblies' ) ;
#477 = APPROVAL ( #143, 'UNSPECIFIED' ) ;
#478 = CARTESIAN_POINT ( 'NONE',  ( 33.88706143071220112, 1.301042606982605321E-16, -0.2500000000000001110 ) ) ;
#479 = PERSON_AND_ORGANIZATION ( #448, #313 ) ;
#480 = ORIENTED_EDGE ( 'NONE', *, *, #393, .T. ) ;
#481 = DIRECTION ( 'NONE',  ( 0.000000000000000000, 0.000000000000000000, -1.000000000000000000 ) ) ;
#482 = COORDINATED_UNIVERSAL_TIME_OFFSET ( 7, 0, .BEHIND. ) ;
#483 = ADVANCED_FACE ( 'NONE', ( #315 ), #471, .F. ) ;
#484 = CARTESIAN_POINT ( 'NONE',  ( 33.88706143071220112, 0.2000000000000001221, -1.000000000000000222 ) ) ;
#485 = CARTESIAN_POINT ( 'NONE',  ( -27.26293856928778681, 0.1999999999999998723, -0.7500000000000000000 ) ) ;
#486 = CARTESIAN_POINT ( 'NONE',  ( 33.63706143071220112, 1.301042606982605321E-16, -0.5000000000000002220 ) ) ;
#487 = AXIS2_PLACEMENT_3D ( 'NONE', #514, #392, #389 ) ;
#488 = AXIS2_PLACEMENT_3D ( 'NONE', #431, #146, #314 ) ;
#489 = EDGE_LOOP ( 'NONE', ( #128, #339 ) ) ;
#490 = DIRECTION ( 'NONE',  ( -1.000000000000000000, -0.000000000000000000, -0.000000000000000000 ) ) ;
#491 = ORIENTED_EDGE ( 'NONE', *, *, #139, .F. ) ;
#492 = DIRECTION ( 'NONE',  ( -0.000000000000000000, -1.000000000000000000, -0.000000000000000000 ) ) ;
#493 = VERTEX_POINT ( 'NONE', #475 ) ;
#494 = EDGE_LOOP ( 'NONE', ( #124, #208, #14, #86, #364, #209, #121, #288 ) ) ;
#495 = LINE ( 'NONE', #262, #229 ) ;
#496 = AXIS2_PLACEMENT_3D ( 'NONE', #462, #423, #287 ) ;
#497 = ORIENTED_EDGE ( 'NONE', *, *, #76, .F. ) ;
#498 = DIRECTION ( 'NONE',  ( 0.000000000000000000, 0.000000000000000000, -1.000000000000000000 ) ) ;
#499 = AXIS2_PLACEMENT_3D ( 'NONE', #391, #30, #352 ) ;
#500 = EDGE_CURVE ( 'NONE', #329, #376, #105, .T. ) ;
#501 = EDGE_LOOP ( 'NONE', ( #255, #212, #160, #317 ) ) ;
#502 = DIRECTION ( 'NONE',  ( 0.000000000000000000, 0.000000000000000000, -1.000000000000000000 ) ) ;
#503 = DATE_AND_TIME ( #338, #367 ) ;
#504 = VERTEX_POINT ( 'NONE', #427 ) ;
#505 = CARTESIAN_POINT ( 'NONE',  ( -27.26293856928778681, -1.301042606982605321E-16, -0.2499999999999996947 ) ) ;
#506 = VECTOR ( 'NONE', #265, 100.0000000000000000 ) ;
#507 = DIRECTION ( 'NONE',  ( 0.000000000000000000, 0.000000000000000000, 1.000000000000000000 ) ) ;
#508 = EDGE_CURVE ( 'NONE', #80, #60, #424, .T. ) ;
#509 = CARTESIAN_POINT ( 'NONE',  ( -27.26293856928778681, 0.1999999999999998723, -0.4999999999999998335 ) ) ;
#510 = VECTOR ( 'NONE', #519, 100.0000000000000000 ) ;
#511 = CARTESIAN_POINT ( 'NONE',  ( -27.51293856928778681, 0.1999999999999998723, 1.734723475976807094E-16 ) ) ;
#512 = LINE ( 'NONE', #234, #204 ) ;
#513 =( LENGTH_UNIT ( ) NAMED_UNIT ( * ) SI_UNIT ( .CENTI., .METRE. ) );
#514 = CARTESIAN_POINT ( 'NONE',  ( -27.51293856928778681, -1.301042606982605321E-16, -0.7499999999999998890 ) ) ;
#515 = EDGE_CURVE ( 'NONE', #493, #258, #387, .T. ) ;
#516 = FACE_OUTER_BOUND ( 'NONE', #401, .T. ) ;
#517 = AXIS2_PLACEMENT_3D ( 'NONE', #172, #337, #174 ) ;
#518 = AXIS2_PLACEMENT_3D ( 'NONE', #478, #384, #303 ) ;
#519 = DIRECTION ( 'NONE',  ( -0.000000000000000000, -1.000000000000000000, -0.000000000000000000 ) ) ;
#520 = DATE_AND_TIME ( #150, #358 ) ;
#521 = DIRECTION ( 'NONE',  ( 0.000000000000000000, 1.000000000000000000, 0.000000000000000000 ) ) ;
#522 = EDGE_CURVE ( 'NONE', #90, #173, #95, .T. ) ;
#523 = CARTESIAN_POINT ( 'NONE',  ( 33.88706143071220112, 1.371879397011376478E-16, -1.449433763061906885E-16 ) ) ;
#524 = VECTOR ( 'NONE', #216, 100.0000000000000000 ) ;
#525 = AXIS2_PLACEMENT_3D ( 'NONE', #136, #59, #186 ) ;
ENDSEC;
END-ISO-10303-21;
