ISO-10303-21;
HEADER;
FILE_DESCRIPTION (( 'STEP AP203' ),
    '1' );
FILE_NAME ('Link H_Default_sldprt.STEP',
    '2025-11-20T16:13:46',
    ( '' ),
    ( '' ),
    'SwSTEP 2.0',
    'SolidWorks 2025',
    '' );
FILE_SCHEMA (( 'CONFIG_CONTROL_DESIGN' ));
ENDSEC;

DATA;
#1 = DIRECTION ( 'NONE',  ( -0.000000000000000000, -1.000000000000000000, -0.000000000000000000 ) ) ;
#2 = CC_DESIGN_DATE_AND_TIME_ASSIGNMENT ( #514, #24, ( #73 ) ) ;
#3 = VERTEX_POINT ( 'NONE', #493 ) ;
#4 = CARTESIAN_POINT ( 'NONE',  ( 35.83294602538191498, 0.2000000000000001776, -0.2500000000000001110 ) ) ;
#5 = ORIENTED_EDGE ( 'NONE', *, *, #199, .T. ) ;
#6 = AXIS2_PLACEMENT_3D ( 'NONE', #142, #275, #193 ) ;
#7 = VECTOR ( 'NONE', #206, 100.0000000000000000 ) ;
#8 = CARTESIAN_POINT ( 'NONE',  ( -29.36705397461808076, -1.301042606982605321E-16, -0.7499999999999998890 ) ) ;
#9 = CARTESIAN_POINT ( 'NONE',  ( 36.08294602538191498, 0.2000000000000001776, -0.2500000000000019429 ) ) ;
#10 = ORIENTED_EDGE ( 'NONE', *, *, #367, .F. ) ;
#11 = CARTESIAN_POINT ( 'NONE',  ( -29.36705397461808076, 0.1999999999999998723, -0.9999999999999998890 ) ) ;
#12 = CARTESIAN_POINT ( 'NONE',  ( 35.83294602538191498, 0.2000000000000001776, -1.734723475976807094E-16 ) ) ;
#13 = ADVANCED_FACE ( 'NONE', ( #461 ), #51, .T. ) ;
#14 = CALENDAR_DATE ( 2025, 20, 11 ) ;
#15 = AXIS2_PLACEMENT_3D ( 'NONE', #173, #372, #291 ) ;
#16 = MECHANICAL_CONTEXT ( 'NONE', #264, 'mechanical' ) ;
#17 = LINE ( 'NONE', #192, #245 ) ;
#18 = DIRECTION ( 'NONE',  ( 0.000000000000000000, 0.000000000000000000, 1.000000000000000000 ) ) ;
#19 = LINE ( 'NONE', #12, #333 ) ;
#20 = DIRECTION ( 'NONE',  ( -1.000000000000000000, 0.000000000000000000, -0.000000000000000000 ) ) ;
#21 = AXIS2_PLACEMENT_3D ( 'NONE', #75, #476, #165 ) ;
#22 = UNCERTAINTY_MEASURE_WITH_UNIT (LENGTH_MEASURE( 1.000000000000000082E-05 ), #63, 'distance_accuracy_value', 'NONE');
#23 = EDGE_LOOP ( 'NONE', ( #164, #486, #160, #339 ) ) ;
#24 = DATE_TIME_ROLE ( 'classification_date' ) ;
#25 = VECTOR ( 'NONE', #421, 100.0000000000000000 ) ;
#26 = EDGE_LOOP ( 'NONE', ( #314, #516, #69, #67 ) ) ;
#27 = CLOSED_SHELL ( 'NONE', ( #430, #482, #313, #240, #136, #412, #521, #274, #146, #397, #91, #13, #33, #155 ) ) ;
#28 = PERSON_AND_ORGANIZATION_ROLE ( 'classification_officer' ) ;
#29 = LINE ( 'NONE', #524, #248 ) ;
#30 = DIRECTION ( 'NONE',  ( 0.000000000000000000, 1.000000000000000000, 0.000000000000000000 ) ) ;
#31 = AXIS2_PLACEMENT_3D ( 'NONE', #62, #474, #20 ) ;
#32 = EDGE_LOOP ( 'NONE', ( #450, #213, #287, #395 ) ) ;
#33 = ADVANCED_FACE ( 'NONE', ( #334 ), #134, .F. ) ;
#34 = CARTESIAN_POINT ( 'NONE',  ( -29.61705397461808076, 0.1999999999999998723, -0.2500000000000016098 ) ) ;
#35 = ORIENTED_EDGE ( 'NONE', *, *, #452, .F. ) ;
#36 = EDGE_CURVE ( 'NONE', #434, #238, #382, .T. ) ;
#37 = MANIFOLD_SOLID_BREP ( 'Flex1', #27 ) ;
#38 = DIRECTION ( 'NONE',  ( -0.000000000000000000, -1.000000000000000000, -0.000000000000000000 ) ) ;
#39 = DIRECTION ( 'NONE',  ( 0.000000000000000000, 1.000000000000000000, 0.000000000000000000 ) ) ;
#40 = EDGE_LOOP ( 'NONE', ( #157, #156, #519, #307 ) ) ;
#41 = CYLINDRICAL_SURFACE ( 'NONE', #432, 0.2500000000000002220 ) ;
#42 = CIRCLE ( 'NONE', #473, 0.2500000000000002220 ) ;
#43 = EDGE_CURVE ( 'NONE', #249, #185, #405, .T. ) ;
#44 = LINE ( 'NONE', #485, #214 ) ;
#45 = DIRECTION ( 'NONE',  ( -0.000000000000000000, -0.000000000000000000, 1.000000000000000000 ) ) ;
#46 = ORIENTED_EDGE ( 'NONE', *, *, #341, .T. ) ;
#47 = CARTESIAN_POINT ( 'NONE',  ( -29.61705397461808076, 0.1999999999999998723, -0.7499999999999981126 ) ) ;
#48 = VERTEX_POINT ( 'NONE', #129 ) ;
#49 = DIRECTION ( 'NONE',  ( -1.000000000000000000, 0.000000000000000000, 0.000000000000000000 ) ) ;
#50 = DIRECTION ( 'NONE',  ( -0.000000000000000000, -1.000000000000000000, -0.000000000000000000 ) ) ;
#51 = CYLINDRICAL_SURFACE ( 'NONE', #103, 0.2499999999999999722 ) ;
#52 = AXIS2_PLACEMENT_3D ( 'NONE', #501, #308, #392 ) ;
#53 = DIRECTION ( 'NONE',  ( -0.000000000000000000, -1.000000000000000000, -0.000000000000000000 ) ) ;
#54 = VERTEX_POINT ( 'NONE', #215 ) ;
#55 = EDGE_CURVE ( 'NONE', #312, #458, #174, .T. ) ;
#56 = CIRCLE ( 'NONE', #299, 0.2500000000000001110 ) ;
#57 = CARTESIAN_POINT ( 'NONE',  ( 35.83294602538191498, 0.2000000000000001221, -1.546232502950048327E-16 ) ) ;
#58 = CARTESIAN_POINT ( 'NONE',  ( 35.58294602538191498, 1.517883041479706208E-16, -0.5000000000000002220 ) ) ;
#59 =( NAMED_UNIT ( * ) PLANE_ANGLE_UNIT ( ) SI_UNIT ( $, .RADIAN. ) );
#60 = LOCAL_TIME ( 9, 13, 46.00000000000000000, #394 ) ;
#61 = EDGE_CURVE ( 'NONE', #209, #342, #29, .T. ) ;
#62 = CARTESIAN_POINT ( 'NONE',  ( 31.33294602538191498, 0.2000000000000001776, -1.734723475976807094E-16 ) ) ;
#63 =( LENGTH_UNIT ( ) NAMED_UNIT ( * ) SI_UNIT ( .CENTI., .METRE. ) );
#64 = LINE ( 'NONE', #221, #411 ) ;
#65 = DATE_TIME_ROLE ( 'creation_date' ) ;
#66 = AXIS2_PLACEMENT_3D ( 'NONE', #94, #387, #184 ) ;
#67 = ORIENTED_EDGE ( 'NONE', *, *, #114, .T. ) ;
#68 = PERSON_AND_ORGANIZATION ( #348, #236 ) ;
#69 = ORIENTED_EDGE ( 'NONE', *, *, #302, .F. ) ;
#70 = PERSON_AND_ORGANIZATION ( #348, #236 ) ;
#71 = FACE_BOUND ( 'NONE', #509, .T. ) ;
#72 = EDGE_CURVE ( 'NONE', #414, #110, #401, .T. ) ;
#73 = SECURITY_CLASSIFICATION ( '', '', #244 ) ;
#74 = ORIENTED_EDGE ( 'NONE', *, *, #144, .F. ) ;
#75 = CARTESIAN_POINT ( 'NONE',  ( 35.58294602538191498, 0.2000000000000001776, -0.5000000000000002220 ) ) ;
#76 = VECTOR ( 'NONE', #77, 100.0000000000000000 ) ;
#77 = DIRECTION ( 'NONE',  ( -0.000000000000000000, -1.000000000000000000, -0.000000000000000000 ) ) ;
#78 = ORIENTED_EDGE ( 'NONE', *, *, #452, .T. ) ;
#79 = CARTESIAN_POINT ( 'NONE',  ( -29.61705397461808076, 0.1999999999999998723, -0.7499999999999981126 ) ) ;
#80 = FACE_BOUND ( 'NONE', #293, .T. ) ;
#81 = ORIENTED_EDGE ( 'NONE', *, *, #199, .F. ) ;
#82 = EDGE_CURVE ( 'NONE', #228, #312, #200, .T. ) ;
#83 = CARTESIAN_POINT ( 'NONE',  ( 36.08294602538191498, 0.2000000000000001221, -0.2500000000000019429 ) ) ;
#84 = LINE ( 'NONE', #477, #7 ) ;
#85 = ORIENTED_EDGE ( 'NONE', *, *, #286, .T. ) ;
#86 = VECTOR ( 'NONE', #455, 100.0000000000000000 ) ;
#87 = CARTESIAN_POINT ( 'NONE',  ( -29.11705397461808076, -1.301042606982605321E-16, -0.2499999999999996947 ) ) ;
#88 = CARTESIAN_POINT ( 'NONE',  ( -29.11705397461808076, -1.301042606982605321E-16, -0.4999999999999998335 ) ) ;
#89 = ORIENTED_EDGE ( 'NONE', *, *, #154, .T. ) ;
#90 = DIRECTION ( 'NONE',  ( 0.000000000000000000, 0.000000000000000000, -1.000000000000000000 ) ) ;
#91 = ADVANCED_FACE ( 'NONE', ( #217 ), #481, .T. ) ;
#92 = ORIENTED_EDGE ( 'NONE', *, *, #158, .F. ) ;
#93 = CARTESIAN_POINT ( 'NONE',  ( 35.83294602538191498, 1.517883041479706208E-16, -0.2500000000000001110 ) ) ;
#94 = CARTESIAN_POINT ( 'NONE',  ( 35.83294602538191498, 1.517883041479706208E-16, -0.7500000000000002220 ) ) ;
#95 = CARTESIAN_POINT ( 'NONE',  ( -29.36705397461808076, 0.1999999999999998723, -0.7499999999999998890 ) ) ;
#96 = CYLINDRICAL_SURFACE ( 'NONE', #52, 0.2500000000000002220 ) ;
#97 = EDGE_CURVE ( 'NONE', #127, #249, #402, .T. ) ;
#98 = DIRECTION ( 'NONE',  ( 0.000000000000000000, 0.000000000000000000, 1.000000000000000000 ) ) ;
#99 = ORIENTED_EDGE ( 'NONE', *, *, #472, .T. ) ;
#100 = APPROVAL_ROLE ( '' ) ;
#101 = CARTESIAN_POINT ( 'NONE',  ( -29.11705397461808076, -1.301042606982605321E-16, -0.4999999999999998335 ) ) ;
#102 = CIRCLE ( 'NONE', #15, 0.2499999999999999722 ) ;
#103 = AXIS2_PLACEMENT_3D ( 'NONE', #95, #176, #268 ) ;
#104 = PERSON_AND_ORGANIZATION ( #348, #236 ) ;
#105 = COORDINATED_UNIVERSAL_TIME_OFFSET ( 7, 0, .BEHIND. ) ;
#106 = DIRECTION ( 'NONE',  ( 0.000000000000000000, 0.000000000000000000, 1.000000000000000000 ) ) ;
#107 = EDGE_CURVE ( 'NONE', #312, #207, #439, .T. ) ;
#108 = COORDINATED_UNIVERSAL_TIME_OFFSET ( 7, 0, .BEHIND. ) ;
#109 = CIRCLE ( 'NONE', #389, 0.2500000000000002220 ) ;
#110 = VERTEX_POINT ( 'NONE', #364 ) ;
#111 = PRODUCT_DEFINITION_SHAPE ( 'NONE', 'NONE',  #171 ) ;
#112 = SHAPE_DEFINITION_REPRESENTATION ( #111, #227 ) ;
#113 = EDGE_LOOP ( 'NONE', ( #175, #5, #437, #363, #78, #325, #360, #290 ) ) ;
#114 = EDGE_CURVE ( 'NONE', #238, #342, #84, .T. ) ;
#115 = CARTESIAN_POINT ( 'NONE',  ( 4.750000000000000000, 0.2000000000000000111, -0.2499999999999999722 ) ) ;
#116 = AXIS2_PLACEMENT_3D ( 'NONE', #504, #195, #347 ) ;
#117 = ORIENTED_EDGE ( 'NONE', *, *, #43, .F. ) ;
#118 = DIRECTION ( 'NONE',  ( 0.000000000000000000, 1.000000000000000000, 0.000000000000000000 ) ) ;
#119 = AXIS2_PLACEMENT_3D ( 'NONE', #4, #39, #369 ) ;
#120 = ORIENTED_EDGE ( 'NONE', *, *, #500, .T. ) ;
#121 = VECTOR ( 'NONE', #182, 100.0000000000000000 ) ;
#122 = CARTESIAN_POINT ( 'NONE',  ( -29.36705397461808076, -1.301042606982605321E-16, 1.734723475976807094E-16 ) ) ;
#123 = ORIENTED_EDGE ( 'NONE', *, *, #367, .T. ) ;
#124 = PLANE ( 'NONE',  #189 ) ;
#125 = DIRECTION ( 'NONE',  ( 1.000000000000000000, 0.000000000000000000, 0.000000000000000000 ) ) ;
#126 = CARTESIAN_POINT ( 'NONE',  ( -29.11705397461808076, 0.1999999999999998723, -0.4999999999999998335 ) ) ;
#127 = VERTEX_POINT ( 'NONE', #436 ) ;
#128 = FACE_OUTER_BOUND ( 'NONE', #252, .T. ) ;
#129 = CARTESIAN_POINT ( 'NONE',  ( -29.11705397461808076, 0.1999999999999998723, -0.2499999999999996947 ) ) ;
#130 = EDGE_LOOP ( 'NONE', ( #370, #375, #216, #515 ) ) ;
#131 = APPROVAL_PERSON_ORGANIZATION ( #250, #326, #242 ) ;
#132 = AXIS2_PLACEMENT_3D ( 'NONE', #300, #223, #90 ) ;
#133 = DIRECTION ( 'NONE',  ( 1.000000000000000000, 0.000000000000000000, 0.000000000000000000 ) ) ;
#134 = PLANE ( 'NONE',  #132 ) ;
#135 = DIRECTION ( 'NONE',  ( 0.000000000000000000, 1.000000000000000000, 0.000000000000000000 ) ) ;
#136 = ADVANCED_FACE ( 'NONE', ( #295, #80, #71 ), #415, .T. ) ;
#137 = CARTESIAN_POINT ( 'NONE',  ( -29.11705397461808076, 0.1999999999999998723, -0.4999999999999998335 ) ) ;
#138 = ORIENTED_EDGE ( 'NONE', *, *, #294, .F. ) ;
#139 = CIRCLE ( 'NONE', #470, 0.2500000000000001110 ) ;
#140 = CYLINDRICAL_SURFACE ( 'NONE', #448, 0.2500000000000001110 ) ;
#141 = VERTEX_POINT ( 'NONE', #446 ) ;
#142 = CARTESIAN_POINT ( 'NONE',  ( 0.000000000000000000, 0.000000000000000000, 0.000000000000000000 ) ) ;
#143 = AXIS2_PLACEMENT_3D ( 'NONE', #408, #1, #373 ) ;
#144 = EDGE_CURVE ( 'NONE', #434, #209, #258, .T. ) ;
#145 = APPROVAL_DATE_TIME ( #190, #462 ) ;
#146 = ADVANCED_FACE ( 'NONE', ( #413 ), #489, .T. ) ;
#147 = DATE_AND_TIME ( #306, #322 ) ;
#148 = CARTESIAN_POINT ( 'NONE',  ( 36.08294602538191498, 0.2000000000000001221, -0.7499999999999984457 ) ) ;
#149 = CC_DESIGN_SECURITY_CLASSIFICATION ( #73, ( #212 ) ) ;
#150 = VERTEX_POINT ( 'NONE', #169 ) ;
#151 = DIRECTION ( 'NONE',  ( 1.000000000000000000, 0.000000000000000000, -0.000000000000000000 ) ) ;
#152 = CARTESIAN_POINT ( 'NONE',  ( 35.83294602538191498, 1.517883041479706208E-16, -0.2500000000000001110 ) ) ;
#153 = EDGE_CURVE ( 'NONE', #54, #475, #44, .T. ) ;
#154 = EDGE_CURVE ( 'NONE', #150, #260, #42, .T. ) ;
#155 = ADVANCED_FACE ( 'NONE', ( #522 ), #163, .T. ) ;
#156 = ORIENTED_EDGE ( 'NONE', *, *, #361, .T. ) ;
#157 = ORIENTED_EDGE ( 'NONE', *, *, #319, .T. ) ;
#158 = EDGE_CURVE ( 'NONE', #279, #141, #324, .T. ) ;
#159 = DIRECTION ( 'NONE',  ( -0.000000000000000000, -1.000000000000000000, -0.000000000000000000 ) ) ;
#160 = ORIENTED_EDGE ( 'NONE', *, *, #82, .F. ) ;
#161 = EDGE_CURVE ( 'NONE', #458, #356, #259, .T. ) ;
#162 = APPROVAL_DATE_TIME ( #429, #388 ) ;
#163 = CYLINDRICAL_SURFACE ( 'NONE', #237, 0.2499999999999999722 ) ;
#164 = ORIENTED_EDGE ( 'NONE', *, *, #253, .T. ) ;
#165 = DIRECTION ( 'NONE',  ( 0.000000000000000000, 0.000000000000000000, 1.000000000000000000 ) ) ;
#166 = DIRECTION ( 'NONE',  ( 0.000000000000000000, 0.000000000000000000, -1.000000000000000000 ) ) ;
#167 = AXIS2_PLACEMENT_3D ( 'NONE', #126, #403, #170 ) ;
#168 = EDGE_LOOP ( 'NONE', ( #283, #89 ) ) ;
#169 = CARTESIAN_POINT ( 'NONE',  ( 35.58294602538191498, 1.517883041479706208E-16, -0.2499999999999999722 ) ) ;
#170 = DIRECTION ( 'NONE',  ( 0.000000000000000000, 0.000000000000000000, 1.000000000000000000 ) ) ;
#171 = PRODUCT_DEFINITION ( 'UNKNOWN', '', #212, #354 ) ;
#172 = EDGE_LOOP ( 'NONE', ( #497, #243, #35, #303 ) ) ;
#173 = CARTESIAN_POINT ( 'NONE',  ( -29.36705397461808076, 0.1999999999999998723, -0.2499999999999997780 ) ) ;
#174 = LINE ( 'NONE', #47, #76 ) ;
#175 = ORIENTED_EDGE ( 'NONE', *, *, #153, .T. ) ;
#176 = DIRECTION ( 'NONE',  ( -0.000000000000000000, -1.000000000000000000, -0.000000000000000000 ) ) ;
#177 = AXIS2_PLACEMENT_3D ( 'NONE', #93, #135, #484 ) ;
#178 = VECTOR ( 'NONE', #331, 100.0000000000000000 ) ;
#179 = EDGE_CURVE ( 'NONE', #393, #404, #507, .T. ) ;
#180 = CARTESIAN_POINT ( 'NONE',  ( -29.11705397461808076, 0.1999999999999998723, -0.4999999999999998335 ) ) ;
#181 = DIRECTION ( 'NONE',  ( 0.000000000000000000, 1.000000000000000000, -0.000000000000000000 ) ) ;
#182 = DIRECTION ( 'NONE',  ( 0.000000000000000000, 0.000000000000000000, -1.000000000000000000 ) ) ;
#183 = CARTESIAN_POINT ( 'NONE',  ( -29.11705397461808076, 0.1999999999999998723, -0.7500000000000000000 ) ) ;
#184 = DIRECTION ( 'NONE',  ( 0.000000000000000000, 0.000000000000000000, -1.000000000000000000 ) ) ;
#185 = VERTEX_POINT ( 'NONE', #218 ) ;
#186 = AXIS2_PLACEMENT_3D ( 'NONE', #137, #50, #222 ) ;
#187 = PLANE ( 'NONE',  #358 ) ;
#188 = CC_DESIGN_DATE_AND_TIME_ASSIGNMENT ( #147, #65, ( #171 ) ) ;
#189 = AXIS2_PLACEMENT_3D ( 'NONE', #418, #49, #257 ) ;
#190 = DATE_AND_TIME ( #14, #315 ) ;
#191 = FACE_OUTER_BOUND ( 'NONE', #483, .T. ) ;
#192 = CARTESIAN_POINT ( 'NONE',  ( 35.58294602538191498, 0.2000000000000001776, -0.2499999999999999722 ) ) ;
#193 = DIRECTION ( 'NONE',  ( 1.000000000000000000, 0.000000000000000000, 0.000000000000000000 ) ) ;
#194 = APPLICATION_PROTOCOL_DEFINITION ( 'international standard', 'config_control_design', 1994, #264 ) ;
#195 = DIRECTION ( 'NONE',  ( 0.000000000000000000, 1.000000000000000000, -0.000000000000000000 ) ) ;
#196 = ORIENTED_EDGE ( 'NONE', *, *, #72, .F. ) ;
#197 = DIRECTION ( 'NONE',  ( -0.000000000000000000, -1.000000000000000000, -0.000000000000000000 ) ) ;
#198 = CARTESIAN_POINT ( 'NONE',  ( -29.36705397461808076, -1.394479201156672309E-16, 1.473311167473795282E-16 ) ) ;
#199 = EDGE_CURVE ( 'NONE', #475, #434, #433, .T. ) ;
#200 = CIRCLE ( 'NONE', #336, 0.2499999999999999722 ) ;
#201 = ORIENTED_EDGE ( 'NONE', *, *, #341, .F. ) ;
#202 = APPROVAL_STATUS ( 'not_yet_approved' ) ;
#203 = CC_DESIGN_PERSON_AND_ORGANIZATION_ASSIGNMENT ( #284, #28, ( #73 ) ) ;
#204 = LOCAL_TIME ( 9, 13, 46.00000000000000000, #108 ) ;
#205 = ORIENTED_EDGE ( 'NONE', *, *, #179, .T. ) ;
#206 = DIRECTION ( 'NONE',  ( -0.000000000000000000, -1.000000000000000000, -0.000000000000000000 ) ) ;
#207 = VERTEX_POINT ( 'NONE', #211 ) ;
#208 = CARTESIAN_POINT ( 'NONE',  ( 36.08294602538191498, 0.2000000000000001776, -0.2500000000000019429 ) ) ;
#209 = VERTEX_POINT ( 'NONE', #453 ) ;
#210 = DIRECTION ( 'NONE',  ( 0.000000000000000000, 0.000000000000000000, -1.000000000000000000 ) ) ;
#211 = CARTESIAN_POINT ( 'NONE',  ( -29.61705397461808076, 0.1999999999999998723, -0.2500000000000015543 ) ) ;
#212 = PRODUCT_DEFINITION_FORMATION_WITH_SPECIFIED_SOURCE ( 'ANY', '', #465, .NOT_KNOWN. ) ;
#213 = ORIENTED_EDGE ( 'NONE', *, *, #114, .F. ) ;
#214 = VECTOR ( 'NONE', #125, 100.0000000000000000 ) ;
#215 = CARTESIAN_POINT ( 'NONE',  ( -29.36705397461808076, 0.1999999999999998723, 1.473311167473795282E-16 ) ) ;
#216 = ORIENTED_EDGE ( 'NONE', *, *, #107, .F. ) ;
#217 = FACE_OUTER_BOUND ( 'NONE', #26, .T. ) ;
#218 = CARTESIAN_POINT ( 'NONE',  ( -29.36705397461808076, -1.394479201156672309E-16, -0.9999999999999998890 ) ) ;
#219 = EDGE_CURVE ( 'NONE', #48, #3, #499, .T. ) ;
#220 = ORIENTED_EDGE ( 'NONE', *, *, #319, .F. ) ;
#221 = CARTESIAN_POINT ( 'NONE',  ( -29.36705397461808076, 0.1999999999999998723, 1.734723475976807094E-16 ) ) ;
#222 = DIRECTION ( 'NONE',  ( 0.000000000000000000, 0.000000000000000000, -1.000000000000000000 ) ) ;
#223 = DIRECTION ( 'NONE',  ( 1.000000000000000000, -0.000000000000000000, 0.000000000000000000 ) ) ;
#224 = LOCAL_TIME ( 9, 13, 46.00000000000000000, #464 ) ;
#225 = VECTOR ( 'NONE', #159, 100.0000000000000000 ) ;
#226 = LINE ( 'NONE', #183, #25 ) ;
#227 = ADVANCED_BREP_SHAPE_REPRESENTATION ( 'Link H_Default_sldprt', ( #37, #6 ), #419 ) ;
#228 = VERTEX_POINT ( 'NONE', #466 ) ;
#229 = FACE_OUTER_BOUND ( 'NONE', #40, .T. ) ;
#230 = DIRECTION ( 'NONE',  ( 0.000000000000000000, 1.000000000000000000, 0.000000000000000000 ) ) ;
#231 = CIRCLE ( 'NONE', #435, 0.2499999999999999722 ) ;
#232 = AXIS2_PLACEMENT_3D ( 'NONE', #391, #498, #18 ) ;
#233 = EDGE_CURVE ( 'NONE', #342, #249, #460, .T. ) ;
#234 = APPROVAL_STATUS ( 'not_yet_approved' ) ;
#235 = DIRECTION ( 'NONE',  ( -0.000000000000000000, -1.000000000000000000, -0.000000000000000000 ) ) ;
#236 = ORGANIZATION ( 'UNSPECIFIED', 'UNSPECIFIED', '' ) ;
#237 = AXIS2_PLACEMENT_3D ( 'NONE', #320, #479, #166 ) ;
#238 = VERTEX_POINT ( 'NONE', #148 ) ;
#239 = PERSON_AND_ORGANIZATION_ROLE ( 'creator' ) ;
#240 = ADVANCED_FACE ( 'NONE', ( #191 ), #338, .F. ) ;
#241 = ORIENTED_EDGE ( 'NONE', *, *, #253, .F. ) ;
#242 = APPROVAL_ROLE ( '' ) ;
#243 = ORIENTED_EDGE ( 'NONE', *, *, #344, .F. ) ;
#244 = SECURITY_CLASSIFICATION_LEVEL ( 'unclassified' ) ;
#245 = VECTOR ( 'NONE', #311, 100.0000000000000000 ) ;
#246 = CIRCLE ( 'NONE', #457, 0.2500000000000001110 ) ;
#247 = CARTESIAN_POINT ( 'NONE',  ( 35.58294602538191498, 1.517883041479706208E-16, -0.5000000000000002220 ) ) ;
#248 = VECTOR ( 'NONE', #210, 100.0000000000000000 ) ;
#249 = VERTEX_POINT ( 'NONE', #380 ) ;
#250 = PERSON_AND_ORGANIZATION ( #348, #236 ) ;
#251 = DIRECTION ( 'NONE',  ( 0.000000000000000000, -0.000000000000000000, 1.000000000000000000 ) ) ;
#252 = EDGE_LOOP ( 'NONE', ( #467, #205, #318, #407 ) ) ;
#253 = EDGE_CURVE ( 'NONE', #185, #458, #231, .T. ) ;
#254 = APPROVAL_DATE_TIME ( #396, #326 ) ;
#255 = DIRECTION ( 'NONE',  ( -1.000000000000000000, -0.000000000000000000, -0.000000000000000000 ) ) ;
#256 = DIRECTION ( 'NONE',  ( 0.000000000000000000, 0.000000000000000000, -1.000000000000000000 ) ) ;
#257 = DIRECTION ( 'NONE',  ( 0.000000000000000000, 0.000000000000000000, 1.000000000000000000 ) ) ;
#258 = LINE ( 'NONE', #208, #438 ) ;
#259 = LINE ( 'NONE', #406, #304 ) ;
#260 = VERTEX_POINT ( 'NONE', #431 ) ;
#261 = FACE_OUTER_BOUND ( 'NONE', #490, .T. ) ;
#262 = EDGE_CURVE ( 'NONE', #356, #279, #346, .T. ) ;
#263 = EDGE_LOOP ( 'NONE', ( #138, #92, #420, #454, #241, #117, #440, #416 ) ) ;
#264 = APPLICATION_CONTEXT ( 'configuration controlled 3d designs of mechanical parts and assemblies' ) ;
#265 = ORIENTED_EDGE ( 'NONE', *, *, #153, .F. ) ;
#266 = ORIENTED_EDGE ( 'NONE', *, *, #262, .T. ) ;
#267 = CARTESIAN_POINT ( 'NONE',  ( 35.58294602538191498, 0.2000000000000001776, -0.7500000000000004441 ) ) ;
#268 = DIRECTION ( 'NONE',  ( 0.000000000000000000, 0.000000000000000000, -1.000000000000000000 ) ) ;
#269 = EDGE_CURVE ( 'NONE', #110, #414, #56, .T. ) ;
#270 = ORIENTED_EDGE ( 'NONE', *, *, #269, .T. ) ;
#271 = VECTOR ( 'NONE', #491, 100.0000000000000000 ) ;
#272 = CALENDAR_DATE ( 2025, 20, 11 ) ;
#273 = FACE_OUTER_BOUND ( 'NONE', #447, .T. ) ;
#274 = ADVANCED_FACE ( 'NONE', ( #273 ), #428, .F. ) ;
#275 = DIRECTION ( 'NONE',  ( 0.000000000000000000, 0.000000000000000000, 1.000000000000000000 ) ) ;
#276 = PERSON_AND_ORGANIZATION_ROLE ( 'creator' ) ;
#277 = PRODUCT_RELATED_PRODUCT_CATEGORY ( 'detail', '', ( #465 ) ) ;
#278 = CC_DESIGN_PERSON_AND_ORGANIZATION_ASSIGNMENT ( #104, #276, ( #171 ) ) ;
#279 = VERTEX_POINT ( 'NONE', #198 ) ;
#280 = APPLICATION_CONTEXT ( 'configuration controlled 3d designs of mechanical parts and assemblies' ) ;
#281 = LINE ( 'NONE', #422, #492 ) ;
#282 = DIRECTION ( 'NONE',  ( 0.000000000000000000, 1.000000000000000000, 0.000000000000000000 ) ) ;
#283 = ORIENTED_EDGE ( 'NONE', *, *, #355, .T. ) ;
#284 = PERSON_AND_ORGANIZATION ( #348, #236 ) ;
#285 = DIRECTION ( 'NONE',  ( 0.000000000000000000, 1.000000000000000000, -0.000000000000000000 ) ) ;
#286 = EDGE_CURVE ( 'NONE', #207, #356, #353, .T. ) ;
#287 = ORIENTED_EDGE ( 'NONE', *, *, #36, .F. ) ;
#288 = CALENDAR_DATE ( 2025, 20, 11 ) ;
#289 = CARTESIAN_POINT ( 'NONE',  ( -29.36705397461808076, 0.1999999999999998723, -0.7499999999999998890 ) ) ;
#290 = ORIENTED_EDGE ( 'NONE', *, *, #383, .T. ) ;
#291 = DIRECTION ( 'NONE',  ( 0.000000000000000000, 0.000000000000000000, -1.000000000000000000 ) ) ;
#292 = CARTESIAN_POINT ( 'NONE',  ( 35.83294602538191498, 0.2000000000000001776, -1.000000000000000222 ) ) ;
#293 = EDGE_LOOP ( 'NONE', ( #220, #525 ) ) ;
#294 = EDGE_CURVE ( 'NONE', #141, #209, #139, .T. ) ;
#295 = FACE_OUTER_BOUND ( 'NONE', #113, .T. ) ;
#296 = APPROVAL_PERSON_ORGANIZATION ( #305, #462, #345 ) ;
#297 = AXIS2_PLACEMENT_3D ( 'NONE', #328, #376, #317 ) ;
#298 = CARTESIAN_POINT ( 'NONE',  ( -29.61705397461808076, -1.394479201156672309E-16, -0.7499999999999981126 ) ) ;
#299 = AXIS2_PLACEMENT_3D ( 'NONE', #101, #512, #106 ) ;
#300 = CARTESIAN_POINT ( 'NONE',  ( -29.61705397461808076, 0.1999999999999998723, -0.2500000000000016098 ) ) ;
#301 = FACE_BOUND ( 'NONE', #168, .T. ) ;
#302 = EDGE_CURVE ( 'NONE', #238, #127, #246, .T. ) ;
#303 = ORIENTED_EDGE ( 'NONE', *, *, #97, .T. ) ;
#304 = VECTOR ( 'NONE', #45, 100.0000000000000000 ) ;
#305 = PERSON_AND_ORGANIZATION ( #348, #236 ) ;
#306 = CALENDAR_DATE ( 2025, 20, 11 ) ;
#307 = ORIENTED_EDGE ( 'NONE', *, *, #463, .F. ) ;
#308 = DIRECTION ( 'NONE',  ( -0.000000000000000000, -1.000000000000000000, -0.000000000000000000 ) ) ;
#309 = CC_DESIGN_APPROVAL ( #388, ( #212 ) ) ;
#310 = PERSON_AND_ORGANIZATION ( #348, #236 ) ;
#311 = DIRECTION ( 'NONE',  ( -0.000000000000000000, -1.000000000000000000, -0.000000000000000000 ) ) ;
#312 = VERTEX_POINT ( 'NONE', #79 ) ;
#313 = ADVANCED_FACE ( 'NONE', ( #128 ), #41, .F. ) ;
#314 = ORIENTED_EDGE ( 'NONE', *, *, #233, .T. ) ;
#315 = LOCAL_TIME ( 9, 13, 46.00000000000000000, #105 ) ;
#316 = EDGE_LOOP ( 'NONE', ( #329, #74, #81, #523 ) ) ;
#317 = DIRECTION ( 'NONE',  ( 0.000000000000000000, 0.000000000000000000, -1.000000000000000000 ) ) ;
#318 = ORIENTED_EDGE ( 'NONE', *, *, #463, .T. ) ;
#319 = EDGE_CURVE ( 'NONE', #404, #393, #349, .T. ) ;
#320 = CARTESIAN_POINT ( 'NONE',  ( -29.36705397461808076, 0.1999999999999998723, -0.2499999999999997780 ) ) ;
#321 = ORIENTED_EDGE ( 'NONE', *, *, #269, .F. ) ;
#322 = LOCAL_TIME ( 9, 13, 46.00000000000000000, #503 ) ;
#323 = AXIS2_PLACEMENT_3D ( 'NONE', #442, #30, #374 ) ;
#324 = LINE ( 'NONE', #122, #351 ) ;
#325 = ORIENTED_EDGE ( 'NONE', *, *, #82, .T. ) ;
#326 = APPROVAL ( #202, 'UNSPECIFIED' ) ;
#327 = DIRECTION ( 'NONE',  ( 0.000000000000000000, 0.000000000000000000, 1.000000000000000000 ) ) ;
#328 = CARTESIAN_POINT ( 'NONE',  ( 35.83294602538191498, 0.2000000000000001776, -0.7500000000000002220 ) ) ;
#329 = ORIENTED_EDGE ( 'NONE', *, *, #294, .T. ) ;
#330 = DIRECTION ( 'NONE',  ( -0.000000000000000000, -1.000000000000000000, -0.000000000000000000 ) ) ;
#331 = DIRECTION ( 'NONE',  ( -0.000000000000000000, -0.000000000000000000, 1.000000000000000000 ) ) ;
#332 = FACE_OUTER_BOUND ( 'NONE', #32, .T. ) ;
#333 = VECTOR ( 'NONE', #197, 100.0000000000000000 ) ;
#334 = FACE_OUTER_BOUND ( 'NONE', #130, .T. ) ;
#335 = VECTOR ( 'NONE', #255, 100.0000000000000000 ) ;
#336 = AXIS2_PLACEMENT_3D ( 'NONE', #289, #285, #368 ) ;
#337 = DIRECTION ( 'NONE',  ( 0.000000000000000000, 0.000000000000000000, -1.000000000000000000 ) ) ;
#338 = CYLINDRICAL_SURFACE ( 'NONE', #186, 0.2500000000000001110 ) ;
#339 = ORIENTED_EDGE ( 'NONE', *, *, #344, .T. ) ;
#340 = CARTESIAN_POINT ( 'NONE',  ( 35.58294602538191498, 0.2000000000000001776, -0.2499999999999999722 ) ) ;
#341 = EDGE_CURVE ( 'NONE', #48, #414, #281, .T. ) ;
#342 = VERTEX_POINT ( 'NONE', #451 ) ;
#343 =( NAMED_UNIT ( * ) SI_UNIT ( $, .STERADIAN. ) SOLID_ANGLE_UNIT ( ) );
#344 = EDGE_CURVE ( 'NONE', #228, #185, #494, .T. ) ;
#345 = APPROVAL_ROLE ( '' ) ;
#346 = CIRCLE ( 'NONE', #116, 0.2499999999999999722 ) ;
#347 = DIRECTION ( 'NONE',  ( 0.000000000000000000, 0.000000000000000000, -1.000000000000000000 ) ) ;
#348 = PERSON ( 'UNSPECIFIED', 'UNSPECIFIED', 'UNSPECIFIED', ('UNSPECIFIED'), ('UNSPECIFIED'), ('UNSPECIFIED') ) ;
#349 = CIRCLE ( 'NONE', #21, 0.2500000000000002220 ) ;
#350 = ORIENTED_EDGE ( 'NONE', *, *, #72, .T. ) ;
#351 = VECTOR ( 'NONE', #133, 100.0000000000000000 ) ;
#352 = CARTESIAN_POINT ( 'NONE',  ( 31.33294602538191498, 0.2000000000000001776, -1.000000000000000222 ) ) ;
#353 = LINE ( 'NONE', #511, #520 ) ;
#354 = DESIGN_CONTEXT ( 'detailed design', #280, 'design' ) ;
#355 = EDGE_CURVE ( 'NONE', #260, #150, #109, .T. ) ;
#356 = VERTEX_POINT ( 'NONE', #426 ) ;
#357 = DIRECTION ( 'NONE',  ( -0.000000000000000000, -1.000000000000000000, -0.000000000000000000 ) ) ;
#358 = AXIS2_PLACEMENT_3D ( 'NONE', #352, #510, #151 ) ;
#359 = CALENDAR_DATE ( 2025, 20, 11 ) ;
#360 = ORIENTED_EDGE ( 'NONE', *, *, #107, .T. ) ;
#361 = EDGE_CURVE ( 'NONE', #393, #150, #17, .T. ) ;
#362 = DIRECTION ( 'NONE',  ( 0.000000000000000000, 1.000000000000000000, 0.000000000000000000 ) ) ;
#363 = ORIENTED_EDGE ( 'NONE', *, *, #302, .T. ) ;
#364 = CARTESIAN_POINT ( 'NONE',  ( -29.11705397461808076, -1.301042606982605321E-16, -0.7500000000000000000 ) ) ;
#365 = ORIENTED_EDGE ( 'NONE', *, *, #472, .F. ) ;
#366 = DIRECTION ( 'NONE',  ( 0.000000000000000000, 1.000000000000000000, -0.000000000000000000 ) ) ;
#367 = EDGE_CURVE ( 'NONE', #54, #279, #64, .T. ) ;
#368 = DIRECTION ( 'NONE',  ( 0.000000000000000000, 0.000000000000000000, -1.000000000000000000 ) ) ;
#369 = DIRECTION ( 'NONE',  ( 0.000000000000000000, 0.000000000000000000, 1.000000000000000000 ) ) ;
#370 = ORIENTED_EDGE ( 'NONE', *, *, #161, .T. ) ;
#371 = CARTESIAN_POINT ( 'NONE',  ( 35.58294602538191498, 0.2000000000000001776, -0.5000000000000002220 ) ) ;
#372 = DIRECTION ( 'NONE',  ( 0.000000000000000000, 1.000000000000000000, -0.000000000000000000 ) ) ;
#373 = DIRECTION ( 'NONE',  ( 0.000000000000000000, 0.000000000000000000, -1.000000000000000000 ) ) ;
#374 = DIRECTION ( 'NONE',  ( 0.000000000000000000, 0.000000000000000000, 1.000000000000000000 ) ) ;
#375 = ORIENTED_EDGE ( 'NONE', *, *, #286, .F. ) ;
#376 = DIRECTION ( 'NONE',  ( -0.000000000000000000, -1.000000000000000000, -0.000000000000000000 ) ) ;
#377 = ORIENTED_EDGE ( 'NONE', *, *, #500, .F. ) ;
#378 = DIRECTION ( 'NONE',  ( -0.000000000000000000, -1.000000000000000000, -0.000000000000000000 ) ) ;
#379 = PLANE ( 'NONE',  #177 ) ;
#380 = CARTESIAN_POINT ( 'NONE',  ( 35.83294602538191498, 1.463498759201943139E-16, -1.000000000000000222 ) ) ;
#381 = CC_DESIGN_APPROVAL ( #326, ( #73 ) ) ;
#382 = LINE ( 'NONE', #9, #121 ) ;
#383 = EDGE_CURVE ( 'NONE', #207, #54, #102, .T. ) ;
#384 = ORIENTED_EDGE ( 'NONE', *, *, #219, .T. ) ;
#385 = FACE_BOUND ( 'NONE', #409, .T. ) ;
#386 = APPLICATION_PROTOCOL_DEFINITION ( 'international standard', 'config_control_design', 1994, #280 ) ;
#387 = DIRECTION ( 'NONE',  ( 0.000000000000000000, 1.000000000000000000, -0.000000000000000000 ) ) ;
#388 = APPROVAL ( #234, 'UNSPECIFIED' ) ;
#389 = AXIS2_PLACEMENT_3D ( 'NONE', #58, #230, #98 ) ;
#390 = AXIS2_PLACEMENT_3D ( 'NONE', #88, #118, #449 ) ;
#391 = CARTESIAN_POINT ( 'NONE',  ( -29.11705397461808076, 0.1999999999999998723, -0.4999999999999998335 ) ) ;
#392 = DIRECTION ( 'NONE',  ( 0.000000000000000000, 0.000000000000000000, -1.000000000000000000 ) ) ;
#393 = VERTEX_POINT ( 'NONE', #340 ) ;
#394 = COORDINATED_UNIVERSAL_TIME_OFFSET ( 7, 0, .BEHIND. ) ;
#395 = ORIENTED_EDGE ( 'NONE', *, *, #144, .T. ) ;
#396 = DATE_AND_TIME ( #359, #204 ) ;
#397 = ADVANCED_FACE ( 'NONE', ( #332 ), #124, .F. ) ;
#398 = EDGE_LOOP ( 'NONE', ( #266, #10, #443, #85 ) ) ;
#399 = DIRECTION ( 'NONE',  ( 0.000000000000000000, 0.000000000000000000, -1.000000000000000000 ) ) ;
#400 = APPROVAL_PERSON_ORGANIZATION ( #468, #388, #100 ) ;
#401 = CIRCLE ( 'NONE', #390, 0.2500000000000001110 ) ;
#402 = LINE ( 'NONE', #292, #225 ) ;
#403 = DIRECTION ( 'NONE',  ( 0.000000000000000000, 1.000000000000000000, 0.000000000000000000 ) ) ;
#404 = VERTEX_POINT ( 'NONE', #267 ) ;
#405 = LINE ( 'NONE', #441, #335 ) ;
#406 = CARTESIAN_POINT ( 'NONE',  ( -29.61705397461808076, -1.301042606982605321E-16, -0.2500000000000016098 ) ) ;
#407 = ORIENTED_EDGE ( 'NONE', *, *, #154, .F. ) ;
#408 = CARTESIAN_POINT ( 'NONE',  ( 35.83294602538191498, 0.2000000000000001776, -0.2500000000000001110 ) ) ;
#409 = EDGE_LOOP ( 'NONE', ( #270, #350 ) ) ;
#410 = CARTESIAN_POINT ( 'NONE',  ( 31.33294602538191498, 0.2000000000000001776, -1.000000000000000222 ) ) ;
#412 = ADVANCED_FACE ( 'NONE', ( #301, #488, #385 ), #379, .F. ) ;
#411 = VECTOR ( 'NONE', #330, 100.0000000000000000 ) ;
#413 = FACE_OUTER_BOUND ( 'NONE', #316, .T. ) ;
#414 = VERTEX_POINT ( 'NONE', #87 ) ;
#415 = PLANE ( 'NONE',  #508 ) ;
#416 = ORIENTED_EDGE ( 'NONE', *, *, #61, .F. ) ;
#417 = ORIENTED_EDGE ( 'NONE', *, *, #505, .F. ) ;
#418 = CARTESIAN_POINT ( 'NONE',  ( 36.08294602538191498, 0.2000000000000001776, -0.2500000000000019429 ) ) ;
#419 =( GEOMETRIC_REPRESENTATION_CONTEXT ( 3 ) GLOBAL_UNCERTAINTY_ASSIGNED_CONTEXT ( ( #22 ) ) GLOBAL_UNIT_ASSIGNED_CONTEXT ( ( #63, #59, #343 ) ) REPRESENTATION_CONTEXT ( 'NONE', 'WORKASPACE' ) );
#420 = ORIENTED_EDGE ( 'NONE', *, *, #262, .F. ) ;
#421 = DIRECTION ( 'NONE',  ( -0.000000000000000000, -1.000000000000000000, -0.000000000000000000 ) ) ;
#422 = CARTESIAN_POINT ( 'NONE',  ( -29.11705397461808076, 0.1999999999999998723, -0.2499999999999996947 ) ) ;
#423 = CC_DESIGN_PERSON_AND_ORGANIZATION_ASSIGNMENT ( #70, #480, ( #212 ) ) ;
#424 = APPROVAL_STATUS ( 'not_yet_approved' ) ;
#425 = VECTOR ( 'NONE', #53, 100.0000000000000000 ) ;
#426 = CARTESIAN_POINT ( 'NONE',  ( -29.61705397461808076, -1.394479201156672309E-16, -0.2500000000000015543 ) ) ;
#427 = FACE_OUTER_BOUND ( 'NONE', #172, .T. ) ;
#428 = PLANE ( 'NONE',  #31 ) ;
#429 = DATE_AND_TIME ( #272, #224 ) ;
#430 = ADVANCED_FACE ( 'NONE', ( #261 ), #140, .F. ) ;
#431 = CARTESIAN_POINT ( 'NONE',  ( 35.58294602538191498, 1.517883041479706208E-16, -0.7500000000000004441 ) ) ;
#432 = AXIS2_PLACEMENT_3D ( 'NONE', #371, #357, #399 ) ;
#433 = CIRCLE ( 'NONE', #119, 0.2500000000000001110 ) ;
#434 = VERTEX_POINT ( 'NONE', #83 ) ;
#435 = AXIS2_PLACEMENT_3D ( 'NONE', #8, #181, #496 ) ;
#436 = CARTESIAN_POINT ( 'NONE',  ( 35.83294602538191498, 0.2000000000000001221, -1.000000000000000222 ) ) ;
#437 = ORIENTED_EDGE ( 'NONE', *, *, #36, .T. ) ;
#438 = VECTOR ( 'NONE', #38, 100.0000000000000000 ) ;
#439 = LINE ( 'NONE', #34, #178 ) ;
#440 = ORIENTED_EDGE ( 'NONE', *, *, #233, .F. ) ;
#441 = CARTESIAN_POINT ( 'NONE',  ( 31.33294602538191498, 1.517883041479706208E-16, -1.000000000000000222 ) ) ;
#442 = CARTESIAN_POINT ( 'NONE',  ( 35.58294602538191498, 0.2000000000000001776, -0.5000000000000002220 ) ) ;
#443 = ORIENTED_EDGE ( 'NONE', *, *, #383, .F. ) ;
#444 = CC_DESIGN_PERSON_AND_ORGANIZATION_ASSIGNMENT ( #310, #471, ( #465 ) ) ;
#445 = DIRECTION ( 'NONE',  ( -0.000000000000000000, -1.000000000000000000, -0.000000000000000000 ) ) ;
#446 = CARTESIAN_POINT ( 'NONE',  ( 35.83294602538191498, 1.463498759201943139E-16, -1.546232502950048327E-16 ) ) ;
#447 = EDGE_LOOP ( 'NONE', ( #417, #265, #123, #502 ) ) ;
#448 = AXIS2_PLACEMENT_3D ( 'NONE', #180, #445, #337 ) ;
#449 = DIRECTION ( 'NONE',  ( 0.000000000000000000, 0.000000000000000000, 1.000000000000000000 ) ) ;
#450 = ORIENTED_EDGE ( 'NONE', *, *, #61, .T. ) ;
#451 = CARTESIAN_POINT ( 'NONE',  ( 36.08294602538191498, 1.463498759201943139E-16, -0.7499999999999984457 ) ) ;
#452 = EDGE_CURVE ( 'NONE', #127, #228, #459, .T. ) ;
#453 = CARTESIAN_POINT ( 'NONE',  ( 36.08294602538191498, 1.463498759201943139E-16, -0.2500000000000019429 ) ) ;
#454 = ORIENTED_EDGE ( 'NONE', *, *, #161, .F. ) ;
#455 = DIRECTION ( 'NONE',  ( -0.000000000000000000, -1.000000000000000000, -0.000000000000000000 ) ) ;
#456 = CARTESIAN_POINT ( 'NONE',  ( 35.58294602538191498, 0.2000000000000001776, -0.7500000000000004441 ) ) ;
#457 = AXIS2_PLACEMENT_3D ( 'NONE', #517, #366, #256 ) ;
#458 = VERTEX_POINT ( 'NONE', #298 ) ;
#459 = LINE ( 'NONE', #410, #271 ) ;
#460 = CIRCLE ( 'NONE', #66, 0.2500000000000001110 ) ;
#461 = FACE_OUTER_BOUND ( 'NONE', #23, .T. ) ;
#462 = APPROVAL ( #424, 'UNSPECIFIED' ) ;
#463 = EDGE_CURVE ( 'NONE', #404, #260, #495, .T. ) ;
#464 = COORDINATED_UNIVERSAL_TIME_OFFSET ( 7, 0, .BEHIND. ) ;
#465 = PRODUCT ( 'Link H_Default_sldprt', 'Link H_Default_sldprt', '', ( #16 ) ) ;
#466 = CARTESIAN_POINT ( 'NONE',  ( -29.36705397461808076, 0.1999999999999998723, -0.9999999999999998890 ) ) ;
#467 = ORIENTED_EDGE ( 'NONE', *, *, #361, .F. ) ;
#468 = PERSON_AND_ORGANIZATION ( #348, #236 ) ;
#469 = CIRCLE ( 'NONE', #232, 0.2500000000000001110 ) ;
#470 = AXIS2_PLACEMENT_3D ( 'NONE', #152, #487, #327 ) ;
#471 = PERSON_AND_ORGANIZATION_ROLE ( 'design_owner' ) ;
#472 = EDGE_CURVE ( 'NONE', #3, #110, #226, .T. ) ;
#473 = AXIS2_PLACEMENT_3D ( 'NONE', #247, #362, #518 ) ;
#474 = DIRECTION ( 'NONE',  ( 0.000000000000000000, 0.000000000000000000, -1.000000000000000000 ) ) ;
#475 = VERTEX_POINT ( 'NONE', #57 ) ;
#476 = DIRECTION ( 'NONE',  ( 0.000000000000000000, 1.000000000000000000, 0.000000000000000000 ) ) ;
#477 = CARTESIAN_POINT ( 'NONE',  ( 36.08294602538191498, 0.2000000000000001776, -0.7499999999999984457 ) ) ;
#478 = ORIENTED_EDGE ( 'NONE', *, *, #219, .F. ) ;
#479 = DIRECTION ( 'NONE',  ( -0.000000000000000000, -1.000000000000000000, -0.000000000000000000 ) ) ;
#480 = PERSON_AND_ORGANIZATION_ROLE ( 'design_supplier' ) ;
#481 = CYLINDRICAL_SURFACE ( 'NONE', #297, 0.2500000000000001110 ) ;
#482 = ADVANCED_FACE ( 'NONE', ( #229 ), #96, .F. ) ;
#483 = EDGE_LOOP ( 'NONE', ( #201, #384, #99, #196 ) ) ;
#484 = DIRECTION ( 'NONE',  ( 0.000000000000000000, -0.000000000000000000, 1.000000000000000000 ) ) ;
#485 = CARTESIAN_POINT ( 'NONE',  ( -29.36705397461808076, 0.1999999999999998723, 1.734723475976807094E-16 ) ) ;
#486 = ORIENTED_EDGE ( 'NONE', *, *, #55, .F. ) ;
#487 = DIRECTION ( 'NONE',  ( 0.000000000000000000, 1.000000000000000000, 0.000000000000000000 ) ) ;
#488 = FACE_OUTER_BOUND ( 'NONE', #263, .T. ) ;
#489 = CYLINDRICAL_SURFACE ( 'NONE', #143, 0.2500000000000001110 ) ;
#490 = EDGE_LOOP ( 'NONE', ( #120, #46, #321, #365 ) ) ;
#491 = DIRECTION ( 'NONE',  ( -1.000000000000000000, -0.000000000000000000, -0.000000000000000000 ) ) ;
#492 = VECTOR ( 'NONE', #378, 100.0000000000000000 ) ;
#493 = CARTESIAN_POINT ( 'NONE',  ( -29.11705397461808076, 0.1999999999999998723, -0.7500000000000000000 ) ) ;
#494 = LINE ( 'NONE', #11, #86 ) ;
#495 = LINE ( 'NONE', #456, #425 ) ;
#496 = DIRECTION ( 'NONE',  ( 0.000000000000000000, 0.000000000000000000, -1.000000000000000000 ) ) ;
#497 = ORIENTED_EDGE ( 'NONE', *, *, #43, .T. ) ;
#498 = DIRECTION ( 'NONE',  ( 0.000000000000000000, 1.000000000000000000, 0.000000000000000000 ) ) ;
#499 = CIRCLE ( 'NONE', #167, 0.2500000000000001110 ) ;
#500 = EDGE_CURVE ( 'NONE', #3, #48, #469, .T. ) ;
#501 = CARTESIAN_POINT ( 'NONE',  ( 35.58294602538191498, 0.2000000000000001776, -0.5000000000000002220 ) ) ;
#502 = ORIENTED_EDGE ( 'NONE', *, *, #158, .T. ) ;
#503 = COORDINATED_UNIVERSAL_TIME_OFFSET ( 7, 0, .BEHIND. ) ;
#504 = CARTESIAN_POINT ( 'NONE',  ( -29.36705397461808076, -1.301042606982605321E-16, -0.2499999999999997780 ) ) ;
#505 = EDGE_CURVE ( 'NONE', #475, #141, #19, .T. ) ;
#506 = CC_DESIGN_APPROVAL ( #462, ( #171 ) ) ;
#507 = CIRCLE ( 'NONE', #323, 0.2500000000000002220 ) ;
#508 = AXIS2_PLACEMENT_3D ( 'NONE', #115, #282, #251 ) ;
#509 = EDGE_LOOP ( 'NONE', ( #377, #478 ) ) ;
#510 = DIRECTION ( 'NONE',  ( 0.000000000000000000, 0.000000000000000000, 1.000000000000000000 ) ) ;
#511 = CARTESIAN_POINT ( 'NONE',  ( -29.61705397461808076, 0.1999999999999998723, -0.2500000000000014988 ) ) ;
#512 = DIRECTION ( 'NONE',  ( 0.000000000000000000, 1.000000000000000000, 0.000000000000000000 ) ) ;
#513 = CC_DESIGN_PERSON_AND_ORGANIZATION_ASSIGNMENT ( #68, #239, ( #212 ) ) ;
#514 = DATE_AND_TIME ( #288, #60 ) ;
#515 = ORIENTED_EDGE ( 'NONE', *, *, #55, .T. ) ;
#516 = ORIENTED_EDGE ( 'NONE', *, *, #97, .F. ) ;
#517 = CARTESIAN_POINT ( 'NONE',  ( 35.83294602538191498, 0.2000000000000001776, -0.7500000000000002220 ) ) ;
#518 = DIRECTION ( 'NONE',  ( 0.000000000000000000, 0.000000000000000000, 1.000000000000000000 ) ) ;
#519 = ORIENTED_EDGE ( 'NONE', *, *, #355, .F. ) ;
#520 = VECTOR ( 'NONE', #235, 100.0000000000000000 ) ;
#521 = ADVANCED_FACE ( 'NONE', ( #427 ), #187, .F. ) ;
#522 = FACE_OUTER_BOUND ( 'NONE', #398, .T. ) ;
#523 = ORIENTED_EDGE ( 'NONE', *, *, #505, .T. ) ;
#524 = CARTESIAN_POINT ( 'NONE',  ( 36.08294602538191498, 1.517883041479706208E-16, -0.2500000000000019429 ) ) ;
#525 = ORIENTED_EDGE ( 'NONE', *, *, #179, .F. ) ;
ENDSEC;
END-ISO-10303-21;
