ISO-10303-21;
HEADER;
FILE_DESCRIPTION (( 'STEP AP203' ),
    '1' );
FILE_NAME ('Link C_Default_sldprt.STEP',
    '2025-11-20T16:13:30',
    ( '' ),
    ( '' ),
    'SwSTEP 2.0',
    'SolidWorks 2025',
    '' );
FILE_SCHEMA (( 'CONFIG_CONTROL_DESIGN' ));
ENDSEC;

DATA;
#1 = EDGE_LOOP ( 'NONE', ( #336, #230, #91, #155 ) ) ;
#2 = EDGE_CURVE ( 'NONE', #131, #409, #241, .T. ) ;
#3 = APPROVAL_DATE_TIME ( #293, #352 ) ;
#4 = CARTESIAN_POINT ( 'NONE',  ( 22.06416884136078238, 0.2000000000000000944, -0.5000000000000001110 ) ) ;
#5 = SECURITY_CLASSIFICATION_LEVEL ( 'unclassified' ) ;
#6 = CYLINDRICAL_SURFACE ( 'NONE', #107, 0.2500000000000002220 ) ;
#7 = APPROVAL_ROLE ( '' ) ;
#8 = AXIS2_PLACEMENT_3D ( 'NONE', #358, #397, #360 ) ;
#9 = CARTESIAN_POINT ( 'NONE',  ( 4.750000000000000000, 0.2000000000000000111, -0.2499999999999999722 ) ) ;
#10 = EDGE_CURVE ( 'NONE', #295, #114, #36, .T. ) ;
#11 = ORIENTED_EDGE ( 'NONE', *, *, #189, .F. ) ;
#12 = LINE ( 'NONE', #218, #258 ) ;
#13 = ORIENTED_EDGE ( 'NONE', *, *, #228, .T. ) ;
#14 = EDGE_CURVE ( 'NONE', #38, #208, #269, .T. ) ;
#15 = DIRECTION ( 'NONE',  ( -0.000000000000000000, -1.000000000000000000, -0.000000000000000000 ) ) ;
#16 = AXIS2_PLACEMENT_3D ( 'NONE', #407, #372, #445 ) ;
#17 = EDGE_LOOP ( 'NONE', ( #467, #106, #273, #135 ) ) ;
#18 = EDGE_CURVE ( 'NONE', #54, #217, #505, .T. ) ;
#19 = DIRECTION ( 'NONE',  ( 0.000000000000000000, 0.000000000000000000, -1.000000000000000000 ) ) ;
#20 = ORIENTED_EDGE ( 'NONE', *, *, #333, .F. ) ;
#21 = CARTESIAN_POINT ( 'NONE',  ( -16.73583115863920767, 0.1999999999999999278, -0.2500000000000017208 ) ) ;
#22 = ORIENTED_EDGE ( 'NONE', *, *, #320, .T. ) ;
#23 = EDGE_CURVE ( 'NONE', #295, #54, #199, .T. ) ;
#24 = FACE_OUTER_BOUND ( 'NONE', #301, .T. ) ;
#25 = ORIENTED_EDGE ( 'NONE', *, *, #433, .T. ) ;
#26 = AXIS2_PLACEMENT_3D ( 'NONE', #483, #128, #216 ) ;
#27 = AXIS2_PLACEMENT_3D ( 'NONE', #356, #77, #362 ) ;
#28 = FACE_OUTER_BOUND ( 'NONE', #17, .T. ) ;
#29 = VERTEX_POINT ( 'NONE', #117 ) ;
#30 = APPROVAL_ROLE ( '' ) ;
#31 = LINE ( 'NONE', #41, #271 ) ;
#32 = EDGE_CURVE ( 'NONE', #409, #464, #31, .T. ) ;
#33 = DIRECTION ( 'NONE',  ( -1.000000000000000000, 0.000000000000000000, 0.000000000000000000 ) ) ;
#34 = CARTESIAN_POINT ( 'NONE',  ( -16.73583115863920767, -7.879841284954506423E-17, -0.2500000000000016098 ) ) ;
#35 = ORGANIZATION ( 'UNSPECIFIED', 'UNSPECIFIED', '' ) ;
#36 = CIRCLE ( 'NONE', #323, 0.2499999999999999722 ) ;
#37 = CARTESIAN_POINT ( 'NONE',  ( -16.73583115863920767, 0.1999999999999999278, -0.2500000000000017208 ) ) ;
#38 = VERTEX_POINT ( 'NONE', #469 ) ;
#39 = CIRCLE ( 'NONE', #8, 0.2500000000000002220 ) ;
#40 = EDGE_CURVE ( 'NONE', #129, #234, #39, .T. ) ;
#41 = CARTESIAN_POINT ( 'NONE',  ( 17.81416884136078593, 8.673617379884035472E-17, -1.000000000000000222 ) ) ;
#42 = ORIENTED_EDGE ( 'NONE', *, *, #64, .T. ) ;
#43 = VECTOR ( 'NONE', #244, 100.0000000000000000 ) ;
#44 = PERSON_AND_ORGANIZATION_ROLE ( 'design_supplier' ) ;
#45 = PLANE ( 'NONE',  #214 ) ;
#46 = ORIENTED_EDGE ( 'NONE', *, *, #433, .F. ) ;
#47 = DATE_TIME_ROLE ( 'creation_date' ) ;
#48 = FACE_OUTER_BOUND ( 'NONE', #204, .T. ) ;
#49 = ORIENTED_EDGE ( 'NONE', *, *, #56, .T. ) ;
#50 = AXIS2_PLACEMENT_3D ( 'NONE', #237, #476, #239 ) ;
#51 = FACE_BOUND ( 'NONE', #377, .T. ) ;
#52 = VECTOR ( 'NONE', #206, 100.0000000000000000 ) ;
#53 = CARTESIAN_POINT ( 'NONE',  ( -16.23583115863920767, 0.1999999999999999278, -0.7500000000000001110 ) ) ;
#54 = VERTEX_POINT ( 'NONE', #34 ) ;
#55 = AXIS2_PLACEMENT_3D ( 'NONE', #160, #75, #404 ) ;
#56 = EDGE_CURVE ( 'NONE', #220, #234, #164, .T. ) ;
#57 = FACE_OUTER_BOUND ( 'NONE', #507, .T. ) ;
#58 = CYLINDRICAL_SURFACE ( 'NONE', #221, 0.2500000000000001110 ) ;
#59 = ORIENTED_EDGE ( 'NONE', *, *, #40, .T. ) ;
#60 = EDGE_CURVE ( 'NONE', #354, #54, #514, .T. ) ;
#61 = DIRECTION ( 'NONE',  ( -1.000000000000000000, -0.000000000000000000, -0.000000000000000000 ) ) ;
#62 = AXIS2_PLACEMENT_3D ( 'NONE', #156, #442, #192 ) ;
#63 = EDGE_LOOP ( 'NONE', ( #227, #292, #69, #260 ) ) ;
#64 = EDGE_CURVE ( 'NONE', #311, #71, #279, .T. ) ;
#65 = CARTESIAN_POINT ( 'NONE',  ( 17.81416884136078593, 0.2000000000000000944, -1.000000000000000222 ) ) ;
#66 = ORIENTED_EDGE ( 'NONE', *, *, #18, .T. ) ;
#67 = PRODUCT_DEFINITION_SHAPE ( 'NONE', 'NONE',  #312 ) ;
#68 = CARTESIAN_POINT ( 'NONE',  ( 22.06416884136078238, 0.2000000000000000944, -0.5000000000000001110 ) ) ;
#69 = ORIENTED_EDGE ( 'NONE', *, *, #501, .F. ) ;
#70 = FACE_BOUND ( 'NONE', #84, .T. ) ;
#71 = VERTEX_POINT ( 'NONE', #235 ) ;
#72 = EDGE_CURVE ( 'NONE', #487, #354, #122, .T. ) ;
#73 = CARTESIAN_POINT ( 'NONE',  ( -16.73583115863920767, 0.1999999999999999278, -0.7499999999999981126 ) ) ;
#74 = PERSON_AND_ORGANIZATION ( #133, #35 ) ;
#75 = DIRECTION ( 'NONE',  ( 0.000000000000000000, 1.000000000000000000, -0.000000000000000000 ) ) ;
#76 = CARTESIAN_POINT ( 'NONE',  ( 17.81416884136078593, 0.2000000000000000944, -8.673617379884035472E-17 ) ) ;
#77 = DIRECTION ( 'NONE',  ( 0.000000000000000000, 1.000000000000000000, -0.000000000000000000 ) ) ;
#78 = PRODUCT_DEFINITION_FORMATION_WITH_SPECIFIED_SOURCE ( 'ANY', '', #226, .NOT_KNOWN. ) ;
#79 = EDGE_CURVE ( 'NONE', #234, #129, #396, .T. ) ;
#80 = CYLINDRICAL_SURFACE ( 'NONE', #62, 0.2500000000000002220 ) ;
#81 = ORIENTED_EDGE ( 'NONE', *, *, #10, .T. ) ;
#82 = ADVANCED_FACE ( 'NONE', ( #402 ), #394, .T. ) ;
#83 = MECHANICAL_CONTEXT ( 'NONE', #508, 'mechanical' ) ;
#84 = EDGE_LOOP ( 'NONE', ( #185, #342 ) ) ;
#85 = CALENDAR_DATE ( 2025, 20, 11 ) ;
#86 = CARTESIAN_POINT ( 'NONE',  ( -16.48583115863920767, -8.673617379884035472E-17, -0.7500000000000000000 ) ) ;
#87 = CIRCLE ( 'NONE', #512, 0.2500000000000001110 ) ;
#88 = DIRECTION ( 'NONE',  ( 0.000000000000000000, 0.000000000000000000, 1.000000000000000000 ) ) ;
#89 = ORIENTED_EDGE ( 'NONE', *, *, #224, .F. ) ;
#90 = DIRECTION ( 'NONE',  ( -0.000000000000000000, -1.000000000000000000, -0.000000000000000000 ) ) ;
#91 = ORIENTED_EDGE ( 'NONE', *, *, #364, .T. ) ;
#92 = DATE_AND_TIME ( #85, #374 ) ;
#93 = DIRECTION ( 'NONE',  ( 0.000000000000000000, 0.000000000000000000, -1.000000000000000000 ) ) ;
#94 = ORIENTED_EDGE ( 'NONE', *, *, #40, .F. ) ;
#95 = APPROVAL ( #365, 'UNSPECIFIED' ) ;
#96 = PERSON_AND_ORGANIZATION_ROLE ( 'classification_officer' ) ;
#97 = AXIS2_PLACEMENT_3D ( 'NONE', #345, #145, #419 ) ;
#98 = CC_DESIGN_APPROVAL ( #352, ( #78 ) ) ;
#99 = CARTESIAN_POINT ( 'NONE',  ( 22.06416884136078238, 0.2000000000000000944, -0.7500000000000003331 ) ) ;
#100 = ORIENTED_EDGE ( 'NONE', *, *, #32, .T. ) ;
#101 = DIRECTION ( 'NONE',  ( 0.000000000000000000, 1.000000000000000000, -0.000000000000000000 ) ) ;
#102 = ORIENTED_EDGE ( 'NONE', *, *, #413, .T. ) ;
#103 = DIRECTION ( 'NONE',  ( 0.000000000000000000, 0.000000000000000000, -1.000000000000000000 ) ) ;
#104 = VECTOR ( 'NONE', #443, 100.0000000000000000 ) ;
#105 = EDGE_CURVE ( 'NONE', #217, #71, #284, .T. ) ;
#106 = ORIENTED_EDGE ( 'NONE', *, *, #436, .T. ) ;
#107 = AXIS2_PLACEMENT_3D ( 'NONE', #525, #252, #93 ) ;
#108 = DIRECTION ( 'NONE',  ( 0.000000000000000000, 0.000000000000000000, -1.000000000000000000 ) ) ;
#109 = AXIS2_PLACEMENT_3D ( 'NONE', #264, #463, #430 ) ;
#110 = ORIENTED_EDGE ( 'NONE', *, *, #14, .F. ) ;
#111 = DIRECTION ( 'NONE',  ( 1.000000000000000000, 0.000000000000000000, -0.000000000000000000 ) ) ;
#112 = ORIENTED_EDGE ( 'NONE', *, *, #105, .F. ) ;
#113 = DIRECTION ( 'NONE',  ( 0.000000000000000000, 1.000000000000000000, 0.000000000000000000 ) ) ;
#114 = VERTEX_POINT ( 'NONE', #245 ) ;
#115 = CC_DESIGN_PERSON_AND_ORGANIZATION_ASSIGNMENT ( #74, #236, ( #312 ) ) ;
#116 = DIRECTION ( 'NONE',  ( 0.000000000000000000, 0.000000000000000000, 1.000000000000000000 ) ) ;
#117 = CARTESIAN_POINT ( 'NONE',  ( 22.56416884136078238, 8.269852955622182216E-17, -0.2500000000000018874 ) ) ;
#118 = AXIS2_PLACEMENT_3D ( 'NONE', #188, #15, #178 ) ;
#119 = DIRECTION ( 'NONE',  ( 0.000000000000000000, 0.000000000000000000, -1.000000000000000000 ) ) ;
#120 = CARTESIAN_POINT ( 'NONE',  ( 22.56416884136078238, 8.269852955622182216E-17, -0.7499999999999984457 ) ) ;
#121 = CARTESIAN_POINT ( 'NONE',  ( -16.48583115863920412, 0.1999999999999999278, 8.673617379884035472E-17 ) ) ;
#122 = LINE ( 'NONE', #73, #246 ) ;
#123 = LINE ( 'NONE', #515, #43 ) ;
#124 = DIRECTION ( 'NONE',  ( 0.000000000000000000, 1.000000000000000000, 0.000000000000000000 ) ) ;
#125 = AXIS2_PLACEMENT_3D ( 'NONE', #4, #171, #88 ) ;
#126 = CARTESIAN_POINT ( 'NONE',  ( -16.48583115863920412, -8.673617379884035472E-17, 8.673617379884035472E-17 ) ) ;
#127 = CYLINDRICAL_SURFACE ( 'NONE', #26, 0.2499999999999999722 ) ;
#128 = DIRECTION ( 'NONE',  ( -0.000000000000000000, -1.000000000000000000, -0.000000000000000000 ) ) ;
#129 = VERTEX_POINT ( 'NONE', #511 ) ;
#130 = FACE_OUTER_BOUND ( 'NONE', #380, .T. ) ;
#131 = VERTEX_POINT ( 'NONE', #120 ) ;
#132 = PERSON_AND_ORGANIZATION_ROLE ( 'creator' ) ;
#133 = PERSON ( 'UNSPECIFIED', 'UNSPECIFIED', 'UNSPECIFIED', ('UNSPECIFIED'), ('UNSPECIFIED'), ('UNSPECIFIED') ) ;
#134 = DIRECTION ( 'NONE',  ( 0.000000000000000000, 1.000000000000000000, 0.000000000000000000 ) ) ;
#135 = ORIENTED_EDGE ( 'NONE', *, *, #56, .F. ) ;
#136 = EDGE_CURVE ( 'NONE', #441, #131, #256, .T. ) ;
#137 = PERSON_AND_ORGANIZATION ( #133, #35 ) ;
#138 = CARTESIAN_POINT ( 'NONE',  ( 17.81416884136078593, 0.2000000000000000944, -1.000000000000000222 ) ) ;
#139 = ORIENTED_EDGE ( 'NONE', *, *, #495, .T. ) ;
#140 = VECTOR ( 'NONE', #451, 100.0000000000000000 ) ;
#141 = VECTOR ( 'NONE', #225, 100.0000000000000000 ) ;
#142 = CC_DESIGN_APPROVAL ( #95, ( #461 ) ) ;
#143 = CARTESIAN_POINT ( 'NONE',  ( 22.06416884136078238, 0.2000000000000000944, -0.2499999999999998890 ) ) ;
#144 = UNCERTAINTY_MEASURE_WITH_UNIT (LENGTH_MEASURE( 1.000000000000000082E-05 ), #401, 'distance_accuracy_value', 'NONE');
#145 = DIRECTION ( 'NONE',  ( 0.000000000000000000, 1.000000000000000000, 0.000000000000000000 ) ) ;
#146 = ORIENTED_EDGE ( 'NONE', *, *, #516, .T. ) ;
#147 = DIRECTION ( 'NONE',  ( 0.000000000000000000, 0.000000000000000000, 1.000000000000000000 ) ) ;
#148 = ORIENTED_EDGE ( 'NONE', *, *, #136, .T. ) ;
#149 = DIRECTION ( 'NONE',  ( 1.000000000000000000, -0.000000000000000000, 0.000000000000000000 ) ) ;
#150 = ORIENTED_EDGE ( 'NONE', *, *, #449, .F. ) ;
#151 = PLANE ( 'NONE',  #415 ) ;
#152 = ORIENTED_EDGE ( 'NONE', *, *, #224, .T. ) ;
#153 = PRODUCT_RELATED_PRODUCT_CATEGORY ( 'detail', '', ( #226 ) ) ;
#154 = APPROVAL_STATUS ( 'not_yet_approved' ) ;
#155 = ORIENTED_EDGE ( 'NONE', *, *, #105, .T. ) ;
#156 = CARTESIAN_POINT ( 'NONE',  ( 22.06416884136078238, 0.2000000000000000944, -0.5000000000000001110 ) ) ;
#157 = ORIENTED_EDGE ( 'NONE', *, *, #243, .T. ) ;
#158 = VECTOR ( 'NONE', #458, 100.0000000000000000 ) ;
#159 = EDGE_CURVE ( 'NONE', #242, #29, #175, .T. ) ;
#160 = CARTESIAN_POINT ( 'NONE',  ( -16.48583115863920767, -8.673617379884035472E-17, -0.2499999999999998890 ) ) ;
#161 = LINE ( 'NONE', #37, #313 ) ;
#162 = EDGE_LOOP ( 'NONE', ( #499, #334, #392, #148 ) ) ;
#163 = DIRECTION ( 'NONE',  ( -0.000000000000000000, -1.000000000000000000, -0.000000000000000000 ) ) ;
#164 = LINE ( 'NONE', #472, #307 ) ;
#165 = VECTOR ( 'NONE', #19, 100.0000000000000000 ) ;
#166 = PERSON_AND_ORGANIZATION ( #133, #35 ) ;
#167 = CARTESIAN_POINT ( 'NONE',  ( -16.73583115863920767, 0.1999999999999999278, -0.2500000000000016098 ) ) ;
#168 = DIRECTION ( 'NONE',  ( 0.000000000000000000, 0.000000000000000000, 1.000000000000000000 ) ) ;
#169 = ORIENTED_EDGE ( 'NONE', *, *, #228, .F. ) ;
#170 = PERSON_AND_ORGANIZATION ( #133, #35 ) ;
#171 = DIRECTION ( 'NONE',  ( 0.000000000000000000, 1.000000000000000000, 0.000000000000000000 ) ) ;
#172 = CIRCLE ( 'NONE', #406, 0.2500000000000001110 ) ;
#173 = LOCAL_TIME ( 9, 13, 30.00000000000000000, #331 ) ;
#174 = CALENDAR_DATE ( 2025, 20, 11 ) ;
#175 = LINE ( 'NONE', #250, #140 ) ;
#176 = VECTOR ( 'NONE', #287, 100.0000000000000000 ) ;
#177 = CARTESIAN_POINT ( 'NONE',  ( 22.56416884136078238, 0.2000000000000000944, -0.2500000000000018874 ) ) ;
#178 = DIRECTION ( 'NONE',  ( 0.000000000000000000, 0.000000000000000000, -1.000000000000000000 ) ) ;
#179 = VECTOR ( 'NONE', #474, 100.0000000000000000 ) ;
#180 = CC_DESIGN_PERSON_AND_ORGANIZATION_ASSIGNMENT ( #137, #44, ( #78 ) ) ;
#181 = AXIS2_PLACEMENT_3D ( 'NONE', #468, #33, #116 ) ;
#182 = CARTESIAN_POINT ( 'NONE',  ( -16.23583115863920767, 0.1999999999999999278, -0.4999999999999999445 ) ) ;
#183 = ORIENTED_EDGE ( 'NONE', *, *, #290, .F. ) ;
#184 = LINE ( 'NONE', #229, #339 ) ;
#185 = ORIENTED_EDGE ( 'NONE', *, *, #201, .T. ) ;
#186 = CARTESIAN_POINT ( 'NONE',  ( -16.73583115863920767, -7.879841284954506423E-17, -0.7499999999999981126 ) ) ;
#187 = ORIENTED_EDGE ( 'NONE', *, *, #2, .F. ) ;
#188 = CARTESIAN_POINT ( 'NONE',  ( 22.31416884136078238, 0.2000000000000000944, -0.2500000000000000555 ) ) ;
#189 = EDGE_CURVE ( 'NONE', #464, #354, #381, .T. ) ;
#190 = ORIENTED_EDGE ( 'NONE', *, *, #357, .T. ) ;
#191 = ORIENTED_EDGE ( 'NONE', *, *, #454, .T. ) ;
#192 = DIRECTION ( 'NONE',  ( 0.000000000000000000, 0.000000000000000000, -1.000000000000000000 ) ) ;
#193 = DIRECTION ( 'NONE',  ( 0.000000000000000000, 1.000000000000000000, 0.000000000000000000 ) ) ;
#194 = EDGE_CURVE ( 'NONE', #441, #416, #503, .T. ) ;
#195 =( NAMED_UNIT ( * ) SI_UNIT ( $, .STERADIAN. ) SOLID_ANGLE_UNIT ( ) );
#196 = ORIENTED_EDGE ( 'NONE', *, *, #243, .F. ) ;
#197 =( GEOMETRIC_REPRESENTATION_CONTEXT ( 3 ) GLOBAL_UNCERTAINTY_ASSIGNED_CONTEXT ( ( #144 ) ) GLOBAL_UNIT_ASSIGNED_CONTEXT ( ( #401, #513, #195 ) ) REPRESENTATION_CONTEXT ( 'NONE', 'WORKASPACE' ) );
#198 = APPLICATION_PROTOCOL_DEFINITION ( 'international standard', 'config_control_design', 1994, #508 ) ;
#199 = LINE ( 'NONE', #167, #176 ) ;
#200 = APPLICATION_PROTOCOL_DEFINITION ( 'international standard', 'config_control_design', 1994, #253 ) ;
#201 = EDGE_CURVE ( 'NONE', #388, #251, #521, .T. ) ;
#202 = DIRECTION ( 'NONE',  ( 0.000000000000000000, 0.000000000000000000, -1.000000000000000000 ) ) ;
#203 = CALENDAR_DATE ( 2025, 20, 11 ) ;
#204 = EDGE_LOOP ( 'NONE', ( #330, #102, #49, #94 ) ) ;
#205 = AXIS2_PLACEMENT_3D ( 'NONE', #182, #163, #119 ) ;
#206 = DIRECTION ( 'NONE',  ( 0.000000000000000000, 0.000000000000000000, -1.000000000000000000 ) ) ;
#207 = ADVANCED_FACE ( 'NONE', ( #57, #51, #367 ), #45, .T. ) ;
#208 = VERTEX_POINT ( 'NONE', #213 ) ;
#209 = MANIFOLD_SOLID_BREP ( 'Flex1', #462 ) ;
#210 = APPROVAL_ROLE ( '' ) ;
#211 = DIRECTION ( 'NONE',  ( 0.000000000000000000, 1.000000000000000000, -0.000000000000000000 ) ) ;
#212 = ORIENTED_EDGE ( 'NONE', *, *, #32, .F. ) ;
#213 = CARTESIAN_POINT ( 'NONE',  ( -16.23583115863920767, 0.1999999999999999278, -0.7500000000000001110 ) ) ;
#214 = AXIS2_PLACEMENT_3D ( 'NONE', #9, #297, #248 ) ;
#215 = DATE_AND_TIME ( #355, #439 ) ;
#216 = DIRECTION ( 'NONE',  ( 0.000000000000000000, 0.000000000000000000, -1.000000000000000000 ) ) ;
#217 = VERTEX_POINT ( 'NONE', #324 ) ;
#218 = CARTESIAN_POINT ( 'NONE',  ( 22.31416884136078238, 0.2000000000000000944, -1.000000000000000222 ) ) ;
#219 = CARTESIAN_POINT ( 'NONE',  ( -16.23583115863920767, 0.1999999999999999278, -0.4999999999999999445 ) ) ;
#220 = VERTEX_POINT ( 'NONE', #99 ) ;
#221 = AXIS2_PLACEMENT_3D ( 'NONE', #219, #300, #103 ) ;
#222 = CYLINDRICAL_SURFACE ( 'NONE', #118, 0.2500000000000000555 ) ;
#223 = ORIENTED_EDGE ( 'NONE', *, *, #18, .F. ) ;
#224 = EDGE_CURVE ( 'NONE', #208, #38, #172, .T. ) ;
#225 = DIRECTION ( 'NONE',  ( -0.000000000000000000, -1.000000000000000000, -0.000000000000000000 ) ) ;
#226 = PRODUCT ( 'Link C_Default_sldprt', 'Link C_Default_sldprt', '', ( #83 ) ) ;
#227 = ORIENTED_EDGE ( 'NONE', *, *, #60, .T. ) ;
#228 = EDGE_CURVE ( 'NONE', #71, #29, #446, .T. ) ;
#229 = CARTESIAN_POINT ( 'NONE',  ( -16.23583115863920767, 0.1999999999999999278, -0.2499999999999997780 ) ) ;
#230 = ORIENTED_EDGE ( 'NONE', *, *, #516, .F. ) ;
#231 = AXIS2_PLACEMENT_3D ( 'NONE', #370, #134, #450 ) ;
#232 = CARTESIAN_POINT ( 'NONE',  ( -16.48583115863920767, -7.879841284954506423E-17, -1.000000000000000000 ) ) ;
#233 = VECTOR ( 'NONE', #289, 100.0000000000000000 ) ;
#234 = VERTEX_POINT ( 'NONE', #259 ) ;
#235 = CARTESIAN_POINT ( 'NONE',  ( 22.31416884136078238, 8.269852955622182216E-17, -8.737359942534871010E-17 ) ) ;
#236 = PERSON_AND_ORGANIZATION_ROLE ( 'creator' ) ;
#237 = CARTESIAN_POINT ( 'NONE',  ( -16.48583115863920767, 0.1999999999999999278, -0.7500000000000000000 ) ) ;
#238 = VECTOR ( 'NONE', #477, 100.0000000000000000 ) ;
#239 = DIRECTION ( 'NONE',  ( 0.000000000000000000, 0.000000000000000000, -1.000000000000000000 ) ) ;
#240 = APPROVAL_PERSON_ORGANIZATION ( #170, #95, #7 ) ;
#241 = CIRCLE ( 'NONE', #27, 0.2500000000000000555 ) ;
#242 = VERTEX_POINT ( 'NONE', #177 ) ;
#243 = EDGE_CURVE ( 'NONE', #242, #441, #448, .T. ) ;
#244 = DIRECTION ( 'NONE',  ( -0.000000000000000000, -1.000000000000000000, -0.000000000000000000 ) ) ;
#245 = CARTESIAN_POINT ( 'NONE',  ( -16.48583115863920412, 0.1999999999999999278, 8.325300336795909939E-17 ) ) ;
#246 = VECTOR ( 'NONE', #517, 100.0000000000000000 ) ;
#247 = DATE_TIME_ROLE ( 'classification_date' ) ;
#248 = DIRECTION ( 'NONE',  ( 0.000000000000000000, -0.000000000000000000, 1.000000000000000000 ) ) ;
#249 = EDGE_CURVE ( 'NONE', #416, #409, #12, .T. ) ;
#250 = CARTESIAN_POINT ( 'NONE',  ( 22.56416884136078238, 0.2000000000000000944, -0.2500000000000018874 ) ) ;
#251 = VERTEX_POINT ( 'NONE', #378 ) ;
#252 = DIRECTION ( 'NONE',  ( -0.000000000000000000, -1.000000000000000000, -0.000000000000000000 ) ) ;
#253 = APPLICATION_CONTEXT ( 'configuration controlled 3d designs of mechanical parts and assemblies' ) ;
#254 = ADVANCED_BREP_SHAPE_REPRESENTATION ( 'Link C_Default_sldprt', ( #209, #266 ), #197 ) ;
#255 = ADVANCED_FACE ( 'NONE', ( #48 ), #6, .F. ) ;
#256 = LINE ( 'NONE', #481, #233 ) ;
#257 = ORIENTED_EDGE ( 'NONE', *, *, #194, .T. ) ;
#258 = VECTOR ( 'NONE', #90, 100.0000000000000000 ) ;
#259 = CARTESIAN_POINT ( 'NONE',  ( 22.06416884136078238, 8.673617379884035472E-17, -0.7500000000000003331 ) ) ;
#260 = ORIENTED_EDGE ( 'NONE', *, *, #72, .T. ) ;
#261 = CC_DESIGN_DATE_AND_TIME_ASSIGNMENT ( #92, #247, ( #461 ) ) ;
#262 = CYLINDRICAL_SURFACE ( 'NONE', #205, 0.2500000000000001110 ) ;
#263 = ORIENTED_EDGE ( 'NONE', *, *, #136, .F. ) ;
#264 = CARTESIAN_POINT ( 'NONE',  ( 22.31416884136078238, 0.2000000000000000944, -0.7500000000000001110 ) ) ;
#265 = ORIENTED_EDGE ( 'NONE', *, *, #23, .T. ) ;
#266 = AXIS2_PLACEMENT_3D ( 'NONE', #518, #393, #281 ) ;
#267 = CARTESIAN_POINT ( 'NONE',  ( -16.48583115863920767, 0.1999999999999999278, -0.7500000000000000000 ) ) ;
#268 = ORIENTED_EDGE ( 'NONE', *, *, #408, .F. ) ;
#269 = CIRCLE ( 'NONE', #403, 0.2500000000000001110 ) ;
#270 = CC_DESIGN_PERSON_AND_ORGANIZATION_ASSIGNMENT ( #286, #350, ( #226 ) ) ;
#271 = VECTOR ( 'NONE', #282, 100.0000000000000000 ) ;
#272 = CARTESIAN_POINT ( 'NONE',  ( -16.23583115863920767, -8.673617379884035472E-17, -0.7500000000000001110 ) ) ;
#273 = ORIENTED_EDGE ( 'NONE', *, *, #79, .F. ) ;
#274 = FACE_OUTER_BOUND ( 'NONE', #411, .T. ) ;
#275 = ORIENTED_EDGE ( 'NONE', *, *, #189, .T. ) ;
#276 = AXIS2_PLACEMENT_3D ( 'NONE', #86, #211, #294 ) ;
#277 = ADVANCED_FACE ( 'NONE', ( #486 ), #127, .T. ) ;
#278 = CARTESIAN_POINT ( 'NONE',  ( -16.73583115863920767, 0.1999999999999999278, -0.7499999999999981126 ) ) ;
#279 = LINE ( 'NONE', #317, #179 ) ;
#280 = DIRECTION ( 'NONE',  ( 0.000000000000000000, 0.000000000000000000, 1.000000000000000000 ) ) ;
#281 = DIRECTION ( 'NONE',  ( 1.000000000000000000, 0.000000000000000000, 0.000000000000000000 ) ) ;
#282 = DIRECTION ( 'NONE',  ( -1.000000000000000000, -0.000000000000000000, -0.000000000000000000 ) ) ;
#283 = DIRECTION ( 'NONE',  ( 0.000000000000000000, 0.000000000000000000, -1.000000000000000000 ) ) ;
#284 = LINE ( 'NONE', #126, #104 ) ;
#285 = CC_DESIGN_DATE_AND_TIME_ASSIGNMENT ( #215, #47, ( #312 ) ) ;
#286 = PERSON_AND_ORGANIZATION ( #133, #35 ) ;
#287 = DIRECTION ( 'NONE',  ( -0.000000000000000000, -1.000000000000000000, -0.000000000000000000 ) ) ;
#288 = COORDINATED_UNIVERSAL_TIME_OFFSET ( 7, 0, .BEHIND. ) ;
#289 = DIRECTION ( 'NONE',  ( -0.000000000000000000, -1.000000000000000000, -0.000000000000000000 ) ) ;
#290 = EDGE_CURVE ( 'NONE', #251, #388, #347, .T. ) ;
#291 = CARTESIAN_POINT ( 'NONE',  ( 22.31416884136078238, 0.2000000000000000944, -8.737359942534871010E-17 ) ) ;
#292 = ORIENTED_EDGE ( 'NONE', *, *, #23, .F. ) ;
#293 = DATE_AND_TIME ( #203, #173 ) ;
#294 = DIRECTION ( 'NONE',  ( 0.000000000000000000, 0.000000000000000000, -1.000000000000000000 ) ) ;
#295 = VERTEX_POINT ( 'NONE', #414 ) ;
#296 = DIRECTION ( 'NONE',  ( 0.000000000000000000, 1.000000000000000000, 0.000000000000000000 ) ) ;
#297 = DIRECTION ( 'NONE',  ( 0.000000000000000000, 1.000000000000000000, 0.000000000000000000 ) ) ;
#298 = AXIS2_PLACEMENT_3D ( 'NONE', #417, #376, #489 ) ;
#299 = LINE ( 'NONE', #348, #165 ) ;
#300 = DIRECTION ( 'NONE',  ( -0.000000000000000000, -1.000000000000000000, -0.000000000000000000 ) ) ;
#301 = EDGE_LOOP ( 'NONE', ( #13, #351, #490, #42 ) ) ;
#302 = CARTESIAN_POINT ( 'NONE',  ( -16.48583115863920767, 0.1999999999999999278, -1.000000000000000000 ) ) ;
#303 = ORIENTED_EDGE ( 'NONE', *, *, #413, .F. ) ;
#304 = CC_DESIGN_APPROVAL ( #375, ( #312 ) ) ;
#305 = CARTESIAN_POINT ( 'NONE',  ( 22.31416884136078238, 8.269852955622182216E-17, -1.000000000000000222 ) ) ;
#306 = ORIENTED_EDGE ( 'NONE', *, *, #159, .T. ) ;
#307 = VECTOR ( 'NONE', #405, 100.0000000000000000 ) ;
#308 = FACE_BOUND ( 'NONE', #431, .T. ) ;
#309 = EDGE_LOOP ( 'NONE', ( #346, #368, #22, #183 ) ) ;
#310 = DIRECTION ( 'NONE',  ( -1.000000000000000000, 0.000000000000000000, -0.000000000000000000 ) ) ;
#311 = VERTEX_POINT ( 'NONE', #291 ) ;
#312 = PRODUCT_DEFINITION ( 'UNKNOWN', '', #78, #366 ) ;
#313 = VECTOR ( 'NONE', #318, 100.0000000000000000 ) ;
#314 = PERSON_AND_ORGANIZATION ( #133, #35 ) ;
#315 = ORIENTED_EDGE ( 'NONE', *, *, #60, .F. ) ;
#316 = LINE ( 'NONE', #121, #238 ) ;
#317 = CARTESIAN_POINT ( 'NONE',  ( 22.31416884136078238, 0.2000000000000000944, -8.673617379884035472E-17 ) ) ;
#318 = DIRECTION ( 'NONE',  ( -0.000000000000000000, -0.000000000000000000, 1.000000000000000000 ) ) ;
#319 = CARTESIAN_POINT ( 'NONE',  ( -16.48583115863920767, 0.1999999999999999278, -0.2499999999999998890 ) ) ;
#320 = EDGE_CURVE ( 'NONE', #208, #388, #447, .T. ) ;
#321 = CIRCLE ( 'NONE', #125, 0.2500000000000002220 ) ;
#322 = CARTESIAN_POINT ( 'NONE',  ( -16.73583115863920767, -8.673617379884035472E-17, -0.2500000000000017208 ) ) ;
#323 = AXIS2_PLACEMENT_3D ( 'NONE', #319, #522, #202 ) ;
#324 = CARTESIAN_POINT ( 'NONE',  ( -16.48583115863920412, -7.879841284954506423E-17, 8.325300336795909939E-17 ) ) ;
#325 = CARTESIAN_POINT ( 'NONE',  ( 22.56416884136078238, 0.2000000000000000944, -0.2500000000000018874 ) ) ;
#326 = AXIS2_PLACEMENT_3D ( 'NONE', #435, #193, #478 ) ;
#327 = EDGE_LOOP ( 'NONE', ( #66, #427, #384, #265 ) ) ;
#328 = DIRECTION ( 'NONE',  ( -0.000000000000000000, -1.000000000000000000, -0.000000000000000000 ) ) ;
#329 = APPROVAL_PERSON_ORGANIZATION ( #314, #375, #30 ) ;
#330 = ORIENTED_EDGE ( 'NONE', *, *, #436, .F. ) ;
#331 = COORDINATED_UNIVERSAL_TIME_OFFSET ( 7, 0, .BEHIND. ) ;
#332 = DIRECTION ( 'NONE',  ( 0.000000000000000000, 1.000000000000000000, -0.000000000000000000 ) ) ;
#333 = EDGE_CURVE ( 'NONE', #220, #422, #321, .T. ) ;
#334 = ORIENTED_EDGE ( 'NONE', *, *, #249, .F. ) ;
#335 = CARTESIAN_POINT ( 'NONE',  ( -16.23583115863920767, 0.1999999999999999278, -0.4999999999999999445 ) ) ;
#336 = ORIENTED_EDGE ( 'NONE', *, *, #64, .F. ) ;
#337 = ADVANCED_FACE ( 'NONE', ( #130 ), #491, .F. ) ;
#338 = LINE ( 'NONE', #143, #141 ) ;
#339 = VECTOR ( 'NONE', #456, 100.0000000000000000 ) ;
#340 = ADVANCED_FACE ( 'NONE', ( #341 ), #151, .F. ) ;
#341 = FACE_OUTER_BOUND ( 'NONE', #63, .T. ) ;
#342 = ORIENTED_EDGE ( 'NONE', *, *, #290, .T. ) ;
#343 = DIRECTION ( 'NONE',  ( 0.000000000000000000, 0.000000000000000000, 1.000000000000000000 ) ) ;
#344 = ORIENTED_EDGE ( 'NONE', *, *, #72, .F. ) ;
#345 = CARTESIAN_POINT ( 'NONE',  ( 22.31416884136078238, 8.673617379884035472E-17, -0.2500000000000000555 ) ) ;
#346 = ORIENTED_EDGE ( 'NONE', *, *, #357, .F. ) ;
#347 = CIRCLE ( 'NONE', #231, 0.2500000000000001110 ) ;
#348 = CARTESIAN_POINT ( 'NONE',  ( 22.56416884136078238, 8.673617379884035472E-17, -0.2500000000000018874 ) ) ;
#349 = ORIENTED_EDGE ( 'NONE', *, *, #408, .T. ) ;
#350 = PERSON_AND_ORGANIZATION_ROLE ( 'design_owner' ) ;
#351 = ORIENTED_EDGE ( 'NONE', *, *, #159, .F. ) ;
#352 = APPROVAL ( #484, 'UNSPECIFIED' ) ;
#353 = COORDINATED_UNIVERSAL_TIME_OFFSET ( 7, 0, .BEHIND. ) ;
#354 = VERTEX_POINT ( 'NONE', #186 ) ;
#355 = CALENDAR_DATE ( 2025, 20, 11 ) ;
#356 = CARTESIAN_POINT ( 'NONE',  ( 22.31416884136078238, 8.673617379884035472E-17, -0.7500000000000001110 ) ) ;
#357 = EDGE_CURVE ( 'NONE', #38, #251, #184, .T. ) ;
#358 = CARTESIAN_POINT ( 'NONE',  ( 22.06416884136078238, 8.673617379884035472E-17, -0.5000000000000001110 ) ) ;
#359 = APPROVAL_DATE_TIME ( #471, #375 ) ;
#360 = DIRECTION ( 'NONE',  ( 0.000000000000000000, 0.000000000000000000, 1.000000000000000000 ) ) ;
#361 = CIRCLE ( 'NONE', #432, 0.2500000000000002220 ) ;
#362 = DIRECTION ( 'NONE',  ( 0.000000000000000000, 0.000000000000000000, -1.000000000000000000 ) ) ;
#363 = CC_DESIGN_SECURITY_CLASSIFICATION ( #461, ( #78 ) ) ;
#364 = EDGE_CURVE ( 'NONE', #114, #217, #379, .T. ) ;
#365 = APPROVAL_STATUS ( 'not_yet_approved' ) ;
#366 = DESIGN_CONTEXT ( 'detailed design', #253, 'design' ) ;
#367 = FACE_BOUND ( 'NONE', #509, .T. ) ;
#368 = ORIENTED_EDGE ( 'NONE', *, *, #14, .T. ) ;
#369 = PERSON_AND_ORGANIZATION ( #133, #35 ) ;
#370 = CARTESIAN_POINT ( 'NONE',  ( -16.23583115863920767, -8.673617379884035472E-17, -0.4999999999999999445 ) ) ;
#371 = PERSON_AND_ORGANIZATION ( #133, #35 ) ;
#372 = DIRECTION ( 'NONE',  ( 0.000000000000000000, 1.000000000000000000, 0.000000000000000000 ) ) ;
#373 = APPROVAL_PERSON_ORGANIZATION ( #371, #352, #210 ) ;
#374 = LOCAL_TIME ( 9, 13, 30.00000000000000000, #288 ) ;
#375 = APPROVAL ( #154, 'UNSPECIFIED' ) ;
#376 = DIRECTION ( 'NONE',  ( 0.000000000000000000, 1.000000000000000000, 0.000000000000000000 ) ) ;
#377 = EDGE_LOOP ( 'NONE', ( #20, #303 ) ) ;
#378 = CARTESIAN_POINT ( 'NONE',  ( -16.23583115863920767, -8.673617379884035472E-17, -0.2499999999999997780 ) ) ;
#379 = LINE ( 'NONE', #496, #158 ) ;
#380 = EDGE_LOOP ( 'NONE', ( #100, #418, #46, #457 ) ) ;
#381 = CIRCLE ( 'NONE', #276, 0.2499999999999998890 ) ;
#382 = ADVANCED_FACE ( 'NONE', ( #308, #274, #70 ), #390, .F. ) ;
#383 = CYLINDRICAL_SURFACE ( 'NONE', #109, 0.2500000000000000555 ) ;
#384 = ORIENTED_EDGE ( 'NONE', *, *, #10, .F. ) ;
#385 = DIRECTION ( 'NONE',  ( 0.000000000000000000, 0.000000000000000000, 1.000000000000000000 ) ) ;
#386 = EDGE_LOOP ( 'NONE', ( #275, #344, #268, #139 ) ) ;
#387 = CARTESIAN_POINT ( 'NONE',  ( 22.56416884136078238, 0.2000000000000000944, -0.7499999999999984457 ) ) ;
#388 = VERTEX_POINT ( 'NONE', #272 ) ;
#389 = VECTOR ( 'NONE', #61, 100.0000000000000000 ) ;
#390 = PLANE ( 'NONE',  #97 ) ;
#391 = ADVANCED_FACE ( 'NONE', ( #493 ), #58, .F. ) ;
#392 = ORIENTED_EDGE ( 'NONE', *, *, #194, .F. ) ;
#393 = DIRECTION ( 'NONE',  ( 0.000000000000000000, 0.000000000000000000, 1.000000000000000000 ) ) ;
#394 = CYLINDRICAL_SURFACE ( 'NONE', #50, 0.2499999999999998890 ) ;
#395 = COORDINATED_UNIVERSAL_TIME_OFFSET ( 7, 0, .BEHIND. ) ;
#396 = CIRCLE ( 'NONE', #326, 0.2500000000000002220 ) ;
#397 = DIRECTION ( 'NONE',  ( 0.000000000000000000, 1.000000000000000000, 0.000000000000000000 ) ) ;
#398 = CC_DESIGN_PERSON_AND_ORGANIZATION_ASSIGNMENT ( #369, #96, ( #461 ) ) ;
#399 = VECTOR ( 'NONE', #328, 100.0000000000000000 ) ;
#400 = LOCAL_TIME ( 9, 13, 30.00000000000000000, #353 ) ;
#401 =( LENGTH_UNIT ( ) NAMED_UNIT ( * ) SI_UNIT ( .CENTI., .METRE. ) );
#402 = FACE_OUTER_BOUND ( 'NONE', #386, .T. ) ;
#403 = AXIS2_PLACEMENT_3D ( 'NONE', #519, #124, #280 ) ;
#404 = DIRECTION ( 'NONE',  ( 0.000000000000000000, 0.000000000000000000, -1.000000000000000000 ) ) ;
#405 = DIRECTION ( 'NONE',  ( -0.000000000000000000, -1.000000000000000000, -0.000000000000000000 ) ) ;
#406 = AXIS2_PLACEMENT_3D ( 'NONE', #335, #296, #168 ) ;
#407 = CARTESIAN_POINT ( 'NONE',  ( 22.31416884136078238, 8.673617379884035472E-17, -0.2500000000000000555 ) ) ;
#408 = EDGE_CURVE ( 'NONE', #459, #487, #423, .T. ) ;
#409 = VERTEX_POINT ( 'NONE', #305 ) ;
#410 = CARTESIAN_POINT ( 'NONE',  ( 22.31416884136078238, 0.2000000000000000944, -0.7500000000000001110 ) ) ;
#411 = EDGE_LOOP ( 'NONE', ( #169, #112, #223, #315, #11, #212, #187, #150 ) ) ;
#412 = DIRECTION ( 'NONE',  ( 0.000000000000000000, 0.000000000000000000, -1.000000000000000000 ) ) ;
#413 = EDGE_CURVE ( 'NONE', #422, #220, #361, .T. ) ;
#414 = CARTESIAN_POINT ( 'NONE',  ( -16.73583115863920767, 0.1999999999999999278, -0.2500000000000016098 ) ) ;
#415 = AXIS2_PLACEMENT_3D ( 'NONE', #21, #149, #108 ) ;
#416 = VERTEX_POINT ( 'NONE', #506 ) ;
#417 = CARTESIAN_POINT ( 'NONE',  ( -16.23583115863920767, -8.673617379884035472E-17, -0.4999999999999999445 ) ) ;
#418 = ORIENTED_EDGE ( 'NONE', *, *, #495, .F. ) ;
#419 = DIRECTION ( 'NONE',  ( 0.000000000000000000, -0.000000000000000000, 1.000000000000000000 ) ) ;
#420 = ORIENTED_EDGE ( 'NONE', *, *, #79, .T. ) ;
#421 = LINE ( 'NONE', #65, #389 ) ;
#422 = VERTEX_POINT ( 'NONE', #426 ) ;
#423 = CIRCLE ( 'NONE', #460, 0.2499999999999998890 ) ;
#424 = CARTESIAN_POINT ( 'NONE',  ( 22.31416884136078238, 0.2000000000000000944, -0.2500000000000000555 ) ) ;
#425 = EDGE_LOOP ( 'NONE', ( #152, #190, #497, #438 ) ) ;
#426 = CARTESIAN_POINT ( 'NONE',  ( 22.06416884136078238, 0.2000000000000000944, -0.2499999999999998890 ) ) ;
#427 = ORIENTED_EDGE ( 'NONE', *, *, #364, .F. ) ;
#428 = ADVANCED_FACE ( 'NONE', ( #500 ), #383, .T. ) ;
#429 = VECTOR ( 'NONE', #434, 100.0000000000000000 ) ;
#430 = DIRECTION ( 'NONE',  ( 0.000000000000000000, 0.000000000000000000, -1.000000000000000000 ) ) ;
#431 = EDGE_LOOP ( 'NONE', ( #420, #59 ) ) ;
#432 = AXIS2_PLACEMENT_3D ( 'NONE', #68, #113, #147 ) ;
#433 = EDGE_CURVE ( 'NONE', #416, #459, #421, .T. ) ;
#434 = DIRECTION ( 'NONE',  ( -0.000000000000000000, -0.000000000000000000, 1.000000000000000000 ) ) ;
#435 = CARTESIAN_POINT ( 'NONE',  ( 22.06416884136078238, 8.673617379884035472E-17, -0.5000000000000001110 ) ) ;
#436 = EDGE_CURVE ( 'NONE', #422, #129, #338, .T. ) ;
#437 = PLANE ( 'NONE',  #494 ) ;
#438 = ORIENTED_EDGE ( 'NONE', *, *, #320, .F. ) ;
#439 = LOCAL_TIME ( 9, 13, 30.00000000000000000, #395 ) ;
#440 = FACE_OUTER_BOUND ( 'NONE', #502, .T. ) ;
#441 = VERTEX_POINT ( 'NONE', #387 ) ;
#442 = DIRECTION ( 'NONE',  ( -0.000000000000000000, -1.000000000000000000, -0.000000000000000000 ) ) ;
#443 = DIRECTION ( 'NONE',  ( 1.000000000000000000, 0.000000000000000000, 0.000000000000000000 ) ) ;
#444 = ADVANCED_FACE ( 'NONE', ( #24 ), #222, .T. ) ;
#445 = DIRECTION ( 'NONE',  ( 0.000000000000000000, 0.000000000000000000, 1.000000000000000000 ) ) ;
#446 = CIRCLE ( 'NONE', #16, 0.2500000000000001110 ) ;
#447 = LINE ( 'NONE', #53, #399 ) ;
#448 = LINE ( 'NONE', #325, #52 ) ;
#449 = EDGE_CURVE ( 'NONE', #29, #131, #299, .T. ) ;
#450 = DIRECTION ( 'NONE',  ( 0.000000000000000000, 0.000000000000000000, 1.000000000000000000 ) ) ;
#451 = DIRECTION ( 'NONE',  ( -0.000000000000000000, -1.000000000000000000, -0.000000000000000000 ) ) ;
#452 = AXIS2_PLACEMENT_3D ( 'NONE', #410, #332, #412 ) ;
#453 = ORIENTED_EDGE ( 'NONE', *, *, #501, .T. ) ;
#454 = EDGE_CURVE ( 'NONE', #311, #242, #87, .T. ) ;
#455 = FACE_OUTER_BOUND ( 'NONE', #309, .T. ) ;
#456 = DIRECTION ( 'NONE',  ( -0.000000000000000000, -1.000000000000000000, -0.000000000000000000 ) ) ;
#457 = ORIENTED_EDGE ( 'NONE', *, *, #249, .T. ) ;
#458 = DIRECTION ( 'NONE',  ( -0.000000000000000000, -1.000000000000000000, -0.000000000000000000 ) ) ;
#459 = VERTEX_POINT ( 'NONE', #302 ) ;
#460 = AXIS2_PLACEMENT_3D ( 'NONE', #267, #101, #498 ) ;
#461 = SECURITY_CLASSIFICATION ( '', '', #5 ) ;
#462 = CLOSED_SHELL ( 'NONE', ( #391, #523, #255, #465, #207, #382, #337, #479, #444, #520, #428, #82, #340, #277 ) ) ;
#463 = DIRECTION ( 'NONE',  ( -0.000000000000000000, -1.000000000000000000, -0.000000000000000000 ) ) ;
#464 = VERTEX_POINT ( 'NONE', #232 ) ;
#465 = ADVANCED_FACE ( 'NONE', ( #455 ), #262, .F. ) ;
#466 = DIRECTION ( 'NONE',  ( 0.000000000000000000, 1.000000000000000000, 0.000000000000000000 ) ) ;
#467 = ORIENTED_EDGE ( 'NONE', *, *, #333, .T. ) ;
#468 = CARTESIAN_POINT ( 'NONE',  ( 22.56416884136078238, 0.2000000000000000944, -0.2500000000000018874 ) ) ;
#469 = CARTESIAN_POINT ( 'NONE',  ( -16.23583115863920767, 0.1999999999999999278, -0.2499999999999997780 ) ) ;
#470 = AXIS2_PLACEMENT_3D ( 'NONE', #138, #343, #111 ) ;
#471 = DATE_AND_TIME ( #510, #400 ) ;
#472 = CARTESIAN_POINT ( 'NONE',  ( 22.06416884136078238, 0.2000000000000000944, -0.7500000000000003331 ) ) ;
#473 = PLANE ( 'NONE',  #181 ) ;
#474 = DIRECTION ( 'NONE',  ( -0.000000000000000000, -1.000000000000000000, -0.000000000000000000 ) ) ;
#475 = FACE_OUTER_BOUND ( 'NONE', #1, .T. ) ;
#476 = DIRECTION ( 'NONE',  ( -0.000000000000000000, -1.000000000000000000, -0.000000000000000000 ) ) ;
#477 = DIRECTION ( 'NONE',  ( 1.000000000000000000, 0.000000000000000000, 0.000000000000000000 ) ) ;
#478 = DIRECTION ( 'NONE',  ( 0.000000000000000000, 0.000000000000000000, 1.000000000000000000 ) ) ;
#479 = ADVANCED_FACE ( 'NONE', ( #475 ), #437, .F. ) ;
#480 = DATE_AND_TIME ( #174, #504 ) ;
#481 = CARTESIAN_POINT ( 'NONE',  ( 22.56416884136078238, 0.2000000000000000944, -0.7499999999999984457 ) ) ;
#482 = COORDINATED_UNIVERSAL_TIME_OFFSET ( 7, 0, .BEHIND. ) ;
#483 = CARTESIAN_POINT ( 'NONE',  ( -16.48583115863920767, 0.1999999999999999278, -0.2499999999999998890 ) ) ;
#484 = APPROVAL_STATUS ( 'not_yet_approved' ) ;
#485 = CC_DESIGN_PERSON_AND_ORGANIZATION_ASSIGNMENT ( #166, #132, ( #78 ) ) ;
#486 = FACE_OUTER_BOUND ( 'NONE', #327, .T. ) ;
#487 = VERTEX_POINT ( 'NONE', #278 ) ;
#488 = APPROVAL_DATE_TIME ( #480, #95 ) ;
#489 = DIRECTION ( 'NONE',  ( 0.000000000000000000, 0.000000000000000000, 1.000000000000000000 ) ) ;
#490 = ORIENTED_EDGE ( 'NONE', *, *, #454, .F. ) ;
#491 = PLANE ( 'NONE',  #470 ) ;
#492 = ORIENTED_EDGE ( 'NONE', *, *, #449, .T. ) ;
#493 = FACE_OUTER_BOUND ( 'NONE', #425, .T. ) ;
#494 = AXIS2_PLACEMENT_3D ( 'NONE', #76, #283, #310 ) ;
#495 = EDGE_CURVE ( 'NONE', #459, #464, #123, .T. ) ;
#496 = CARTESIAN_POINT ( 'NONE',  ( -16.48583115863920412, 0.1999999999999999278, 8.673617379884035472E-17 ) ) ;
#497 = ORIENTED_EDGE ( 'NONE', *, *, #201, .F. ) ;
#498 = DIRECTION ( 'NONE',  ( 0.000000000000000000, 0.000000000000000000, -1.000000000000000000 ) ) ;
#499 = ORIENTED_EDGE ( 'NONE', *, *, #2, .T. ) ;
#500 = FACE_OUTER_BOUND ( 'NONE', #162, .T. ) ;
#501 = EDGE_CURVE ( 'NONE', #487, #295, #161, .T. ) ;
#502 = EDGE_LOOP ( 'NONE', ( #492, #263, #196, #306 ) ) ;
#503 = CIRCLE ( 'NONE', #452, 0.2500000000000000555 ) ;
#504 = LOCAL_TIME ( 9, 13, 30.00000000000000000, #482 ) ;
#505 = CIRCLE ( 'NONE', #55, 0.2499999999999999722 ) ;
#506 = CARTESIAN_POINT ( 'NONE',  ( 22.31416884136078238, 0.2000000000000000944, -1.000000000000000222 ) ) ;
#507 = EDGE_LOOP ( 'NONE', ( #146, #191, #157, #257, #25, #349, #453, #81 ) ) ;
#508 = APPLICATION_CONTEXT ( 'configuration controlled 3d designs of mechanical parts and assemblies' ) ;
#509 = EDGE_LOOP ( 'NONE', ( #89, #110 ) ) ;
#510 = CALENDAR_DATE ( 2025, 20, 11 ) ;
#511 = CARTESIAN_POINT ( 'NONE',  ( 22.06416884136078238, 8.673617379884035472E-17, -0.2499999999999998890 ) ) ;
#512 = AXIS2_PLACEMENT_3D ( 'NONE', #424, #466, #385 ) ;
#513 =( NAMED_UNIT ( * ) PLANE_ANGLE_UNIT ( ) SI_UNIT ( $, .RADIAN. ) );
#514 = LINE ( 'NONE', #322, #429 ) ;
#515 = CARTESIAN_POINT ( 'NONE',  ( -16.48583115863920767, 0.1999999999999999278, -0.9999999999999998890 ) ) ;
#516 = EDGE_CURVE ( 'NONE', #114, #311, #316, .T. ) ;
#517 = DIRECTION ( 'NONE',  ( -0.000000000000000000, -1.000000000000000000, -0.000000000000000000 ) ) ;
#518 = CARTESIAN_POINT ( 'NONE',  ( 0.000000000000000000, 0.000000000000000000, 0.000000000000000000 ) ) ;
#519 = CARTESIAN_POINT ( 'NONE',  ( -16.23583115863920767, 0.1999999999999999278, -0.4999999999999999445 ) ) ;
#520 = ADVANCED_FACE ( 'NONE', ( #440 ), #473, .F. ) ;
#521 = CIRCLE ( 'NONE', #298, 0.2500000000000001110 ) ;
#522 = DIRECTION ( 'NONE',  ( 0.000000000000000000, 1.000000000000000000, -0.000000000000000000 ) ) ;
#523 = ADVANCED_FACE ( 'NONE', ( #28 ), #80, .F. ) ;
#524 = SHAPE_DEFINITION_REPRESENTATION ( #67, #254 ) ;
#525 = CARTESIAN_POINT ( 'NONE',  ( 22.06416884136078238, 0.2000000000000000944, -0.5000000000000001110 ) ) ;
ENDSEC;
END-ISO-10303-21;
