ISO-10303-21;
HEADER;
FILE_DESCRIPTION (( 'STEP AP203' ),
    '1' );
FILE_NAME ('Link D_Default_sldprt.STEP',
    '2025-11-20T16:13:33',
    ( '' ),
    ( '' ),
    'SwSTEP 2.0',
    'SolidWorks 2025',
    '' );
FILE_SCHEMA (( 'CONFIG_CONTROL_DESIGN' ));
ENDSEC;

DATA;
#1 = ORIENTED_EDGE ( 'NONE', *, *, #352, .F. ) ;
#2 = ORIENTED_EDGE ( 'NONE', *, *, #82, .T. ) ;
#3 = VERTEX_POINT ( 'NONE', #375 ) ;
#4 = ORIENTED_EDGE ( 'NONE', *, *, #284, .T. ) ;
#5 = VECTOR ( 'NONE', #348, 100.0000000000000000 ) ;
#6 = ORIENTED_EDGE ( 'NONE', *, *, #303, .F. ) ;
#7 = EDGE_CURVE ( 'NONE', #324, #3, #363, .T. ) ;
#8 = ORIENTED_EDGE ( 'NONE', *, *, #323, .T. ) ;
#9 =( GEOMETRIC_REPRESENTATION_CONTEXT ( 3 ) GLOBAL_UNCERTAINTY_ASSIGNED_CONTEXT ( ( #250 ) ) GLOBAL_UNIT_ASSIGNED_CONTEXT ( ( #65, #227, #262 ) ) REPRESENTATION_CONTEXT ( 'NONE', 'WORKASPACE' ) );
#10 = FACE_BOUND ( 'NONE', #439, .T. ) ;
#11 = DIRECTION ( 'NONE',  ( 1.000000000000000000, 0.000000000000000000, 0.000000000000000000 ) ) ;
#12 = CARTESIAN_POINT ( 'NONE',  ( 22.72382875602809094, 0.2000000000000000944, -1.000000000000000222 ) ) ;
#13 = ORIENTED_EDGE ( 'NONE', *, *, #147, .T. ) ;
#14 = CARTESIAN_POINT ( 'NONE',  ( -16.62617124397190338, -8.673617379884035472E-17, -0.2499999999999997780 ) ) ;
#15 = CALENDAR_DATE ( 2025, 20, 11 ) ;
#16 = DIRECTION ( 'NONE',  ( 0.000000000000000000, 0.000000000000000000, 1.000000000000000000 ) ) ;
#17 = DIRECTION ( 'NONE',  ( -0.000000000000000000, -1.000000000000000000, -0.000000000000000000 ) ) ;
#18 = PLANE ( 'NONE',  #181 ) ;
#19 = CYLINDRICAL_SURFACE ( 'NONE', #137, 0.2500000000000000555 ) ;
#20 = DATE_AND_TIME ( #378, #146 ) ;
#21 = AXIS2_PLACEMENT_3D ( 'NONE', #337, #185, #138 ) ;
#22 = LINE ( 'NONE', #263, #161 ) ;
#23 = DIRECTION ( 'NONE',  ( 0.000000000000000000, 0.000000000000000000, 1.000000000000000000 ) ) ;
#24 = APPROVAL_ROLE ( '' ) ;
#25 = FACE_BOUND ( 'NONE', #279, .T. ) ;
#26 = DIRECTION ( 'NONE',  ( -0.000000000000000000, -1.000000000000000000, -0.000000000000000000 ) ) ;
#27 = PRODUCT_DEFINITION_SHAPE ( 'NONE', 'NONE',  #47 ) ;
#28 = CARTESIAN_POINT ( 'NONE',  ( 22.97382875602809094, 0.2000000000000000944, -0.2500000000000018874 ) ) ;
#29 = CARTESIAN_POINT ( 'NONE',  ( -16.62617124397190338, 0.1999999999999999278, -0.2499999999999997780 ) ) ;
#30 = CC_DESIGN_APPROVAL ( #522, ( #368 ) ) ;
#31 = CARTESIAN_POINT ( 'NONE',  ( -17.12617124397190338, -8.063627670609424993E-17, -0.2500000000000016098 ) ) ;
#32 = CARTESIAN_POINT ( 'NONE',  ( -16.62617124397190338, -8.673617379884035472E-17, -0.4999999999999999445 ) ) ;
#33 = CC_DESIGN_PERSON_AND_ORGANIZATION_ASSIGNMENT ( #186, #410, ( #475 ) ) ;
#34 = ADVANCED_FACE ( 'NONE', ( #474 ), #306, .F. ) ;
#35 = VECTOR ( 'NONE', #144, 100.0000000000000000 ) ;
#36 = ORIENTED_EDGE ( 'NONE', *, *, #87, .T. ) ;
#37 = ORIENTED_EDGE ( 'NONE', *, *, #422, .F. ) ;
#38 = APPROVAL_PERSON_ORGANIZATION ( #171, #522, #500 ) ;
#39 = CIRCLE ( 'NONE', #458, 0.2499999999999998890 ) ;
#40 = EDGE_LOOP ( 'NONE', ( #246, #85, #379, #314 ) ) ;
#41 = ORIENTED_EDGE ( 'NONE', *, *, #7, .F. ) ;
#42 = EDGE_LOOP ( 'NONE', ( #480, #407, #398, #321 ) ) ;
#43 = ORIENTED_EDGE ( 'NONE', *, *, #329, .T. ) ;
#44 = ORIENTED_EDGE ( 'NONE', *, *, #291, .T. ) ;
#45 = FACE_OUTER_BOUND ( 'NONE', #42, .T. ) ;
#46 = CARTESIAN_POINT ( 'NONE',  ( 22.97382875602809094, 8.673617379884035472E-17, -0.2500000000000018874 ) ) ;
#47 = PRODUCT_DEFINITION ( 'UNKNOWN', '', #475, #355 ) ;
#48 = VECTOR ( 'NONE', #96, 100.0000000000000000 ) ;
#49 = ORIENTED_EDGE ( 'NONE', *, *, #352, .T. ) ;
#50 = CARTESIAN_POINT ( 'NONE',  ( 22.72382875602809094, 0.2000000000000000944, -0.7500000000000001110 ) ) ;
#51 = ORIENTED_EDGE ( 'NONE', *, *, #303, .T. ) ;
#52 = DIRECTION ( 'NONE',  ( 0.000000000000000000, 1.000000000000000000, 0.000000000000000000 ) ) ;
#53 = EDGE_LOOP ( 'NONE', ( #487, #115, #248, #125 ) ) ;
#54 = LINE ( 'NONE', #418, #48 ) ;
#55 = COORDINATED_UNIVERSAL_TIME_OFFSET ( 7, 0, .BEHIND. ) ;
#56 = CARTESIAN_POINT ( 'NONE',  ( 22.97382875602809094, 0.2000000000000000944, -0.7499999999999984457 ) ) ;
#57 = PERSON_AND_ORGANIZATION_ROLE ( 'design_owner' ) ;
#58 = EDGE_CURVE ( 'NONE', #3, #283, #269, .T. ) ;
#59 = CARTESIAN_POINT ( 'NONE',  ( -16.87617124397190338, -8.673617379884035472E-17, 8.673617379884035472E-17 ) ) ;
#60 = EDGE_LOOP ( 'NONE', ( #78, #495, #466, #4 ) ) ;
#61 = CARTESIAN_POINT ( 'NONE',  ( 22.97382875602809094, 0.2000000000000000944, -0.7499999999999984457 ) ) ;
#62 = APPLICATION_PROTOCOL_DEFINITION ( 'international standard', 'config_control_design', 1994, #313 ) ;
#63 = AXIS2_PLACEMENT_3D ( 'NONE', #226, #103, #23 ) ;
#64 = DIRECTION ( 'NONE',  ( -0.000000000000000000, -1.000000000000000000, -0.000000000000000000 ) ) ;
#65 =( LENGTH_UNIT ( ) NAMED_UNIT ( * ) SI_UNIT ( .CENTI., .METRE. ) );
#66 = AXIS2_PLACEMENT_3D ( 'NONE', #28, #238, #434 ) ;
#67 = DIRECTION ( 'NONE',  ( 0.000000000000000000, 1.000000000000000000, -0.000000000000000000 ) ) ;
#68 = LINE ( 'NONE', #349, #433 ) ;
#69 = EDGE_CURVE ( 'NONE', #3, #324, #153, .T. ) ;
#70 = CIRCLE ( 'NONE', #438, 0.2500000000000001110 ) ;
#71 = VECTOR ( 'NONE', #414, 100.0000000000000000 ) ;
#72 = CARTESIAN_POINT ( 'NONE',  ( 22.47382875602809094, 0.2000000000000000944, -0.2499999999999998890 ) ) ;
#73 = DIRECTION ( 'NONE',  ( -0.000000000000000000, -1.000000000000000000, -0.000000000000000000 ) ) ;
#74 = EDGE_CURVE ( 'NONE', #437, #259, #236, .T. ) ;
#75 = DIRECTION ( 'NONE',  ( 0.000000000000000000, 0.000000000000000000, -1.000000000000000000 ) ) ;
#76 = EDGE_CURVE ( 'NONE', #122, #132, #520, .T. ) ;
#77 = ORIENTED_EDGE ( 'NONE', *, *, #265, .F. ) ;
#78 = ORIENTED_EDGE ( 'NONE', *, *, #199, .T. ) ;
#79 = ORIENTED_EDGE ( 'NONE', *, *, #265, .T. ) ;
#80 = CARTESIAN_POINT ( 'NONE',  ( -16.87617124397190338, -8.673617379884035472E-17, -0.7500000000000000000 ) ) ;
#81 = ORIENTED_EDGE ( 'NONE', *, *, #82, .F. ) ;
#82 = EDGE_CURVE ( 'NONE', #393, #259, #148, .T. ) ;
#83 = VECTOR ( 'NONE', #109, 100.0000000000000000 ) ;
#84 = VECTOR ( 'NONE', #371, 100.0000000000000000 ) ;
#85 = ORIENTED_EDGE ( 'NONE', *, *, #284, .F. ) ;
#86 = DIRECTION ( 'NONE',  ( 0.000000000000000000, 0.000000000000000000, -1.000000000000000000 ) ) ;
#87 = EDGE_CURVE ( 'NONE', #204, #288, #190, .T. ) ;
#88 = ORIENTED_EDGE ( 'NONE', *, *, #177, .F. ) ;
#89 = CARTESIAN_POINT ( 'NONE',  ( 22.47382875602809094, 0.2000000000000000944, -0.5000000000000001110 ) ) ;
#90 = PERSON_AND_ORGANIZATION ( #453, #202 ) ;
#91 = ADVANCED_FACE ( 'NONE', ( #425 ), #391, .F. ) ;
#92 = VERTEX_POINT ( 'NONE', #476 ) ;
#93 = VECTOR ( 'NONE', #101, 100.0000000000000000 ) ;
#94 = FACE_OUTER_BOUND ( 'NONE', #339, .T. ) ;
#95 = APPROVAL_STATUS ( 'not_yet_approved' ) ;
#96 = DIRECTION ( 'NONE',  ( -0.000000000000000000, -1.000000000000000000, -0.000000000000000000 ) ) ;
#97 = FACE_OUTER_BOUND ( 'NONE', #416, .T. ) ;
#98 = EDGE_CURVE ( 'NONE', #204, #122, #270, .T. ) ;
#99 = DIRECTION ( 'NONE',  ( 0.000000000000000000, 0.000000000000000000, -1.000000000000000000 ) ) ;
#100 = COORDINATED_UNIVERSAL_TIME_OFFSET ( 7, 0, .BEHIND. ) ;
#101 = DIRECTION ( 'NONE',  ( -0.000000000000000000, -0.000000000000000000, 1.000000000000000000 ) ) ;
#102 = CC_DESIGN_APPROVAL ( #189, ( #475 ) ) ;
#103 = DIRECTION ( 'NONE',  ( 0.000000000000000000, 1.000000000000000000, 0.000000000000000000 ) ) ;
#104 = PERSON_AND_ORGANIZATION_ROLE ( 'creator' ) ;
#105 = AXIS2_PLACEMENT_3D ( 'NONE', #456, #304, #370 ) ;
#106 = CARTESIAN_POINT ( 'NONE',  ( -16.62617124397190338, 0.1999999999999999278, -0.4999999999999999445 ) ) ;
#107 = CARTESIAN_POINT ( 'NONE',  ( 22.47382875602809094, 8.673617379884035472E-17, -0.7500000000000003331 ) ) ;
#108 = DIRECTION ( 'NONE',  ( 0.000000000000000000, 0.000000000000000000, -1.000000000000000000 ) ) ;
#109 = DIRECTION ( 'NONE',  ( -1.000000000000000000, -0.000000000000000000, -0.000000000000000000 ) ) ;
#110 = CARTESIAN_POINT ( 'NONE',  ( -17.12617124397190338, 0.1999999999999999278, -0.2500000000000017208 ) ) ;
#111 = CARTESIAN_POINT ( 'NONE',  ( 22.72382875602809094, 8.462735823391796500E-17, -1.000000000000000222 ) ) ;
#112 = AXIS2_PLACEMENT_3D ( 'NONE', #233, #523, #193 ) ;
#113 = CIRCLE ( 'NONE', #401, 0.2500000000000001110 ) ;
#114 = LINE ( 'NONE', #356, #503 ) ;
#115 = ORIENTED_EDGE ( 'NONE', *, *, #160, .F. ) ;
#116 = ORIENTED_EDGE ( 'NONE', *, *, #345, .F. ) ;
#117 = CIRCLE ( 'NONE', #192, 0.2500000000000000555 ) ;
#118 = VERTEX_POINT ( 'NONE', #431 ) ;
#119 = EDGE_LOOP ( 'NONE', ( #8, #445, #6, #450 ) ) ;
#120 = VECTOR ( 'NONE', #17, 100.0000000000000000 ) ;
#121 = CC_DESIGN_PERSON_AND_ORGANIZATION_ASSIGNMENT ( #254, #104, ( #47 ) ) ;
#122 = VERTEX_POINT ( 'NONE', #230 ) ;
#123 = ORIENTED_EDGE ( 'NONE', *, *, #74, .F. ) ;
#124 = EDGE_CURVE ( 'NONE', #288, #441, #126, .T. ) ;
#125 = ORIENTED_EDGE ( 'NONE', *, *, #404, .T. ) ;
#126 = CIRCLE ( 'NONE', #449, 0.2499999999999999722 ) ;
#127 = ORIENTED_EDGE ( 'NONE', *, *, #397, .T. ) ;
#128 = ORIENTED_EDGE ( 'NONE', *, *, #76, .F. ) ;
#129 = CARTESIAN_POINT ( 'NONE',  ( 22.47382875602809094, 0.2000000000000000944, -0.7500000000000003331 ) ) ;
#130 = CARTESIAN_POINT ( 'NONE',  ( -16.87617124397190338, 0.1999999999999999278, 8.673617379884035472E-17 ) ) ;
#131 = APPROVAL_STATUS ( 'not_yet_approved' ) ;
#132 = VERTEX_POINT ( 'NONE', #31 ) ;
#133 = DIRECTION ( 'NONE',  ( 0.000000000000000000, 1.000000000000000000, -0.000000000000000000 ) ) ;
#134 = DATE_AND_TIME ( #217, #395 ) ;
#135 = DIRECTION ( 'NONE',  ( 0.000000000000000000, 0.000000000000000000, 1.000000000000000000 ) ) ;
#136 = DIRECTION ( 'NONE',  ( 0.000000000000000000, 0.000000000000000000, -1.000000000000000000 ) ) ;
#137 = AXIS2_PLACEMENT_3D ( 'NONE', #50, #454, #406 ) ;
#138 = DIRECTION ( 'NONE',  ( 0.000000000000000000, 0.000000000000000000, -1.000000000000000000 ) ) ;
#139 = CALENDAR_DATE ( 2025, 20, 11 ) ;
#140 = DIRECTION ( 'NONE',  ( -0.000000000000000000, -1.000000000000000000, -0.000000000000000000 ) ) ;
#141 = ADVANCED_FACE ( 'NONE', ( #384, #151, #25 ), #515, .F. ) ;
#142 = FACE_OUTER_BOUND ( 'NONE', #40, .T. ) ;
#143 = DIRECTION ( 'NONE',  ( 0.000000000000000000, 0.000000000000000000, 1.000000000000000000 ) ) ;
#144 = DIRECTION ( 'NONE',  ( -0.000000000000000000, -1.000000000000000000, -0.000000000000000000 ) ) ;
#145 = CARTESIAN_POINT ( 'NONE',  ( 22.72382875602809094, 0.2000000000000000944, -8.941146763352010888E-17 ) ) ;
#146 = LOCAL_TIME ( 9, 13, 33.00000000000000000, #343 ) ;
#147 = EDGE_CURVE ( 'NONE', #324, #524, #514, .T. ) ;
#148 = LINE ( 'NONE', #472, #5 ) ;
#149 = DIRECTION ( 'NONE',  ( 0.000000000000000000, 0.000000000000000000, -1.000000000000000000 ) ) ;
#150 = EDGE_CURVE ( 'NONE', #441, #485, #257, .T. ) ;
#151 = FACE_OUTER_BOUND ( 'NONE', #207, .T. ) ;
#152 = LINE ( 'NONE', #386, #335 ) ;
#153 = CIRCLE ( 'NONE', #444, 0.2500000000000002220 ) ;
#154 = DIRECTION ( 'NONE',  ( 0.000000000000000000, 0.000000000000000000, -1.000000000000000000 ) ) ;
#155 = DIRECTION ( 'NONE',  ( -0.000000000000000000, -1.000000000000000000, -0.000000000000000000 ) ) ;
#156 = EDGE_CURVE ( 'NONE', #524, #283, #364, .T. ) ;
#157 = ORIENTED_EDGE ( 'NONE', *, *, #150, .T. ) ;
#158 = EDGE_CURVE ( 'NONE', #218, #362, #464, .T. ) ;
#159 = CC_DESIGN_SECURITY_CLASSIFICATION ( #368, ( #475 ) ) ;
#160 = EDGE_CURVE ( 'NONE', #166, #490, #54, .T. ) ;
#161 = VECTOR ( 'NONE', #140, 100.0000000000000000 ) ;
#162 = ORIENTED_EDGE ( 'NONE', *, *, #277, .F. ) ;
#163 = VERTEX_POINT ( 'NONE', #297 ) ;
#164 = EDGE_CURVE ( 'NONE', #243, #92, #383, .T. ) ;
#165 = ORIENTED_EDGE ( 'NONE', *, *, #277, .T. ) ;
#166 = VERTEX_POINT ( 'NONE', #332 ) ;
#167 = DIRECTION ( 'NONE',  ( 0.000000000000000000, 1.000000000000000000, 0.000000000000000000 ) ) ;
#168 = CARTESIAN_POINT ( 'NONE',  ( 22.97382875602809094, 0.2000000000000000944, -0.2500000000000018874 ) ) ;
#169 = CARTESIAN_POINT ( 'NONE',  ( 22.97382875602809094, 8.462735823391796500E-17, -0.7499999999999984457 ) ) ;
#170 = CARTESIAN_POINT ( 'NONE',  ( 22.72382875602809094, 8.673617379884035472E-17, -0.7500000000000001110 ) ) ;
#171 = PERSON_AND_ORGANIZATION ( #453, #202 ) ;
#172 = CYLINDRICAL_SURFACE ( 'NONE', #112, 0.2500000000000000555 ) ;
#173 = ORIENTED_EDGE ( 'NONE', *, *, #158, .T. ) ;
#174 = ADVANCED_BREP_SHAPE_REPRESENTATION ( 'Link D_Default_sldprt', ( #197, #387 ), #9 ) ;
#175 = FACE_OUTER_BOUND ( 'NONE', #60, .T. ) ;
#176 = PERSON_AND_ORGANIZATION ( #453, #202 ) ;
#177 = EDGE_CURVE ( 'NONE', #243, #218, #504, .T. ) ;
#178 = VECTOR ( 'NONE', #316, 100.0000000000000000 ) ;
#179 = ORIENTED_EDGE ( 'NONE', *, *, #428, .T. ) ;
#180 = DIRECTION ( 'NONE',  ( 0.000000000000000000, -0.000000000000000000, 1.000000000000000000 ) ) ;
#181 = AXIS2_PLACEMENT_3D ( 'NONE', #219, #167, #180 ) ;
#182 = CARTESIAN_POINT ( 'NONE',  ( -16.87617124397190338, -8.063627670609424993E-17, 8.519476437945670906E-17 ) ) ;
#183 = DATE_AND_TIME ( #139, #252 ) ;
#184 = LINE ( 'NONE', #59, #84 ) ;
#185 = DIRECTION ( 'NONE',  ( -0.000000000000000000, -1.000000000000000000, -0.000000000000000000 ) ) ;
#186 = PERSON_AND_ORGANIZATION ( #453, #202 ) ;
#187 = CARTESIAN_POINT ( 'NONE',  ( -16.87617124397190338, 0.1999999999999999278, -0.2499999999999998890 ) ) ;
#188 = DIRECTION ( 'NONE',  ( -1.000000000000000000, 0.000000000000000000, -0.000000000000000000 ) ) ;
#189 = APPROVAL ( #131, 'UNSPECIFIED' ) ;
#190 = LINE ( 'NONE', #110, #382 ) ;
#191 = CYLINDRICAL_SURFACE ( 'NONE', #241, 0.2500000000000002220 ) ;
#192 = AXIS2_PLACEMENT_3D ( 'NONE', #470, #389, #239 ) ;
#193 = DIRECTION ( 'NONE',  ( 0.000000000000000000, 0.000000000000000000, -1.000000000000000000 ) ) ;
#194 = EDGE_CURVE ( 'NONE', #441, #245, #467, .T. ) ;
#195 = CARTESIAN_POINT ( 'NONE',  ( -17.12617124397190338, 0.1999999999999999278, -0.7499999999999981126 ) ) ;
#196 = DIRECTION ( 'NONE',  ( 0.000000000000000000, 1.000000000000000000, 0.000000000000000000 ) ) ;
#197 = MANIFOLD_SOLID_BREP ( 'Flex1', #205 ) ;
#198 = EDGE_CURVE ( 'NONE', #118, #393, #255, .T. ) ;
#199 = EDGE_CURVE ( 'NONE', #132, #245, #247, .T. ) ;
#200 = ORIENTED_EDGE ( 'NONE', *, *, #397, .F. ) ;
#201 = EDGE_LOOP ( 'NONE', ( #282, #2, #123, #37 ) ) ;
#202 = ORGANIZATION ( 'UNSPECIFIED', 'UNSPECIFIED', '' ) ;
#203 = EDGE_LOOP ( 'NONE', ( #79, #322, #486, #173 ) ) ;
#204 = VERTEX_POINT ( 'NONE', #346 ) ;
#205 = CLOSED_SHELL ( 'NONE', ( #91, #256, #448, #273, #300, #141, #318, #442, #367, #34, #242, #488, #221, #229 ) ) ;
#206 = ORIENTED_EDGE ( 'NONE', *, *, #345, .T. ) ;
#207 = EDGE_LOOP ( 'NONE', ( #402, #116, #400, #128, #162, #326, #77, #484 ) ) ;
#208 = DIRECTION ( 'NONE',  ( 0.000000000000000000, 0.000000000000000000, -1.000000000000000000 ) ) ;
#209 = ORIENTED_EDGE ( 'NONE', *, *, #164, .T. ) ;
#210 = CIRCLE ( 'NONE', #293, 0.2500000000000001110 ) ;
#211 = DIRECTION ( 'NONE',  ( -0.000000000000000000, -1.000000000000000000, -0.000000000000000000 ) ) ;
#212 = DIRECTION ( 'NONE',  ( 0.000000000000000000, 0.000000000000000000, -1.000000000000000000 ) ) ;
#213 = CYLINDRICAL_SURFACE ( 'NONE', #483, 0.2500000000000002220 ) ;
#214 = DATE_AND_TIME ( #419, #361 ) ;
#215 = APPROVAL ( #415, 'UNSPECIFIED' ) ;
#216 = DIRECTION ( 'NONE',  ( 0.000000000000000000, 1.000000000000000000, -0.000000000000000000 ) ) ;
#217 = CALENDAR_DATE ( 2025, 20, 11 ) ;
#218 = VERTEX_POINT ( 'NONE', #56 ) ;
#219 = CARTESIAN_POINT ( 'NONE',  ( 4.750000000000000000, 0.2000000000000000111, -0.2499999999999999722 ) ) ;
#220 = ORIENTED_EDGE ( 'NONE', *, *, #69, .T. ) ;
#221 = ADVANCED_FACE ( 'NONE', ( #142 ), #222, .F. ) ;
#222 = PLANE ( 'NONE',  #411 ) ;
#223 = DIRECTION ( 'NONE',  ( 0.000000000000000000, 0.000000000000000000, 1.000000000000000000 ) ) ;
#224 = DIRECTION ( 'NONE',  ( 0.000000000000000000, 1.000000000000000000, 0.000000000000000000 ) ) ;
#225 = CIRCLE ( 'NONE', #341, 0.2500000000000001110 ) ;
#226 = CARTESIAN_POINT ( 'NONE',  ( -16.62617124397190338, 0.1999999999999999278, -0.4999999999999999445 ) ) ;
#227 =( NAMED_UNIT ( * ) PLANE_ANGLE_UNIT ( ) SI_UNIT ( $, .RADIAN. ) );
#228 = APPLICATION_CONTEXT ( 'configuration controlled 3d designs of mechanical parts and assemblies' ) ;
#229 = ADVANCED_FACE ( 'NONE', ( #175 ), #289, .T. ) ;
#230 = CARTESIAN_POINT ( 'NONE',  ( -17.12617124397190338, -8.063627670609424993E-17, -0.7499999999999981126 ) ) ;
#231 = DIRECTION ( 'NONE',  ( -0.000000000000000000, -1.000000000000000000, -0.000000000000000000 ) ) ;
#232 = DIRECTION ( 'NONE',  ( 1.000000000000000000, 0.000000000000000000, 0.000000000000000000 ) ) ;
#233 = CARTESIAN_POINT ( 'NONE',  ( 22.72382875602809094, 0.2000000000000000944, -0.2500000000000000555 ) ) ;
#234 = DIRECTION ( 'NONE',  ( 0.000000000000000000, 0.000000000000000000, 1.000000000000000000 ) ) ;
#235 = DIRECTION ( 'NONE',  ( -0.000000000000000000, -1.000000000000000000, -0.000000000000000000 ) ) ;
#236 = CIRCLE ( 'NONE', #336, 0.2500000000000001110 ) ;
#237 = VECTOR ( 'NONE', #11, 100.0000000000000000 ) ;
#238 = DIRECTION ( 'NONE',  ( -1.000000000000000000, 0.000000000000000000, 0.000000000000000000 ) ) ;
#239 = DIRECTION ( 'NONE',  ( 0.000000000000000000, 0.000000000000000000, -1.000000000000000000 ) ) ;
#240 = CARTESIAN_POINT ( 'NONE',  ( -16.62617124397190338, 0.1999999999999999278, -0.4999999999999999445 ) ) ;
#241 = AXIS2_PLACEMENT_3D ( 'NONE', #521, #73, #149 ) ;
#242 = ADVANCED_FACE ( 'NONE', ( #380 ), #19, .T. ) ;
#243 = VERTEX_POINT ( 'NONE', #264 ) ;
#244 = EDGE_LOOP ( 'NONE', ( #41, #451 ) ) ;
#245 = VERTEX_POINT ( 'NONE', #182 ) ;
#246 = ORIENTED_EDGE ( 'NONE', *, *, #76, .T. ) ;
#247 = CIRCLE ( 'NONE', #426, 0.2499999999999999722 ) ;
#248 = ORIENTED_EDGE ( 'NONE', *, *, #428, .F. ) ;
#249 = ORIENTED_EDGE ( 'NONE', *, *, #124, .T. ) ;
#250 = UNCERTAINTY_MEASURE_WITH_UNIT (LENGTH_MEASURE( 1.000000000000000082E-05 ), #65, 'distance_accuracy_value', 'NONE');
#251 = DIRECTION ( 'NONE',  ( 1.000000000000000000, 0.000000000000000000, -0.000000000000000000 ) ) ;
#252 = LOCAL_TIME ( 9, 13, 33.00000000000000000, #100 ) ;
#253 = CARTESIAN_POINT ( 'NONE',  ( -16.87617124397190338, 0.1999999999999999278, 8.673617379884035472E-17 ) ) ;
#254 = PERSON_AND_ORGANIZATION ( #453, #202 ) ;
#255 = CIRCLE ( 'NONE', #63, 0.2500000000000001110 ) ;
#256 = ADVANCED_FACE ( 'NONE', ( #45 ), #213, .F. ) ;
#257 = LINE ( 'NONE', #130, #237 ) ;
#258 = MECHANICAL_CONTEXT ( 'NONE', #228, 'mechanical' ) ;
#259 = VERTEX_POINT ( 'NONE', #14 ) ;
#260 = ORIENTED_EDGE ( 'NONE', *, *, #74, .T. ) ;
#261 = CARTESIAN_POINT ( 'NONE',  ( -16.87617124397190338, -8.673617379884035472E-17, -0.2499999999999998890 ) ) ;
#262 =( NAMED_UNIT ( * ) SI_UNIT ( $, .STERADIAN. ) SOLID_ANGLE_UNIT ( ) );
#263 = CARTESIAN_POINT ( 'NONE',  ( -17.12617124397190338, 0.1999999999999999278, -0.2500000000000016098 ) ) ;
#264 = CARTESIAN_POINT ( 'NONE',  ( 22.97382875602809094, 0.2000000000000000944, -0.2500000000000018874 ) ) ;
#265 = EDGE_CURVE ( 'NONE', #362, #405, #320, .T. ) ;
#266 = DIRECTION ( 'NONE',  ( -0.000000000000000000, -0.000000000000000000, 1.000000000000000000 ) ) ;
#267 = AXIS2_PLACEMENT_3D ( 'NONE', #423, #342, #460 ) ;
#268 = APPROVAL_ROLE ( '' ) ;
#269 = LINE ( 'NONE', #72, #497 ) ;
#270 = LINE ( 'NONE', #195, #296 ) ;
#271 = DIRECTION ( 'NONE',  ( 0.000000000000000000, 1.000000000000000000, 0.000000000000000000 ) ) ;
#272 = PLANE ( 'NONE',  #350 ) ;
#273 = ADVANCED_FACE ( 'NONE', ( #94 ), #489, .F. ) ;
#274 = AXIS2_PLACEMENT_3D ( 'NONE', #80, #446, #86 ) ;
#275 = CARTESIAN_POINT ( 'NONE',  ( 18.22382875602809449, 8.673617379884035472E-17, -1.000000000000000222 ) ) ;
#276 = ORIENTED_EDGE ( 'NONE', *, *, #481, .F. ) ;
#277 = EDGE_CURVE ( 'NONE', #490, #122, #506, .T. ) ;
#278 = APPROVAL_PERSON_ORGANIZATION ( #505, #189, #268 ) ;
#279 = EDGE_LOOP ( 'NONE', ( #260, #127 ) ) ;
#280 = EDGE_LOOP ( 'NONE', ( #452, #220, #13, #1 ) ) ;
#281 = AXIS2_PLACEMENT_3D ( 'NONE', #106, #388, #108 ) ;
#282 = ORIENTED_EDGE ( 'NONE', *, *, #198, .T. ) ;
#283 = VERTEX_POINT ( 'NONE', #325 ) ;
#284 = EDGE_CURVE ( 'NONE', #288, #132, #22, .T. ) ;
#285 = PRODUCT_RELATED_PRODUCT_CATEGORY ( 'detail', '', ( #463 ) ) ;
#286 = AXIS2_PLACEMENT_3D ( 'NONE', #511, #224, #143 ) ;
#287 = ORIENTED_EDGE ( 'NONE', *, *, #160, .T. ) ;
#288 = VERTEX_POINT ( 'NONE', #508 ) ;
#289 = CYLINDRICAL_SURFACE ( 'NONE', #21, 0.2499999999999999722 ) ;
#290 = APPROVAL_DATE_TIME ( #20, #215 ) ;
#291 = EDGE_CURVE ( 'NONE', #166, #204, #39, .T. ) ;
#292 = ORIENTED_EDGE ( 'NONE', *, *, #150, .F. ) ;
#293 = AXIS2_PLACEMENT_3D ( 'NONE', #32, #196, #519 ) ;
#294 = DIRECTION ( 'NONE',  ( 0.000000000000000000, 0.000000000000000000, -1.000000000000000000 ) ) ;
#295 = APPROVAL_DATE_TIME ( #134, #522 ) ;
#296 = VECTOR ( 'NONE', #64, 100.0000000000000000 ) ;
#297 = CARTESIAN_POINT ( 'NONE',  ( 22.72382875602809094, 8.462735823391796500E-17, -8.941146763352010888E-17 ) ) ;
#298 = PERSON_AND_ORGANIZATION_ROLE ( 'classification_officer' ) ;
#299 = FACE_OUTER_BOUND ( 'NONE', #53, .T. ) ;
#300 = ADVANCED_FACE ( 'NONE', ( #97, #417, #10 ), #18, .T. ) ;
#301 = CARTESIAN_POINT ( 'NONE',  ( -17.12617124397190338, 0.1999999999999999278, -0.2500000000000017208 ) ) ;
#302 = CARTESIAN_POINT ( 'NONE',  ( 18.22382875602809449, 0.2000000000000000944, -1.000000000000000222 ) ) ;
#303 = EDGE_CURVE ( 'NONE', #485, #243, #225, .T. ) ;
#304 = DIRECTION ( 'NONE',  ( 0.000000000000000000, 1.000000000000000000, 0.000000000000000000 ) ) ;
#305 = PERSON_AND_ORGANIZATION ( #453, #202 ) ;
#306 = PLANE ( 'NONE',  #66 ) ;
#307 = LINE ( 'NONE', #275, #178 ) ;
#308 = CARTESIAN_POINT ( 'NONE',  ( -16.62617124397190338, -8.673617379884035472E-17, -0.4999999999999999445 ) ) ;
#309 = CARTESIAN_POINT ( 'NONE',  ( -16.87617124397190338, 0.1999999999999999278, -0.7500000000000000000 ) ) ;
#310 = CC_DESIGN_PERSON_AND_ORGANIZATION_ASSIGNMENT ( #176, #57, ( #463 ) ) ;
#311 = CARTESIAN_POINT ( 'NONE',  ( -17.12617124397190338, -8.673617379884035472E-17, -0.2500000000000017208 ) ) ;
#312 = CARTESIAN_POINT ( 'NONE',  ( -16.87617124397190338, -8.063627670609424993E-17, -1.000000000000000000 ) ) ;
#313 = APPLICATION_CONTEXT ( 'configuration controlled 3d designs of mechanical parts and assemblies' ) ;
#314 = ORIENTED_EDGE ( 'NONE', *, *, #98, .T. ) ;
#315 = DIRECTION ( 'NONE',  ( -0.000000000000000000, -1.000000000000000000, -0.000000000000000000 ) ) ;
#316 = DIRECTION ( 'NONE',  ( -1.000000000000000000, -0.000000000000000000, -0.000000000000000000 ) ) ;
#317 = AXIS2_PLACEMENT_3D ( 'NONE', #302, #376, #251 ) ;
#318 = ADVANCED_FACE ( 'NONE', ( #299 ), #462, .F. ) ;
#319 = ORIENTED_EDGE ( 'NONE', *, *, #177, .T. ) ;
#320 = CIRCLE ( 'NONE', #390, 0.2500000000000000555 ) ;
#321 = ORIENTED_EDGE ( 'NONE', *, *, #147, .F. ) ;
#322 = ORIENTED_EDGE ( 'NONE', *, *, #404, .F. ) ;
#323 = EDGE_CURVE ( 'NONE', #163, #92, #113, .T. ) ;
#324 = VERTEX_POINT ( 'NONE', #129 ) ;
#325 = CARTESIAN_POINT ( 'NONE',  ( 22.47382875602809094, 8.673617379884035472E-17, -0.2499999999999998890 ) ) ;
#326 = ORIENTED_EDGE ( 'NONE', *, *, #424, .F. ) ;
#327 = VECTOR ( 'NONE', #211, 100.0000000000000000 ) ;
#328 = CARTESIAN_POINT ( 'NONE',  ( 22.72382875602809094, 8.673617379884035472E-17, -0.2500000000000000555 ) ) ;
#329 = EDGE_CURVE ( 'NONE', #92, #362, #420, .T. ) ;
#330 = DIRECTION ( 'NONE',  ( 0.000000000000000000, 0.000000000000000000, -1.000000000000000000 ) ) ;
#331 = FACE_OUTER_BOUND ( 'NONE', #119, .T. ) ;
#332 = CARTESIAN_POINT ( 'NONE',  ( -16.87617124397190338, 0.1999999999999999278, -1.000000000000000000 ) ) ;
#333 = COORDINATED_UNIVERSAL_TIME_OFFSET ( 7, 0, .BEHIND. ) ;
#334 = CARTESIAN_POINT ( 'NONE',  ( -16.87617124397190338, 0.1999999999999999278, -0.7500000000000000000 ) ) ;
#335 = VECTOR ( 'NONE', #26, 100.0000000000000000 ) ;
#336 = AXIS2_PLACEMENT_3D ( 'NONE', #308, #353, #469 ) ;
#337 = CARTESIAN_POINT ( 'NONE',  ( -16.87617124397190338, 0.1999999999999999278, -0.2499999999999998890 ) ) ;
#338 = DATE_TIME_ROLE ( 'creation_date' ) ;
#339 = EDGE_LOOP ( 'NONE', ( #81, #403, #372, #200 ) ) ;
#340 = AXIS2_PLACEMENT_3D ( 'NONE', #507, #502, #135 ) ;
#341 = AXIS2_PLACEMENT_3D ( 'NONE', #496, #52, #344 ) ;
#342 = DIRECTION ( 'NONE',  ( 0.000000000000000000, 1.000000000000000000, 0.000000000000000000 ) ) ;
#343 = COORDINATED_UNIVERSAL_TIME_OFFSET ( 7, 0, .BEHIND. ) ;
#344 = DIRECTION ( 'NONE',  ( 0.000000000000000000, 0.000000000000000000, 1.000000000000000000 ) ) ;
#345 = EDGE_CURVE ( 'NONE', #245, #163, #184, .T. ) ;
#346 = CARTESIAN_POINT ( 'NONE',  ( -17.12617124397190338, 0.1999999999999999278, -0.7499999999999981126 ) ) ;
#347 = CARTESIAN_POINT ( 'NONE',  ( 0.000000000000000000, 0.000000000000000000, 0.000000000000000000 ) ) ;
#348 = DIRECTION ( 'NONE',  ( -0.000000000000000000, -1.000000000000000000, -0.000000000000000000 ) ) ;
#349 = CARTESIAN_POINT ( 'NONE',  ( 22.72382875602809094, 0.2000000000000000944, -8.673617379884035472E-17 ) ) ;
#350 = AXIS2_PLACEMENT_3D ( 'NONE', #394, #75, #188 ) ;
#351 = VECTOR ( 'NONE', #99, 100.0000000000000000 ) ;
#352 = EDGE_CURVE ( 'NONE', #283, #524, #525, .T. ) ;
#353 = DIRECTION ( 'NONE',  ( 0.000000000000000000, 1.000000000000000000, 0.000000000000000000 ) ) ;
#354 = CARTESIAN_POINT ( 'NONE',  ( -16.87617124397190338, 0.1999999999999999278, 8.519476437945670906E-17 ) ) ;
#355 = DESIGN_CONTEXT ( 'detailed design', #313, 'design' ) ;
#356 = CARTESIAN_POINT ( 'NONE',  ( 22.72382875602809094, 0.2000000000000000944, -1.000000000000000222 ) ) ;
#357 = CARTESIAN_POINT ( 'NONE',  ( -16.62617124397190338, 0.1999999999999999278, -0.4999999999999999445 ) ) ;
#358 = VERTEX_POINT ( 'NONE', #12 ) ;
#359 = EDGE_LOOP ( 'NONE', ( #276, #292, #366, #206 ) ) ;
#360 = ORIENTED_EDGE ( 'NONE', *, *, #291, .F. ) ;
#361 = LOCAL_TIME ( 9, 13, 33.00000000000000000, #333 ) ;
#362 = VERTEX_POINT ( 'NONE', #169 ) ;
#363 = CIRCLE ( 'NONE', #340, 0.2500000000000002220 ) ;
#364 = CIRCLE ( 'NONE', #267, 0.2500000000000002220 ) ;
#365 = CC_DESIGN_DATE_AND_TIME_ASSIGNMENT ( #214, #374, ( #368 ) ) ;
#366 = ORIENTED_EDGE ( 'NONE', *, *, #194, .T. ) ;
#367 = ADVANCED_FACE ( 'NONE', ( #331 ), #172, .T. ) ;
#368 = SECURITY_CLASSIFICATION ( '', '', #455 ) ;
#369 = ORIENTED_EDGE ( 'NONE', *, *, #198, .F. ) ;
#370 = DIRECTION ( 'NONE',  ( 0.000000000000000000, -0.000000000000000000, 1.000000000000000000 ) ) ;
#371 = DIRECTION ( 'NONE',  ( 1.000000000000000000, 0.000000000000000000, 0.000000000000000000 ) ) ;
#372 = ORIENTED_EDGE ( 'NONE', *, *, #422, .T. ) ;
#373 = DIRECTION ( 'NONE',  ( -0.000000000000000000, -1.000000000000000000, -0.000000000000000000 ) ) ;
#374 = DATE_TIME_ROLE ( 'classification_date' ) ;
#375 = CARTESIAN_POINT ( 'NONE',  ( 22.47382875602809094, 0.2000000000000000944, -0.2499999999999998890 ) ) ;
#376 = DIRECTION ( 'NONE',  ( 0.000000000000000000, 0.000000000000000000, 1.000000000000000000 ) ) ;
#377 = CARTESIAN_POINT ( 'NONE',  ( 22.97382875602809094, 0.2000000000000000944, -0.2500000000000018874 ) ) ;
#378 = CALENDAR_DATE ( 2025, 20, 11 ) ;
#379 = ORIENTED_EDGE ( 'NONE', *, *, #87, .F. ) ;
#380 = FACE_OUTER_BOUND ( 'NONE', #203, .T. ) ;
#381 = PERSON_AND_ORGANIZATION ( #453, #202 ) ;
#382 = VECTOR ( 'NONE', #266, 100.0000000000000000 ) ;
#383 = LINE ( 'NONE', #168, #35 ) ;
#384 = FACE_BOUND ( 'NONE', #412, .T. ) ;
#385 = FACE_OUTER_BOUND ( 'NONE', #498, .T. ) ;
#386 = CARTESIAN_POINT ( 'NONE',  ( -16.62617124397190338, 0.1999999999999999278, -0.7500000000000001110 ) ) ;
#387 = AXIS2_PLACEMENT_3D ( 'NONE', #347, #223, #232 ) ;
#388 = DIRECTION ( 'NONE',  ( -0.000000000000000000, -1.000000000000000000, -0.000000000000000000 ) ) ;
#389 = DIRECTION ( 'NONE',  ( 0.000000000000000000, 1.000000000000000000, -0.000000000000000000 ) ) ;
#390 = AXIS2_PLACEMENT_3D ( 'NONE', #170, #133, #294 ) ;
#391 = CYLINDRICAL_SURFACE ( 'NONE', #281, 0.2500000000000001110 ) ;
#392 = DIRECTION ( 'NONE',  ( 0.000000000000000000, 0.000000000000000000, 1.000000000000000000 ) ) ;
#393 = VERTEX_POINT ( 'NONE', #29 ) ;
#394 = CARTESIAN_POINT ( 'NONE',  ( 18.22382875602809449, 0.2000000000000000944, -8.673617379884035472E-17 ) ) ;
#395 = LOCAL_TIME ( 9, 13, 33.00000000000000000, #55 ) ;
#396 = EDGE_CURVE ( 'NONE', #393, #118, #70, .T. ) ;
#397 = EDGE_CURVE ( 'NONE', #259, #437, #210, .T. ) ;
#398 = ORIENTED_EDGE ( 'NONE', *, *, #156, .F. ) ;
#399 = ORIENTED_EDGE ( 'NONE', *, *, #158, .F. ) ;
#400 = ORIENTED_EDGE ( 'NONE', *, *, #199, .F. ) ;
#401 = AXIS2_PLACEMENT_3D ( 'NONE', #328, #492, #16 ) ;
#402 = ORIENTED_EDGE ( 'NONE', *, *, #323, .F. ) ;
#403 = ORIENTED_EDGE ( 'NONE', *, *, #396, .T. ) ;
#404 = EDGE_CURVE ( 'NONE', #358, #405, #114, .T. ) ;
#405 = VERTEX_POINT ( 'NONE', #111 ) ;
#406 = DIRECTION ( 'NONE',  ( 0.000000000000000000, 0.000000000000000000, -1.000000000000000000 ) ) ;
#407 = ORIENTED_EDGE ( 'NONE', *, *, #58, .T. ) ;
#408 = LOCAL_TIME ( 9, 13, 33.00000000000000000, #510 ) ;
#409 = CARTESIAN_POINT ( 'NONE',  ( 22.47382875602809094, 0.2000000000000000944, -0.7500000000000003331 ) ) ;
#410 = PERSON_AND_ORGANIZATION_ROLE ( 'creator' ) ;
#411 = AXIS2_PLACEMENT_3D ( 'NONE', #301, #493, #330 ) ;
#412 = EDGE_LOOP ( 'NONE', ( #471, #49 ) ) ;
#413 = DIRECTION ( 'NONE',  ( 0.000000000000000000, 1.000000000000000000, -0.000000000000000000 ) ) ;
#414 = DIRECTION ( 'NONE',  ( -0.000000000000000000, -1.000000000000000000, -0.000000000000000000 ) ) ;
#415 = APPROVAL_STATUS ( 'not_yet_approved' ) ;
#416 = EDGE_LOOP ( 'NONE', ( #157, #51, #319, #443, #179, #44, #36, #249 ) ) ;
#417 = FACE_BOUND ( 'NONE', #244, .T. ) ;
#418 = CARTESIAN_POINT ( 'NONE',  ( -16.87617124397190338, 0.1999999999999999278, -0.9999999999999998890 ) ) ;
#419 = CALENDAR_DATE ( 2025, 20, 11 ) ;
#420 = LINE ( 'NONE', #46, #478 ) ;
#421 = ORIENTED_EDGE ( 'NONE', *, *, #98, .F. ) ;
#422 = EDGE_CURVE ( 'NONE', #118, #437, #152, .T. ) ;
#423 = CARTESIAN_POINT ( 'NONE',  ( 22.47382875602809094, 8.673617379884035472E-17, -0.5000000000000001110 ) ) ;
#424 = EDGE_CURVE ( 'NONE', #405, #490, #307, .T. ) ;
#425 = FACE_OUTER_BOUND ( 'NONE', #201, .T. ) ;
#426 = AXIS2_PLACEMENT_3D ( 'NONE', #261, #216, #499 ) ;
#427 = DATE_AND_TIME ( #15, #408 ) ;
#428 = EDGE_CURVE ( 'NONE', #358, #166, #436, .T. ) ;
#429 = DIRECTION ( 'NONE',  ( 0.000000000000000000, 1.000000000000000000, 0.000000000000000000 ) ) ;
#430 = FACE_OUTER_BOUND ( 'NONE', #280, .T. ) ;
#431 = CARTESIAN_POINT ( 'NONE',  ( -16.62617124397190338, 0.1999999999999999278, -0.7500000000000001110 ) ) ;
#432 = FACE_OUTER_BOUND ( 'NONE', #359, .T. ) ;
#433 = VECTOR ( 'NONE', #231, 100.0000000000000000 ) ;
#434 = DIRECTION ( 'NONE',  ( 0.000000000000000000, 0.000000000000000000, 1.000000000000000000 ) ) ;
#435 = CARTESIAN_POINT ( 'NONE',  ( 18.22382875602809449, 0.2000000000000000944, -1.000000000000000222 ) ) ;
#436 = LINE ( 'NONE', #435, #83 ) ;
#437 = VERTEX_POINT ( 'NONE', #473 ) ;
#438 = AXIS2_PLACEMENT_3D ( 'NONE', #240, #271, #392 ) ;
#439 = EDGE_LOOP ( 'NONE', ( #369, #513 ) ) ;
#440 = DIRECTION ( 'NONE',  ( -0.000000000000000000, -1.000000000000000000, -0.000000000000000000 ) ) ;
#441 = VERTEX_POINT ( 'NONE', #354 ) ;
#442 = ADVANCED_FACE ( 'NONE', ( #432 ), #272, .F. ) ;
#443 = ORIENTED_EDGE ( 'NONE', *, *, #501, .T. ) ;
#444 = AXIS2_PLACEMENT_3D ( 'NONE', #518, #429, #234 ) ;
#445 = ORIENTED_EDGE ( 'NONE', *, *, #164, .F. ) ;
#446 = DIRECTION ( 'NONE',  ( 0.000000000000000000, 1.000000000000000000, -0.000000000000000000 ) ) ;
#447 = EDGE_LOOP ( 'NONE', ( #43, #399, #88, #209 ) ) ;
#448 = ADVANCED_FACE ( 'NONE', ( #430 ), #191, .F. ) ;
#449 = AXIS2_PLACEMENT_3D ( 'NONE', #187, #67, #154 ) ;
#450 = ORIENTED_EDGE ( 'NONE', *, *, #481, .T. ) ;
#451 = ORIENTED_EDGE ( 'NONE', *, *, #69, .F. ) ;
#452 = ORIENTED_EDGE ( 'NONE', *, *, #58, .F. ) ;
#453 = PERSON ( 'UNSPECIFIED', 'UNSPECIFIED', 'UNSPECIFIED', ('UNSPECIFIED'), ('UNSPECIFIED'), ('UNSPECIFIED') ) ;
#454 = DIRECTION ( 'NONE',  ( -0.000000000000000000, -1.000000000000000000, -0.000000000000000000 ) ) ;
#455 = SECURITY_CLASSIFICATION_LEVEL ( 'unclassified' ) ;
#456 = CARTESIAN_POINT ( 'NONE',  ( 22.72382875602809094, 8.673617379884035472E-17, -0.2500000000000000555 ) ) ;
#457 = APPROVAL_DATE_TIME ( #183, #189 ) ;
#458 = AXIS2_PLACEMENT_3D ( 'NONE', #334, #413, #136 ) ;
#459 = CC_DESIGN_PERSON_AND_ORGANIZATION_ASSIGNMENT ( #90, #298, ( #368 ) ) ;
#460 = DIRECTION ( 'NONE',  ( 0.000000000000000000, 0.000000000000000000, 1.000000000000000000 ) ) ;
#461 = SHAPE_DEFINITION_REPRESENTATION ( #27, #174 ) ;
#462 = PLANE ( 'NONE',  #317 ) ;
#463 = PRODUCT ( 'Link D_Default_sldprt', 'Link D_Default_sldprt', '', ( #258 ) ) ;
#464 = LINE ( 'NONE', #61, #327 ) ;
#465 = AXIS2_PLACEMENT_3D ( 'NONE', #309, #235, #516 ) ;
#466 = ORIENTED_EDGE ( 'NONE', *, *, #124, .F. ) ;
#467 = LINE ( 'NONE', #253, #120 ) ;
#468 = PERSON_AND_ORGANIZATION_ROLE ( 'design_supplier' ) ;
#469 = DIRECTION ( 'NONE',  ( 0.000000000000000000, 0.000000000000000000, 1.000000000000000000 ) ) ;
#470 = CARTESIAN_POINT ( 'NONE',  ( 22.72382875602809094, 0.2000000000000000944, -0.7500000000000001110 ) ) ;
#471 = ORIENTED_EDGE ( 'NONE', *, *, #156, .T. ) ;
#472 = CARTESIAN_POINT ( 'NONE',  ( -16.62617124397190338, 0.1999999999999999278, -0.2499999999999997780 ) ) ;
#473 = CARTESIAN_POINT ( 'NONE',  ( -16.62617124397190338, -8.673617379884035472E-17, -0.7500000000000001110 ) ) ;
#474 = FACE_OUTER_BOUND ( 'NONE', #447, .T. ) ;
#475 = PRODUCT_DEFINITION_FORMATION_WITH_SPECIFIED_SOURCE ( 'ANY', '', #463, .NOT_KNOWN. ) ;
#476 = CARTESIAN_POINT ( 'NONE',  ( 22.97382875602809094, 8.462735823391796500E-17, -0.2500000000000018874 ) ) ;
#477 = CYLINDRICAL_SURFACE ( 'NONE', #465, 0.2499999999999998890 ) ;
#478 = VECTOR ( 'NONE', #212, 100.0000000000000000 ) ;
#479 = CC_DESIGN_PERSON_AND_ORGANIZATION_ASSIGNMENT ( #305, #468, ( #475 ) ) ;
#480 = ORIENTED_EDGE ( 'NONE', *, *, #7, .T. ) ;
#481 = EDGE_CURVE ( 'NONE', #485, #163, #68, .T. ) ;
#482 = APPROVAL_PERSON_ORGANIZATION ( #381, #215, #24 ) ;
#483 = AXIS2_PLACEMENT_3D ( 'NONE', #89, #373, #509 ) ;
#484 = ORIENTED_EDGE ( 'NONE', *, *, #329, .F. ) ;
#485 = VERTEX_POINT ( 'NONE', #145 ) ;
#486 = ORIENTED_EDGE ( 'NONE', *, *, #501, .F. ) ;
#487 = ORIENTED_EDGE ( 'NONE', *, *, #424, .T. ) ;
#488 = ADVANCED_FACE ( 'NONE', ( #385 ), #477, .T. ) ;
#489 = CYLINDRICAL_SURFACE ( 'NONE', #491, 0.2500000000000001110 ) ;
#490 = VERTEX_POINT ( 'NONE', #312 ) ;
#491 = AXIS2_PLACEMENT_3D ( 'NONE', #357, #440, #208 ) ;
#492 = DIRECTION ( 'NONE',  ( 0.000000000000000000, 1.000000000000000000, 0.000000000000000000 ) ) ;
#493 = DIRECTION ( 'NONE',  ( 1.000000000000000000, -0.000000000000000000, 0.000000000000000000 ) ) ;
#494 = APPLICATION_PROTOCOL_DEFINITION ( 'international standard', 'config_control_design', 1994, #228 ) ;
#495 = ORIENTED_EDGE ( 'NONE', *, *, #194, .F. ) ;
#496 = CARTESIAN_POINT ( 'NONE',  ( 22.72382875602809094, 0.2000000000000000944, -0.2500000000000000555 ) ) ;
#497 = VECTOR ( 'NONE', #315, 100.0000000000000000 ) ;
#498 = EDGE_LOOP ( 'NONE', ( #165, #421, #360, #287 ) ) ;
#499 = DIRECTION ( 'NONE',  ( 0.000000000000000000, 0.000000000000000000, -1.000000000000000000 ) ) ;
#500 = APPROVAL_ROLE ( '' ) ;
#501 = EDGE_CURVE ( 'NONE', #218, #358, #117, .T. ) ;
#502 = DIRECTION ( 'NONE',  ( 0.000000000000000000, 1.000000000000000000, 0.000000000000000000 ) ) ;
#503 = VECTOR ( 'NONE', #155, 100.0000000000000000 ) ;
#504 = LINE ( 'NONE', #377, #351 ) ;
#505 = PERSON_AND_ORGANIZATION ( #453, #202 ) ;
#506 = CIRCLE ( 'NONE', #274, 0.2499999999999998890 ) ;
#507 = CARTESIAN_POINT ( 'NONE',  ( 22.47382875602809094, 0.2000000000000000944, -0.5000000000000001110 ) ) ;
#508 = CARTESIAN_POINT ( 'NONE',  ( -17.12617124397190338, 0.1999999999999999278, -0.2500000000000016098 ) ) ;
#509 = DIRECTION ( 'NONE',  ( 0.000000000000000000, 0.000000000000000000, -1.000000000000000000 ) ) ;
#510 = COORDINATED_UNIVERSAL_TIME_OFFSET ( 7, 0, .BEHIND. ) ;
#511 = CARTESIAN_POINT ( 'NONE',  ( 22.47382875602809094, 8.673617379884035472E-17, -0.5000000000000001110 ) ) ;
#512 = CC_DESIGN_DATE_AND_TIME_ASSIGNMENT ( #427, #338, ( #47 ) ) ;
#513 = ORIENTED_EDGE ( 'NONE', *, *, #396, .F. ) ;
#514 = LINE ( 'NONE', #409, #71 ) ;
#515 = PLANE ( 'NONE',  #105 ) ;
#516 = DIRECTION ( 'NONE',  ( 0.000000000000000000, 0.000000000000000000, -1.000000000000000000 ) ) ;
#517 = CC_DESIGN_APPROVAL ( #215, ( #47 ) ) ;
#518 = CARTESIAN_POINT ( 'NONE',  ( 22.47382875602809094, 0.2000000000000000944, -0.5000000000000001110 ) ) ;
#519 = DIRECTION ( 'NONE',  ( 0.000000000000000000, 0.000000000000000000, 1.000000000000000000 ) ) ;
#520 = LINE ( 'NONE', #311, #93 ) ;
#521 = CARTESIAN_POINT ( 'NONE',  ( 22.47382875602809094, 0.2000000000000000944, -0.5000000000000001110 ) ) ;
#522 = APPROVAL ( #95, 'UNSPECIFIED' ) ;
#523 = DIRECTION ( 'NONE',  ( -0.000000000000000000, -1.000000000000000000, -0.000000000000000000 ) ) ;
#524 = VERTEX_POINT ( 'NONE', #107 ) ;
#525 = CIRCLE ( 'NONE', #286, 0.2500000000000002220 ) ;
ENDSEC;
END-ISO-10303-21;
