ISO-10303-21;
HEADER;
FILE_DESCRIPTION (( 'STEP AP203' ),
    '1' );
FILE_NAME ('Link B_Default_sldprt.STEP',
    '2025-11-20T16:13:26',
    ( '' ),
    ( '' ),
    'SwSTEP 2.0',
    'SolidWorks 2025',
    '' );
FILE_SCHEMA (( 'CONFIG_CONTROL_DESIGN' ));
ENDSEC;

DATA;
#1 = EDGE_LOOP ( 'NONE', ( #520, #152 ) ) ;
#2 = DATE_TIME_ROLE ( 'classification_date' ) ;
#3 = CARTESIAN_POINT ( 'NONE',  ( 23.69073360669587913, 0.2000000000000000944, -0.2500000000000018874 ) ) ;
#4 = CIRCLE ( 'NONE', #462, 0.2499999999999998890 ) ;
#5 = ORIENTED_EDGE ( 'NONE', *, *, #499, .T. ) ;
#6 = CARTESIAN_POINT ( 'NONE',  ( -17.30926639330411732, -8.673617379884035472E-17, -0.2499999999999997780 ) ) ;
#7 = ORIENTED_EDGE ( 'NONE', *, *, #34, .F. ) ;
#8 = PLANE ( 'NONE',  #386 ) ;
#9 = ORIENTED_EDGE ( 'NONE', *, *, #48, .T. ) ;
#10 = DIRECTION ( 'NONE',  ( 0.000000000000000000, 1.000000000000000000, 0.000000000000000000 ) ) ;
#11 = AXIS2_PLACEMENT_3D ( 'NONE', #429, #272, #431 ) ;
#12 = AXIS2_PLACEMENT_3D ( 'NONE', #278, #326, #517 ) ;
#13 = VERTEX_POINT ( 'NONE', #306 ) ;
#14 = CARTESIAN_POINT ( 'NONE',  ( -17.80926639330411732, 0.1999999999999999278, -0.2500000000000017208 ) ) ;
#15 = EDGE_LOOP ( 'NONE', ( #421, #456, #65, #515, #197, #5, #173, #404 ) ) ;
#16 = DIRECTION ( 'NONE',  ( 0.000000000000000000, 0.000000000000000000, -1.000000000000000000 ) ) ;
#17 = CARTESIAN_POINT ( 'NONE',  ( 18.94073360669588268, 0.2000000000000000944, -1.000000000000000222 ) ) ;
#18 = AXIS2_PLACEMENT_3D ( 'NONE', #107, #187, #184 ) ;
#19 = CC_DESIGN_SECURITY_CLASSIFICATION ( #38, ( #471 ) ) ;
#20 = LINE ( 'NONE', #183, #55 ) ;
#21 = ORIENTED_EDGE ( 'NONE', *, *, #374, .T. ) ;
#22 = DIRECTION ( 'NONE',  ( 0.000000000000000000, 1.000000000000000000, 0.000000000000000000 ) ) ;
#23 = CARTESIAN_POINT ( 'NONE',  ( 23.69073360669587913, 0.2000000000000000944, -0.2500000000000018874 ) ) ;
#24 = DIRECTION ( 'NONE',  ( 0.000000000000000000, 0.000000000000000000, 1.000000000000000000 ) ) ;
#25 = AXIS2_PLACEMENT_3D ( 'NONE', #161, #30, #153 ) ;
#26 = CARTESIAN_POINT ( 'NONE',  ( 23.19073360669587913, 0.2000000000000000944, -0.5000000000000001110 ) ) ;
#27 = ORIENTED_EDGE ( 'NONE', *, *, #181, .T. ) ;
#28 = ORIENTED_EDGE ( 'NONE', *, *, #318, .T. ) ;
#29 = APPLICATION_PROTOCOL_DEFINITION ( 'international standard', 'config_control_design', 1994, #407 ) ;
#30 = DIRECTION ( 'NONE',  ( 0.000000000000000000, 1.000000000000000000, 0.000000000000000000 ) ) ;
#31 = CIRCLE ( 'NONE', #101, 0.2500000000000002220 ) ;
#32 = LINE ( 'NONE', #287, #351 ) ;
#33 = LOCAL_TIME ( 9, 13, 26.00000000000000000, #114 ) ;
#34 = EDGE_CURVE ( 'NONE', #134, #447, #466, .T. ) ;
#35 = EDGE_CURVE ( 'NONE', #293, #13, #4, .T. ) ;
#36 = ORIENTED_EDGE ( 'NONE', *, *, #67, .T. ) ;
#37 = CARTESIAN_POINT ( 'NONE',  ( -17.80926639330411732, 0.1999999999999999278, -0.2500000000000017208 ) ) ;
#38 = SECURITY_CLASSIFICATION ( '', '', #43 ) ;
#39 = CALENDAR_DATE ( 2025, 20, 11 ) ;
#40 = DIRECTION ( 'NONE',  ( 0.000000000000000000, 0.000000000000000000, 1.000000000000000000 ) ) ;
#41 = APPROVAL_PERSON_ORGANIZATION ( #249, #449, #123 ) ;
#42 = VERTEX_POINT ( 'NONE', #23 ) ;
#43 = SECURITY_CLASSIFICATION_LEVEL ( 'unclassified' ) ;
#44 = DIRECTION ( 'NONE',  ( 0.000000000000000000, 1.000000000000000000, 0.000000000000000000 ) ) ;
#45 = CIRCLE ( 'NONE', #220, 0.2500000000000002220 ) ;
#46 = VERTEX_POINT ( 'NONE', #215 ) ;
#47 = DIRECTION ( 'NONE',  ( 0.000000000000000000, 0.000000000000000000, 1.000000000000000000 ) ) ;
#48 = EDGE_CURVE ( 'NONE', #277, #363, #425, .T. ) ;
#49 = ORIENTED_EDGE ( 'NONE', *, *, #35, .F. ) ;
#50 = APPROVAL_DATE_TIME ( #126, #449 ) ;
#51 = CARTESIAN_POINT ( 'NONE',  ( 23.44073360669587913, 0.2000000000000000944, -0.7500000000000001110 ) ) ;
#52 = LOCAL_TIME ( 9, 13, 26.00000000000000000, #512 ) ;
#53 = VERTEX_POINT ( 'NONE', #311 ) ;
#54 = DIRECTION ( 'NONE',  ( 0.000000000000000000, 1.000000000000000000, -0.000000000000000000 ) ) ;
#55 = VECTOR ( 'NONE', #347, 100.0000000000000000 ) ;
#56 = ADVANCED_FACE ( 'NONE', ( #145 ), #348, .T. ) ;
#57 = ORIENTED_EDGE ( 'NONE', *, *, #432, .T. ) ;
#58 = DIRECTION ( 'NONE',  ( 1.000000000000000000, -0.000000000000000000, 0.000000000000000000 ) ) ;
#59 = DIRECTION ( 'NONE',  ( 0.000000000000000000, 0.000000000000000000, -1.000000000000000000 ) ) ;
#60 = EDGE_CURVE ( 'NONE', #176, #134, #245, .T. ) ;
#61 = ORIENTED_EDGE ( 'NONE', *, *, #499, .F. ) ;
#62 = AXIS2_PLACEMENT_3D ( 'NONE', #14, #58, #97 ) ;
#63 = DIRECTION ( 'NONE',  ( 0.000000000000000000, 1.000000000000000000, -0.000000000000000000 ) ) ;
#64 = DIRECTION ( 'NONE',  ( 0.000000000000000000, 0.000000000000000000, -1.000000000000000000 ) ) ;
#65 = ORIENTED_EDGE ( 'NONE', *, *, #192, .T. ) ;
#66 = LINE ( 'NONE', #189, #317 ) ;
#67 = EDGE_CURVE ( 'NONE', #447, #72, #235, .T. ) ;
#68 = CARTESIAN_POINT ( 'NONE',  ( -17.55926639330411732, -8.673617379884035472E-17, -0.2499999999999998890 ) ) ;
#69 = FACE_OUTER_BOUND ( 'NONE', #237, .T. ) ;
#70 = CIRCLE ( 'NONE', #503, 0.2500000000000002220 ) ;
#71 = EDGE_LOOP ( 'NONE', ( #489, #408, #168, #307 ) ) ;
#72 = VERTEX_POINT ( 'NONE', #103 ) ;
#73 = CARTESIAN_POINT ( 'NONE',  ( -17.80926639330411732, 0.1999999999999999278, -0.2500000000000016098 ) ) ;
#74 = PLANE ( 'NONE',  #328 ) ;
#75 = EDGE_LOOP ( 'NONE', ( #83, #116 ) ) ;
#76 = VECTOR ( 'NONE', #221, 100.0000000000000000 ) ;
#77 = DIRECTION ( 'NONE',  ( -0.000000000000000000, -1.000000000000000000, -0.000000000000000000 ) ) ;
#78 = CC_DESIGN_PERSON_AND_ORGANIZATION_ASSIGNMENT ( #90, #457, ( #471 ) ) ;
#79 = APPROVAL_DATE_TIME ( #438, #204 ) ;
#80 = LINE ( 'NONE', #362, #190 ) ;
#81 = ORIENTED_EDGE ( 'NONE', *, *, #442, .F. ) ;
#82 = DIRECTION ( 'NONE',  ( 0.000000000000000000, 1.000000000000000000, -0.000000000000000000 ) ) ;
#83 = ORIENTED_EDGE ( 'NONE', *, *, #412, .F. ) ;
#84 = DIRECTION ( 'NONE',  ( 0.000000000000000000, 0.000000000000000000, 1.000000000000000000 ) ) ;
#85 = EDGE_LOOP ( 'NONE', ( #450, #353 ) ) ;
#86 = EDGE_CURVE ( 'NONE', #158, #341, #96, .T. ) ;
#87 = COORDINATED_UNIVERSAL_TIME_OFFSET ( 7, 0, .BEHIND. ) ;
#88 = DIRECTION ( 'NONE',  ( 0.000000000000000000, 0.000000000000000000, 1.000000000000000000 ) ) ;
#89 = VERTEX_POINT ( 'NONE', #217 ) ;
#90 = PERSON_AND_ORGANIZATION ( #274, #102 ) ;
#91 = PLANE ( 'NONE',  #357 ) ;
#92 = ORIENTED_EDGE ( 'NONE', *, *, #360, .F. ) ;
#93 = PLANE ( 'NONE',  #444 ) ;
#94 = CIRCLE ( 'NONE', #131, 0.2499999999999999722 ) ;
#95 = EDGE_CURVE ( 'NONE', #363, #89, #160, .T. ) ;
#96 = LINE ( 'NONE', #186, #76 ) ;
#97 = DIRECTION ( 'NONE',  ( 0.000000000000000000, 0.000000000000000000, -1.000000000000000000 ) ) ;
#98 = DIRECTION ( 'NONE',  ( 0.000000000000000000, 1.000000000000000000, 0.000000000000000000 ) ) ;
#99 = CARTESIAN_POINT ( 'NONE',  ( 23.19073360669587913, 8.673617379884035472E-17, -0.5000000000000001110 ) ) ;
#100 = PRODUCT ( 'Link B_Default_sldprt', 'Link B_Default_sldprt', '', ( #405 ) ) ;
#101 = AXIS2_PLACEMENT_3D ( 'NONE', #493, #253, #84 ) ;
#102 = ORGANIZATION ( 'UNSPECIFIED', 'UNSPECIFIED', '' ) ;
#103 = CARTESIAN_POINT ( 'NONE',  ( -17.30926639330411732, -8.673617379884035472E-17, -0.7500000000000001110 ) ) ;
#104 = EDGE_CURVE ( 'NONE', #158, #154, #382, .T. ) ;
#105 = CARTESIAN_POINT ( 'NONE',  ( -17.80926639330411732, 0.1999999999999999278, -0.2500000000000016098 ) ) ;
#106 = CALENDAR_DATE ( 2025, 20, 11 ) ;
#107 = CARTESIAN_POINT ( 'NONE',  ( 23.44073360669587913, 8.673617379884035472E-17, -0.2500000000000000555 ) ) ;
#108 = EDGE_CURVE ( 'NONE', #122, #367, #70, .T. ) ;
#109 = VECTOR ( 'NONE', #244, 100.0000000000000000 ) ;
#110 = AXIS2_PLACEMENT_3D ( 'NONE', #51, #368, #209 ) ;
#111 = ORIENTED_EDGE ( 'NONE', *, *, #216, .T. ) ;
#112 = DIRECTION ( 'NONE',  ( -0.000000000000000000, -1.000000000000000000, -0.000000000000000000 ) ) ;
#113 = ORIENTED_EDGE ( 'NONE', *, *, #216, .F. ) ;
#114 = COORDINATED_UNIVERSAL_TIME_OFFSET ( 7, 0, .BEHIND. ) ;
#115 = LINE ( 'NONE', #282, #356 ) ;
#116 = ORIENTED_EDGE ( 'NONE', *, *, #270, .F. ) ;
#117 = DATE_TIME_ROLE ( 'creation_date' ) ;
#118 = LINE ( 'NONE', #284, #109 ) ;
#119 = VECTOR ( 'NONE', #112, 100.0000000000000000 ) ;
#120 = COORDINATED_UNIVERSAL_TIME_OFFSET ( 7, 0, .BEHIND. ) ;
#121 = DIRECTION ( 'NONE',  ( -0.000000000000000000, -1.000000000000000000, -0.000000000000000000 ) ) ;
#122 = VERTEX_POINT ( 'NONE', #504 ) ;
#123 = APPROVAL_ROLE ( '' ) ;
#124 = DIRECTION ( 'NONE',  ( 0.000000000000000000, 0.000000000000000000, -1.000000000000000000 ) ) ;
#125 = ORIENTED_EDGE ( 'NONE', *, *, #299, .F. ) ;
#126 = DATE_AND_TIME ( #451, #246 ) ;
#127 = CARTESIAN_POINT ( 'NONE',  ( -17.55926639330411732, 0.1999999999999999278, -0.7500000000000000000 ) ) ;
#128 = CC_DESIGN_PERSON_AND_ORGANIZATION_ASSIGNMENT ( #486, #490, ( #38 ) ) ;
#129 = ORIENTED_EDGE ( 'NONE', *, *, #48, .F. ) ;
#130 = FACE_OUTER_BOUND ( 'NONE', #15, .T. ) ;
#131 = AXIS2_PLACEMENT_3D ( 'NONE', #477, #234, #400 ) ;
#132 = VECTOR ( 'NONE', #502, 100.0000000000000000 ) ;
#133 = ADVANCED_FACE ( 'NONE', ( #188 ), #349, .F. ) ;
#134 = VERTEX_POINT ( 'NONE', #263 ) ;
#135 = CYLINDRICAL_SURFACE ( 'NONE', #110, 0.2500000000000000555 ) ;
#136 = EDGE_LOOP ( 'NONE', ( #454, #369, #290, #258 ) ) ;
#137 = FACE_OUTER_BOUND ( 'NONE', #332, .T. ) ;
#138 = CC_DESIGN_PERSON_AND_ORGANIZATION_ASSIGNMENT ( #445, #396, ( #100 ) ) ;
#139 = DIRECTION ( 'NONE',  ( -0.000000000000000000, -1.000000000000000000, -0.000000000000000000 ) ) ;
#140 = DIRECTION ( 'NONE',  ( -0.000000000000000000, -1.000000000000000000, -0.000000000000000000 ) ) ;
#141 = AXIS2_PLACEMENT_3D ( 'NONE', #389, #22, #509 ) ;
#142 = DIRECTION ( 'NONE',  ( 0.000000000000000000, 0.000000000000000000, -1.000000000000000000 ) ) ;
#143 = VERTEX_POINT ( 'NONE', #510 ) ;
#144 = CARTESIAN_POINT ( 'NONE',  ( 23.19073360669587913, 0.2000000000000000944, -0.2499999999999998890 ) ) ;
#145 = FACE_OUTER_BOUND ( 'NONE', #71, .T. ) ;
#146 = VECTOR ( 'NONE', #64, 100.0000000000000000 ) ;
#147 = DIRECTION ( 'NONE',  ( -0.000000000000000000, -1.000000000000000000, -0.000000000000000000 ) ) ;
#148 = EDGE_LOOP ( 'NONE', ( #57, #36 ) ) ;
#149 = CARTESIAN_POINT ( 'NONE',  ( -17.80926639330411732, -8.385253845505526944E-17, -0.2500000000000016098 ) ) ;
#150 = EDGE_CURVE ( 'NONE', #13, #363, #20, .T. ) ;
#151 = VECTOR ( 'NONE', #139, 100.0000000000000000 ) ;
#152 = ORIENTED_EDGE ( 'NONE', *, *, #194, .T. ) ;
#153 = DIRECTION ( 'NONE',  ( 0.000000000000000000, 0.000000000000000000, 1.000000000000000000 ) ) ;
#154 = VERTEX_POINT ( 'NONE', #505 ) ;
#155 = PERSON_AND_ORGANIZATION ( #274, #102 ) ;
#156 = DIRECTION ( 'NONE',  ( 0.000000000000000000, 0.000000000000000000, 1.000000000000000000 ) ) ;
#157 = EDGE_CURVE ( 'NONE', #522, #367, #430, .T. ) ;
#158 = VERTEX_POINT ( 'NONE', #314 ) ;
#159 = DIRECTION ( 'NONE',  ( 0.000000000000000000, 1.000000000000000000, 0.000000000000000000 ) ) ;
#160 = CIRCLE ( 'NONE', #285, 0.2499999999999999722 ) ;
#161 = CARTESIAN_POINT ( 'NONE',  ( -17.30926639330411732, 0.1999999999999999278, -0.4999999999999999445 ) ) ;
#162 = VERTEX_POINT ( 'NONE', #387 ) ;
#163 = DIRECTION ( 'NONE',  ( 0.000000000000000000, 0.000000000000000000, -1.000000000000000000 ) ) ;
#164 = UNCERTAINTY_MEASURE_WITH_UNIT (LENGTH_MEASURE( 1.000000000000000082E-05 ), #229, 'distance_accuracy_value', 'NONE');
#165 = EDGE_CURVE ( 'NONE', #423, #460, #346, .T. ) ;
#166 = ORIENTED_EDGE ( 'NONE', *, *, #35, .T. ) ;
#167 = PLANE ( 'NONE',  #62 ) ;
#168 = ORIENTED_EDGE ( 'NONE', *, *, #322, .F. ) ;
#169 = APPROVAL_DATE_TIME ( #435, #519 ) ;
#170 = FACE_OUTER_BOUND ( 'NONE', #339, .T. ) ;
#171 = VECTOR ( 'NONE', #147, 100.0000000000000000 ) ;
#172 = LOCAL_TIME ( 9, 13, 26.00000000000000000, #120 ) ;
#173 = ORIENTED_EDGE ( 'NONE', *, *, #334, .T. ) ;
#174 = CC_DESIGN_DATE_AND_TIME_ASSIGNMENT ( #233, #117, ( #305 ) ) ;
#175 = FACE_BOUND ( 'NONE', #75, .T. ) ;
#176 = VERTEX_POINT ( 'NONE', #269 ) ;
#177 = CARTESIAN_POINT ( 'NONE',  ( -17.30926639330411732, 0.1999999999999999278, -0.4999999999999999445 ) ) ;
#178 = ADVANCED_BREP_SHAPE_REPRESENTATION ( 'Link B_Default_sldprt', ( #384, #12 ), #401 ) ;
#179 = DIRECTION ( 'NONE',  ( 0.000000000000000000, 0.000000000000000000, 1.000000000000000000 ) ) ;
#180 = AXIS2_PLACEMENT_3D ( 'NONE', #525, #44, #156 ) ;
#181 = EDGE_CURVE ( 'NONE', #154, #293, #506, .T. ) ;
#182 = CC_DESIGN_APPROVAL ( #204, ( #305 ) ) ;
#183 = CARTESIAN_POINT ( 'NONE',  ( -17.80926639330411732, -8.673617379884035472E-17, -0.2500000000000017208 ) ) ;
#184 = DIRECTION ( 'NONE',  ( 0.000000000000000000, 0.000000000000000000, 1.000000000000000000 ) ) ;
#185 = ADVANCED_FACE ( 'NONE', ( #69 ), #266, .F. ) ;
#186 = CARTESIAN_POINT ( 'NONE',  ( 23.44073360669587913, 0.2000000000000000944, -1.000000000000000222 ) ) ;
#187 = DIRECTION ( 'NONE',  ( 0.000000000000000000, 1.000000000000000000, 0.000000000000000000 ) ) ;
#188 = FACE_OUTER_BOUND ( 'NONE', #136, .T. ) ;
#189 = CARTESIAN_POINT ( 'NONE',  ( 23.69073360669587913, 0.2000000000000000944, -0.7499999999999984457 ) ) ;
#190 = VECTOR ( 'NONE', #241, 100.0000000000000000 ) ;
#191 = ORIENTED_EDGE ( 'NONE', *, *, #294, .F. ) ;
#192 = EDGE_CURVE ( 'NONE', #42, #46, #434, .T. ) ;
#193 = DIRECTION ( 'NONE',  ( -0.000000000000000000, -1.000000000000000000, -0.000000000000000000 ) ) ;
#194 = EDGE_CURVE ( 'NONE', #367, #122, #375, .T. ) ;
#195 = DIRECTION ( 'NONE',  ( 0.000000000000000000, 1.000000000000000000, -0.000000000000000000 ) ) ;
#196 = CARTESIAN_POINT ( 'NONE',  ( -17.55926639330411376, 0.1999999999999999278, 8.859284614957749517E-17 ) ) ;
#197 = ORIENTED_EDGE ( 'NONE', *, *, #104, .T. ) ;
#198 = DIRECTION ( 'NONE',  ( -0.000000000000000000, -0.000000000000000000, 1.000000000000000000 ) ) ;
#199 = ORIENTED_EDGE ( 'NONE', *, *, #257, .T. ) ;
#200 = COORDINATED_UNIVERSAL_TIME_OFFSET ( 7, 0, .BEHIND. ) ;
#201 = DIRECTION ( 'NONE',  ( -0.000000000000000000, -1.000000000000000000, -0.000000000000000000 ) ) ;
#202 = ORIENTED_EDGE ( 'NONE', *, *, #442, .T. ) ;
#203 = VECTOR ( 'NONE', #232, 100.0000000000000000 ) ;
#204 = APPROVAL ( #320, 'UNSPECIFIED' ) ;
#205 = DIRECTION ( 'NONE',  ( 0.000000000000000000, 0.000000000000000000, -1.000000000000000000 ) ) ;
#206 = EDGE_LOOP ( 'NONE', ( #213, #473, #352, #9 ) ) ;
#207 = APPROVAL_STATUS ( 'not_yet_approved' ) ;
#208 = EDGE_LOOP ( 'NONE', ( #330, #113, #358, #199 ) ) ;
#209 = DIRECTION ( 'NONE',  ( 0.000000000000000000, 0.000000000000000000, -1.000000000000000000 ) ) ;
#210 = ORIENTED_EDGE ( 'NONE', *, *, #150, .T. ) ;
#211 = CYLINDRICAL_SURFACE ( 'NONE', #428, 0.2499999999999998890 ) ;
#212 = CIRCLE ( 'NONE', #180, 0.2500000000000001110 ) ;
#213 = ORIENTED_EDGE ( 'NONE', *, *, #95, .T. ) ;
#214 = DIRECTION ( 'NONE',  ( 0.000000000000000000, 1.000000000000000000, 0.000000000000000000 ) ) ;
#215 = CARTESIAN_POINT ( 'NONE',  ( 23.69073360669587913, 0.2000000000000000944, -0.7499999999999984457 ) ) ;
#216 = EDGE_CURVE ( 'NONE', #46, #162, #66, .T. ) ;
#217 = CARTESIAN_POINT ( 'NONE',  ( -17.55926639330411376, -8.385253845505526944E-17, 8.859284614957749517E-17 ) ) ;
#218 = CC_DESIGN_PERSON_AND_ORGANIZATION_ASSIGNMENT ( #255, #296, ( #471 ) ) ;
#219 = DIRECTION ( 'NONE',  ( -0.000000000000000000, -1.000000000000000000, -0.000000000000000000 ) ) ;
#220 = AXIS2_PLACEMENT_3D ( 'NONE', #321, #159, #40 ) ;
#221 = DIRECTION ( 'NONE',  ( -0.000000000000000000, -1.000000000000000000, -0.000000000000000000 ) ) ;
#222 = ADVANCED_FACE ( 'NONE', ( #472 ), #350, .F. ) ;
#223 = ORIENTED_EDGE ( 'NONE', *, *, #318, .F. ) ;
#224 = CC_DESIGN_APPROVAL ( #519, ( #471 ) ) ;
#225 = PRODUCT_RELATED_PRODUCT_CATEGORY ( 'detail', '', ( #100 ) ) ;
#226 = EDGE_LOOP ( 'NONE', ( #28, #254, #230, #301 ) ) ;
#227 = AXIS2_PLACEMENT_3D ( 'NONE', #433, #390, #308 ) ;
#228 = ORIENTED_EDGE ( 'NONE', *, *, #108, .F. ) ;
#229 =( LENGTH_UNIT ( ) NAMED_UNIT ( * ) SI_UNIT ( .CENTI., .METRE. ) );
#230 = ORIENTED_EDGE ( 'NONE', *, *, #104, .F. ) ;
#231 = EDGE_CURVE ( 'NONE', #176, #72, #437, .T. ) ;
#232 = DIRECTION ( 'NONE',  ( -0.000000000000000000, -1.000000000000000000, -0.000000000000000000 ) ) ;
#233 = DATE_AND_TIME ( #39, #172 ) ;
#234 = DIRECTION ( 'NONE',  ( 0.000000000000000000, 1.000000000000000000, -0.000000000000000000 ) ) ;
#235 = CIRCLE ( 'NONE', #310, 0.2500000000000001110 ) ;
#236 = APPROVAL_PERSON_ORGANIZATION ( #474, #519, #399 ) ;
#237 = EDGE_LOOP ( 'NONE', ( #247, #376, #228, #81 ) ) ;
#238 = DIRECTION ( 'NONE',  ( 0.000000000000000000, 0.000000000000000000, -1.000000000000000000 ) ) ;
#239 = ORIENTED_EDGE ( 'NONE', *, *, #67, .F. ) ;
#240 =( NAMED_UNIT ( * ) PLANE_ANGLE_UNIT ( ) SI_UNIT ( $, .RADIAN. ) );
#241 = DIRECTION ( 'NONE',  ( -0.000000000000000000, -1.000000000000000000, -0.000000000000000000 ) ) ;
#242 = EDGE_CURVE ( 'NONE', #391, #423, #32, .T. ) ;
#243 = ORIENTED_EDGE ( 'NONE', *, *, #34, .T. ) ;
#244 = DIRECTION ( 'NONE',  ( 0.000000000000000000, 0.000000000000000000, -1.000000000000000000 ) ) ;
#245 = CIRCLE ( 'NONE', #227, 0.2500000000000001110 ) ;
#246 = LOCAL_TIME ( 9, 13, 26.00000000000000000, #87 ) ;
#247 = ORIENTED_EDGE ( 'NONE', *, *, #412, .T. ) ;
#248 = CIRCLE ( 'NONE', #337, 0.2500000000000001110 ) ;
#249 = PERSON_AND_ORGANIZATION ( #274, #102 ) ;
#250 = FACE_BOUND ( 'NONE', #85, .T. ) ;
#251 = EDGE_LOOP ( 'NONE', ( #166, #125, #61, #27 ) ) ;
#252 = CALENDAR_DATE ( 2025, 20, 11 ) ;
#253 = DIRECTION ( 'NONE',  ( 0.000000000000000000, 1.000000000000000000, 0.000000000000000000 ) ) ;
#254 = ORIENTED_EDGE ( 'NONE', *, *, #181, .F. ) ;
#255 = PERSON_AND_ORGANIZATION ( #274, #102 ) ;
#256 = CARTESIAN_POINT ( 'NONE',  ( -17.55926639330411732, 0.1999999999999999278, -0.7500000000000000000 ) ) ;
#257 = EDGE_CURVE ( 'NONE', #42, #460, #441, .T. ) ;
#258 = ORIENTED_EDGE ( 'NONE', *, *, #383, .T. ) ;
#259 = CYLINDRICAL_SURFACE ( 'NONE', #495, 0.2500000000000001110 ) ;
#260 = AXIS2_PLACEMENT_3D ( 'NONE', #482, #82, #354 ) ;
#261 = DIRECTION ( 'NONE',  ( 0.000000000000000000, 1.000000000000000000, -0.000000000000000000 ) ) ;
#262 = DIRECTION ( 'NONE',  ( 0.000000000000000000, -0.000000000000000000, 1.000000000000000000 ) ) ;
#263 = CARTESIAN_POINT ( 'NONE',  ( -17.30926639330411732, 0.1999999999999999278, -0.2499999999999997780 ) ) ;
#264 = EDGE_CURVE ( 'NONE', #162, #341, #276, .T. ) ;
#265 = CARTESIAN_POINT ( 'NONE',  ( 23.44073360669587913, 0.2000000000000000944, -0.2500000000000000555 ) ) ;
#266 = CYLINDRICAL_SURFACE ( 'NONE', #11, 0.2500000000000002220 ) ;
#267 = APPROVAL_PERSON_ORGANIZATION ( #273, #204, #483 ) ;
#268 = ORIENTED_EDGE ( 'NONE', *, *, #194, .F. ) ;
#269 = CARTESIAN_POINT ( 'NONE',  ( -17.30926639330411732, 0.1999999999999999278, -0.7500000000000001110 ) ) ;
#270 = EDGE_CURVE ( 'NONE', #522, #143, #45, .T. ) ;
#271 = DIRECTION ( 'NONE',  ( 0.000000000000000000, 0.000000000000000000, -1.000000000000000000 ) ) ;
#272 = DIRECTION ( 'NONE',  ( -0.000000000000000000, -1.000000000000000000, -0.000000000000000000 ) ) ;
#273 = PERSON_AND_ORGANIZATION ( #274, #102 ) ;
#274 = PERSON ( 'UNSPECIFIED', 'UNSPECIFIED', 'UNSPECIFIED', ('UNSPECIFIED'), ('UNSPECIFIED'), ('UNSPECIFIED') ) ;
#275 = CC_DESIGN_APPROVAL ( #449, ( #38 ) ) ;
#276 = CIRCLE ( 'NONE', #443, 0.2500000000000000555 ) ;
#277 = VERTEX_POINT ( 'NONE', #73 ) ;
#278 = CARTESIAN_POINT ( 'NONE',  ( 0.000000000000000000, 0.000000000000000000, 0.000000000000000000 ) ) ;
#279 = DIRECTION ( 'NONE',  ( 0.000000000000000000, 0.000000000000000000, -1.000000000000000000 ) ) ;
#280 = ORIENTED_EDGE ( 'NONE', *, *, #60, .T. ) ;
#281 = CALENDAR_DATE ( 2025, 20, 11 ) ;
#282 = CARTESIAN_POINT ( 'NONE',  ( -17.55926639330411376, -8.673617379884035472E-17, 8.673617379884035472E-17 ) ) ;
#283 = APPROVAL_STATUS ( 'not_yet_approved' ) ;
#284 = CARTESIAN_POINT ( 'NONE',  ( 23.69073360669587913, 8.673617379884035472E-17, -0.2500000000000018874 ) ) ;
#285 = AXIS2_PLACEMENT_3D ( 'NONE', #68, #261, #59 ) ;
#286 = AXIS2_PLACEMENT_3D ( 'NONE', #256, #54, #163 ) ;
#287 = CARTESIAN_POINT ( 'NONE',  ( 23.44073360669587913, 0.2000000000000000944, -8.673617379884035472E-17 ) ) ;
#288 = ORIENTED_EDGE ( 'NONE', *, *, #432, .F. ) ;
#289 = CARTESIAN_POINT ( 'NONE',  ( 23.44073360669587913, 0.2000000000000000944, -9.297773699782005673E-17 ) ) ;
#290 = ORIENTED_EDGE ( 'NONE', *, *, #343, .T. ) ;
#291 = FACE_BOUND ( 'NONE', #1, .T. ) ;
#292 = AXIS2_PLACEMENT_3D ( 'NONE', #446, #77, #238 ) ;
#293 = VERTEX_POINT ( 'NONE', #448 ) ;
#294 = EDGE_CURVE ( 'NONE', #460, #162, #118, .T. ) ;
#295 = VECTOR ( 'NONE', #455, 100.0000000000000000 ) ;
#296 = PERSON_AND_ORGANIZATION_ROLE ( 'design_supplier' ) ;
#297 = CARTESIAN_POINT ( 'NONE',  ( -17.55926639330411376, 0.1999999999999999278, 8.673617379884035472E-17 ) ) ;
#298 = EDGE_LOOP ( 'NONE', ( #7, #21, #414, #239 ) ) ;
#299 = EDGE_CURVE ( 'NONE', #53, #13, #409, .T. ) ;
#300 = FACE_OUTER_BOUND ( 'NONE', #411, .T. ) ;
#301 = ORIENTED_EDGE ( 'NONE', *, *, #86, .T. ) ;
#302 = FACE_BOUND ( 'NONE', #148, .T. ) ;
#303 = DIRECTION ( 'NONE',  ( 0.000000000000000000, 1.000000000000000000, 0.000000000000000000 ) ) ;
#304 = CARTESIAN_POINT ( 'NONE',  ( 4.750000000000000000, 0.2000000000000000111, -0.2499999999999999722 ) ) ;
#305 = PRODUCT_DEFINITION ( 'UNKNOWN', '', #471, #475 ) ;
#306 = CARTESIAN_POINT ( 'NONE',  ( -17.80926639330411732, -8.385253845505526944E-17, -0.7499999999999981126 ) ) ;
#307 = ORIENTED_EDGE ( 'NONE', *, *, #242, .T. ) ;
#308 = DIRECTION ( 'NONE',  ( 0.000000000000000000, 0.000000000000000000, 1.000000000000000000 ) ) ;
#309 = DIRECTION ( 'NONE',  ( -0.000000000000000000, -1.000000000000000000, -0.000000000000000000 ) ) ;
#310 = AXIS2_PLACEMENT_3D ( 'NONE', #426, #303, #24 ) ;
#311 = CARTESIAN_POINT ( 'NONE',  ( -17.80926639330411732, 0.1999999999999999278, -0.7499999999999981126 ) ) ;
#312 = CC_DESIGN_PERSON_AND_ORGANIZATION_ASSIGNMENT ( #155, #440, ( #305 ) ) ;
#313 = DIRECTION ( 'NONE',  ( -0.000000000000000000, -1.000000000000000000, -0.000000000000000000 ) ) ;
#314 = CARTESIAN_POINT ( 'NONE',  ( 23.44073360669587913, 0.2000000000000000944, -1.000000000000000222 ) ) ;
#315 =( NAMED_UNIT ( * ) SI_UNIT ( $, .STERADIAN. ) SOLID_ANGLE_UNIT ( ) );
#316 = DIRECTION ( 'NONE',  ( -1.000000000000000000, 0.000000000000000000, 0.000000000000000000 ) ) ;
#317 = VECTOR ( 'NONE', #309, 100.0000000000000000 ) ;
#318 = EDGE_CURVE ( 'NONE', #341, #293, #484, .T. ) ;
#319 = ORIENTED_EDGE ( 'NONE', *, *, #95, .F. ) ;
#320 = APPROVAL_STATUS ( 'not_yet_approved' ) ;
#321 = CARTESIAN_POINT ( 'NONE',  ( 23.19073360669587913, 0.2000000000000000944, -0.5000000000000001110 ) ) ;
#322 = EDGE_CURVE ( 'NONE', #391, #42, #212, .T. ) ;
#323 = CARTESIAN_POINT ( 'NONE',  ( 23.44073360669587913, 8.673617379884035472E-17, -0.7500000000000001110 ) ) ;
#324 = ORIENTED_EDGE ( 'NONE', *, *, #165, .F. ) ;
#325 = CC_DESIGN_DATE_AND_TIME_ASSIGNMENT ( #364, #2, ( #38 ) ) ;
#326 = DIRECTION ( 'NONE',  ( 0.000000000000000000, 0.000000000000000000, 1.000000000000000000 ) ) ;
#327 = CARTESIAN_POINT ( 'NONE',  ( 18.94073360669588268, 8.673617379884035472E-17, -1.000000000000000222 ) ) ;
#328 = AXIS2_PLACEMENT_3D ( 'NONE', #406, #316, #480 ) ;
#329 = DIRECTION ( 'NONE',  ( 1.000000000000000000, 0.000000000000000000, 0.000000000000000000 ) ) ;
#330 = ORIENTED_EDGE ( 'NONE', *, *, #294, .T. ) ;
#331 = ADVANCED_FACE ( 'NONE', ( #397 ), #402, .F. ) ;
#332 = EDGE_LOOP ( 'NONE', ( #280, #243, #288, #371 ) ) ;
#333 = CARTESIAN_POINT ( 'NONE',  ( 18.94073360669588268, 0.2000000000000000944, -1.000000000000000222 ) ) ;
#334 = EDGE_CURVE ( 'NONE', #53, #277, #514, .T. ) ;
#335 = VECTOR ( 'NONE', #439, 100.0000000000000000 ) ;
#336 = ORIENTED_EDGE ( 'NONE', *, *, #157, .F. ) ;
#337 = AXIS2_PLACEMENT_3D ( 'NONE', #491, #214, #47 ) ;
#338 = CARTESIAN_POINT ( 'NONE',  ( 23.44073360669587913, 8.800280841988620264E-17, -9.297773699782005673E-17 ) ) ;
#339 = EDGE_LOOP ( 'NONE', ( #492, #496, #92, #111 ) ) ;
#340 = CARTESIAN_POINT ( 'NONE',  ( 23.44073360669587913, 8.673617379884035472E-17, -0.2500000000000000555 ) ) ;
#341 = VERTEX_POINT ( 'NONE', #518 ) ;
#342 = FACE_OUTER_BOUND ( 'NONE', #251, .T. ) ;
#343 = EDGE_CURVE ( 'NONE', #395, #89, #80, .T. ) ;
#344 = LOCAL_TIME ( 9, 13, 26.00000000000000000, #200 ) ;
#345 = CARTESIAN_POINT ( 'NONE',  ( -17.55926639330411732, -8.673617379884035472E-17, -0.7500000000000000000 ) ) ;
#346 = CIRCLE ( 'NONE', #18, 0.2500000000000001110 ) ;
#347 = DIRECTION ( 'NONE',  ( -0.000000000000000000, -0.000000000000000000, 1.000000000000000000 ) ) ;
#348 = CYLINDRICAL_SURFACE ( 'NONE', #410, 0.2500000000000000555 ) ;
#349 = PLANE ( 'NONE',  #366 ) ;
#350 = CYLINDRICAL_SURFACE ( 'NONE', #453, 0.2500000000000002220 ) ;
#351 = VECTOR ( 'NONE', #201, 100.0000000000000000 ) ;
#352 = ORIENTED_EDGE ( 'NONE', *, *, #394, .F. ) ;
#353 = ORIENTED_EDGE ( 'NONE', *, *, #374, .F. ) ;
#354 = DIRECTION ( 'NONE',  ( 0.000000000000000000, 0.000000000000000000, -1.000000000000000000 ) ) ;
#355 = FACE_OUTER_BOUND ( 'NONE', #208, .T. ) ;
#356 = VECTOR ( 'NONE', #329, 100.0000000000000000 ) ;
#357 = AXIS2_PLACEMENT_3D ( 'NONE', #340, #10, #262 ) ;
#358 = ORIENTED_EDGE ( 'NONE', *, *, #192, .F. ) ;
#359 = FACE_OUTER_BOUND ( 'NONE', #206, .T. ) ;
#360 = EDGE_CURVE ( 'NONE', #46, #158, #485, .T. ) ;
#361 = ORIENTED_EDGE ( 'NONE', *, *, #264, .F. ) ;
#362 = CARTESIAN_POINT ( 'NONE',  ( -17.55926639330411376, 0.1999999999999999278, 8.673617379884035472E-17 ) ) ;
#363 = VERTEX_POINT ( 'NONE', #149 ) ;
#364 = DATE_AND_TIME ( #252, #344 ) ;
#365 = CARTESIAN_POINT ( 'NONE',  ( -17.80926639330411732, 0.1999999999999999278, -0.7499999999999981126 ) ) ;
#366 = AXIS2_PLACEMENT_3D ( 'NONE', #388, #142, #385 ) ;
#367 = VERTEX_POINT ( 'NONE', #487 ) ;
#368 = DIRECTION ( 'NONE',  ( -0.000000000000000000, -1.000000000000000000, -0.000000000000000000 ) ) ;
#369 = ORIENTED_EDGE ( 'NONE', *, *, #467, .F. ) ;
#370 = FACE_OUTER_BOUND ( 'NONE', #226, .T. ) ;
#371 = ORIENTED_EDGE ( 'NONE', *, *, #231, .F. ) ;
#372 = APPLICATION_CONTEXT ( 'configuration controlled 3d designs of mechanical parts and assemblies' ) ;
#373 = DIRECTION ( 'NONE',  ( 1.000000000000000000, 0.000000000000000000, -0.000000000000000000 ) ) ;
#374 = EDGE_CURVE ( 'NONE', #134, #176, #516, .T. ) ;
#375 = CIRCLE ( 'NONE', #141, 0.2500000000000002220 ) ;
#376 = ORIENTED_EDGE ( 'NONE', *, *, #157, .T. ) ;
#377 = CIRCLE ( 'NONE', #286, 0.2499999999999998890 ) ;
#378 = DIRECTION ( 'NONE',  ( -0.000000000000000000, -1.000000000000000000, -0.000000000000000000 ) ) ;
#379 = ORIENTED_EDGE ( 'NONE', *, *, #334, .F. ) ;
#380 = ADVANCED_FACE ( 'NONE', ( #355 ), #74, .F. ) ;
#381 = DIRECTION ( 'NONE',  ( 0.000000000000000000, 0.000000000000000000, -1.000000000000000000 ) ) ;
#382 = LINE ( 'NONE', #17, #420 ) ;
#383 = EDGE_CURVE ( 'NONE', #89, #423, #115, .T. ) ;
#384 = MANIFOLD_SOLID_BREP ( 'Flex1', #476 ) ;
#385 = DIRECTION ( 'NONE',  ( -1.000000000000000000, 0.000000000000000000, -0.000000000000000000 ) ) ;
#386 = AXIS2_PLACEMENT_3D ( 'NONE', #304, #413, #422 ) ;
#387 = CARTESIAN_POINT ( 'NONE',  ( 23.69073360669587913, 8.800280841988620264E-17, -0.7499999999999984457 ) ) ;
#388 = CARTESIAN_POINT ( 'NONE',  ( 18.94073360669588268, 0.2000000000000000944, -8.673617379884035472E-17 ) ) ;
#389 = CARTESIAN_POINT ( 'NONE',  ( 23.19073360669587913, 8.673617379884035472E-17, -0.5000000000000001110 ) ) ;
#390 = DIRECTION ( 'NONE',  ( 0.000000000000000000, 1.000000000000000000, 0.000000000000000000 ) ) ;
#391 = VERTEX_POINT ( 'NONE', #289 ) ;
#392 = CARTESIAN_POINT ( 'NONE',  ( 23.69073360669587913, 0.2000000000000000944, -0.2500000000000018874 ) ) ;
#393 = AXIS2_PLACEMENT_3D ( 'NONE', #497, #140, #16 ) ;
#394 = EDGE_CURVE ( 'NONE', #277, #395, #94, .T. ) ;
#395 = VERTEX_POINT ( 'NONE', #196 ) ;
#396 = PERSON_AND_ORGANIZATION_ROLE ( 'design_owner' ) ;
#397 = FACE_OUTER_BOUND ( 'NONE', #298, .T. ) ;
#398 = ORIENTED_EDGE ( 'NONE', *, *, #299, .T. ) ;
#399 = APPROVAL_ROLE ( '' ) ;
#400 = DIRECTION ( 'NONE',  ( 0.000000000000000000, 0.000000000000000000, -1.000000000000000000 ) ) ;
#401 =( GEOMETRIC_REPRESENTATION_CONTEXT ( 3 ) GLOBAL_UNCERTAINTY_ASSIGNED_CONTEXT ( ( #164 ) ) GLOBAL_UNIT_ASSIGNED_CONTEXT ( ( #229, #240, #315 ) ) REPRESENTATION_CONTEXT ( 'NONE', 'WORKASPACE' ) );
#402 = CYLINDRICAL_SURFACE ( 'NONE', #292, 0.2500000000000001110 ) ;
#403 = ADVANCED_FACE ( 'NONE', ( #359 ), #452, .T. ) ;
#404 = ORIENTED_EDGE ( 'NONE', *, *, #394, .T. ) ;
#405 = MECHANICAL_CONTEXT ( 'NONE', #372, 'mechanical' ) ;
#406 = CARTESIAN_POINT ( 'NONE',  ( 23.69073360669587913, 0.2000000000000000944, -0.2500000000000018874 ) ) ;
#407 = APPLICATION_CONTEXT ( 'configuration controlled 3d designs of mechanical parts and assemblies' ) ;
#408 = ORIENTED_EDGE ( 'NONE', *, *, #257, .F. ) ;
#409 = LINE ( 'NONE', #365, #119 ) ;
#410 = AXIS2_PLACEMENT_3D ( 'NONE', #265, #465, #271 ) ;
#411 = EDGE_LOOP ( 'NONE', ( #210, #129, #379, #398 ) ) ;
#412 = EDGE_CURVE ( 'NONE', #143, #522, #31, .T. ) ;
#413 = DIRECTION ( 'NONE',  ( 0.000000000000000000, 1.000000000000000000, 0.000000000000000000 ) ) ;
#414 = ORIENTED_EDGE ( 'NONE', *, *, #231, .T. ) ;
#415 = SHAPE_DEFINITION_REPRESENTATION ( #468, #178 ) ;
#416 = LINE ( 'NONE', #297, #295 ) ;
#417 = EDGE_LOOP ( 'NONE', ( #324, #498, #319, #479, #49, #223, #361, #191 ) ) ;
#418 = FACE_OUTER_BOUND ( 'NONE', #417, .T. ) ;
#419 = ADVANCED_FACE ( 'NONE', ( #170 ), #135, .T. ) ;
#420 = VECTOR ( 'NONE', #470, 100.0000000000000000 ) ;
#421 = ORIENTED_EDGE ( 'NONE', *, *, #467, .T. ) ;
#422 = DIRECTION ( 'NONE',  ( 0.000000000000000000, -0.000000000000000000, 1.000000000000000000 ) ) ;
#423 = VERTEX_POINT ( 'NONE', #338 ) ;
#424 = DIRECTION ( 'NONE',  ( -0.000000000000000000, -1.000000000000000000, -0.000000000000000000 ) ) ;
#425 = LINE ( 'NONE', #105, #171 ) ;
#426 = CARTESIAN_POINT ( 'NONE',  ( -17.30926639330411732, -8.673617379884035472E-17, -0.4999999999999999445 ) ) ;
#427 = VECTOR ( 'NONE', #313, 100.0000000000000000 ) ;
#428 = AXIS2_PLACEMENT_3D ( 'NONE', #127, #378, #381 ) ;
#429 = CARTESIAN_POINT ( 'NONE',  ( 23.19073360669587913, 0.2000000000000000944, -0.5000000000000001110 ) ) ;
#430 = LINE ( 'NONE', #144, #494 ) ;
#431 = DIRECTION ( 'NONE',  ( 0.000000000000000000, 0.000000000000000000, -1.000000000000000000 ) ) ;
#432 = EDGE_CURVE ( 'NONE', #72, #447, #248, .T. ) ;
#433 = CARTESIAN_POINT ( 'NONE',  ( -17.30926639330411732, 0.1999999999999999278, -0.4999999999999999445 ) ) ;
#434 = LINE ( 'NONE', #392, #146 ) ;
#435 = DATE_AND_TIME ( #106, #52 ) ;
#436 = VECTOR ( 'NONE', #121, 100.0000000000000000 ) ;
#437 = LINE ( 'NONE', #521, #436 ) ;
#438 = DATE_AND_TIME ( #281, #33 ) ;
#439 = DIRECTION ( 'NONE',  ( -1.000000000000000000, -0.000000000000000000, -0.000000000000000000 ) ) ;
#440 = PERSON_AND_ORGANIZATION_ROLE ( 'creator' ) ;
#441 = LINE ( 'NONE', #3, #203 ) ;
#442 = EDGE_CURVE ( 'NONE', #143, #122, #458, .T. ) ;
#443 = AXIS2_PLACEMENT_3D ( 'NONE', #323, #195, #279 ) ;
#444 = AXIS2_PLACEMENT_3D ( 'NONE', #333, #88, #373 ) ;
#445 = PERSON_AND_ORGANIZATION ( #274, #102 ) ;
#446 = CARTESIAN_POINT ( 'NONE',  ( -17.30926639330411732, 0.1999999999999999278, -0.4999999999999999445 ) ) ;
#447 = VERTEX_POINT ( 'NONE', #6 ) ;
#448 = CARTESIAN_POINT ( 'NONE',  ( -17.55926639330411732, -8.385253845505526944E-17, -0.9999999999999998890 ) ) ;
#449 = APPROVAL ( #207, 'UNSPECIFIED' ) ;
#450 = ORIENTED_EDGE ( 'NONE', *, *, #60, .F. ) ;
#451 = CALENDAR_DATE ( 2025, 20, 11 ) ;
#452 = CYLINDRICAL_SURFACE ( 'NONE', #393, 0.2499999999999999722 ) ;
#453 = AXIS2_PLACEMENT_3D ( 'NONE', #26, #193, #124 ) ;
#454 = ORIENTED_EDGE ( 'NONE', *, *, #242, .F. ) ;
#455 = DIRECTION ( 'NONE',  ( 1.000000000000000000, 0.000000000000000000, 0.000000000000000000 ) ) ;
#456 = ORIENTED_EDGE ( 'NONE', *, *, #322, .T. ) ;
#457 = PERSON_AND_ORGANIZATION_ROLE ( 'creator' ) ;
#458 = LINE ( 'NONE', #461, #132 ) ;
#459 = ADVANCED_FACE ( 'NONE', ( #130, #175, #250 ), #8, .T. ) ;
#460 = VERTEX_POINT ( 'NONE', #464 ) ;
#461 = CARTESIAN_POINT ( 'NONE',  ( 23.19073360669587913, 0.2000000000000000944, -0.7500000000000003331 ) ) ;
#462 = AXIS2_PLACEMENT_3D ( 'NONE', #345, #63, #463 ) ;
#463 = DIRECTION ( 'NONE',  ( 0.000000000000000000, 0.000000000000000000, -1.000000000000000000 ) ) ;
#464 = CARTESIAN_POINT ( 'NONE',  ( 23.69073360669587913, 8.800280841988620264E-17, -0.2500000000000018874 ) ) ;
#465 = DIRECTION ( 'NONE',  ( -0.000000000000000000, -1.000000000000000000, -0.000000000000000000 ) ) ;
#466 = LINE ( 'NONE', #507, #151 ) ;
#467 = EDGE_CURVE ( 'NONE', #395, #391, #416, .T. ) ;
#468 = PRODUCT_DEFINITION_SHAPE ( 'NONE', 'NONE',  #305 ) ;
#469 = CARTESIAN_POINT ( 'NONE',  ( -17.55926639330411732, 0.1999999999999999278, -0.9999999999999998890 ) ) ;
#470 = DIRECTION ( 'NONE',  ( -1.000000000000000000, -0.000000000000000000, -0.000000000000000000 ) ) ;
#471 = PRODUCT_DEFINITION_FORMATION_WITH_SPECIFIED_SOURCE ( 'ANY', '', #100, .NOT_KNOWN. ) ;
#472 = FACE_OUTER_BOUND ( 'NONE', #501, .T. ) ;
#473 = ORIENTED_EDGE ( 'NONE', *, *, #343, .F. ) ;
#474 = PERSON_AND_ORGANIZATION ( #274, #102 ) ;
#475 = DESIGN_CONTEXT ( 'detailed design', #407, 'design' ) ;
#476 = CLOSED_SHELL ( 'NONE', ( #523, #185, #222, #331, #459, #488, #481, #133, #56, #380, #419, #508, #478, #403 ) ) ;
#477 = CARTESIAN_POINT ( 'NONE',  ( -17.55926639330411732, 0.1999999999999999278, -0.2499999999999998890 ) ) ;
#478 = ADVANCED_FACE ( 'NONE', ( #300 ), #167, .F. ) ;
#479 = ORIENTED_EDGE ( 'NONE', *, *, #150, .F. ) ;
#480 = DIRECTION ( 'NONE',  ( 0.000000000000000000, 0.000000000000000000, 1.000000000000000000 ) ) ;
#481 = ADVANCED_FACE ( 'NONE', ( #370 ), #93, .F. ) ;
#482 = CARTESIAN_POINT ( 'NONE',  ( 23.44073360669587913, 0.2000000000000000944, -0.7500000000000001110 ) ) ;
#483 = APPROVAL_ROLE ( '' ) ;
#484 = LINE ( 'NONE', #327, #335 ) ;
#485 = CIRCLE ( 'NONE', #260, 0.2500000000000000555 ) ;
#486 = PERSON_AND_ORGANIZATION ( #274, #102 ) ;
#487 = CARTESIAN_POINT ( 'NONE',  ( 23.19073360669587913, 8.673617379884035472E-17, -0.2499999999999998890 ) ) ;
#488 = ADVANCED_FACE ( 'NONE', ( #291, #418, #302 ), #91, .F. ) ;
#489 = ORIENTED_EDGE ( 'NONE', *, *, #165, .T. ) ;
#490 = PERSON_AND_ORGANIZATION_ROLE ( 'classification_officer' ) ;
#491 = CARTESIAN_POINT ( 'NONE',  ( -17.30926639330411732, -8.673617379884035472E-17, -0.4999999999999999445 ) ) ;
#492 = ORIENTED_EDGE ( 'NONE', *, *, #264, .T. ) ;
#493 = CARTESIAN_POINT ( 'NONE',  ( 23.19073360669587913, 0.2000000000000000944, -0.5000000000000001110 ) ) ;
#494 = VECTOR ( 'NONE', #219, 100.0000000000000000 ) ;
#495 = AXIS2_PLACEMENT_3D ( 'NONE', #177, #424, #205 ) ;
#496 = ORIENTED_EDGE ( 'NONE', *, *, #86, .F. ) ;
#497 = CARTESIAN_POINT ( 'NONE',  ( -17.55926639330411732, 0.1999999999999999278, -0.2499999999999998890 ) ) ;
#498 = ORIENTED_EDGE ( 'NONE', *, *, #383, .F. ) ;
#499 = EDGE_CURVE ( 'NONE', #154, #53, #377, .T. ) ;
#500 = CARTESIAN_POINT ( 'NONE',  ( 23.19073360669587913, 0.2000000000000000944, -0.2499999999999998890 ) ) ;
#501 = EDGE_LOOP ( 'NONE', ( #336, #513, #202, #268 ) ) ;
#502 = DIRECTION ( 'NONE',  ( -0.000000000000000000, -1.000000000000000000, -0.000000000000000000 ) ) ;
#503 = AXIS2_PLACEMENT_3D ( 'NONE', #99, #98, #179 ) ;
#504 = CARTESIAN_POINT ( 'NONE',  ( 23.19073360669587913, 8.673617379884035472E-17, -0.7500000000000003331 ) ) ;
#505 = CARTESIAN_POINT ( 'NONE',  ( -17.55926639330411732, 0.1999999999999999278, -0.9999999999999998890 ) ) ;
#506 = LINE ( 'NONE', #469, #427 ) ;
#507 = CARTESIAN_POINT ( 'NONE',  ( -17.30926639330411732, 0.1999999999999999278, -0.2499999999999997780 ) ) ;
#508 = ADVANCED_FACE ( 'NONE', ( #342 ), #211, .T. ) ;
#509 = DIRECTION ( 'NONE',  ( 0.000000000000000000, 0.000000000000000000, 1.000000000000000000 ) ) ;
#510 = CARTESIAN_POINT ( 'NONE',  ( 23.19073360669587913, 0.2000000000000000944, -0.7500000000000003331 ) ) ;
#511 = VECTOR ( 'NONE', #198, 100.0000000000000000 ) ;
#512 = COORDINATED_UNIVERSAL_TIME_OFFSET ( 7, 0, .BEHIND. ) ;
#513 = ORIENTED_EDGE ( 'NONE', *, *, #270, .T. ) ;
#514 = LINE ( 'NONE', #37, #511 ) ;
#515 = ORIENTED_EDGE ( 'NONE', *, *, #360, .T. ) ;
#516 = CIRCLE ( 'NONE', #25, 0.2500000000000001110 ) ;
#517 = DIRECTION ( 'NONE',  ( 1.000000000000000000, 0.000000000000000000, 0.000000000000000000 ) ) ;
#518 = CARTESIAN_POINT ( 'NONE',  ( 23.44073360669587913, 8.800280841988620264E-17, -1.000000000000000222 ) ) ;
#519 = APPROVAL ( #283, 'UNSPECIFIED' ) ;
#520 = ORIENTED_EDGE ( 'NONE', *, *, #108, .T. ) ;
#521 = CARTESIAN_POINT ( 'NONE',  ( -17.30926639330411732, 0.1999999999999999278, -0.7500000000000001110 ) ) ;
#522 = VERTEX_POINT ( 'NONE', #500 ) ;
#523 = ADVANCED_FACE ( 'NONE', ( #137 ), #259, .F. ) ;
#524 = APPLICATION_PROTOCOL_DEFINITION ( 'international standard', 'config_control_design', 1994, #372 ) ;
#525 = CARTESIAN_POINT ( 'NONE',  ( 23.44073360669587913, 0.2000000000000000944, -0.2500000000000000555 ) ) ;
ENDSEC;
END-ISO-10303-21;
