ISO-10303-21;
HEADER;
FILE_DESCRIPTION (( 'STEP AP203' ),
    '1' );
FILE_NAME ('Link M_Default_sldprt.STEP',
    '2025-11-20T16:14:02',
    ( '' ),
    ( '' ),
    'SwSTEP 2.0',
    'SolidWorks 2025',
    '' );
FILE_SCHEMA (( 'CONFIG_CONTROL_DESIGN' ));
ENDSEC;

DATA;
#1 = DIRECTION ( 'NONE',  ( -1.000000000000000000, 0.000000000000000000, -0.000000000000000000 ) ) ;
#2 = CARTESIAN_POINT ( 'NONE',  ( 5.370748933341339182, 2.168404344971008868E-17, -1.000000000000000000 ) ) ;
#3 = DATE_TIME_ROLE ( 'creation_date' ) ;
#4 = CARTESIAN_POINT ( 'NONE',  ( -4.879251066658662594, 0.1999999999999999556, -0.7499999999999982236 ) ) ;
#5 = ADVANCED_FACE ( 'NONE', ( #462 ), #269, .T. ) ;
#6 = ORIENTED_EDGE ( 'NONE', *, *, #247, .T. ) ;
#7 = AXIS2_PLACEMENT_3D ( 'NONE', #137, #460, #224 ) ;
#8 = APPROVAL_ROLE ( '' ) ;
#9 = EDGE_CURVE ( 'NONE', #294, #90, #91, .T. ) ;
#10 = VERTEX_POINT ( 'NONE', #26 ) ;
#11 = CALENDAR_DATE ( 2025, 20, 11 ) ;
#12 = PLANE ( 'NONE',  #296 ) ;
#13 = CARTESIAN_POINT ( 'NONE',  ( -4.629251066658661706, 0.1999999999999999556, 2.427201264371986203E-17 ) ) ;
#14 = VERTEX_POINT ( 'NONE', #473 ) ;
#15 = ORGANIZATION ( 'UNSPECIFIED', 'UNSPECIFIED', '' ) ;
#16 = CYLINDRICAL_SURFACE ( 'NONE', #172, 0.2500000000000002220 ) ;
#17 = CARTESIAN_POINT ( 'NONE',  ( -4.379251066658663483, 0.2000000000000000111, -0.2499999999999998890 ) ) ;
#18 = DIRECTION ( 'NONE',  ( 1.000000000000000000, 0.000000000000000000, -0.000000000000000000 ) ) ;
#19 = DIRECTION ( 'NONE',  ( -0.000000000000000000, -1.000000000000000000, -0.000000000000000000 ) ) ;
#20 = DIRECTION ( 'NONE',  ( -0.000000000000000000, -1.000000000000000000, -0.000000000000000000 ) ) ;
#21 = CARTESIAN_POINT ( 'NONE',  ( 9.620748933341337406, 2.168404344971008868E-17, -0.5000000000000000000 ) ) ;
#22 = VERTEX_POINT ( 'NONE', #120 ) ;
#23 = CIRCLE ( 'NONE', #406, 0.2500000000000001110 ) ;
#24 = CARTESIAN_POINT ( 'NONE',  ( 4.750000000000000000, 0.2000000000000000111, -0.2499999999999999722 ) ) ;
#25 = EDGE_CURVE ( 'NONE', #309, #56, #179, .T. ) ;
#26 = CARTESIAN_POINT ( 'NONE',  ( -4.629251066658662594, 0.1999999999999999556, -1.000000000000000000 ) ) ;
#27 = LINE ( 'NONE', #349, #115 ) ;
#28 = CARTESIAN_POINT ( 'NONE',  ( 10.12074893334133741, 0.2000000000000000111, -0.7499999999999983347 ) ) ;
#29 = VERTEX_POINT ( 'NONE', #321 ) ;
#30 = EDGE_CURVE ( 'NONE', #38, #22, #456, .T. ) ;
#31 = CARTESIAN_POINT ( 'NONE',  ( -4.379251066658663483, 0.2000000000000000111, -0.7500000000000001110 ) ) ;
#32 = ORIENTED_EDGE ( 'NONE', *, *, #276, .T. ) ;
#33 = CC_DESIGN_PERSON_AND_ORGANIZATION_ASSIGNMENT ( #207, #256, ( #343 ) ) ;
#34 = CC_DESIGN_APPROVAL ( #322, ( #461 ) ) ;
#35 = CARTESIAN_POINT ( 'NONE',  ( 10.12074893334133741, 0.2000000000000000111, -0.2500000000000017764 ) ) ;
#36 = LOCAL_TIME ( 9, 14, 2.000000000000000000, #369 ) ;
#37 = DIRECTION ( 'NONE',  ( 0.000000000000000000, 0.000000000000000000, 1.000000000000000000 ) ) ;
#38 = VERTEX_POINT ( 'NONE', #157 ) ;
#39 = DIRECTION ( 'NONE',  ( -0.000000000000000000, -0.000000000000000000, 1.000000000000000000 ) ) ;
#40 = ORIENTED_EDGE ( 'NONE', *, *, #298, .F. ) ;
#41 = CARTESIAN_POINT ( 'NONE',  ( 10.12074893334133563, 0.2000000000000000389, -0.7499999999999983347 ) ) ;
#42 = EDGE_CURVE ( 'NONE', #309, #22, #44, .T. ) ;
#43 = PERSON_AND_ORGANIZATION ( #342, #15 ) ;
#44 = LINE ( 'NONE', #481, #521 ) ;
#45 = VECTOR ( 'NONE', #475, 100.0000000000000000 ) ;
#46 = ORIENTED_EDGE ( 'NONE', *, *, #515, .T. ) ;
#47 = LOCAL_TIME ( 9, 14, 2.000000000000000000, #119 ) ;
#48 = DIRECTION ( 'NONE',  ( 0.000000000000000000, 1.000000000000000000, 0.000000000000000000 ) ) ;
#49 = CARTESIAN_POINT ( 'NONE',  ( 10.12074893334133741, 0.2000000000000000111, -0.2500000000000017764 ) ) ;
#50 = EDGE_LOOP ( 'NONE', ( #89, #178 ) ) ;
#51 = EDGE_CURVE ( 'NONE', #175, #294, #283, .T. ) ;
#52 = COORDINATED_UNIVERSAL_TIME_OFFSET ( 7, 0, .BEHIND. ) ;
#53 = CARTESIAN_POINT ( 'NONE',  ( -4.629251066658662594, 0.2000000000000000111, -1.000000000000000000 ) ) ;
#54 = EDGE_LOOP ( 'NONE', ( #223, #436, #63, #511, #332, #103, #168, #468 ) ) ;
#55 = VECTOR ( 'NONE', #116, 100.0000000000000000 ) ;
#56 = VERTEX_POINT ( 'NONE', #117 ) ;
#57 = CARTESIAN_POINT ( 'NONE',  ( -4.629251066658662594, -2.297329820686446071E-17, -1.000000000000000000 ) ) ;
#58 = EDGE_CURVE ( 'NONE', #420, #106, #132, .T. ) ;
#59 = CARTESIAN_POINT ( 'NONE',  ( -4.379251066658663483, 0.2000000000000000111, -0.7500000000000001110 ) ) ;
#60 = EDGE_CURVE ( 'NONE', #106, #10, #82, .T. ) ;
#61 = ORIENTED_EDGE ( 'NONE', *, *, #281, .T. ) ;
#62 = DIRECTION ( 'NONE',  ( 0.000000000000000000, 1.000000000000000000, 0.000000000000000000 ) ) ;
#63 = ORIENTED_EDGE ( 'NONE', *, *, #9, .F. ) ;
#64 = CIRCLE ( 'NONE', #503, 0.2500000000000001110 ) ;
#65 = CARTESIAN_POINT ( 'NONE',  ( -4.879251066658662594, 0.2000000000000000111, -0.2500000000000017764 ) ) ;
#66 = ORIENTED_EDGE ( 'NONE', *, *, #30, .F. ) ;
#67 = EDGE_CURVE ( 'NONE', #149, #181, #98, .T. ) ;
#68 = LINE ( 'NONE', #338, #494 ) ;
#69 = ORIENTED_EDGE ( 'NONE', *, *, #215, .T. ) ;
#70 = EDGE_CURVE ( 'NONE', #90, #492, #27, .T. ) ;
#71 = DIRECTION ( 'NONE',  ( 0.000000000000000000, 0.000000000000000000, -1.000000000000000000 ) ) ;
#72 = PLANE ( 'NONE',  #324 ) ;
#73 = CARTESIAN_POINT ( 'NONE',  ( -4.629251066658662594, -2.168404344971008868E-17, -0.2499999999999999722 ) ) ;
#74 = AXIS2_PLACEMENT_3D ( 'NONE', #459, #95, #237 ) ;
#75 = DIRECTION ( 'NONE',  ( 0.000000000000000000, 0.000000000000000000, 1.000000000000000000 ) ) ;
#76 = ORIENTED_EDGE ( 'NONE', *, *, #25, .F. ) ;
#77 = DIRECTION ( 'NONE',  ( 0.000000000000000000, 0.000000000000000000, 1.000000000000000000 ) ) ;
#78 = ORIENTED_EDGE ( 'NONE', *, *, #440, .T. ) ;
#79 = DIRECTION ( 'NONE',  ( 0.000000000000000000, 0.000000000000000000, 1.000000000000000000 ) ) ;
#80 = CARTESIAN_POINT ( 'NONE',  ( -4.379251066658663483, 0.2000000000000000111, -0.5000000000000000000 ) ) ;
#81 = ORIENTED_EDGE ( 'NONE', *, *, #458, .T. ) ;
#82 = LINE ( 'NONE', #245, #330 ) ;
#83 = EDGE_CURVE ( 'NONE', #278, #149, #243, .T. ) ;
#84 = APPROVAL_PERSON_ORGANIZATION ( #417, #322, #452 ) ;
#85 = ORIENTED_EDGE ( 'NONE', *, *, #409, .T. ) ;
#86 = PERSON_AND_ORGANIZATION ( #342, #15 ) ;
#87 = ADVANCED_FACE ( 'NONE', ( #299 ), #16, .F. ) ;
#88 = DATE_AND_TIME ( #202, #378 ) ;
#89 = ORIENTED_EDGE ( 'NONE', *, *, #291, .T. ) ;
#90 = VERTEX_POINT ( 'NONE', #173 ) ;
#91 = CIRCLE ( 'NONE', #389, 0.2499999999999999722 ) ;
#92 = AXIS2_PLACEMENT_3D ( 'NONE', #508, #421, #376 ) ;
#93 = SECURITY_CLASSIFICATION ( '', '', #210 ) ;
#94 = LINE ( 'NONE', #102, #522 ) ;
#95 = DIRECTION ( 'NONE',  ( -0.000000000000000000, -1.000000000000000000, -0.000000000000000000 ) ) ;
#96 = ORIENTED_EDGE ( 'NONE', *, *, #209, .F. ) ;
#97 = CARTESIAN_POINT ( 'NONE',  ( -4.879251066658662594, -2.297329820686446071E-17, -0.2500000000000016653 ) ) ;
#98 = CIRCLE ( 'NONE', #441, 0.2499999999999999722 ) ;
#99 = ORIENTED_EDGE ( 'NONE', *, *, #118, .F. ) ;
#100 = VECTOR ( 'NONE', #259, 100.0000000000000000 ) ;
#101 = DIRECTION ( 'NONE',  ( 0.000000000000000000, 1.000000000000000000, -0.000000000000000000 ) ) ;
#102 = CARTESIAN_POINT ( 'NONE',  ( 9.870748933341335629, 0.2000000000000000111, -1.000000000000000000 ) ) ;
#103 = ORIENTED_EDGE ( 'NONE', *, *, #83, .F. ) ;
#104 = DIRECTION ( 'NONE',  ( 0.000000000000000000, 0.000000000000000000, -1.000000000000000000 ) ) ;
#105 = FACE_BOUND ( 'NONE', #337, .T. ) ;
#106 = VERTEX_POINT ( 'NONE', #303 ) ;
#107 = FACE_OUTER_BOUND ( 'NONE', #453, .T. ) ;
#108 = ORIENTED_EDGE ( 'NONE', *, *, #318, .T. ) ;
#109 = VECTOR ( 'NONE', #39, 100.0000000000000000 ) ;
#110 = EDGE_CURVE ( 'NONE', #175, #364, #483, .T. ) ;
#111 = DIRECTION ( 'NONE',  ( 0.000000000000000000, 1.000000000000000000, 0.000000000000000000 ) ) ;
#112 = EDGE_LOOP ( 'NONE', ( #32, #422, #152, #286 ) ) ;
#113 = DIRECTION ( 'NONE',  ( 0.000000000000000000, 0.000000000000000000, -1.000000000000000000 ) ) ;
#114 = ORIENTED_EDGE ( 'NONE', *, *, #25, .T. ) ;
#115 = VECTOR ( 'NONE', #128, 100.0000000000000000 ) ;
#116 = DIRECTION ( 'NONE',  ( -0.000000000000000000, -0.000000000000000000, 1.000000000000000000 ) ) ;
#117 = CARTESIAN_POINT ( 'NONE',  ( 9.620748933341337406, 0.2000000000000000111, -0.2499999999999997780 ) ) ;
#118 = EDGE_CURVE ( 'NONE', #56, #38, #491, .T. ) ;
#119 = COORDINATED_UNIVERSAL_TIME_OFFSET ( 7, 0, .BEHIND. ) ;
#120 = CARTESIAN_POINT ( 'NONE',  ( 9.620748933341337406, 2.168404344971008868E-17, -0.7500000000000002220 ) ) ;
#121 = EDGE_CURVE ( 'NONE', #364, #90, #184, .T. ) ;
#122 = DIRECTION ( 'NONE',  ( 0.000000000000000000, 1.000000000000000000, 0.000000000000000000 ) ) ;
#123 = DIRECTION ( 'NONE',  ( -1.000000000000000000, -0.000000000000000000, -0.000000000000000000 ) ) ;
#124 = PERSON_AND_ORGANIZATION ( #342, #15 ) ;
#125 = FACE_OUTER_BOUND ( 'NONE', #142, .T. ) ;
#126 = CIRCLE ( 'NONE', #133, 0.2500000000000002220 ) ;
#127 = ORIENTED_EDGE ( 'NONE', *, *, #51, .T. ) ;
#128 = DIRECTION ( 'NONE',  ( 1.000000000000000000, 0.000000000000000000, 0.000000000000000000 ) ) ;
#129 = LINE ( 'NONE', #485, #188 ) ;
#130 = EDGE_LOOP ( 'NONE', ( #354, #499, #81, #302, #274, #78, #418, #466 ) ) ;
#131 = CC_DESIGN_PERSON_AND_ORGANIZATION_ASSIGNMENT ( #43, #165, ( #166 ) ) ;
#132 = CIRCLE ( 'NONE', #493, 0.2500000000000001110 ) ;
#133 = AXIS2_PLACEMENT_3D ( 'NONE', #254, #48, #363 ) ;
#134 = CC_DESIGN_SECURITY_CLASSIFICATION ( #93, ( #166 ) ) ;
#135 = CARTESIAN_POINT ( 'NONE',  ( 9.870748933341337406, 2.168404344971008868E-17, -0.2499999999999999722 ) ) ;
#136 = ORIENTED_EDGE ( 'NONE', *, *, #458, .F. ) ;
#137 = CARTESIAN_POINT ( 'NONE',  ( -4.379251066658663483, 0.2000000000000000111, -0.5000000000000000000 ) ) ;
#138 = ORIENTED_EDGE ( 'NONE', *, *, #298, .T. ) ;
#139 = DIRECTION ( 'NONE',  ( 0.000000000000000000, 0.000000000000000000, -1.000000000000000000 ) ) ;
#140 = CARTESIAN_POINT ( 'NONE',  ( 9.870748933341335629, 0.2000000000000000389, -2.547335260214247851E-17 ) ) ;
#141 = EDGE_CURVE ( 'NONE', #213, #181, #226, .T. ) ;
#142 = EDGE_LOOP ( 'NONE', ( #351, #488, #136, #509 ) ) ;
#143 = ADVANCED_BREP_SHAPE_REPRESENTATION ( 'Link M_Default_sldprt', ( #397, #317 ), #368 ) ;
#144 = AXIS2_PLACEMENT_3D ( 'NONE', #196, #469, #442 ) ;
#145 = DIRECTION ( 'NONE',  ( -0.000000000000000000, -1.000000000000000000, -0.000000000000000000 ) ) ;
#146 = PLANE ( 'NONE',  #457 ) ;
#147 = ORIENTED_EDGE ( 'NONE', *, *, #209, .T. ) ;
#148 = DIRECTION ( 'NONE',  ( 0.000000000000000000, 1.000000000000000000, 0.000000000000000000 ) ) ;
#149 = VERTEX_POINT ( 'NONE', #57 ) ;
#150 = ADVANCED_FACE ( 'NONE', ( #375 ), #12, .F. ) ;
#151 = LINE ( 'NONE', #232, #45 ) ;
#152 = ORIENTED_EDGE ( 'NONE', *, *, #400, .F. ) ;
#153 = CIRCLE ( 'NONE', #443, 0.2500000000000001110 ) ;
#154 =( NAMED_UNIT ( * ) PLANE_ANGLE_UNIT ( ) SI_UNIT ( $, .RADIAN. ) );
#155 = CARTESIAN_POINT ( 'NONE',  ( 9.870748933341337406, 0.2000000000000000111, -0.2499999999999999722 ) ) ;
#156 = ORIENTED_EDGE ( 'NONE', *, *, #121, .F. ) ;
#157 = CARTESIAN_POINT ( 'NONE',  ( 9.620748933341337406, 2.168404344971008868E-17, -0.2499999999999997780 ) ) ;
#158 = AXIS2_PLACEMENT_3D ( 'NONE', #407, #517, #356 ) ;
#159 = VECTOR ( 'NONE', #311, 100.0000000000000000 ) ;
#160 = CARTESIAN_POINT ( 'NONE',  ( -4.629251066658662594, 0.2000000000000000111, -0.2499999999999999722 ) ) ;
#161 = DIRECTION ( 'NONE',  ( 0.000000000000000000, 0.000000000000000000, -1.000000000000000000 ) ) ;
#162 = DIRECTION ( 'NONE',  ( 0.000000000000000000, 0.000000000000000000, -1.000000000000000000 ) ) ;
#163 = ORIENTED_EDGE ( 'NONE', *, *, #110, .F. ) ;
#164 = PERSON_AND_ORGANIZATION_ROLE ( 'creator' ) ;
#165 = PERSON_AND_ORGANIZATION_ROLE ( 'design_supplier' ) ;
#166 = PRODUCT_DEFINITION_FORMATION_WITH_SPECIFIED_SOURCE ( 'ANY', '', #343, .NOT_KNOWN. ) ;
#167 = PLANE ( 'NONE',  #390 ) ;
#168 = ORIENTED_EDGE ( 'NONE', *, *, #409, .F. ) ;
#169 = SHAPE_DEFINITION_REPRESENTATION ( #316, #143 ) ;
#170 = ADVANCED_FACE ( 'NONE', ( #125 ), #167, .F. ) ;
#171 = EDGE_LOOP ( 'NONE', ( #315, #233, #490, #138 ) ) ;
#172 = AXIS2_PLACEMENT_3D ( 'NONE', #263, #423, #139 ) ;
#173 = CARTESIAN_POINT ( 'NONE',  ( -4.629251066658661706, -2.297329820686446071E-17, 2.427201264371986203E-17 ) ) ;
#174 = APPLICATION_CONTEXT ( 'configuration controlled 3d designs of mechanical parts and assemblies' ) ;
#175 = VERTEX_POINT ( 'NONE', #411 ) ;
#176 = CARTESIAN_POINT ( 'NONE',  ( 5.370748933341339182, 0.2000000000000000111, 0.000000000000000000 ) ) ;
#177 = CYLINDRICAL_SURFACE ( 'NONE', #74, 0.2500000000000002220 ) ;
#178 = ORIENTED_EDGE ( 'NONE', *, *, #30, .T. ) ;
#179 = CIRCLE ( 'NONE', #158, 0.2500000000000002220 ) ;
#180 = CARTESIAN_POINT ( 'NONE',  ( 9.870748933341337406, 2.168404344971008868E-17, -0.2499999999999999722 ) ) ;
#181 = VERTEX_POINT ( 'NONE', #208 ) ;
#182 = DIRECTION ( 'NONE',  ( 1.000000000000000000, -0.000000000000000000, 0.000000000000000000 ) ) ;
#183 = ORIENTED_EDGE ( 'NONE', *, *, #9, .T. ) ;
#184 = LINE ( 'NONE', #502, #305 ) ;
#185 = DIRECTION ( 'NONE',  ( 0.000000000000000000, 0.000000000000000000, 1.000000000000000000 ) ) ;
#186 = ORIENTED_EDGE ( 'NONE', *, *, #203, .T. ) ;
#187 = CLOSED_SHELL ( 'NONE', ( #221, #87, #380, #445, #372, #352, #310, #150, #523, #170, #239, #5, #334, #416 ) ) ;
#188 = VECTOR ( 'NONE', #249, 100.0000000000000000 ) ;
#189 = DIRECTION ( 'NONE',  ( 0.000000000000000000, 1.000000000000000000, 0.000000000000000000 ) ) ;
#190 = ORIENTED_EDGE ( 'NONE', *, *, #141, .T. ) ;
#191 = EDGE_CURVE ( 'NONE', #364, #258, #285, .T. ) ;
#192 = CARTESIAN_POINT ( 'NONE',  ( -4.379251066658663483, 0.2000000000000000111, -0.5000000000000000000 ) ) ;
#193 = ORIENTED_EDGE ( 'NONE', *, *, #512, .T. ) ;
#194 = DIRECTION ( 'NONE',  ( 0.000000000000000000, 0.000000000000000000, -1.000000000000000000 ) ) ;
#195 = AXIS2_PLACEMENT_3D ( 'NONE', #192, #270, #401 ) ;
#196 = CARTESIAN_POINT ( 'NONE',  ( -4.629251066658662594, 0.2000000000000000111, -0.7500000000000001110 ) ) ;
#197 = CC_DESIGN_PERSON_AND_ORGANIZATION_ASSIGNMENT ( #333, #164, ( #166 ) ) ;
#198 = CYLINDRICAL_SURFACE ( 'NONE', #472, 0.2500000000000001110 ) ;
#199 = DESIGN_CONTEXT ( 'detailed design', #174, 'design' ) ;
#200 = CARTESIAN_POINT ( 'NONE',  ( -4.379251066658663483, -2.168404344971008868E-17, -0.5000000000000000000 ) ) ;
#201 = CIRCLE ( 'NONE', #144, 0.2499999999999999722 ) ;
#202 = CALENDAR_DATE ( 2025, 20, 11 ) ;
#203 = EDGE_CURVE ( 'NONE', #235, #14, #129, .T. ) ;
#204 = ORIENTED_EDGE ( 'NONE', *, *, #428, .T. ) ;
#205 = DATE_TIME_ROLE ( 'classification_date' ) ;
#206 = ORIENTED_EDGE ( 'NONE', *, *, #51, .F. ) ;
#207 = PERSON_AND_ORGANIZATION ( #342, #15 ) ;
#208 = CARTESIAN_POINT ( 'NONE',  ( -4.879251066658662594, -2.297329820686446071E-17, -0.7499999999999982236 ) ) ;
#209 = EDGE_CURVE ( 'NONE', #56, #309, #126, .T. ) ;
#210 = SECURITY_CLASSIFICATION_LEVEL ( 'unclassified' ) ;
#211 = AXIS2_PLACEMENT_3D ( 'NONE', #455, #465, #379 ) ;
#212 = DIRECTION ( 'NONE',  ( -0.000000000000000000, -1.000000000000000000, -0.000000000000000000 ) ) ;
#213 = VERTEX_POINT ( 'NONE', #4 ) ;
#214 = COORDINATED_UNIVERSAL_TIME_OFFSET ( 7, 0, .BEHIND. ) ;
#215 = EDGE_CURVE ( 'NONE', #10, #149, #413, .T. ) ;
#216 = DIRECTION ( 'NONE',  ( -1.000000000000000000, 0.000000000000000000, 0.000000000000000000 ) ) ;
#217 = FACE_OUTER_BOUND ( 'NONE', #312, .T. ) ;
#218 = ORIENTED_EDGE ( 'NONE', *, *, #42, .T. ) ;
#219 = CARTESIAN_POINT ( 'NONE',  ( 10.12074893334133563, 2.411035847120169918E-17, -0.2500000000000018319 ) ) ;
#220 = CIRCLE ( 'NONE', #7, 0.2500000000000001110 ) ;
#221 = ADVANCED_FACE ( 'NONE', ( #370 ), #293, .F. ) ;
#222 = DIRECTION ( 'NONE',  ( -0.000000000000000000, -1.000000000000000000, -0.000000000000000000 ) ) ;
#223 = ORIENTED_EDGE ( 'NONE', *, *, #276, .F. ) ;
#224 = DIRECTION ( 'NONE',  ( 0.000000000000000000, 0.000000000000000000, 1.000000000000000000 ) ) ;
#225 = ORIENTED_EDGE ( 'NONE', *, *, #191, .F. ) ;
#226 = LINE ( 'NONE', #387, #100 ) ;
#227 = APPROVAL ( #253, 'UNSPECIFIED' ) ;
#228 = FACE_BOUND ( 'NONE', #50, .T. ) ;
#229 = DIRECTION ( 'NONE',  ( 0.000000000000000000, 1.000000000000000000, -0.000000000000000000 ) ) ;
#230 = AXIS2_PLACEMENT_3D ( 'NONE', #519, #122, #37 ) ;
#231 = AXIS2_PLACEMENT_3D ( 'NONE', #382, #185, #18 ) ;
#232 = CARTESIAN_POINT ( 'NONE',  ( 10.12074893334133741, 0.2000000000000000111, -0.2500000000000017764 ) ) ;
#233 = ORIENTED_EDGE ( 'NONE', *, *, #215, .F. ) ;
#234 = FACE_OUTER_BOUND ( 'NONE', #112, .T. ) ;
#235 = VERTEX_POINT ( 'NONE', #17 ) ;
#236 = APPROVAL ( #524, 'UNSPECIFIED' ) ;
#237 = DIRECTION ( 'NONE',  ( 0.000000000000000000, 0.000000000000000000, -1.000000000000000000 ) ) ;
#238 = VECTOR ( 'NONE', #20, 100.0000000000000000 ) ;
#239 = ADVANCED_FACE ( 'NONE', ( #429 ), #495, .T. ) ;
#240 = VECTOR ( 'NONE', #367, 100.0000000000000000 ) ;
#241 = LINE ( 'NONE', #35, #272 ) ;
#242 = ORIENTED_EDGE ( 'NONE', *, *, #318, .F. ) ;
#243 = LINE ( 'NONE', #2, #477 ) ;
#244 = DIRECTION ( 'NONE',  ( 0.000000000000000000, 1.000000000000000000, 0.000000000000000000 ) ) ;
#245 = CARTESIAN_POINT ( 'NONE',  ( 5.370748933341339182, 0.2000000000000000111, -1.000000000000000000 ) ) ;
#246 = AXIS2_PLACEMENT_3D ( 'NONE', #463, #101, #71 ) ;
#247 = EDGE_CURVE ( 'NONE', #235, #501, #220, .T. ) ;
#248 = DIRECTION ( 'NONE',  ( 1.000000000000000000, 0.000000000000000000, 0.000000000000000000 ) ) ;
#249 = DIRECTION ( 'NONE',  ( -0.000000000000000000, -1.000000000000000000, -0.000000000000000000 ) ) ;
#250 = VERTEX_POINT ( 'NONE', #262 ) ;
#251 = DATE_AND_TIME ( #447, #444 ) ;
#252 = EDGE_CURVE ( 'NONE', #258, #492, #68, .T. ) ;
#253 = APPROVAL_STATUS ( 'not_yet_approved' ) ;
#254 = CARTESIAN_POINT ( 'NONE',  ( 9.620748933341337406, 0.2000000000000000111, -0.5000000000000000000 ) ) ;
#255 = ORIENTED_EDGE ( 'NONE', *, *, #252, .F. ) ;
#256 = PERSON_AND_ORGANIZATION_ROLE ( 'design_owner' ) ;
#257 = AXIS2_PLACEMENT_3D ( 'NONE', #21, #498, #301 ) ;
#258 = VERTEX_POINT ( 'NONE', #140 ) ;
#259 = DIRECTION ( 'NONE',  ( -0.000000000000000000, -1.000000000000000000, -0.000000000000000000 ) ) ;
#260 = CARTESIAN_POINT ( 'NONE',  ( 9.620748933341337406, 0.2000000000000000111, -0.7500000000000002220 ) ) ;
#261 = ORIENTED_EDGE ( 'NONE', *, *, #67, .T. ) ;
#262 = CARTESIAN_POINT ( 'NONE',  ( 10.12074893334133563, 0.2000000000000000389, -0.2500000000000018319 ) ) ;
#263 = CARTESIAN_POINT ( 'NONE',  ( 9.620748933341337406, 0.2000000000000000111, -0.5000000000000000000 ) ) ;
#264 = FACE_OUTER_BOUND ( 'NONE', #171, .T. ) ;
#265 = EDGE_LOOP ( 'NONE', ( #261, #438, #430, #69 ) ) ;
#266 = DIRECTION ( 'NONE',  ( 0.000000000000000000, 0.000000000000000000, 1.000000000000000000 ) ) ;
#267 = ORIENTED_EDGE ( 'NONE', *, *, #247, .F. ) ;
#268 = DIRECTION ( 'NONE',  ( 0.000000000000000000, -0.000000000000000000, 1.000000000000000000 ) ) ;
#269 = CYLINDRICAL_SURFACE ( 'NONE', #323, 0.2499999999999999722 ) ;
#270 = DIRECTION ( 'NONE',  ( -0.000000000000000000, -1.000000000000000000, -0.000000000000000000 ) ) ;
#271 = ORIENTED_EDGE ( 'NONE', *, *, #118, .T. ) ;
#272 = VECTOR ( 'NONE', #320, 100.0000000000000000 ) ;
#273 = CARTESIAN_POINT ( 'NONE',  ( 10.12074893334133741, 2.168404344971008868E-17, -0.2500000000000017764 ) ) ;
#274 = ORIENTED_EDGE ( 'NONE', *, *, #60, .T. ) ;
#275 = LINE ( 'NONE', #28, #335 ) ;
#276 = EDGE_CURVE ( 'NONE', #492, #348, #153, .T. ) ;
#277 = CARTESIAN_POINT ( 'NONE',  ( 9.870748933341335629, 2.411035847120169918E-17, -2.547335260214247851E-17 ) ) ;
#278 = VERTEX_POINT ( 'NONE', #388 ) ;
#279 = AXIS2_PLACEMENT_3D ( 'NONE', #160, #520, #319 ) ;
#280 = DIRECTION ( 'NONE',  ( 0.000000000000000000, 1.000000000000000000, -0.000000000000000000 ) ) ;
#281 = EDGE_CURVE ( 'NONE', #501, #505, #300, .T. ) ;
#282 = PERSON_AND_ORGANIZATION_ROLE ( 'classification_officer' ) ;
#283 = LINE ( 'NONE', #479, #295 ) ;
#284 = DATE_AND_TIME ( #11, #331 ) ;
#285 = LINE ( 'NONE', #327, #240 ) ;
#286 = ORIENTED_EDGE ( 'NONE', *, *, #252, .T. ) ;
#287 = COORDINATED_UNIVERSAL_TIME_OFFSET ( 7, 0, .BEHIND. ) ;
#288 = CC_DESIGN_APPROVAL ( #236, ( #93 ) ) ;
#289 = APPROVAL_STATUS ( 'not_yet_approved' ) ;
#290 = EDGE_LOOP ( 'NONE', ( #46, #186, #242, #346 ) ) ;
#291 = EDGE_CURVE ( 'NONE', #22, #38, #449, .T. ) ;
#292 = APPROVAL_DATE_TIME ( #362, #227 ) ;
#293 = CYLINDRICAL_SURFACE ( 'NONE', #211, 0.2500000000000001110 ) ;
#294 = VERTEX_POINT ( 'NONE', #97 ) ;
#295 = VECTOR ( 'NONE', #360, 100.0000000000000000 ) ;
#296 = AXIS2_PLACEMENT_3D ( 'NONE', #176, #162, #1 ) ;
#297 = ORIENTED_EDGE ( 'NONE', *, *, #42, .F. ) ;
#298 = EDGE_CURVE ( 'NONE', #106, #278, #94, .T. ) ;
#299 = FACE_OUTER_BOUND ( 'NONE', #496, .T. ) ;
#300 = LINE ( 'NONE', #59, #159 ) ;
#301 = DIRECTION ( 'NONE',  ( 0.000000000000000000, 0.000000000000000000, 1.000000000000000000 ) ) ;
#302 = ORIENTED_EDGE ( 'NONE', *, *, #58, .T. ) ;
#303 = CARTESIAN_POINT ( 'NONE',  ( 9.870748933341335629, 0.2000000000000000389, -1.000000000000000000 ) ) ;
#304 = FACE_BOUND ( 'NONE', #361, .T. ) ;
#305 = VECTOR ( 'NONE', #145, 100.0000000000000000 ) ;
#306 = CIRCLE ( 'NONE', #415, 0.2500000000000001110 ) ;
#307 = ORIENTED_EDGE ( 'NONE', *, *, #497, .F. ) ;
#308 = DIRECTION ( 'NONE',  ( 0.000000000000000000, 0.000000000000000000, -1.000000000000000000 ) ) ;
#309 = VERTEX_POINT ( 'NONE', #260 ) ;
#310 = ADVANCED_FACE ( 'NONE', ( #264 ), #425, .F. ) ;
#311 = DIRECTION ( 'NONE',  ( -0.000000000000000000, -1.000000000000000000, -0.000000000000000000 ) ) ;
#312 = EDGE_LOOP ( 'NONE', ( #99, #147, #218, #66 ) ) ;
#313 = UNCERTAINTY_MEASURE_WITH_UNIT (LENGTH_MEASURE( 1.000000000000000082E-05 ), #518, 'distance_accuracy_value', 'NONE');
#314 = LINE ( 'NONE', #350, #55 ) ;
#315 = ORIENTED_EDGE ( 'NONE', *, *, #83, .T. ) ;
#316 = PRODUCT_DEFINITION_SHAPE ( 'NONE', 'NONE',  #461 ) ;
#317 = AXIS2_PLACEMENT_3D ( 'NONE', #326, #405, #248 ) ;
#318 = EDGE_CURVE ( 'NONE', #505, #14, #23, .T. ) ;
#319 = DIRECTION ( 'NONE',  ( 0.000000000000000000, 0.000000000000000000, -1.000000000000000000 ) ) ;
#320 = DIRECTION ( 'NONE',  ( -0.000000000000000000, -1.000000000000000000, -0.000000000000000000 ) ) ;
#321 = CARTESIAN_POINT ( 'NONE',  ( 10.12074893334133563, 2.411035847120169918E-17, -0.7499999999999983347 ) ) ;
#322 = APPROVAL ( #289, 'UNSPECIFIED' ) ;
#323 = AXIS2_PLACEMENT_3D ( 'NONE', #383, #19, #432 ) ;
#324 = AXIS2_PLACEMENT_3D ( 'NONE', #24, #189, #419 ) ;
#325 = CC_DESIGN_APPROVAL ( #227, ( #166 ) ) ;
#326 = CARTESIAN_POINT ( 'NONE',  ( 0.000000000000000000, 0.000000000000000000, 0.000000000000000000 ) ) ;
#327 = CARTESIAN_POINT ( 'NONE',  ( -4.629251066658661706, 0.2000000000000000111, 0.000000000000000000 ) ) ;
#328 = EDGE_LOOP ( 'NONE', ( #76, #96 ) ) ;
#329 = APPROVAL_DATE_TIME ( #88, #322 ) ;
#330 = VECTOR ( 'NONE', #404, 100.0000000000000000 ) ;
#331 = LOCAL_TIME ( 9, 14, 2.000000000000000000, #52 ) ;
#332 = ORIENTED_EDGE ( 'NONE', *, *, #67, .F. ) ;
#333 = PERSON_AND_ORGANIZATION ( #342, #15 ) ;
#334 = ADVANCED_FACE ( 'NONE', ( #504 ), #146, .F. ) ;
#335 = VECTOR ( 'NONE', #474, 100.0000000000000000 ) ;
#336 = CARTESIAN_POINT ( 'NONE',  ( -4.379251066658663483, -2.168404344971008868E-17, -0.5000000000000000000 ) ) ;
#337 = EDGE_LOOP ( 'NONE', ( #108, #204 ) ) ;
#338 = CARTESIAN_POINT ( 'NONE',  ( 9.870748933341335629, 0.2000000000000000111, 0.000000000000000000 ) ) ;
#339 = EDGE_LOOP ( 'NONE', ( #85, #40, #427, #374 ) ) ;
#340 = PLANE ( 'NONE',  #424 ) ;
#341 = ORIENTED_EDGE ( 'NONE', *, *, #203, .F. ) ;
#342 = PERSON ( 'UNSPECIFIED', 'UNSPECIFIED', 'UNSPECIFIED', ('UNSPECIFIED'), ('UNSPECIFIED'), ('UNSPECIFIED') ) ;
#343 = PRODUCT ( 'Link M_Default_sldprt', 'Link M_Default_sldprt', '', ( #371 ) ) ;
#344 = DIRECTION ( 'NONE',  ( 0.000000000000000000, 0.000000000000000000, 1.000000000000000000 ) ) ;
#345 = CIRCLE ( 'NONE', #489, 0.2500000000000001110 ) ;
#346 = ORIENTED_EDGE ( 'NONE', *, *, #281, .F. ) ;
#347 = DIRECTION ( 'NONE',  ( 0.000000000000000000, 1.000000000000000000, 0.000000000000000000 ) ) ;
#348 = VERTEX_POINT ( 'NONE', #219 ) ;
#349 = CARTESIAN_POINT ( 'NONE',  ( -4.629251066658661706, -2.168404344971008868E-17, 0.000000000000000000 ) ) ;
#350 = CARTESIAN_POINT ( 'NONE',  ( -4.879251066658662594, 0.2000000000000000111, -0.2500000000000017764 ) ) ;
#351 = ORIENTED_EDGE ( 'NONE', *, *, #476, .T. ) ;
#352 = ADVANCED_FACE ( 'NONE', ( #228, #467, #105 ), #340, .F. ) ;
#353 = CYLINDRICAL_SURFACE ( 'NONE', #279, 0.2499999999999999722 ) ;
#354 = ORIENTED_EDGE ( 'NONE', *, *, #191, .T. ) ;
#355 = CARTESIAN_POINT ( 'NONE',  ( 9.870748933341337406, 0.2000000000000000111, -0.2499999999999999722 ) ) ;
#356 = DIRECTION ( 'NONE',  ( 0.000000000000000000, 0.000000000000000000, 1.000000000000000000 ) ) ;
#357 = DIRECTION ( 'NONE',  ( 0.000000000000000000, 1.000000000000000000, 0.000000000000000000 ) ) ;
#358 = CIRCLE ( 'NONE', #435, 0.2500000000000001110 ) ;
#359 = CALENDAR_DATE ( 2025, 20, 11 ) ;
#360 = DIRECTION ( 'NONE',  ( -0.000000000000000000, -1.000000000000000000, -0.000000000000000000 ) ) ;
#361 = EDGE_LOOP ( 'NONE', ( #394, #267 ) ) ;
#362 = DATE_AND_TIME ( #450, #47 ) ;
#363 = DIRECTION ( 'NONE',  ( 0.000000000000000000, 0.000000000000000000, 1.000000000000000000 ) ) ;
#364 = VERTEX_POINT ( 'NONE', #13 ) ;
#365 = CC_DESIGN_DATE_AND_TIME_ASSIGNMENT ( #284, #3, ( #461 ) ) ;
#366 = PERSON_AND_ORGANIZATION_ROLE ( 'creator' ) ;
#367 = DIRECTION ( 'NONE',  ( 1.000000000000000000, 0.000000000000000000, 0.000000000000000000 ) ) ;
#368 =( GEOMETRIC_REPRESENTATION_CONTEXT ( 3 ) GLOBAL_UNCERTAINTY_ASSIGNED_CONTEXT ( ( #313 ) ) GLOBAL_UNIT_ASSIGNED_CONTEXT ( ( #518, #154, #478 ) ) REPRESENTATION_CONTEXT ( 'NONE', 'WORKASPACE' ) );
#369 = COORDINATED_UNIVERSAL_TIME_OFFSET ( 7, 0, .BEHIND. ) ;
#370 = FACE_OUTER_BOUND ( 'NONE', #290, .T. ) ;
#371 = MECHANICAL_CONTEXT ( 'NONE', #408, 'mechanical' ) ;
#372 = ADVANCED_FACE ( 'NONE', ( #500, #431, #304 ), #72, .T. ) ;
#373 = CC_DESIGN_PERSON_AND_ORGANIZATION_ASSIGNMENT ( #484, #282, ( #93 ) ) ;
#374 = ORIENTED_EDGE ( 'NONE', *, *, #482, .T. ) ;
#375 = FACE_OUTER_BOUND ( 'NONE', #402, .T. ) ;
#376 = DIRECTION ( 'NONE',  ( 0.000000000000000000, 0.000000000000000000, -1.000000000000000000 ) ) ;
#377 = ORIENTED_EDGE ( 'NONE', *, *, #70, .T. ) ;
#378 = LOCAL_TIME ( 9, 14, 2.000000000000000000, #214 ) ;
#379 = DIRECTION ( 'NONE',  ( 0.000000000000000000, 0.000000000000000000, -1.000000000000000000 ) ) ;
#380 = ADVANCED_FACE ( 'NONE', ( #217 ), #177, .F. ) ;
#381 = PRODUCT_RELATED_PRODUCT_CATEGORY ( 'detail', '', ( #343 ) ) ;
#382 = CARTESIAN_POINT ( 'NONE',  ( 5.370748933341339182, 0.2000000000000000111, -1.000000000000000000 ) ) ;
#383 = CARTESIAN_POINT ( 'NONE',  ( -4.629251066658662594, 0.2000000000000000111, -0.7500000000000001110 ) ) ;
#384 = CARTESIAN_POINT ( 'NONE',  ( 9.620748933341337406, 0.2000000000000000111, -0.2499999999999997780 ) ) ;
#385 = DIRECTION ( 'NONE',  ( -0.000000000000000000, -1.000000000000000000, -0.000000000000000000 ) ) ;
#386 = ORIENTED_EDGE ( 'NONE', *, *, #121, .T. ) ;
#387 = CARTESIAN_POINT ( 'NONE',  ( -4.879251066658662594, 0.2000000000000000111, -0.7499999999999982236 ) ) ;
#388 = CARTESIAN_POINT ( 'NONE',  ( 9.870748933341335629, 2.411035847120169918E-17, -1.000000000000000000 ) ) ;
#389 = AXIS2_PLACEMENT_3D ( 'NONE', #73, #229, #391 ) ;
#390 = AXIS2_PLACEMENT_3D ( 'NONE', #49, #216, #451 ) ;
#391 = DIRECTION ( 'NONE',  ( 0.000000000000000000, 0.000000000000000000, -1.000000000000000000 ) ) ;
#392 = CARTESIAN_POINT ( 'NONE',  ( -4.629251066658662594, -2.168404344971008868E-17, -0.7500000000000001110 ) ) ;
#393 = LINE ( 'NONE', #273, #399 ) ;
#394 = ORIENTED_EDGE ( 'NONE', *, *, #515, .F. ) ;
#395 = DIRECTION ( 'NONE',  ( -0.000000000000000000, -1.000000000000000000, -0.000000000000000000 ) ) ;
#396 = ORIENTED_EDGE ( 'NONE', *, *, #291, .F. ) ;
#397 = MANIFOLD_SOLID_BREP ( 'Flex1', #187 ) ;
#398 = FACE_OUTER_BOUND ( 'NONE', #470, .T. ) ;
#399 = VECTOR ( 'NONE', #113, 100.0000000000000000 ) ;
#400 = EDGE_CURVE ( 'NONE', #258, #250, #306, .T. ) ;
#401 = DIRECTION ( 'NONE',  ( 0.000000000000000000, 0.000000000000000000, -1.000000000000000000 ) ) ;
#402 = EDGE_LOOP ( 'NONE', ( #255, #225, #386, #377 ) ) ;
#403 = CARTESIAN_POINT ( 'NONE',  ( 9.870748933341337406, 2.168404344971008868E-17, -0.7500000000000001110 ) ) ;
#404 = DIRECTION ( 'NONE',  ( -1.000000000000000000, -0.000000000000000000, -0.000000000000000000 ) ) ;
#405 = DIRECTION ( 'NONE',  ( 0.000000000000000000, 0.000000000000000000, 1.000000000000000000 ) ) ;
#406 = AXIS2_PLACEMENT_3D ( 'NONE', #336, #62, #344 ) ;
#407 = CARTESIAN_POINT ( 'NONE',  ( 9.620748933341337406, 0.2000000000000000111, -0.5000000000000000000 ) ) ;
#408 = APPLICATION_CONTEXT ( 'configuration controlled 3d designs of mechanical parts and assemblies' ) ;
#409 = EDGE_CURVE ( 'NONE', #29, #278, #64, .T. ) ;
#410 = APPLICATION_PROTOCOL_DEFINITION ( 'international standard', 'config_control_design', 1994, #408 ) ;
#411 = CARTESIAN_POINT ( 'NONE',  ( -4.879251066658662594, 0.1999999999999999556, -0.2500000000000016653 ) ) ;
#412 = APPROVAL_ROLE ( '' ) ;
#413 = LINE ( 'NONE', #53, #513 ) ;
#414 = EDGE_LOOP ( 'NONE', ( #193, #206, #307, #190 ) ) ;
#415 = AXIS2_PLACEMENT_3D ( 'NONE', #155, #244, #79 ) ;
#416 = ADVANCED_FACE ( 'NONE', ( #398 ), #353, .T. ) ;
#417 = PERSON_AND_ORGANIZATION ( #342, #15 ) ;
#418 = ORIENTED_EDGE ( 'NONE', *, *, #497, .T. ) ;
#419 = DIRECTION ( 'NONE',  ( 0.000000000000000000, -0.000000000000000000, 1.000000000000000000 ) ) ;
#420 = VERTEX_POINT ( 'NONE', #41 ) ;
#421 = DIRECTION ( 'NONE',  ( -0.000000000000000000, -1.000000000000000000, -0.000000000000000000 ) ) ;
#422 = ORIENTED_EDGE ( 'NONE', *, *, #448, .F. ) ;
#423 = DIRECTION ( 'NONE',  ( -0.000000000000000000, -1.000000000000000000, -0.000000000000000000 ) ) ;
#424 = AXIS2_PLACEMENT_3D ( 'NONE', #135, #347, #268 ) ;
#425 = PLANE ( 'NONE',  #231 ) ;
#426 = APPROVAL_PERSON_ORGANIZATION ( #86, #236, #8 ) ;
#427 = ORIENTED_EDGE ( 'NONE', *, *, #58, .F. ) ;
#428 = EDGE_CURVE ( 'NONE', #14, #505, #358, .T. ) ;
#429 = FACE_OUTER_BOUND ( 'NONE', #339, .T. ) ;
#430 = ORIENTED_EDGE ( 'NONE', *, *, #440, .F. ) ;
#431 = FACE_BOUND ( 'NONE', #328, .T. ) ;
#432 = DIRECTION ( 'NONE',  ( 0.000000000000000000, 0.000000000000000000, -1.000000000000000000 ) ) ;
#433 = CC_DESIGN_DATE_AND_TIME_ASSIGNMENT ( #454, #205, ( #93 ) ) ;
#434 = DIRECTION ( 'NONE',  ( 0.000000000000000000, 1.000000000000000000, -0.000000000000000000 ) ) ;
#435 = AXIS2_PLACEMENT_3D ( 'NONE', #200, #357, #75 ) ;
#436 = ORIENTED_EDGE ( 'NONE', *, *, #70, .F. ) ;
#437 = CARTESIAN_POINT ( 'NONE',  ( -4.879251066658662594, -2.168404344971008868E-17, -0.2500000000000017764 ) ) ;
#438 = ORIENTED_EDGE ( 'NONE', *, *, #141, .F. ) ;
#439 = DIRECTION ( 'NONE',  ( 0.000000000000000000, 0.000000000000000000, -1.000000000000000000 ) ) ;
#440 = EDGE_CURVE ( 'NONE', #10, #213, #201, .T. ) ;
#441 = AXIS2_PLACEMENT_3D ( 'NONE', #392, #507, #104 ) ;
#442 = DIRECTION ( 'NONE',  ( 0.000000000000000000, 0.000000000000000000, -1.000000000000000000 ) ) ;
#443 = AXIS2_PLACEMENT_3D ( 'NONE', #180, #148, #266 ) ;
#444 = LOCAL_TIME ( 9, 14, 2.000000000000000000, #287 ) ;
#445 = ADVANCED_FACE ( 'NONE', ( #107 ), #516, .F. ) ;
#446 = APPROVAL_DATE_TIME ( #251, #236 ) ;
#447 = CALENDAR_DATE ( 2025, 20, 11 ) ;
#448 = EDGE_CURVE ( 'NONE', #250, #348, #241, .T. ) ;
#449 = CIRCLE ( 'NONE', #257, 0.2500000000000002220 ) ;
#450 = CALENDAR_DATE ( 2025, 20, 11 ) ;
#451 = DIRECTION ( 'NONE',  ( 0.000000000000000000, 0.000000000000000000, 1.000000000000000000 ) ) ;
#452 = APPROVAL_ROLE ( '' ) ;
#453 = EDGE_LOOP ( 'NONE', ( #341, #6, #61, #486 ) ) ;
#454 = DATE_AND_TIME ( #359, #36 ) ;
#455 = CARTESIAN_POINT ( 'NONE',  ( -4.379251066658663483, 0.2000000000000000111, -0.5000000000000000000 ) ) ;
#456 = CIRCLE ( 'NONE', #230, 0.2500000000000002220 ) ;
#457 = AXIS2_PLACEMENT_3D ( 'NONE', #65, #182, #308 ) ;
#458 = EDGE_CURVE ( 'NONE', #250, #420, #151, .T. ) ;
#459 = CARTESIAN_POINT ( 'NONE',  ( 9.620748933341337406, 0.2000000000000000111, -0.5000000000000000000 ) ) ;
#460 = DIRECTION ( 'NONE',  ( 0.000000000000000000, 1.000000000000000000, 0.000000000000000000 ) ) ;
#461 = PRODUCT_DEFINITION ( 'UNKNOWN', '', #166, #199 ) ;
#462 = FACE_OUTER_BOUND ( 'NONE', #265, .T. ) ;
#463 = CARTESIAN_POINT ( 'NONE',  ( -4.629251066658662594, 0.2000000000000000111, -0.2499999999999999722 ) ) ;
#464 = APPROVAL_PERSON_ORGANIZATION ( #480, #227, #412 ) ;
#465 = DIRECTION ( 'NONE',  ( -0.000000000000000000, -1.000000000000000000, -0.000000000000000000 ) ) ;
#466 = ORIENTED_EDGE ( 'NONE', *, *, #110, .T. ) ;
#467 = FACE_OUTER_BOUND ( 'NONE', #54, .T. ) ;
#468 = ORIENTED_EDGE ( 'NONE', *, *, #476, .F. ) ;
#469 = DIRECTION ( 'NONE',  ( 0.000000000000000000, 1.000000000000000000, -0.000000000000000000 ) ) ;
#470 = EDGE_LOOP ( 'NONE', ( #183, #156, #163, #127 ) ) ;
#471 = LINE ( 'NONE', #437, #109 ) ;
#472 = AXIS2_PLACEMENT_3D ( 'NONE', #355, #395, #439 ) ;
#473 = CARTESIAN_POINT ( 'NONE',  ( -4.379251066658663483, -2.168404344971008868E-17, -0.2499999999999998890 ) ) ;
#474 = DIRECTION ( 'NONE',  ( -0.000000000000000000, -1.000000000000000000, -0.000000000000000000 ) ) ;
#475 = DIRECTION ( 'NONE',  ( 0.000000000000000000, 0.000000000000000000, -1.000000000000000000 ) ) ;
#476 = EDGE_CURVE ( 'NONE', #348, #29, #393, .T. ) ;
#477 = VECTOR ( 'NONE', #123, 100.0000000000000000 ) ;
#478 =( NAMED_UNIT ( * ) SI_UNIT ( $, .STERADIAN. ) SOLID_ANGLE_UNIT ( ) );
#479 = CARTESIAN_POINT ( 'NONE',  ( -4.879251066658662594, 0.2000000000000000111, -0.2500000000000017208 ) ) ;
#480 = PERSON_AND_ORGANIZATION ( #342, #15 ) ;
#481 = CARTESIAN_POINT ( 'NONE',  ( 9.620748933341337406, 0.2000000000000000111, -0.7500000000000002220 ) ) ;
#482 = EDGE_CURVE ( 'NONE', #420, #29, #275, .T. ) ;
#483 = CIRCLE ( 'NONE', #246, 0.2499999999999999722 ) ;
#484 = PERSON_AND_ORGANIZATION ( #342, #15 ) ;
#485 = CARTESIAN_POINT ( 'NONE',  ( -4.379251066658663483, 0.2000000000000000111, -0.2499999999999998890 ) ) ;
#486 = ORIENTED_EDGE ( 'NONE', *, *, #428, .F. ) ;
#487 = APPLICATION_PROTOCOL_DEFINITION ( 'international standard', 'config_control_design', 1994, #174 ) ;
#488 = ORIENTED_EDGE ( 'NONE', *, *, #482, .F. ) ;
#489 = AXIS2_PLACEMENT_3D ( 'NONE', #80, #111, #77 ) ;
#490 = ORIENTED_EDGE ( 'NONE', *, *, #60, .F. ) ;
#491 = LINE ( 'NONE', #384, #238 ) ;
#492 = VERTEX_POINT ( 'NONE', #277 ) ;
#493 = AXIS2_PLACEMENT_3D ( 'NONE', #525, #280, #161 ) ;
#494 = VECTOR ( 'NONE', #222, 100.0000000000000000 ) ;
#495 = CYLINDRICAL_SURFACE ( 'NONE', #92, 0.2500000000000001110 ) ;
#496 = EDGE_LOOP ( 'NONE', ( #114, #271, #396, #297 ) ) ;
#497 = EDGE_CURVE ( 'NONE', #213, #175, #314, .T. ) ;
#498 = DIRECTION ( 'NONE',  ( 0.000000000000000000, 1.000000000000000000, 0.000000000000000000 ) ) ;
#499 = ORIENTED_EDGE ( 'NONE', *, *, #400, .T. ) ;
#500 = FACE_OUTER_BOUND ( 'NONE', #130, .T. ) ;
#501 = VERTEX_POINT ( 'NONE', #31 ) ;
#502 = CARTESIAN_POINT ( 'NONE',  ( -4.629251066658661706, 0.2000000000000000111, 0.000000000000000000 ) ) ;
#503 = AXIS2_PLACEMENT_3D ( 'NONE', #403, #434, #194 ) ;
#504 = FACE_OUTER_BOUND ( 'NONE', #414, .T. ) ;
#505 = VERTEX_POINT ( 'NONE', #510 ) ;
#506 = CC_DESIGN_PERSON_AND_ORGANIZATION_ASSIGNMENT ( #124, #366, ( #461 ) ) ;
#507 = DIRECTION ( 'NONE',  ( 0.000000000000000000, 1.000000000000000000, -0.000000000000000000 ) ) ;
#508 = CARTESIAN_POINT ( 'NONE',  ( 9.870748933341337406, 0.2000000000000000111, -0.7500000000000001110 ) ) ;
#509 = ORIENTED_EDGE ( 'NONE', *, *, #448, .T. ) ;
#510 = CARTESIAN_POINT ( 'NONE',  ( -4.379251066658663483, -2.168404344971008868E-17, -0.7500000000000001110 ) ) ;
#511 = ORIENTED_EDGE ( 'NONE', *, *, #512, .F. ) ;
#512 = EDGE_CURVE ( 'NONE', #181, #294, #471, .T. ) ;
#513 = VECTOR ( 'NONE', #212, 100.0000000000000000 ) ;
#514 = DIRECTION ( 'NONE',  ( -0.000000000000000000, -1.000000000000000000, -0.000000000000000000 ) ) ;
#515 = EDGE_CURVE ( 'NONE', #501, #235, #345, .T. ) ;
#516 = CYLINDRICAL_SURFACE ( 'NONE', #195, 0.2500000000000001110 ) ;
#517 = DIRECTION ( 'NONE',  ( 0.000000000000000000, 1.000000000000000000, 0.000000000000000000 ) ) ;
#518 =( LENGTH_UNIT ( ) NAMED_UNIT ( * ) SI_UNIT ( .CENTI., .METRE. ) );
#519 = CARTESIAN_POINT ( 'NONE',  ( 9.620748933341337406, 2.168404344971008868E-17, -0.5000000000000000000 ) ) ;
#520 = DIRECTION ( 'NONE',  ( -0.000000000000000000, -1.000000000000000000, -0.000000000000000000 ) ) ;
#521 = VECTOR ( 'NONE', #514, 100.0000000000000000 ) ;
#522 = VECTOR ( 'NONE', #385, 100.0000000000000000 ) ;
#523 = ADVANCED_FACE ( 'NONE', ( #234 ), #198, .T. ) ;
#524 = APPROVAL_STATUS ( 'not_yet_approved' ) ;
#525 = CARTESIAN_POINT ( 'NONE',  ( 9.870748933341337406, 0.2000000000000000111, -0.7500000000000001110 ) ) ;
ENDSEC;
END-ISO-10303-21;
