ISO-10303-21;
HEADER;
FILE_DESCRIPTION (( 'STEP AP203' ),
    '1' );
FILE_NAME ('Link I_Default_sldprt.STEP',
    '2025-11-20T16:13:49',
    ( '' ),
    ( '' ),
    'SwSTEP 2.0',
    'SolidWorks 2025',
    '' );
FILE_SCHEMA (( 'CONFIG_CONTROL_DESIGN' ));
ENDSEC;

DATA;
#1 = CARTESIAN_POINT ( 'NONE',  ( 27.03129530670188174, 0.2000000000000000944, -0.5000000000000001110 ) ) ;
#2 = ORIENTED_EDGE ( 'NONE', *, *, #38, .F. ) ;
#3 = CIRCLE ( 'NONE', #510, 0.2500000000000002220 ) ;
#4 =( NAMED_UNIT ( * ) PLANE_ANGLE_UNIT ( ) SI_UNIT ( $, .RADIAN. ) );
#5 = EDGE_LOOP ( 'NONE', ( #447, #151 ) ) ;
#6 = EDGE_CURVE ( 'NONE', #81, #404, #504, .T. ) ;
#7 = AXIS2_PLACEMENT_3D ( 'NONE', #1, #158, #318 ) ;
#8 = VECTOR ( 'NONE', #185, 100.0000000000000000 ) ;
#9 = LINE ( 'NONE', #94, #178 ) ;
#10 = VERTEX_POINT ( 'NONE', #458 ) ;
#11 = EDGE_CURVE ( 'NONE', #156, #518, #97, .T. ) ;
#12 = DIRECTION ( 'NONE',  ( 0.000000000000000000, 0.000000000000000000, -1.000000000000000000 ) ) ;
#13 = ORIENTED_EDGE ( 'NONE', *, *, #514, .F. ) ;
#14 = DIRECTION ( 'NONE',  ( -0.000000000000000000, -1.000000000000000000, -0.000000000000000000 ) ) ;
#15 = VECTOR ( 'NONE', #179, 100.0000000000000000 ) ;
#16 = VERTEX_POINT ( 'NONE', #405 ) ;
#17 = DIRECTION ( 'NONE',  ( -0.000000000000000000, -1.000000000000000000, -0.000000000000000000 ) ) ;
#18 = ORIENTED_EDGE ( 'NONE', *, *, #83, .T. ) ;
#19 = SECURITY_CLASSIFICATION ( '', '', #370 ) ;
#20 = CYLINDRICAL_SURFACE ( 'NONE', #206, 0.2500000000000000555 ) ;
#21 = FACE_OUTER_BOUND ( 'NONE', #489, .T. ) ;
#22 = ORIENTED_EDGE ( 'NONE', *, *, #514, .T. ) ;
#23 = LINE ( 'NONE', #177, #336 ) ;
#24 = VECTOR ( 'NONE', #387, 100.0000000000000000 ) ;
#25 = FACE_OUTER_BOUND ( 'NONE', #408, .T. ) ;
#26 = EDGE_CURVE ( 'NONE', #121, #241, #285, .T. ) ;
#27 = LINE ( 'NONE', #182, #322 ) ;
#28 = CALENDAR_DATE ( 2025, 20, 11 ) ;
#29 = EDGE_CURVE ( 'NONE', #386, #286, #23, .T. ) ;
#30 = APPROVAL_DATE_TIME ( #303, #55 ) ;
#31 = VECTOR ( 'NONE', #17, 100.0000000000000000 ) ;
#32 = DIRECTION ( 'NONE',  ( 0.000000000000000000, 1.000000000000000000, 0.000000000000000000 ) ) ;
#33 = ORIENTED_EDGE ( 'NONE', *, *, #365, .T. ) ;
#34 = LOCAL_TIME ( 9, 13, 49.00000000000000000, #184 ) ;
#35 = CARTESIAN_POINT ( 'NONE',  ( -21.46870469329811471, 0.1999999999999999278, -0.2500000000000017208 ) ) ;
#36 = VERTEX_POINT ( 'NONE', #496 ) ;
#37 = CARTESIAN_POINT ( 'NONE',  ( -21.21870469329811115, -1.010825121102036111E-16, 1.067968556323673855E-16 ) ) ;
#38 = EDGE_CURVE ( 'NONE', #518, #170, #312, .T. ) ;
#39 = ORIENTED_EDGE ( 'NONE', *, *, #361, .T. ) ;
#40 = EDGE_CURVE ( 'NONE', #203, #190, #228, .T. ) ;
#41 = EDGE_LOOP ( 'NONE', ( #437, #84 ) ) ;
#42 = DIRECTION ( 'NONE',  ( -0.000000000000000000, -1.000000000000000000, -0.000000000000000000 ) ) ;
#43 = DIRECTION ( 'NONE',  ( 0.000000000000000000, 0.000000000000000000, -1.000000000000000000 ) ) ;
#44 = EDGE_LOOP ( 'NONE', ( #400, #254, #230, #309 ) ) ;
#45 = CC_DESIGN_APPROVAL ( #139, ( #503 ) ) ;
#46 = CARTESIAN_POINT ( 'NONE',  ( -21.21870469329811471, -1.010825121102036111E-16, -0.9999999999999998890 ) ) ;
#47 = ORIENTED_EDGE ( 'NONE', *, *, #382, .F. ) ;
#48 = CARTESIAN_POINT ( 'NONE',  ( -20.96870469329811471, -1.084202172485504434E-16, -0.2499999999999997780 ) ) ;
#49 = ADVANCED_FACE ( 'NONE', ( #150, #351, #292 ), #301, .T. ) ;
#50 = AXIS2_PLACEMENT_3D ( 'NONE', #283, #487, #126 ) ;
#51 = CARTESIAN_POINT ( 'NONE',  ( 27.03129530670188174, 1.084202172485504434E-16, -0.5000000000000001110 ) ) ;
#52 = FACE_OUTER_BOUND ( 'NONE', #523, .T. ) ;
#53 = EDGE_CURVE ( 'NONE', #480, #65, #262, .T. ) ;
#54 = CARTESIAN_POINT ( 'NONE',  ( -20.96870469329811471, 0.1999999999999999278, -0.2499999999999997780 ) ) ;
#55 = APPROVAL ( #378, 'UNSPECIFIED' ) ;
#56 = LOCAL_TIME ( 9, 13, 49.00000000000000000, #515 ) ;
#57 = DIRECTION ( 'NONE',  ( -1.000000000000000000, -0.000000000000000000, -0.000000000000000000 ) ) ;
#58 = DIRECTION ( 'NONE',  ( 0.000000000000000000, 1.000000000000000000, -0.000000000000000000 ) ) ;
#59 = PERSON_AND_ORGANIZATION ( #438, #142 ) ;
#60 = CARTESIAN_POINT ( 'NONE',  ( -21.21870469329811471, -1.084202172485504434E-16, -0.2499999999999998890 ) ) ;
#61 = ADVANCED_FACE ( 'NONE', ( #508 ), #455, .F. ) ;
#62 = CARTESIAN_POINT ( 'NONE',  ( 27.53129530670188174, 1.060855772732874863E-16, -0.7499999999999984457 ) ) ;
#63 = FACE_OUTER_BOUND ( 'NONE', #96, .T. ) ;
#64 = ADVANCED_FACE ( 'NONE', ( #63 ), #450, .F. ) ;
#65 = VERTEX_POINT ( 'NONE', #505 ) ;
#66 = AXIS2_PLACEMENT_3D ( 'NONE', #253, #14, #12 ) ;
#67 = AXIS2_PLACEMENT_3D ( 'NONE', #68, #175, #499 ) ;
#68 = CARTESIAN_POINT ( 'NONE',  ( 4.750000000000000000, 0.2000000000000000111, -0.2499999999999999722 ) ) ;
#69 = CARTESIAN_POINT ( 'NONE',  ( -21.46870469329811471, -1.010825121102036111E-16, -0.2500000000000016098 ) ) ;
#70 = PERSON_AND_ORGANIZATION_ROLE ( 'creator' ) ;
#71 = CYLINDRICAL_SURFACE ( 'NONE', #434, 0.2500000000000002220 ) ;
#72 = APPLICATION_PROTOCOL_DEFINITION ( 'international standard', 'config_control_design', 1994, #251 ) ;
#73 = DIRECTION ( 'NONE',  ( -0.000000000000000000, -1.000000000000000000, -0.000000000000000000 ) ) ;
#74 = CALENDAR_DATE ( 2025, 20, 11 ) ;
#75 = ORIENTED_EDGE ( 'NONE', *, *, #249, .F. ) ;
#76 = EDGE_CURVE ( 'NONE', #10, #121, #457, .T. ) ;
#77 = CARTESIAN_POINT ( 'NONE',  ( 27.03129530670188174, 0.2000000000000000944, -0.5000000000000001110 ) ) ;
#78 = APPROVAL_ROLE ( '' ) ;
#79 = LINE ( 'NONE', #116, #186 ) ;
#80 = CIRCLE ( 'NONE', #213, 0.2499999999999998890 ) ;
#81 = VERTEX_POINT ( 'NONE', #103 ) ;
#82 = CARTESIAN_POINT ( 'NONE',  ( -21.46870469329811471, 0.1999999999999999278, -0.7499999999999981126 ) ) ;
#83 = EDGE_CURVE ( 'NONE', #300, #393, #80, .T. ) ;
#84 = ORIENTED_EDGE ( 'NONE', *, *, #224, .F. ) ;
#85 = CARTESIAN_POINT ( 'NONE',  ( -20.96870469329811471, 0.1999999999999999278, -0.4999999999999999445 ) ) ;
#86 = ORIENTED_EDGE ( 'NONE', *, *, #359, .T. ) ;
#87 = EDGE_CURVE ( 'NONE', #65, #480, #456, .T. ) ;
#88 = FACE_OUTER_BOUND ( 'NONE', #346, .T. ) ;
#89 =( LENGTH_UNIT ( ) NAMED_UNIT ( * ) SI_UNIT ( .CENTI., .METRE. ) );
#90 = CARTESIAN_POINT ( 'NONE',  ( 27.28129530670188174, 0.2000000000000000944, -0.7500000000000001110 ) ) ;
#91 = ADVANCED_FACE ( 'NONE', ( #25 ), #20, .T. ) ;
#92 = CARTESIAN_POINT ( 'NONE',  ( -21.21870469329811471, 0.1999999999999999278, -0.2499999999999998890 ) ) ;
#93 = ORIENTED_EDGE ( 'NONE', *, *, #461, .T. ) ;
#94 = CARTESIAN_POINT ( 'NONE',  ( 22.78129530670188529, 0.2000000000000000944, -1.000000000000000222 ) ) ;
#95 = DIRECTION ( 'NONE',  ( -0.000000000000000000, -1.000000000000000000, -0.000000000000000000 ) ) ;
#96 = EDGE_LOOP ( 'NONE', ( #113, #115, #444, #410 ) ) ;
#97 = LINE ( 'NONE', #507, #488 ) ;
#98 = AXIS2_PLACEMENT_3D ( 'NONE', #92, #328, #120 ) ;
#99 = LINE ( 'NONE', #260, #235 ) ;
#100 = CC_DESIGN_APPROVAL ( #252, ( #19 ) ) ;
#101 = DIRECTION ( 'NONE',  ( 0.000000000000000000, 0.000000000000000000, -1.000000000000000000 ) ) ;
#102 = DIRECTION ( 'NONE',  ( 0.000000000000000000, 0.000000000000000000, 1.000000000000000000 ) ) ;
#103 = CARTESIAN_POINT ( 'NONE',  ( 27.53129530670188174, 0.2000000000000000944, -0.7499999999999984457 ) ) ;
#104 = COORDINATED_UNIVERSAL_TIME_OFFSET ( 7, 0, .BEHIND. ) ;
#105 = CARTESIAN_POINT ( 'NONE',  ( -21.46870469329811471, 0.1999999999999999278, -0.2500000000000016098 ) ) ;
#106 = PRODUCT_RELATED_PRODUCT_CATEGORY ( 'detail', '', ( #464 ) ) ;
#107 = CYLINDRICAL_SURFACE ( 'NONE', #371, 0.2500000000000002220 ) ;
#108 = ORIENTED_EDGE ( 'NONE', *, *, #210, .F. ) ;
#109 = DIRECTION ( 'NONE',  ( 0.000000000000000000, 1.000000000000000000, 0.000000000000000000 ) ) ;
#110 =( GEOMETRIC_REPRESENTATION_CONTEXT ( 3 ) GLOBAL_UNCERTAINTY_ASSIGNED_CONTEXT ( ( #263 ) ) GLOBAL_UNIT_ASSIGNED_CONTEXT ( ( #89, #4, #127 ) ) REPRESENTATION_CONTEXT ( 'NONE', 'WORKASPACE' ) );
#111 = AXIS2_PLACEMENT_3D ( 'NONE', #226, #118, #460 ) ;
#112 = CARTESIAN_POINT ( 'NONE',  ( -20.96870469329811471, -1.084202172485504434E-16, -0.4999999999999999445 ) ) ;
#113 = ORIENTED_EDGE ( 'NONE', *, *, #181, .T. ) ;
#114 = LINE ( 'NONE', #310, #294 ) ;
#115 = ORIENTED_EDGE ( 'NONE', *, *, #359, .F. ) ;
#116 = CARTESIAN_POINT ( 'NONE',  ( -21.46870469329811471, -1.084202172485504434E-16, -0.2500000000000017208 ) ) ;
#117 = EDGE_CURVE ( 'NONE', #241, #518, #261, .T. ) ;
#118 = DIRECTION ( 'NONE',  ( 0.000000000000000000, 1.000000000000000000, -0.000000000000000000 ) ) ;
#119 = ORIENTED_EDGE ( 'NONE', *, *, #76, .T. ) ;
#120 = DIRECTION ( 'NONE',  ( 0.000000000000000000, 0.000000000000000000, -1.000000000000000000 ) ) ;
#121 = VERTEX_POINT ( 'NONE', #69 ) ;
#122 = FACE_OUTER_BOUND ( 'NONE', #477, .T. ) ;
#123 = ORIENTED_EDGE ( 'NONE', *, *, #414, .F. ) ;
#124 = CYLINDRICAL_SURFACE ( 'NONE', #50, 0.2499999999999998890 ) ;
#125 = ORIENTED_EDGE ( 'NONE', *, *, #83, .F. ) ;
#126 = DIRECTION ( 'NONE',  ( 0.000000000000000000, 0.000000000000000000, -1.000000000000000000 ) ) ;
#127 =( NAMED_UNIT ( * ) SI_UNIT ( $, .STERADIAN. ) SOLID_ANGLE_UNIT ( ) );
#128 = CARTESIAN_POINT ( 'NONE',  ( 27.03129530670188174, 0.2000000000000000944, -0.7500000000000003331 ) ) ;
#129 = EDGE_CURVE ( 'NONE', #316, #156, #27, .T. ) ;
#130 = ORIENTED_EDGE ( 'NONE', *, *, #26, .T. ) ;
#131 = DIRECTION ( 'NONE',  ( 0.000000000000000000, 0.000000000000000000, -1.000000000000000000 ) ) ;
#132 = PERSON_AND_ORGANIZATION_ROLE ( 'classification_officer' ) ;
#133 = EDGE_CURVE ( 'NONE', #190, #271, #231, .T. ) ;
#134 = CARTESIAN_POINT ( 'NONE',  ( 27.53129530670188174, 0.2000000000000000944, -0.2500000000000018874 ) ) ;
#135 = ORIENTED_EDGE ( 'NONE', *, *, #181, .F. ) ;
#136 = DIRECTION ( 'NONE',  ( 0.000000000000000000, 1.000000000000000000, 0.000000000000000000 ) ) ;
#137 = DIRECTION ( 'NONE',  ( 0.000000000000000000, 0.000000000000000000, -1.000000000000000000 ) ) ;
#138 = AXIS2_PLACEMENT_3D ( 'NONE', #372, #452, #264 ) ;
#139 = APPROVAL ( #385, 'UNSPECIFIED' ) ;
#140 = DIRECTION ( 'NONE',  ( -1.000000000000000000, 0.000000000000000000, 0.000000000000000000 ) ) ;
#141 = DATE_AND_TIME ( #28, #364 ) ;
#142 = ORGANIZATION ( 'UNSPECIFIED', 'UNSPECIFIED', '' ) ;
#143 = CALENDAR_DATE ( 2025, 20, 11 ) ;
#144 = CARTESIAN_POINT ( 'NONE',  ( 27.03129530670188174, 0.2000000000000000944, -0.7500000000000003331 ) ) ;
#145 = PERSON_AND_ORGANIZATION ( #438, #142 ) ;
#146 = LINE ( 'NONE', #431, #486 ) ;
#147 = EDGE_CURVE ( 'NONE', #389, #374, #446, .T. ) ;
#148 = DIRECTION ( 'NONE',  ( 1.000000000000000000, 0.000000000000000000, 0.000000000000000000 ) ) ;
#149 = DIRECTION ( 'NONE',  ( 0.000000000000000000, 0.000000000000000000, 1.000000000000000000 ) ) ;
#150 = FACE_OUTER_BOUND ( 'NONE', #325, .T. ) ;
#151 = ORIENTED_EDGE ( 'NONE', *, *, #53, .F. ) ;
#152 = ORIENTED_EDGE ( 'NONE', *, *, #40, .T. ) ;
#153 = CIRCLE ( 'NONE', #7, 0.2500000000000002220 ) ;
#154 = AXIS2_PLACEMENT_3D ( 'NONE', #501, #136, #102 ) ;
#155 = LINE ( 'NONE', #196, #24 ) ;
#156 = VERTEX_POINT ( 'NONE', #256 ) ;
#157 = CARTESIAN_POINT ( 'NONE',  ( 22.78129530670188529, 0.2000000000000000944, -1.000000000000000222 ) ) ;
#158 = DIRECTION ( 'NONE',  ( 0.000000000000000000, 1.000000000000000000, 0.000000000000000000 ) ) ;
#159 = ORIENTED_EDGE ( 'NONE', *, *, #268, .F. ) ;
#160 = DIRECTION ( 'NONE',  ( 0.000000000000000000, 0.000000000000000000, -1.000000000000000000 ) ) ;
#161 = ORIENTED_EDGE ( 'NONE', *, *, #249, .T. ) ;
#162 = CIRCLE ( 'NONE', #343, 0.2500000000000001110 ) ;
#163 = CYLINDRICAL_SURFACE ( 'NONE', #227, 0.2500000000000001110 ) ;
#164 = ORIENTED_EDGE ( 'NONE', *, *, #129, .F. ) ;
#165 = FACE_OUTER_BOUND ( 'NONE', #367, .T. ) ;
#166 = ORIENTED_EDGE ( 'NONE', *, *, #26, .F. ) ;
#167 = ORIENTED_EDGE ( 'NONE', *, *, #492, .F. ) ;
#168 = DIRECTION ( 'NONE',  ( 0.000000000000000000, 1.000000000000000000, 0.000000000000000000 ) ) ;
#169 = ORIENTED_EDGE ( 'NONE', *, *, #201, .F. ) ;
#170 = VERTEX_POINT ( 'NONE', #220 ) ;
#171 = EDGE_CURVE ( 'NONE', #271, #278, #237, .T. ) ;
#172 = EDGE_LOOP ( 'NONE', ( #355, #93 ) ) ;
#173 = DIRECTION ( 'NONE',  ( 0.000000000000000000, 0.000000000000000000, -1.000000000000000000 ) ) ;
#174 = DIRECTION ( 'NONE',  ( 0.000000000000000000, 0.000000000000000000, -1.000000000000000000 ) ) ;
#175 = DIRECTION ( 'NONE',  ( 0.000000000000000000, 1.000000000000000000, 0.000000000000000000 ) ) ;
#176 = APPROVAL_DATE_TIME ( #141, #252 ) ;
#177 = CARTESIAN_POINT ( 'NONE',  ( 27.03129530670188174, 0.2000000000000000944, -0.2499999999999998890 ) ) ;
#178 = VECTOR ( 'NONE', #57, 100.0000000000000000 ) ;
#179 = DIRECTION ( 'NONE',  ( -0.000000000000000000, -1.000000000000000000, -0.000000000000000000 ) ) ;
#180 = CC_DESIGN_APPROVAL ( #55, ( #189 ) ) ;
#181 = EDGE_CURVE ( 'NONE', #170, #203, #333, .T. ) ;
#182 = CARTESIAN_POINT ( 'NONE',  ( -21.21870469329811115, 0.1999999999999999278, 8.673617379884035472E-17 ) ) ;
#183 = EDGE_LOOP ( 'NONE', ( #247, #425 ) ) ;
#184 = COORDINATED_UNIVERSAL_TIME_OFFSET ( 7, 0, .BEHIND. ) ;
#185 = DIRECTION ( 'NONE',  ( -1.000000000000000000, -0.000000000000000000, -0.000000000000000000 ) ) ;
#186 = VECTOR ( 'NONE', #188, 100.0000000000000000 ) ;
#187 = MECHANICAL_CONTEXT ( 'NONE', #222, 'mechanical' ) ;
#188 = DIRECTION ( 'NONE',  ( -0.000000000000000000, -0.000000000000000000, 1.000000000000000000 ) ) ;
#189 = PRODUCT_DEFINITION_FORMATION_WITH_SPECIFIED_SOURCE ( 'ANY', '', #464, .NOT_KNOWN. ) ;
#190 = VERTEX_POINT ( 'NONE', #295 ) ;
#191 = LINE ( 'NONE', #35, #517 ) ;
#192 = CC_DESIGN_PERSON_AND_ORGANIZATION_ASSIGNMENT ( #59, #221, ( #189 ) ) ;
#193 = EDGE_LOOP ( 'NONE', ( #432, #164, #435, #327 ) ) ;
#194 = DATE_AND_TIME ( #74, #56 ) ;
#195 = ORIENTED_EDGE ( 'NONE', *, *, #29, .T. ) ;
#196 = CARTESIAN_POINT ( 'NONE',  ( -21.21870469329811115, 0.1999999999999999278, 8.673617379884035472E-17 ) ) ;
#197 = CARTESIAN_POINT ( 'NONE',  ( -21.21870469329811471, 0.1999999999999999278, -0.2499999999999998890 ) ) ;
#198 = EDGE_LOOP ( 'NONE', ( #205, #418, #108, #451 ) ) ;
#199 = AXIS2_PLACEMENT_3D ( 'NONE', #85, #212, #326 ) ;
#200 = CARTESIAN_POINT ( 'NONE',  ( -21.21870469329811471, 0.1999999999999999278, -0.9999999999999998890 ) ) ;
#201 = EDGE_CURVE ( 'NONE', #16, #170, #99, .T. ) ;
#202 = CARTESIAN_POINT ( 'NONE',  ( 27.28129530670188174, 0.2000000000000000944, -1.000000000000000222 ) ) ;
#203 = VERTEX_POINT ( 'NONE', #62 ) ;
#204 = ADVANCED_FACE ( 'NONE', ( #369, #21, #347 ), #428, .F. ) ;
#205 = ORIENTED_EDGE ( 'NONE', *, *, #329, .T. ) ;
#206 = AXIS2_PLACEMENT_3D ( 'NONE', #338, #416, #101 ) ;
#207 = MANIFOLD_SOLID_BREP ( 'Flex1', #358 ) ;
#208 = ORIENTED_EDGE ( 'NONE', *, *, #147, .F. ) ;
#209 = CIRCLE ( 'NONE', #234, 0.2500000000000002220 ) ;
#210 = EDGE_CURVE ( 'NONE', #393, #10, #191, .T. ) ;
#211 = CARTESIAN_POINT ( 'NONE',  ( 27.28129530670188174, 1.060855772732874863E-16, -1.120827514494269326E-16 ) ) ;
#212 = DIRECTION ( 'NONE',  ( -0.000000000000000000, -1.000000000000000000, -0.000000000000000000 ) ) ;
#213 = AXIS2_PLACEMENT_3D ( 'NONE', #299, #265, #137 ) ;
#214 = ORIENTED_EDGE ( 'NONE', *, *, #40, .F. ) ;
#215 = DIRECTION ( 'NONE',  ( 0.000000000000000000, 0.000000000000000000, 1.000000000000000000 ) ) ;
#216 = APPROVAL_PERSON_ORGANIZATION ( #470, #139, #466 ) ;
#217 = DIRECTION ( 'NONE',  ( 0.000000000000000000, 0.000000000000000000, 1.000000000000000000 ) ) ;
#218 = CC_DESIGN_DATE_AND_TIME_ASSIGNMENT ( #429, #375, ( #503 ) ) ;
#219 = APPROVAL_ROLE ( '' ) ;
#220 = CARTESIAN_POINT ( 'NONE',  ( 27.53129530670188174, 1.060855772732874863E-16, -0.2500000000000018874 ) ) ;
#221 = PERSON_AND_ORGANIZATION_ROLE ( 'design_supplier' ) ;
#222 = APPLICATION_CONTEXT ( 'configuration controlled 3d designs of mechanical parts and assemblies' ) ;
#223 = DIRECTION ( 'NONE',  ( 1.000000000000000000, -0.000000000000000000, 0.000000000000000000 ) ) ;
#224 = EDGE_CURVE ( 'NONE', #386, #389, #3, .T. ) ;
#225 = ORIENTED_EDGE ( 'NONE', *, *, #129, .T. ) ;
#226 = CARTESIAN_POINT ( 'NONE',  ( 27.28129530670188174, 1.084202172485504434E-16, -0.7500000000000001110 ) ) ;
#227 = AXIS2_PLACEMENT_3D ( 'NONE', #401, #360, #443 ) ;
#228 = CIRCLE ( 'NONE', #111, 0.2500000000000000555 ) ;
#229 = DIRECTION ( 'NONE',  ( 0.000000000000000000, 1.000000000000000000, 0.000000000000000000 ) ) ;
#230 = ORIENTED_EDGE ( 'NONE', *, *, #147, .T. ) ;
#231 = LINE ( 'NONE', #377, #8 ) ;
#232 = PERSON_AND_ORGANIZATION_ROLE ( 'design_owner' ) ;
#233 = CARTESIAN_POINT ( 'NONE',  ( -21.21870469329811115, 0.1999999999999999278, 1.067968556323673855E-16 ) ) ;
#234 = AXIS2_PLACEMENT_3D ( 'NONE', #516, #317, #267 ) ;
#235 = VECTOR ( 'NONE', #407, 100.0000000000000000 ) ;
#236 = CC_DESIGN_PERSON_AND_ORGANIZATION_ASSIGNMENT ( #307, #462, ( #189 ) ) ;
#237 = CIRCLE ( 'NONE', #298, 0.2499999999999998890 ) ;
#238 = DIRECTION ( 'NONE',  ( 0.000000000000000000, 0.000000000000000000, -1.000000000000000000 ) ) ;
#239 = CC_DESIGN_SECURITY_CLASSIFICATION ( #19, ( #189 ) ) ;
#240 = APPLICATION_PROTOCOL_DEFINITION ( 'international standard', 'config_control_design', 1994, #222 ) ;
#241 = VERTEX_POINT ( 'NONE', #37 ) ;
#242 = DIRECTION ( 'NONE',  ( 0.000000000000000000, 1.000000000000000000, 0.000000000000000000 ) ) ;
#243 = ORIENTED_EDGE ( 'NONE', *, *, #275, .F. ) ;
#244 = CC_DESIGN_PERSON_AND_ORGANIZATION_ASSIGNMENT ( #419, #232, ( #464 ) ) ;
#245 = ORIENTED_EDGE ( 'NONE', *, *, #329, .F. ) ;
#246 = DIRECTION ( 'NONE',  ( -0.000000000000000000, -1.000000000000000000, -0.000000000000000000 ) ) ;
#247 = ORIENTED_EDGE ( 'NONE', *, *, #275, .T. ) ;
#248 = PLANE ( 'NONE',  #424 ) ;
#249 = EDGE_CURVE ( 'NONE', #65, #36, #114, .T. ) ;
#250 = DIRECTION ( 'NONE',  ( 0.000000000000000000, 1.000000000000000000, 0.000000000000000000 ) ) ;
#251 = APPLICATION_CONTEXT ( 'configuration controlled 3d designs of mechanical parts and assemblies' ) ;
#252 = APPROVAL ( #339, 'UNSPECIFIED' ) ;
#253 = CARTESIAN_POINT ( 'NONE',  ( 27.28129530670188174, 0.2000000000000000944, -0.7500000000000001110 ) ) ;
#254 = ORIENTED_EDGE ( 'NONE', *, *, #224, .T. ) ;
#255 = ADVANCED_FACE ( 'NONE', ( #390 ), #71, .F. ) ;
#256 = CARTESIAN_POINT ( 'NONE',  ( 27.28129530670188174, 0.2000000000000000944, -1.120827514494269326E-16 ) ) ;
#257 = CALENDAR_DATE ( 2025, 20, 11 ) ;
#258 = DIRECTION ( 'NONE',  ( -0.000000000000000000, -1.000000000000000000, -0.000000000000000000 ) ) ;
#259 = LOCAL_TIME ( 9, 13, 49.00000000000000000, #104 ) ;
#260 = CARTESIAN_POINT ( 'NONE',  ( 27.53129530670188174, 0.2000000000000000944, -0.2500000000000018874 ) ) ;
#261 = LINE ( 'NONE', #413, #293 ) ;
#262 = CIRCLE ( 'NONE', #465, 0.2500000000000001110 ) ;
#263 = UNCERTAINTY_MEASURE_WITH_UNIT (LENGTH_MEASURE( 1.000000000000000082E-05 ), #89, 'distance_accuracy_value', 'NONE');
#264 = DIRECTION ( 'NONE',  ( 0.000000000000000000, 0.000000000000000000, 1.000000000000000000 ) ) ;
#265 = DIRECTION ( 'NONE',  ( 0.000000000000000000, 1.000000000000000000, -0.000000000000000000 ) ) ;
#266 = SHAPE_DEFINITION_REPRESENTATION ( #368, #484 ) ;
#267 = DIRECTION ( 'NONE',  ( 0.000000000000000000, 0.000000000000000000, 1.000000000000000000 ) ) ;
#268 = EDGE_CURVE ( 'NONE', #374, #286, #209, .T. ) ;
#269 = DIRECTION ( 'NONE',  ( 0.000000000000000000, 0.000000000000000000, -1.000000000000000000 ) ) ;
#270 = VECTOR ( 'NONE', #246, 100.0000000000000000 ) ;
#271 = VERTEX_POINT ( 'NONE', #46 ) ;
#272 = CARTESIAN_POINT ( 'NONE',  ( 27.28129530670188174, 1.084202172485504434E-16, -0.2500000000000000555 ) ) ;
#273 = CARTESIAN_POINT ( 'NONE',  ( 0.000000000000000000, 0.000000000000000000, 0.000000000000000000 ) ) ;
#274 = FACE_OUTER_BOUND ( 'NONE', #332, .T. ) ;
#275 = EDGE_CURVE ( 'NONE', #36, #500, #311, .T. ) ;
#276 = ORIENTED_EDGE ( 'NONE', *, *, #406, .T. ) ;
#277 = CARTESIAN_POINT ( 'NONE',  ( 27.53129530670188174, 0.2000000000000000944, -0.2500000000000018874 ) ) ;
#278 = VERTEX_POINT ( 'NONE', #308 ) ;
#279 = VECTOR ( 'NONE', #95, 100.0000000000000000 ) ;
#280 = CARTESIAN_POINT ( 'NONE',  ( 27.28129530670188174, 0.2000000000000000944, -1.000000000000000222 ) ) ;
#281 = FACE_OUTER_BOUND ( 'NONE', #193, .T. ) ;
#282 = EDGE_CURVE ( 'NONE', #316, #241, #155, .T. ) ;
#283 = CARTESIAN_POINT ( 'NONE',  ( -21.21870469329811471, 0.1999999999999999278, -0.7500000000000000000 ) ) ;
#284 = VECTOR ( 'NONE', #287, 100.0000000000000000 ) ;
#285 = CIRCLE ( 'NONE', #498, 0.2499999999999999722 ) ;
#286 = VERTEX_POINT ( 'NONE', #350 ) ;
#287 = DIRECTION ( 'NONE',  ( -0.000000000000000000, -1.000000000000000000, -0.000000000000000000 ) ) ;
#288 = CC_DESIGN_DATE_AND_TIME_ASSIGNMENT ( #417, #341, ( #19 ) ) ;
#289 = ORIENTED_EDGE ( 'NONE', *, *, #397, .F. ) ;
#290 = LINE ( 'NONE', #280, #31 ) ;
#291 = AXIS2_PLACEMENT_3D ( 'NONE', #340, #223, #373 ) ;
#292 = FACE_BOUND ( 'NONE', #5, .T. ) ;
#293 = VECTOR ( 'NONE', #366, 100.0000000000000000 ) ;
#294 = VECTOR ( 'NONE', #342, 100.0000000000000000 ) ;
#295 = CARTESIAN_POINT ( 'NONE',  ( 27.28129530670188174, 1.060855772732874863E-16, -1.000000000000000222 ) ) ;
#296 = PERSON_AND_ORGANIZATION ( #438, #142 ) ;
#297 = ORIENTED_EDGE ( 'NONE', *, *, #454, .T. ) ;
#298 = AXIS2_PLACEMENT_3D ( 'NONE', #403, #58, #173 ) ;
#299 = CARTESIAN_POINT ( 'NONE',  ( -21.21870469329811471, 0.1999999999999999278, -0.7500000000000000000 ) ) ;
#300 = VERTEX_POINT ( 'NONE', #314 ) ;
#301 = PLANE ( 'NONE',  #67 ) ;
#302 = DIRECTION ( 'NONE',  ( 0.000000000000000000, 0.000000000000000000, 1.000000000000000000 ) ) ;
#303 = DATE_AND_TIME ( #143, #323 ) ;
#304 = CARTESIAN_POINT ( 'NONE',  ( -21.46870469329811471, 0.1999999999999999278, -0.7499999999999981126 ) ) ;
#305 = APPROVAL_PERSON_ORGANIZATION ( #506, #252, #219 ) ;
#306 = ADVANCED_FACE ( 'NONE', ( #274 ), #420, .F. ) ;
#307 = PERSON_AND_ORGANIZATION ( #438, #142 ) ;
#308 = CARTESIAN_POINT ( 'NONE',  ( -21.46870469329811471, -1.010825121102036111E-16, -0.7499999999999981126 ) ) ;
#309 = ORIENTED_EDGE ( 'NONE', *, *, #461, .F. ) ;
#310 = CARTESIAN_POINT ( 'NONE',  ( -20.96870469329811471, 0.1999999999999999278, -0.7500000000000001110 ) ) ;
#311 = CIRCLE ( 'NONE', #402, 0.2500000000000001110 ) ;
#312 = CIRCLE ( 'NONE', #154, 0.2500000000000001110 ) ;
#313 = ORIENTED_EDGE ( 'NONE', *, *, #361, .F. ) ;
#314 = CARTESIAN_POINT ( 'NONE',  ( -21.21870469329811471, 0.1999999999999999278, -0.9999999999999998890 ) ) ;
#315 = DIRECTION ( 'NONE',  ( 0.000000000000000000, 1.000000000000000000, -0.000000000000000000 ) ) ;
#316 = VERTEX_POINT ( 'NONE', #233 ) ;
#317 = DIRECTION ( 'NONE',  ( 0.000000000000000000, 1.000000000000000000, 0.000000000000000000 ) ) ;
#318 = DIRECTION ( 'NONE',  ( 0.000000000000000000, 0.000000000000000000, 1.000000000000000000 ) ) ;
#319 = VECTOR ( 'NONE', #269, 100.0000000000000000 ) ;
#320 = CYLINDRICAL_SURFACE ( 'NONE', #66, 0.2500000000000000555 ) ;
#321 = ORIENTED_EDGE ( 'NONE', *, *, #210, .T. ) ;
#322 = VECTOR ( 'NONE', #491, 100.0000000000000000 ) ;
#323 = LOCAL_TIME ( 9, 13, 49.00000000000000000, #509 ) ;
#324 = CARTESIAN_POINT ( 'NONE',  ( 27.28129530670188174, 0.2000000000000000944, -0.2500000000000000555 ) ) ;
#325 = EDGE_LOOP ( 'NONE', ( #225, #22, #33, #493, #469, #18, #321, #495 ) ) ;
#326 = DIRECTION ( 'NONE',  ( 0.000000000000000000, 0.000000000000000000, -1.000000000000000000 ) ) ;
#327 = ORIENTED_EDGE ( 'NONE', *, *, #117, .T. ) ;
#328 = DIRECTION ( 'NONE',  ( -0.000000000000000000, -1.000000000000000000, -0.000000000000000000 ) ) ;
#329 = EDGE_CURVE ( 'NONE', #278, #121, #79, .T. ) ;
#330 = ORIENTED_EDGE ( 'NONE', *, *, #171, .F. ) ;
#331 = LINE ( 'NONE', #54, #284 ) ;
#332 = EDGE_LOOP ( 'NONE', ( #485, #313, #123, #472 ) ) ;
#333 = LINE ( 'NONE', #494, #449 ) ;
#334 = DIRECTION ( 'NONE',  ( 0.000000000000000000, 0.000000000000000000, -1.000000000000000000 ) ) ;
#335 = DIRECTION ( 'NONE',  ( 0.000000000000000000, 0.000000000000000000, 1.000000000000000000 ) ) ;
#336 = VECTOR ( 'NONE', #337, 100.0000000000000000 ) ;
#337 = DIRECTION ( 'NONE',  ( -0.000000000000000000, -1.000000000000000000, -0.000000000000000000 ) ) ;
#338 = CARTESIAN_POINT ( 'NONE',  ( 27.28129530670188174, 0.2000000000000000944, -0.2500000000000000555 ) ) ;
#339 = APPROVAL_STATUS ( 'not_yet_approved' ) ;
#340 = CARTESIAN_POINT ( 'NONE',  ( -21.46870469329811471, 0.1999999999999999278, -0.2500000000000017208 ) ) ;
#341 = DATE_TIME_ROLE ( 'classification_date' ) ;
#342 = DIRECTION ( 'NONE',  ( -0.000000000000000000, -1.000000000000000000, -0.000000000000000000 ) ) ;
#343 = AXIS2_PLACEMENT_3D ( 'NONE', #396, #168, #481 ) ;
#344 = PERSON_AND_ORGANIZATION ( #438, #142 ) ;
#345 = CARTESIAN_POINT ( 'NONE',  ( 27.03129530670188174, 1.084202172485504434E-16, -0.7500000000000003331 ) ) ;
#346 = EDGE_LOOP ( 'NONE', ( #348, #445, #161, #426 ) ) ;
#347 = FACE_BOUND ( 'NONE', #183, .T. ) ;
#348 = ORIENTED_EDGE ( 'NONE', *, *, #454, .F. ) ;
#349 = APPROVAL_DATE_TIME ( #194, #139 ) ;
#350 = CARTESIAN_POINT ( 'NONE',  ( 27.03129530670188174, 1.084202172485504434E-16, -0.2499999999999998890 ) ) ;
#351 = FACE_BOUND ( 'NONE', #41, .T. ) ;
#352 = ORIENTED_EDGE ( 'NONE', *, *, #87, .T. ) ;
#353 = DIRECTION ( 'NONE',  ( 0.000000000000000000, 0.000000000000000000, 1.000000000000000000 ) ) ;
#354 = ORIENTED_EDGE ( 'NONE', *, *, #11, .T. ) ;
#355 = ORIENTED_EDGE ( 'NONE', *, *, #268, .T. ) ;
#356 = ORIENTED_EDGE ( 'NONE', *, *, #117, .F. ) ;
#357 = CYLINDRICAL_SURFACE ( 'NONE', #98, 0.2499999999999999722 ) ;
#358 = CLOSED_SHELL ( 'NONE', ( #511, #394, #255, #422, #49, #204, #306, #524, #91, #64, #467, #522, #61, #475 ) ) ;
#359 = EDGE_CURVE ( 'NONE', #81, #203, #146, .T. ) ;
#360 = DIRECTION ( 'NONE',  ( -0.000000000000000000, -1.000000000000000000, -0.000000000000000000 ) ) ;
#361 = EDGE_CURVE ( 'NONE', #300, #271, #463, .T. ) ;
#362 = ORIENTED_EDGE ( 'NONE', *, *, #171, .T. ) ;
#363 = DIRECTION ( 'NONE',  ( -1.000000000000000000, 0.000000000000000000, -0.000000000000000000 ) ) ;
#364 = LOCAL_TIME ( 9, 13, 49.00000000000000000, #453 ) ;
#365 = EDGE_CURVE ( 'NONE', #16, #81, #476, .T. ) ;
#366 = DIRECTION ( 'NONE',  ( 1.000000000000000000, 0.000000000000000000, 0.000000000000000000 ) ) ;
#367 = EDGE_LOOP ( 'NONE', ( #152, #167, #442, #86 ) ) ;
#368 = PRODUCT_DEFINITION_SHAPE ( 'NONE', 'NONE',  #503 ) ;
#369 = FACE_BOUND ( 'NONE', #172, .T. ) ;
#370 = SECURITY_CLASSIFICATION_LEVEL ( 'unclassified' ) ;
#371 = AXIS2_PLACEMENT_3D ( 'NONE', #379, #73, #471 ) ;
#372 = CARTESIAN_POINT ( 'NONE',  ( -20.96870469329811471, 0.1999999999999999278, -0.4999999999999999445 ) ) ;
#373 = DIRECTION ( 'NONE',  ( 0.000000000000000000, 0.000000000000000000, -1.000000000000000000 ) ) ;
#374 = VERTEX_POINT ( 'NONE', #345 ) ;
#375 = DATE_TIME_ROLE ( 'creation_date' ) ;
#376 = CC_DESIGN_PERSON_AND_ORGANIZATION_ASSIGNMENT ( #296, #132, ( #19 ) ) ;
#377 = CARTESIAN_POINT ( 'NONE',  ( 22.78129530670188529, 1.084202172485504434E-16, -1.000000000000000222 ) ) ;
#378 = APPROVAL_STATUS ( 'not_yet_approved' ) ;
#379 = CARTESIAN_POINT ( 'NONE',  ( 27.03129530670188174, 0.2000000000000000944, -0.5000000000000001110 ) ) ;
#380 = CIRCLE ( 'NONE', #448, 0.2500000000000001110 ) ;
#381 = EDGE_LOOP ( 'NONE', ( #362, #47, #125, #39 ) ) ;
#382 = EDGE_CURVE ( 'NONE', #393, #278, #433, .T. ) ;
#383 = DIRECTION ( 'NONE',  ( 0.000000000000000000, -0.000000000000000000, 1.000000000000000000 ) ) ;
#384 = ORIENTED_EDGE ( 'NONE', *, *, #38, .T. ) ;
#385 = APPROVAL_STATUS ( 'not_yet_approved' ) ;
#386 = VERTEX_POINT ( 'NONE', #512 ) ;
#387 = DIRECTION ( 'NONE',  ( -0.000000000000000000, -1.000000000000000000, -0.000000000000000000 ) ) ;
#388 = AXIS2_PLACEMENT_3D ( 'NONE', #134, #140, #302 ) ;
#389 = VERTEX_POINT ( 'NONE', #144 ) ;
#390 = FACE_OUTER_BOUND ( 'NONE', #44, .T. ) ;
#391 = ORIENTED_EDGE ( 'NONE', *, *, #282, .F. ) ;
#392 = DIRECTION ( 'NONE',  ( -0.000000000000000000, -1.000000000000000000, -0.000000000000000000 ) ) ;
#393 = VERTEX_POINT ( 'NONE', #304 ) ;
#394 = ADVANCED_FACE ( 'NONE', ( #459 ), #107, .F. ) ;
#395 = VECTOR ( 'NONE', #392, 100.0000000000000000 ) ;
#396 = CARTESIAN_POINT ( 'NONE',  ( -20.96870469329811471, -1.084202172485504434E-16, -0.4999999999999999445 ) ) ;
#397 = EDGE_CURVE ( 'NONE', #10, #316, #478, .T. ) ;
#398 = DIRECTION ( 'NONE',  ( 0.000000000000000000, 1.000000000000000000, 0.000000000000000000 ) ) ;
#399 = AXIS2_PLACEMENT_3D ( 'NONE', #272, #32, #383 ) ;
#400 = ORIENTED_EDGE ( 'NONE', *, *, #29, .F. ) ;
#401 = CARTESIAN_POINT ( 'NONE',  ( -20.96870469329811471, 0.1999999999999999278, -0.4999999999999999445 ) ) ;
#402 = AXIS2_PLACEMENT_3D ( 'NONE', #112, #242, #353 ) ;
#403 = CARTESIAN_POINT ( 'NONE',  ( -21.21870469329811471, -1.084202172485504434E-16, -0.7500000000000000000 ) ) ;
#404 = VERTEX_POINT ( 'NONE', #202 ) ;
#405 = CARTESIAN_POINT ( 'NONE',  ( 27.53129530670188174, 0.2000000000000000944, -0.2500000000000018874 ) ) ;
#406 = EDGE_CURVE ( 'NONE', #389, #386, #153, .T. ) ;
#407 = DIRECTION ( 'NONE',  ( -0.000000000000000000, -1.000000000000000000, -0.000000000000000000 ) ) ;
#408 = EDGE_LOOP ( 'NONE', ( #384, #169, #13, #354 ) ) ;
#409 = CARTESIAN_POINT ( 'NONE',  ( -20.96870469329811471, 0.1999999999999999278, -0.4999999999999999445 ) ) ;
#410 = ORIENTED_EDGE ( 'NONE', *, *, #201, .T. ) ;
#411 = DIRECTION ( 'NONE',  ( 0.000000000000000000, 1.000000000000000000, -0.000000000000000000 ) ) ;
#412 = AXIS2_PLACEMENT_3D ( 'NONE', #157, #473, #513 ) ;
#413 = CARTESIAN_POINT ( 'NONE',  ( -21.21870469329811115, -1.084202172485504434E-16, 8.673617379884035472E-17 ) ) ;
#414 = EDGE_CURVE ( 'NONE', #404, #300, #9, .T. ) ;
#415 = EDGE_CURVE ( 'NONE', #500, #36, #162, .T. ) ;
#416 = DIRECTION ( 'NONE',  ( -0.000000000000000000, -1.000000000000000000, -0.000000000000000000 ) ) ;
#417 = DATE_AND_TIME ( #257, #259 ) ;
#418 = ORIENTED_EDGE ( 'NONE', *, *, #76, .F. ) ;
#419 = PERSON_AND_ORGANIZATION ( #438, #142 ) ;
#420 = PLANE ( 'NONE',  #412 ) ;
#421 = DIRECTION ( 'NONE',  ( 0.000000000000000000, 0.000000000000000000, 1.000000000000000000 ) ) ;
#422 = ADVANCED_FACE ( 'NONE', ( #88 ), #163, .F. ) ;
#423 = DIRECTION ( 'NONE',  ( -0.000000000000000000, -1.000000000000000000, -0.000000000000000000 ) ) ;
#424 = AXIS2_PLACEMENT_3D ( 'NONE', #440, #160, #363 ) ;
#425 = ORIENTED_EDGE ( 'NONE', *, *, #415, .T. ) ;
#426 = ORIENTED_EDGE ( 'NONE', *, *, #415, .F. ) ;
#427 = CC_DESIGN_PERSON_AND_ORGANIZATION_ASSIGNMENT ( #344, #70, ( #503 ) ) ;
#428 = PLANE ( 'NONE',  #399 ) ;
#429 = DATE_AND_TIME ( #519, #34 ) ;
#430 = ORIENTED_EDGE ( 'NONE', *, *, #133, .F. ) ;
#431 = CARTESIAN_POINT ( 'NONE',  ( 27.53129530670188174, 0.2000000000000000944, -0.7499999999999984457 ) ) ;
#432 = ORIENTED_EDGE ( 'NONE', *, *, #11, .F. ) ;
#433 = LINE ( 'NONE', #82, #270 ) ;
#434 = AXIS2_PLACEMENT_3D ( 'NONE', #525, #423, #238 ) ;
#435 = ORIENTED_EDGE ( 'NONE', *, *, #282, .T. ) ;
#436 = CYLINDRICAL_SURFACE ( 'NONE', #199, 0.2500000000000001110 ) ;
#437 = ORIENTED_EDGE ( 'NONE', *, *, #406, .F. ) ;
#438 = PERSON ( 'UNSPECIFIED', 'UNSPECIFIED', 'UNSPECIFIED', ('UNSPECIFIED'), ('UNSPECIFIED'), ('UNSPECIFIED') ) ;
#439 = AXIS2_PLACEMENT_3D ( 'NONE', #197, #315, #43 ) ;
#440 = CARTESIAN_POINT ( 'NONE',  ( 22.78129530670188529, 0.2000000000000000944, -8.673617379884035472E-17 ) ) ;
#441 = AXIS2_PLACEMENT_3D ( 'NONE', #90, #482, #174 ) ;
#442 = ORIENTED_EDGE ( 'NONE', *, *, #6, .F. ) ;
#443 = DIRECTION ( 'NONE',  ( 0.000000000000000000, 0.000000000000000000, -1.000000000000000000 ) ) ;
#444 = ORIENTED_EDGE ( 'NONE', *, *, #365, .F. ) ;
#445 = ORIENTED_EDGE ( 'NONE', *, *, #53, .T. ) ;
#446 = LINE ( 'NONE', #128, #279 ) ;
#447 = ORIENTED_EDGE ( 'NONE', *, *, #87, .F. ) ;
#448 = AXIS2_PLACEMENT_3D ( 'NONE', #324, #398, #215 ) ;
#449 = VECTOR ( 'NONE', #131, 100.0000000000000000 ) ;
#450 = PLANE ( 'NONE',  #388 ) ;
#451 = ORIENTED_EDGE ( 'NONE', *, *, #382, .T. ) ;
#452 = DIRECTION ( 'NONE',  ( 0.000000000000000000, 1.000000000000000000, 0.000000000000000000 ) ) ;
#453 = COORDINATED_UNIVERSAL_TIME_OFFSET ( 7, 0, .BEHIND. ) ;
#454 = EDGE_CURVE ( 'NONE', #480, #500, #331, .T. ) ;
#455 = PLANE ( 'NONE',  #291 ) ;
#456 = CIRCLE ( 'NONE', #138, 0.2500000000000001110 ) ;
#457 = LINE ( 'NONE', #105, #15 ) ;
#458 = CARTESIAN_POINT ( 'NONE',  ( -21.46870469329811471, 0.1999999999999999278, -0.2500000000000016098 ) ) ;
#459 = FACE_OUTER_BOUND ( 'NONE', #474, .T. ) ;
#460 = DIRECTION ( 'NONE',  ( 0.000000000000000000, 0.000000000000000000, -1.000000000000000000 ) ) ;
#461 = EDGE_CURVE ( 'NONE', #286, #374, #521, .T. ) ;
#462 = PERSON_AND_ORGANIZATION_ROLE ( 'creator' ) ;
#463 = LINE ( 'NONE', #200, #395 ) ;
#464 = PRODUCT ( 'Link I_Default_sldprt', 'Link I_Default_sldprt', '', ( #187 ) ) ;
#465 = AXIS2_PLACEMENT_3D ( 'NONE', #409, #229, #335 ) ;
#466 = APPROVAL_ROLE ( '' ) ;
#467 = ADVANCED_FACE ( 'NONE', ( #165 ), #320, .T. ) ;
#468 = AXIS2_PLACEMENT_3D ( 'NONE', #273, #421, #148 ) ;
#469 = ORIENTED_EDGE ( 'NONE', *, *, #414, .T. ) ;
#470 = PERSON_AND_ORGANIZATION ( #438, #142 ) ;
#471 = DIRECTION ( 'NONE',  ( 0.000000000000000000, 0.000000000000000000, -1.000000000000000000 ) ) ;
#472 = ORIENTED_EDGE ( 'NONE', *, *, #492, .T. ) ;
#473 = DIRECTION ( 'NONE',  ( 0.000000000000000000, 0.000000000000000000, 1.000000000000000000 ) ) ;
#474 = EDGE_LOOP ( 'NONE', ( #276, #195, #159, #208 ) ) ;
#475 = ADVANCED_FACE ( 'NONE', ( #52 ), #357, .T. ) ;
#476 = LINE ( 'NONE', #277, #319 ) ;
#477 = EDGE_LOOP ( 'NONE', ( #352, #297, #243, #75 ) ) ;
#478 = CIRCLE ( 'NONE', #439, 0.2499999999999999722 ) ;
#479 = CARTESIAN_POINT ( 'NONE',  ( -20.96870469329811471, 0.1999999999999999278, -0.2499999999999997780 ) ) ;
#480 = VERTEX_POINT ( 'NONE', #479 ) ;
#481 = DIRECTION ( 'NONE',  ( 0.000000000000000000, 0.000000000000000000, 1.000000000000000000 ) ) ;
#482 = DIRECTION ( 'NONE',  ( 0.000000000000000000, 1.000000000000000000, -0.000000000000000000 ) ) ;
#483 = FACE_OUTER_BOUND ( 'NONE', #381, .T. ) ;
#484 = ADVANCED_BREP_SHAPE_REPRESENTATION ( 'Link I_Default_sldprt', ( #207, #468 ), #110 ) ;
#485 = ORIENTED_EDGE ( 'NONE', *, *, #133, .T. ) ;
#486 = VECTOR ( 'NONE', #42, 100.0000000000000000 ) ;
#487 = DIRECTION ( 'NONE',  ( -0.000000000000000000, -1.000000000000000000, -0.000000000000000000 ) ) ;
#488 = VECTOR ( 'NONE', #258, 100.0000000000000000 ) ;
#489 = EDGE_LOOP ( 'NONE', ( #2, #356, #166, #245, #330, #430, #214, #135 ) ) ;
#490 = DESIGN_CONTEXT ( 'detailed design', #251, 'design' ) ;
#491 = DIRECTION ( 'NONE',  ( 1.000000000000000000, 0.000000000000000000, 0.000000000000000000 ) ) ;
#492 = EDGE_CURVE ( 'NONE', #404, #190, #290, .T. ) ;
#493 = ORIENTED_EDGE ( 'NONE', *, *, #6, .T. ) ;
#494 = CARTESIAN_POINT ( 'NONE',  ( 27.53129530670188174, 1.084202172485504434E-16, -0.2500000000000018874 ) ) ;
#495 = ORIENTED_EDGE ( 'NONE', *, *, #397, .T. ) ;
#496 = CARTESIAN_POINT ( 'NONE',  ( -20.96870469329811471, -1.084202172485504434E-16, -0.7500000000000001110 ) ) ;
#497 = AXIS2_PLACEMENT_3D ( 'NONE', #51, #250, #217 ) ;
#498 = AXIS2_PLACEMENT_3D ( 'NONE', #60, #411, #334 ) ;
#499 = DIRECTION ( 'NONE',  ( 0.000000000000000000, -0.000000000000000000, 1.000000000000000000 ) ) ;
#500 = VERTEX_POINT ( 'NONE', #48 ) ;
#501 = CARTESIAN_POINT ( 'NONE',  ( 27.28129530670188174, 1.084202172485504434E-16, -0.2500000000000000555 ) ) ;
#502 = APPROVAL_PERSON_ORGANIZATION ( #145, #55, #78 ) ;
#503 = PRODUCT_DEFINITION ( 'UNKNOWN', '', #189, #490 ) ;
#504 = CIRCLE ( 'NONE', #441, 0.2500000000000000555 ) ;
#505 = CARTESIAN_POINT ( 'NONE',  ( -20.96870469329811471, 0.1999999999999999278, -0.7500000000000001110 ) ) ;
#506 = PERSON_AND_ORGANIZATION ( #438, #142 ) ;
#507 = CARTESIAN_POINT ( 'NONE',  ( 27.28129530670188174, 0.2000000000000000944, -8.673617379884035472E-17 ) ) ;
#508 = FACE_OUTER_BOUND ( 'NONE', #198, .T. ) ;
#509 = COORDINATED_UNIVERSAL_TIME_OFFSET ( 7, 0, .BEHIND. ) ;
#510 = AXIS2_PLACEMENT_3D ( 'NONE', #77, #109, #149 ) ;
#511 = ADVANCED_FACE ( 'NONE', ( #122 ), #436, .F. ) ;
#512 = CARTESIAN_POINT ( 'NONE',  ( 27.03129530670188174, 0.2000000000000000944, -0.2499999999999998890 ) ) ;
#513 = DIRECTION ( 'NONE',  ( 1.000000000000000000, 0.000000000000000000, -0.000000000000000000 ) ) ;
#514 = EDGE_CURVE ( 'NONE', #156, #16, #380, .T. ) ;
#515 = COORDINATED_UNIVERSAL_TIME_OFFSET ( 7, 0, .BEHIND. ) ;
#516 = CARTESIAN_POINT ( 'NONE',  ( 27.03129530670188174, 1.084202172485504434E-16, -0.5000000000000001110 ) ) ;
#517 = VECTOR ( 'NONE', #520, 100.0000000000000000 ) ;
#518 = VERTEX_POINT ( 'NONE', #211 ) ;
#519 = CALENDAR_DATE ( 2025, 20, 11 ) ;
#520 = DIRECTION ( 'NONE',  ( -0.000000000000000000, -0.000000000000000000, 1.000000000000000000 ) ) ;
#521 = CIRCLE ( 'NONE', #497, 0.2500000000000002220 ) ;
#522 = ADVANCED_FACE ( 'NONE', ( #483 ), #124, .T. ) ;
#523 = EDGE_LOOP ( 'NONE', ( #130, #391, #289, #119 ) ) ;
#524 = ADVANCED_FACE ( 'NONE', ( #281 ), #248, .F. ) ;
#525 = CARTESIAN_POINT ( 'NONE',  ( 27.03129530670188174, 0.2000000000000000944, -0.5000000000000001110 ) ) ;
ENDSEC;
END-ISO-10303-21;
