ISO-10303-21;
HEADER;
FILE_DESCRIPTION (( 'STEP AP203' ),
    '1' );
FILE_NAME ('Link F_Default_sldprt.STEP',
    '2025-11-20T16:13:39',
    ( '' ),
    ( '' ),
    'SwSTEP 2.0',
    'SolidWorks 2025',
    '' );
FILE_SCHEMA (( 'CONFIG_CONTROL_DESIGN' ));
ENDSEC;

DATA;
#1 = VERTEX_POINT ( 'NONE', #348 ) ;
#2 = ORIENTED_EDGE ( 'NONE', *, *, #277, .T. ) ;
#3 = CARTESIAN_POINT ( 'NONE',  ( -16.53462366930579108, 0.1999999999999999278, 8.673617379884035472E-17 ) ) ;
#4 = CARTESIAN_POINT ( 'NONE',  ( 22.61537633069419684, 0.2000000000000000944, -0.2500000000000018874 ) ) ;
#5 = VERTEX_POINT ( 'NONE', #222 ) ;
#6 = CARTESIAN_POINT ( 'NONE',  ( 22.36537633069419684, 0.2000000000000000944, -0.2500000000000000555 ) ) ;
#7 = AXIS2_PLACEMENT_3D ( 'NONE', #258, #465, #10 ) ;
#8 = EDGE_LOOP ( 'NONE', ( #513, #236, #437, #331 ) ) ;
#9 = CARTESIAN_POINT ( 'NONE',  ( -16.53462366930579464, -7.902814583161371552E-17, -1.000000000000000000 ) ) ;
#10 = DIRECTION ( 'NONE',  ( 0.000000000000000000, 0.000000000000000000, 1.000000000000000000 ) ) ;
#11 = EDGE_CURVE ( 'NONE', #300, #462, #34, .T. ) ;
#12 = ORIENTED_EDGE ( 'NONE', *, *, #327, .T. ) ;
#13 = LINE ( 'NONE', #501, #225 ) ;
#14 = LOCAL_TIME ( 9, 13, 39.00000000000000000, #313 ) ;
#15 = DIRECTION ( 'NONE',  ( -0.000000000000000000, -1.000000000000000000, -0.000000000000000000 ) ) ;
#16 = LINE ( 'NONE', #165, #509 ) ;
#17 = AXIS2_PLACEMENT_3D ( 'NONE', #505, #132, #428 ) ;
#18 = FACE_OUTER_BOUND ( 'NONE', #260, .T. ) ;
#19 = FACE_OUTER_BOUND ( 'NONE', #508, .T. ) ;
#20 = DIRECTION ( 'NONE',  ( -0.000000000000000000, -1.000000000000000000, -0.000000000000000000 ) ) ;
#21 = DIRECTION ( 'NONE',  ( 0.000000000000000000, 0.000000000000000000, -1.000000000000000000 ) ) ;
#22 = VECTOR ( 'NONE', #251, 100.0000000000000000 ) ;
#23 = EDGE_LOOP ( 'NONE', ( #150, #525, #283, #253 ) ) ;
#24 = CARTESIAN_POINT ( 'NONE',  ( 17.86537633069420039, 0.2000000000000000944, -8.673617379884035472E-17 ) ) ;
#25 = ORIENTED_EDGE ( 'NONE', *, *, #162, .T. ) ;
#26 = CYLINDRICAL_SURFACE ( 'NONE', #276, 0.2500000000000001110 ) ;
#27 = DIRECTION ( 'NONE',  ( 0.000000000000000000, 1.000000000000000000, 0.000000000000000000 ) ) ;
#28 = DIRECTION ( 'NONE',  ( 0.000000000000000000, 1.000000000000000000, 0.000000000000000000 ) ) ;
#29 = MANIFOLD_SOLID_BREP ( 'Flex1', #76 ) ;
#30 = CARTESIAN_POINT ( 'NONE',  ( -16.28462366930579464, 0.1999999999999999278, -0.2499999999999997780 ) ) ;
#31 = FACE_OUTER_BOUND ( 'NONE', #109, .T. ) ;
#32 = LOCAL_TIME ( 9, 13, 39.00000000000000000, #197 ) ;
#33 = DATE_TIME_ROLE ( 'creation_date' ) ;
#34 = CIRCLE ( 'NONE', #345, 0.2500000000000001110 ) ;
#35 = AXIS2_PLACEMENT_3D ( 'NONE', #512, #97, #145 ) ;
#36 = CC_DESIGN_PERSON_AND_ORGANIZATION_ASSIGNMENT ( #280, #446, ( #173 ) ) ;
#37 = CC_DESIGN_APPROVAL ( #377, ( #82 ) ) ;
#38 = APPROVAL_ROLE ( '' ) ;
#39 = CC_DESIGN_DATE_AND_TIME_ASSIGNMENT ( #359, #80, ( #82 ) ) ;
#40 = ORIENTED_EDGE ( 'NONE', *, *, #263, .T. ) ;
#41 = ORIENTED_EDGE ( 'NONE', *, *, #396, .F. ) ;
#42 = CARTESIAN_POINT ( 'NONE',  ( 22.61537633069419684, 0.2000000000000000944, -0.2500000000000018874 ) ) ;
#43 = DIRECTION ( 'NONE',  ( -0.000000000000000000, -1.000000000000000000, -0.000000000000000000 ) ) ;
#44 = ORIENTED_EDGE ( 'NONE', *, *, #435, .T. ) ;
#45 = LINE ( 'NONE', #42, #410 ) ;
#46 = AXIS2_PLACEMENT_3D ( 'NONE', #417, #50, #330 ) ;
#47 = ORIENTED_EDGE ( 'NONE', *, *, #119, .F. ) ;
#48 = CARTESIAN_POINT ( 'NONE',  ( 22.61537633069419684, 8.293963314093383385E-17, -0.7499999999999984457 ) ) ;
#49 = AXIS2_PLACEMENT_3D ( 'NONE', #172, #64, #457 ) ;
#50 = DIRECTION ( 'NONE',  ( 0.000000000000000000, 1.000000000000000000, 0.000000000000000000 ) ) ;
#51 = ORIENTED_EDGE ( 'NONE', *, *, #255, .F. ) ;
#52 = FACE_OUTER_BOUND ( 'NONE', #8, .T. ) ;
#53 = CYLINDRICAL_SURFACE ( 'NONE', #153, 0.2500000000000002220 ) ;
#54 = EDGE_LOOP ( 'NONE', ( #338, #320, #44, #2 ) ) ;
#55 = DIRECTION ( 'NONE',  ( 0.000000000000000000, 1.000000000000000000, 0.000000000000000000 ) ) ;
#56 = CARTESIAN_POINT ( 'NONE',  ( 22.61537633069419684, 0.2000000000000000944, -0.7499999999999984457 ) ) ;
#57 = DIRECTION ( 'NONE',  ( 0.000000000000000000, 0.000000000000000000, 1.000000000000000000 ) ) ;
#58 = EDGE_CURVE ( 'NONE', #133, #89, #216, .T. ) ;
#59 = FACE_OUTER_BOUND ( 'NONE', #54, .T. ) ;
#60 = DIRECTION ( 'NONE',  ( -0.000000000000000000, -0.000000000000000000, 1.000000000000000000 ) ) ;
#61 = VECTOR ( 'NONE', #472, 100.0000000000000000 ) ;
#62 = DIRECTION ( 'NONE',  ( -0.000000000000000000, -1.000000000000000000, -0.000000000000000000 ) ) ;
#63 = CARTESIAN_POINT ( 'NONE',  ( 22.11537633069419684, 8.673617379884035472E-17, -0.2499999999999998890 ) ) ;
#64 = DIRECTION ( 'NONE',  ( 0.000000000000000000, 1.000000000000000000, -0.000000000000000000 ) ) ;
#65 = ORIENTED_EDGE ( 'NONE', *, *, #86, .T. ) ;
#66 = ORIENTED_EDGE ( 'NONE', *, *, #490, .T. ) ;
#67 = CARTESIAN_POINT ( 'NONE',  ( 22.36537633069419684, 8.673617379884035472E-17, -0.2500000000000000555 ) ) ;
#68 = DIRECTION ( 'NONE',  ( -0.000000000000000000, -1.000000000000000000, -0.000000000000000000 ) ) ;
#69 = CIRCLE ( 'NONE', #116, 0.2500000000000001110 ) ;
#70 = ORIENTED_EDGE ( 'NONE', *, *, #314, .T. ) ;
#71 = CARTESIAN_POINT ( 'NONE',  ( -16.28462366930579464, 0.1999999999999999278, -0.2499999999999997780 ) ) ;
#72 = DATE_AND_TIME ( #274, #191 ) ;
#73 = CIRCLE ( 'NONE', #201, 0.2500000000000002220 ) ;
#74 = PERSON_AND_ORGANIZATION ( #307, #310 ) ;
#75 = ADVANCED_FACE ( 'NONE', ( #19 ), #181, .F. ) ;
#76 = CLOSED_SHELL ( 'NONE', ( #93, #148, #202, #220, #125, #447, #75, #518, #404, #111, #113, #506, #402, #515 ) ) ;
#77 = APPROVAL_ROLE ( '' ) ;
#78 = ORIENTED_EDGE ( 'NONE', *, *, #358, .T. ) ;
#79 = AXIS2_PLACEMENT_3D ( 'NONE', #507, #209, #432 ) ;
#80 = DATE_TIME_ROLE ( 'classification_date' ) ;
#81 = EDGE_CURVE ( 'NONE', #436, #449, #322, .T. ) ;
#82 = SECURITY_CLASSIFICATION ( '', '', #316 ) ;
#83 = FACE_OUTER_BOUND ( 'NONE', #23, .T. ) ;
#84 = COORDINATED_UNIVERSAL_TIME_OFFSET ( 7, 0, .BEHIND. ) ;
#85 = EDGE_LOOP ( 'NONE', ( #474, #40, #240, #346 ) ) ;
#86 = EDGE_CURVE ( 'NONE', #210, #126, #430, .T. ) ;
#87 = EDGE_LOOP ( 'NONE', ( #98, #412, #199, #289 ) ) ;
#88 = DIRECTION ( 'NONE',  ( 0.000000000000000000, 1.000000000000000000, 0.000000000000000000 ) ) ;
#89 = VERTEX_POINT ( 'NONE', #487 ) ;
#90 = DIRECTION ( 'NONE',  ( 0.000000000000000000, 0.000000000000000000, 1.000000000000000000 ) ) ;
#91 = ORIENTED_EDGE ( 'NONE', *, *, #336, .T. ) ;
#92 = DIRECTION ( 'NONE',  ( 0.000000000000000000, 1.000000000000000000, -0.000000000000000000 ) ) ;
#93 = ADVANCED_FACE ( 'NONE', ( #83 ), #249, .F. ) ;
#94 = CARTESIAN_POINT ( 'NONE',  ( -16.78462366930579464, -7.902814583161371552E-17, -0.7499999999999981126 ) ) ;
#95 = ORIENTED_EDGE ( 'NONE', *, *, #484, .F. ) ;
#96 = LINE ( 'NONE', #134, #160 ) ;
#97 = DIRECTION ( 'NONE',  ( -0.000000000000000000, -1.000000000000000000, -0.000000000000000000 ) ) ;
#98 = ORIENTED_EDGE ( 'NONE', *, *, #484, .T. ) ;
#99 = DIRECTION ( 'NONE',  ( 0.000000000000000000, 0.000000000000000000, -1.000000000000000000 ) ) ;
#100 = EDGE_CURVE ( 'NONE', #300, #360, #282, .T. ) ;
#101 = CARTESIAN_POINT ( 'NONE',  ( -16.28462366930579464, -8.673617379884035472E-17, -0.2499999999999997780 ) ) ;
#102 = ORIENTED_EDGE ( 'NONE', *, *, #154, .T. ) ;
#103 =( NAMED_UNIT ( * ) PLANE_ANGLE_UNIT ( ) SI_UNIT ( $, .RADIAN. ) );
#104 = LINE ( 'NONE', #141, #61 ) ;
#105 = CARTESIAN_POINT ( 'NONE',  ( 17.86537633069420039, 0.2000000000000000944, -1.000000000000000222 ) ) ;
#106 = FACE_OUTER_BOUND ( 'NONE', #294, .T. ) ;
#107 = VECTOR ( 'NONE', #521, 100.0000000000000000 ) ;
#108 = CARTESIAN_POINT ( 'NONE',  ( 22.36537633069419329, 0.2000000000000000944, -1.000000000000000222 ) ) ;
#109 = EDGE_LOOP ( 'NONE', ( #224, #493, #485, #393, #362, #439, #244, #95 ) ) ;
#110 = DIRECTION ( 'NONE',  ( 0.000000000000000000, 0.000000000000000000, -1.000000000000000000 ) ) ;
#111 = ADVANCED_FACE ( 'NONE', ( #203 ), #364, .F. ) ;
#112 = DIRECTION ( 'NONE',  ( -0.000000000000000000, -1.000000000000000000, -0.000000000000000000 ) ) ;
#113 = ADVANCED_FACE ( 'NONE', ( #18 ), #217, .T. ) ;
#114 = AXIS2_PLACEMENT_3D ( 'NONE', #137, #92, #463 ) ;
#115 = APPLICATION_PROTOCOL_DEFINITION ( 'international standard', 'config_control_design', 1994, #275 ) ;
#116 = AXIS2_PLACEMENT_3D ( 'NONE', #347, #28, #186 ) ;
#117 = AXIS2_PLACEMENT_3D ( 'NONE', #67, #262, #226 ) ;
#118 = PERSON_AND_ORGANIZATION ( #307, #310 ) ;
#119 = EDGE_CURVE ( 'NONE', #126, #510, #169, .T. ) ;
#120 = APPROVAL_DATE_TIME ( #524, #377 ) ;
#121 = ORIENTED_EDGE ( 'NONE', *, *, #58, .T. ) ;
#122 = ORIENTED_EDGE ( 'NONE', *, *, #119, .T. ) ;
#123 = CARTESIAN_POINT ( 'NONE',  ( 22.36537633069419684, 8.673617379884035472E-17, -0.7500000000000001110 ) ) ;
#124 = AXIS2_PLACEMENT_3D ( 'NONE', #389, #302, #376 ) ;
#125 = ADVANCED_FACE ( 'NONE', ( #139, #503, #461 ), #384, .T. ) ;
#126 = VERTEX_POINT ( 'NONE', #185 ) ;
#127 = DIRECTION ( 'NONE',  ( 0.000000000000000000, 1.000000000000000000, -0.000000000000000000 ) ) ;
#128 = AXIS2_PLACEMENT_3D ( 'NONE', #378, #127, #178 ) ;
#129 =( GEOMETRIC_REPRESENTATION_CONTEXT ( 3 ) GLOBAL_UNCERTAINTY_ASSIGNED_CONTEXT ( ( #387 ) ) GLOBAL_UNIT_ASSIGNED_CONTEXT ( ( #385, #103, #297 ) ) REPRESENTATION_CONTEXT ( 'NONE', 'WORKASPACE' ) );
#130 = EDGE_LOOP ( 'NONE', ( #406, #453, #65, #423 ) ) ;
#131 = CARTESIAN_POINT ( 'NONE',  ( -16.78462366930579464, 0.1999999999999999278, -0.2500000000000016098 ) ) ;
#132 = DIRECTION ( 'NONE',  ( 0.000000000000000000, 1.000000000000000000, -0.000000000000000000 ) ) ;
#133 = VERTEX_POINT ( 'NONE', #108 ) ;
#134 = CARTESIAN_POINT ( 'NONE',  ( -16.53462366930579108, 0.1999999999999999278, 8.673617379884035472E-17 ) ) ;
#135 = CC_DESIGN_PERSON_AND_ORGANIZATION_ASSIGNMENT ( #355, #194, ( #173 ) ) ;
#136 = DIRECTION ( 'NONE',  ( -0.000000000000000000, -1.000000000000000000, -0.000000000000000000 ) ) ;
#137 = CARTESIAN_POINT ( 'NONE',  ( -16.53462366930579464, -8.673617379884035472E-17, -0.7500000000000000000 ) ) ;
#138 = CIRCLE ( 'NONE', #114, 0.2499999999999998890 ) ;
#139 = FACE_OUTER_BOUND ( 'NONE', #188, .T. ) ;
#140 = ORIENTED_EDGE ( 'NONE', *, *, #464, .T. ) ;
#141 = CARTESIAN_POINT ( 'NONE',  ( 17.86537633069420039, 8.673617379884035472E-17, -1.000000000000000222 ) ) ;
#142 = EDGE_LOOP ( 'NONE', ( #184, #356, #319, #78 ) ) ;
#143 = APPLICATION_PROTOCOL_DEFINITION ( 'international standard', 'config_control_design', 1994, #326 ) ;
#144 = EDGE_LOOP ( 'NONE', ( #122, #351 ) ) ;
#145 = DIRECTION ( 'NONE',  ( 0.000000000000000000, 0.000000000000000000, -1.000000000000000000 ) ) ;
#146 = AXIS2_PLACEMENT_3D ( 'NONE', #344, #177, #261 ) ;
#147 = DIRECTION ( 'NONE',  ( 1.000000000000000000, 0.000000000000000000, -0.000000000000000000 ) ) ;
#148 = ADVANCED_FACE ( 'NONE', ( #371 ), #337, .F. ) ;
#149 = CARTESIAN_POINT ( 'NONE',  ( -16.78462366930579464, 0.1999999999999999278, -0.2500000000000016098 ) ) ;
#150 = ORIENTED_EDGE ( 'NONE', *, *, #11, .T. ) ;
#151 = LINE ( 'NONE', #350, #398 ) ;
#152 = COORDINATED_UNIVERSAL_TIME_OFFSET ( 7, 0, .BEHIND. ) ;
#153 = AXIS2_PLACEMENT_3D ( 'NONE', #299, #136, #21 ) ;
#154 = EDGE_CURVE ( 'NONE', #89, #433, #104, .T. ) ;
#155 = VECTOR ( 'NONE', #60, 100.0000000000000000 ) ;
#156 = EDGE_CURVE ( 'NONE', #360, #174, #368, .T. ) ;
#157 = VECTOR ( 'NONE', #171, 100.0000000000000000 ) ;
#158 = PERSON_AND_ORGANIZATION ( #307, #310 ) ;
#159 = PERSON_AND_ORGANIZATION_ROLE ( 'classification_officer' ) ;
#160 = VECTOR ( 'NONE', #254, 100.0000000000000000 ) ;
#161 = SHAPE_DEFINITION_REPRESENTATION ( #231, #208 ) ;
#162 = EDGE_CURVE ( 'NONE', #458, #247, #516, .T. ) ;
#163 = ORIENTED_EDGE ( 'NONE', *, *, #11, .F. ) ;
#164 = VERTEX_POINT ( 'NONE', #94 ) ;
#165 = CARTESIAN_POINT ( 'NONE',  ( 17.86537633069420039, 0.2000000000000000944, -1.000000000000000222 ) ) ;
#166 = PRODUCT_DEFINITION ( 'UNKNOWN', '', #173, #265 ) ;
#167 = ORIENTED_EDGE ( 'NONE', *, *, #175, .T. ) ;
#168 = DIRECTION ( 'NONE',  ( 0.000000000000000000, 1.000000000000000000, -0.000000000000000000 ) ) ;
#169 = CIRCLE ( 'NONE', #7, 0.2500000000000002220 ) ;
#170 = EDGE_LOOP ( 'NONE', ( #70, #475, #47, #419 ) ) ;
#171 = DIRECTION ( 'NONE',  ( -0.000000000000000000, -1.000000000000000000, -0.000000000000000000 ) ) ;
#172 = CARTESIAN_POINT ( 'NONE',  ( -16.53462366930579464, 0.1999999999999999278, -0.7500000000000000000 ) ) ;
#173 = PRODUCT_DEFINITION_FORMATION_WITH_SPECIFIED_SOURCE ( 'ANY', '', #235, .NOT_KNOWN. ) ;
#174 = VERTEX_POINT ( 'NONE', #101 ) ;
#175 = EDGE_CURVE ( 'NONE', #415, #388, #422, .T. ) ;
#176 = CARTESIAN_POINT ( 'NONE',  ( 22.61537633069419684, 0.2000000000000000944, -0.2500000000000018874 ) ) ;
#177 = DIRECTION ( 'NONE',  ( 0.000000000000000000, 1.000000000000000000, 0.000000000000000000 ) ) ;
#178 = DIRECTION ( 'NONE',  ( 0.000000000000000000, 0.000000000000000000, -1.000000000000000000 ) ) ;
#179 = VECTOR ( 'NONE', #470, 100.0000000000000000 ) ;
#180 = CARTESIAN_POINT ( 'NONE',  ( -16.78462366930579464, 0.1999999999999999278, -0.7499999999999981126 ) ) ;
#181 = PLANE ( 'NONE',  #278 ) ;
#182 = CIRCLE ( 'NONE', #481, 0.2500000000000001110 ) ;
#183 = FACE_OUTER_BOUND ( 'NONE', #85, .T. ) ;
#184 = ORIENTED_EDGE ( 'NONE', *, *, #81, .T. ) ;
#185 = CARTESIAN_POINT ( 'NONE',  ( 22.11537633069419684, 8.673617379884035472E-17, -0.7500000000000003331 ) ) ;
#186 = DIRECTION ( 'NONE',  ( 0.000000000000000000, 0.000000000000000000, 1.000000000000000000 ) ) ;
#187 = EDGE_LOOP ( 'NONE', ( #491, #455, #51, #140 ) ) ;
#188 = EDGE_LOOP ( 'NONE', ( #519, #91, #12, #466, #324, #25, #66, #250 ) ) ;
#189 = FACE_BOUND ( 'NONE', #198, .T. ) ;
#190 = DIRECTION ( 'NONE',  ( -1.000000000000000000, 0.000000000000000000, -0.000000000000000000 ) ) ;
#191 = LOCAL_TIME ( 9, 13, 39.00000000000000000, #84 ) ;
#192 = APPROVAL_ROLE ( '' ) ;
#193 = AXIS2_PLACEMENT_3D ( 'NONE', #325, #370, #295 ) ;
#194 = PERSON_AND_ORGANIZATION_ROLE ( 'design_supplier' ) ;
#195 = DATE_AND_TIME ( #395, #259 ) ;
#196 = LOCAL_TIME ( 9, 13, 39.00000000000000000, #152 ) ;
#197 = COORDINATED_UNIVERSAL_TIME_OFFSET ( 7, 0, .BEHIND. ) ;
#198 = EDGE_LOOP ( 'NONE', ( #285, #373 ) ) ;
#199 = ORIENTED_EDGE ( 'NONE', *, *, #327, .F. ) ;
#200 = CARTESIAN_POINT ( 'NONE',  ( -16.78462366930579464, 0.1999999999999999278, -0.2500000000000017208 ) ) ;
#201 = AXIS2_PLACEMENT_3D ( 'NONE', #424, #454, #335 ) ;
#202 = ADVANCED_FACE ( 'NONE', ( #266 ), #53, .F. ) ;
#203 = FACE_OUTER_BOUND ( 'NONE', #87, .T. ) ;
#204 = ORIENTED_EDGE ( 'NONE', *, *, #306, .T. ) ;
#205 = LINE ( 'NONE', #363, #386 ) ;
#206 = ORIENTED_EDGE ( 'NONE', *, *, #353, .F. ) ;
#207 = CYLINDRICAL_SURFACE ( 'NONE', #315, 0.2500000000000000555 ) ;
#208 = ADVANCED_BREP_SHAPE_REPRESENTATION ( 'Link F_Default_sldprt', ( #29, #403 ), #129 ) ;
#209 = DIRECTION ( 'NONE',  ( 0.000000000000000000, 1.000000000000000000, 0.000000000000000000 ) ) ;
#210 = VERTEX_POINT ( 'NONE', #221 ) ;
#211 = CARTESIAN_POINT ( 'NONE',  ( 22.36537633069419329, 0.2000000000000000944, -8.673617379884035472E-17 ) ) ;
#212 = DIRECTION ( 'NONE',  ( -0.000000000000000000, -1.000000000000000000, -0.000000000000000000 ) ) ;
#213 = CARTESIAN_POINT ( 'NONE',  ( -16.28462366930579464, 0.1999999999999999278, -0.4999999999999999445 ) ) ;
#214 = CARTESIAN_POINT ( 'NONE',  ( -16.28462366930579464, -8.673617379884035472E-17, -0.7500000000000001110 ) ) ;
#215 = CARTESIAN_POINT ( 'NONE',  ( -16.28462366930579464, 0.1999999999999999278, -0.4999999999999999445 ) ) ;
#216 = LINE ( 'NONE', #382, #511 ) ;
#217 = CYLINDRICAL_SURFACE ( 'NONE', #124, 0.2500000000000000555 ) ;
#218 = CARTESIAN_POINT ( 'NONE',  ( 22.11537633069419684, 0.2000000000000000944, -0.7500000000000003331 ) ) ;
#219 = LINE ( 'NONE', #30, #318 ) ;
#220 = ADVANCED_FACE ( 'NONE', ( #183 ), #26, .F. ) ;
#221 = CARTESIAN_POINT ( 'NONE',  ( 22.11537633069419684, 0.2000000000000000944, -0.7500000000000003331 ) ) ;
#222 = CARTESIAN_POINT ( 'NONE',  ( 22.36537633069419329, 0.2000000000000000944, -8.762833295137012262E-17 ) ) ;
#223 = CARTESIAN_POINT ( 'NONE',  ( 0.000000000000000000, 0.000000000000000000, 0.000000000000000000 ) ) ;
#224 = ORIENTED_EDGE ( 'NONE', *, *, #81, .F. ) ;
#225 = VECTOR ( 'NONE', #230, 100.0000000000000000 ) ;
#226 = DIRECTION ( 'NONE',  ( 0.000000000000000000, 0.000000000000000000, 1.000000000000000000 ) ) ;
#227 = CARTESIAN_POINT ( 'NONE',  ( -16.53462366930579464, 0.1999999999999999278, -1.000000000000000000 ) ) ;
#228 = ORIENTED_EDGE ( 'NONE', *, *, #391, .T. ) ;
#229 = APPROVAL ( #444, 'UNSPECIFIED' ) ;
#230 = DIRECTION ( 'NONE',  ( -0.000000000000000000, -1.000000000000000000, -0.000000000000000000 ) ) ;
#231 = PRODUCT_DEFINITION_SHAPE ( 'NONE', 'NONE',  #166 ) ;
#232 = PERSON_AND_ORGANIZATION_ROLE ( 'design_owner' ) ;
#233 = AXIS2_PLACEMENT_3D ( 'NONE', #24, #303, #190 ) ;
#234 = APPROVAL_DATE_TIME ( #72, #237 ) ;
#235 = PRODUCT ( 'Link F_Default_sldprt', 'Link F_Default_sldprt', '', ( #273 ) ) ;
#236 = ORIENTED_EDGE ( 'NONE', *, *, #464, .F. ) ;
#237 = APPROVAL ( #272, 'UNSPECIFIED' ) ;
#238 = APPROVAL_STATUS ( 'not_yet_approved' ) ;
#239 = CC_DESIGN_APPROVAL ( #229, ( #173 ) ) ;
#240 = ORIENTED_EDGE ( 'NONE', *, *, #100, .T. ) ;
#241 = VECTOR ( 'NONE', #212, 100.0000000000000000 ) ;
#242 = DIRECTION ( 'NONE',  ( 0.000000000000000000, 0.000000000000000000, -1.000000000000000000 ) ) ;
#243 = EDGE_CURVE ( 'NONE', #1, #210, #367, .T. ) ;
#244 = ORIENTED_EDGE ( 'NONE', *, *, #391, .F. ) ;
#245 = DIRECTION ( 'NONE',  ( -1.000000000000000000, -0.000000000000000000, -0.000000000000000000 ) ) ;
#246 = EDGE_CURVE ( 'NONE', #328, #449, #498, .T. ) ;
#247 = VERTEX_POINT ( 'NONE', #180 ) ;
#248 = CARTESIAN_POINT ( 'NONE',  ( -16.53462366930579108, 0.1999999999999999278, 8.349572349439630368E-17 ) ) ;
#249 = CYLINDRICAL_SURFACE ( 'NONE', #354, 0.2500000000000001110 ) ;
#250 = ORIENTED_EDGE ( 'NONE', *, *, #255, .T. ) ;
#251 = DIRECTION ( 'NONE',  ( 1.000000000000000000, 0.000000000000000000, 0.000000000000000000 ) ) ;
#252 = DIRECTION ( 'NONE',  ( 0.000000000000000000, 0.000000000000000000, -1.000000000000000000 ) ) ;
#253 = ORIENTED_EDGE ( 'NONE', *, *, #100, .F. ) ;
#254 = DIRECTION ( 'NONE',  ( -0.000000000000000000, -1.000000000000000000, -0.000000000000000000 ) ) ;
#255 = EDGE_CURVE ( 'NONE', #365, #341, #429, .T. ) ;
#256 = DIRECTION ( 'NONE',  ( -0.000000000000000000, -1.000000000000000000, -0.000000000000000000 ) ) ;
#257 = CARTESIAN_POINT ( 'NONE',  ( -16.53462366930579108, -7.902814583161371552E-17, 8.349572349439630368E-17 ) ) ;
#258 = CARTESIAN_POINT ( 'NONE',  ( 22.11537633069419684, 8.673617379884035472E-17, -0.5000000000000001110 ) ) ;
#259 = LOCAL_TIME ( 9, 13, 39.00000000000000000, #483 ) ;
#260 = EDGE_LOOP ( 'NONE', ( #228, #267, #488, #167 ) ) ;
#261 = DIRECTION ( 'NONE',  ( 0.000000000000000000, 0.000000000000000000, 1.000000000000000000 ) ) ;
#262 = DIRECTION ( 'NONE',  ( 0.000000000000000000, 1.000000000000000000, 0.000000000000000000 ) ) ;
#263 = EDGE_CURVE ( 'NONE', #462, #300, #312, .T. ) ;
#264 = DIRECTION ( 'NONE',  ( -0.000000000000000000, -1.000000000000000000, -0.000000000000000000 ) ) ;
#265 = DESIGN_CONTEXT ( 'detailed design', #275, 'design' ) ;
#266 = FACE_OUTER_BOUND ( 'NONE', #130, .T. ) ;
#267 = ORIENTED_EDGE ( 'NONE', *, *, #58, .F. ) ;
#268 = AXIS2_PLACEMENT_3D ( 'NONE', #431, #112, #271 ) ;
#269 = DIRECTION ( 'NONE',  ( 0.000000000000000000, 0.000000000000000000, 1.000000000000000000 ) ) ;
#270 = EDGE_CURVE ( 'NONE', #164, #369, #379, .T. ) ;
#271 = DIRECTION ( 'NONE',  ( 0.000000000000000000, 0.000000000000000000, -1.000000000000000000 ) ) ;
#272 = APPROVAL_STATUS ( 'not_yet_approved' ) ;
#273 = MECHANICAL_CONTEXT ( 'NONE', #326, 'mechanical' ) ;
#274 = CALENDAR_DATE ( 2025, 20, 11 ) ;
#275 = APPLICATION_CONTEXT ( 'configuration controlled 3d designs of mechanical parts and assemblies' ) ;
#276 = AXIS2_PLACEMENT_3D ( 'NONE', #215, #15, #252 ) ;
#277 = EDGE_CURVE ( 'NONE', #308, #436, #340, .T. ) ;
#278 = AXIS2_PLACEMENT_3D ( 'NONE', #105, #269, #147 ) ;
#279 = AXIS2_PLACEMENT_3D ( 'NONE', #4, #448, #407 ) ;
#280 = PERSON_AND_ORGANIZATION ( #307, #310 ) ;
#281 = PRODUCT_RELATED_PRODUCT_CATEGORY ( 'detail', '', ( #235 ) ) ;
#282 = LINE ( 'NONE', #411, #399 ) ;
#283 = ORIENTED_EDGE ( 'NONE', *, *, #156, .F. ) ;
#284 = VECTOR ( 'NONE', #256, 100.0000000000000000 ) ;
#285 = ORIENTED_EDGE ( 'NONE', *, *, #156, .T. ) ;
#286 = DIRECTION ( 'NONE',  ( 0.000000000000000000, 0.000000000000000000, -1.000000000000000000 ) ) ;
#287 = ORIENTED_EDGE ( 'NONE', *, *, #502, .F. ) ;
#288 = CARTESIAN_POINT ( 'NONE',  ( -16.28462366930579464, 0.1999999999999999278, -0.7500000000000001110 ) ) ;
#289 = ORIENTED_EDGE ( 'NONE', *, *, #246, .T. ) ;
#290 = CARTESIAN_POINT ( 'NONE',  ( -16.78462366930579464, -7.902814583161371552E-17, -0.2500000000000016098 ) ) ;
#291 = EDGE_CURVE ( 'NONE', #415, #133, #520, .T. ) ;
#292 = AXIS2_PLACEMENT_3D ( 'NONE', #352, #301, #517 ) ;
#293 = CARTESIAN_POINT ( 'NONE',  ( -16.28462366930579464, 0.1999999999999999278, -0.4999999999999999445 ) ) ;
#294 = EDGE_LOOP ( 'NONE', ( #204, #287, #408, #495 ) ) ;
#295 = DIRECTION ( 'NONE',  ( 0.000000000000000000, 0.000000000000000000, -1.000000000000000000 ) ) ;
#296 = DIRECTION ( 'NONE',  ( 0.000000000000000000, 0.000000000000000000, 1.000000000000000000 ) ) ;
#297 =( NAMED_UNIT ( * ) SI_UNIT ( $, .STERADIAN. ) SOLID_ANGLE_UNIT ( ) );
#298 = EDGE_CURVE ( 'NONE', #369, #308, #479, .T. ) ;
#299 = CARTESIAN_POINT ( 'NONE',  ( 22.11537633069419684, 0.2000000000000000944, -0.5000000000000001110 ) ) ;
#300 = VERTEX_POINT ( 'NONE', #288 ) ;
#301 = DIRECTION ( 'NONE',  ( 0.000000000000000000, 1.000000000000000000, 0.000000000000000000 ) ) ;
#302 = DIRECTION ( 'NONE',  ( -0.000000000000000000, -1.000000000000000000, -0.000000000000000000 ) ) ;
#303 = DIRECTION ( 'NONE',  ( 0.000000000000000000, 0.000000000000000000, -1.000000000000000000 ) ) ;
#304 = EDGE_LOOP ( 'NONE', ( #500, #334 ) ) ;
#305 = FACE_OUTER_BOUND ( 'NONE', #187, .T. ) ;
#306 = EDGE_CURVE ( 'NONE', #433, #164, #138, .T. ) ;
#307 = PERSON ( 'UNSPECIFIED', 'UNSPECIFIED', 'UNSPECIFIED', ('UNSPECIFIED'), ('UNSPECIFIED'), ('UNSPECIFIED') ) ;
#308 = VERTEX_POINT ( 'NONE', #257 ) ;
#309 = CARTESIAN_POINT ( 'NONE',  ( -16.78462366930579464, 0.1999999999999999278, -0.2500000000000017208 ) ) ;
#310 = ORGANIZATION ( 'UNSPECIFIED', 'UNSPECIFIED', '' ) ;
#311 = EDGE_CURVE ( 'NONE', #510, #126, #73, .T. ) ;
#312 = CIRCLE ( 'NONE', #380, 0.2500000000000001110 ) ;
#313 = COORDINATED_UNIVERSAL_TIME_OFFSET ( 7, 0, .BEHIND. ) ;
#314 = EDGE_CURVE ( 'NONE', #210, #1, #361, .T. ) ;
#315 = AXIS2_PLACEMENT_3D ( 'NONE', #6, #459, #494 ) ;
#316 = SECURITY_CLASSIFICATION_LEVEL ( 'unclassified' ) ;
#317 = CC_DESIGN_DATE_AND_TIME_ASSIGNMENT ( #195, #33, ( #166 ) ) ;
#318 = VECTOR ( 'NONE', #473, 100.0000000000000000 ) ;
#319 = ORIENTED_EDGE ( 'NONE', *, *, #336, .F. ) ;
#320 = ORIENTED_EDGE ( 'NONE', *, *, #349, .F. ) ;
#321 = CARTESIAN_POINT ( 'NONE',  ( -16.53462366930579108, -8.673617379884035472E-17, 8.673617379884035472E-17 ) ) ;
#322 = CIRCLE ( 'NONE', #117, 0.2500000000000001110 ) ;
#323 = VECTOR ( 'NONE', #68, 100.0000000000000000 ) ;
#324 = ORIENTED_EDGE ( 'NONE', *, *, #396, .T. ) ;
#325 = CARTESIAN_POINT ( 'NONE',  ( 22.36537633069419684, 0.2000000000000000944, -0.7500000000000001110 ) ) ;
#326 = APPLICATION_CONTEXT ( 'configuration controlled 3d designs of mechanical parts and assemblies' ) ;
#327 = EDGE_CURVE ( 'NONE', #328, #415, #45, .T. ) ;
#328 = VERTEX_POINT ( 'NONE', #176 ) ;
#329 = CARTESIAN_POINT ( 'NONE',  ( 22.11537633069419684, 0.2000000000000000944, -0.5000000000000001110 ) ) ;
#330 = DIRECTION ( 'NONE',  ( 0.000000000000000000, 0.000000000000000000, 1.000000000000000000 ) ) ;
#331 = ORIENTED_EDGE ( 'NONE', *, *, #502, .T. ) ;
#332 = DIRECTION ( 'NONE',  ( 1.000000000000000000, -0.000000000000000000, 0.000000000000000000 ) ) ;
#333 = DIRECTION ( 'NONE',  ( 0.000000000000000000, 1.000000000000000000, 0.000000000000000000 ) ) ;
#334 = ORIENTED_EDGE ( 'NONE', *, *, #243, .F. ) ;
#335 = DIRECTION ( 'NONE',  ( 0.000000000000000000, 0.000000000000000000, 1.000000000000000000 ) ) ;
#336 = EDGE_CURVE ( 'NONE', #5, #328, #182, .T. ) ;
#337 = CYLINDRICAL_SURFACE ( 'NONE', #35, 0.2500000000000002220 ) ;
#338 = ORIENTED_EDGE ( 'NONE', *, *, #358, .F. ) ;
#339 = FACE_BOUND ( 'NONE', #144, .T. ) ;
#340 = LINE ( 'NONE', #321, #451 ) ;
#341 = VERTEX_POINT ( 'NONE', #248 ) ;
#342 = CARTESIAN_POINT ( 'NONE',  ( 22.61537633069419684, 8.293963314093383385E-17, -0.2500000000000018874 ) ) ;
#343 = AXIS2_PLACEMENT_3D ( 'NONE', #200, #332, #286 ) ;
#344 = CARTESIAN_POINT ( 'NONE',  ( -16.28462366930579464, -8.673617379884035472E-17, -0.4999999999999999445 ) ) ;
#345 = AXIS2_PLACEMENT_3D ( 'NONE', #213, #27, #57 ) ;
#346 = ORIENTED_EDGE ( 'NONE', *, *, #460, .F. ) ;
#347 = CARTESIAN_POINT ( 'NONE',  ( -16.28462366930579464, -8.673617379884035472E-17, -0.4999999999999999445 ) ) ;
#348 = CARTESIAN_POINT ( 'NONE',  ( 22.11537633069419684, 0.2000000000000000944, -0.2499999999999998890 ) ) ;
#349 = EDGE_CURVE ( 'NONE', #341, #5, #492, .T. ) ;
#350 = CARTESIAN_POINT ( 'NONE',  ( 22.61537633069419684, 8.673617379884035472E-17, -0.2500000000000018874 ) ) ;
#351 = ORIENTED_EDGE ( 'NONE', *, *, #311, .T. ) ;
#352 = CARTESIAN_POINT ( 'NONE',  ( 22.36537633069419684, 8.673617379884035472E-17, -0.2500000000000000555 ) ) ;
#353 = EDGE_CURVE ( 'NONE', #458, #433, #205, .T. ) ;
#354 = AXIS2_PLACEMENT_3D ( 'NONE', #418, #372, #242 ) ;
#355 = PERSON_AND_ORGANIZATION ( #307, #310 ) ;
#356 = ORIENTED_EDGE ( 'NONE', *, *, #246, .F. ) ;
#357 = CALENDAR_DATE ( 2025, 20, 11 ) ;
#358 = EDGE_CURVE ( 'NONE', #5, #436, #416, .T. ) ;
#359 = DATE_AND_TIME ( #522, #196 ) ;
#360 = VERTEX_POINT ( 'NONE', #214 ) ;
#361 = CIRCLE ( 'NONE', #442, 0.2500000000000002220 ) ;
#362 = ORIENTED_EDGE ( 'NONE', *, *, #306, .F. ) ;
#363 = CARTESIAN_POINT ( 'NONE',  ( -16.53462366930579464, 0.1999999999999999278, -0.9999999999999998890 ) ) ;
#364 = PLANE ( 'NONE',  #279 ) ;
#365 = VERTEX_POINT ( 'NONE', #131 ) ;
#366 = FACE_OUTER_BOUND ( 'NONE', #142, .T. ) ;
#367 = CIRCLE ( 'NONE', #46, 0.2500000000000002220 ) ;
#368 = CIRCLE ( 'NONE', #146, 0.2500000000000001110 ) ;
#369 = VERTEX_POINT ( 'NONE', #290 ) ;
#370 = DIRECTION ( 'NONE',  ( 0.000000000000000000, 1.000000000000000000, -0.000000000000000000 ) ) ;
#371 = FACE_OUTER_BOUND ( 'NONE', #170, .T. ) ;
#372 = DIRECTION ( 'NONE',  ( -0.000000000000000000, -1.000000000000000000, -0.000000000000000000 ) ) ;
#373 = ORIENTED_EDGE ( 'NONE', *, *, #460, .T. ) ;
#374 = CARTESIAN_POINT ( 'NONE',  ( 22.36537633069419329, 8.293963314093383385E-17, -8.762833295137012262E-17 ) ) ;
#375 = CC_DESIGN_SECURITY_CLASSIFICATION ( #82, ( #173 ) ) ;
#376 = DIRECTION ( 'NONE',  ( 0.000000000000000000, 0.000000000000000000, -1.000000000000000000 ) ) ;
#377 = APPROVAL ( #238, 'UNSPECIFIED' ) ;
#378 = CARTESIAN_POINT ( 'NONE',  ( -16.53462366930579464, -8.673617379884035472E-17, -0.2499999999999998890 ) ) ;
#379 = LINE ( 'NONE', #468, #155 ) ;
#380 = AXIS2_PLACEMENT_3D ( 'NONE', #293, #333, #296 ) ;
#381 = VECTOR ( 'NONE', #264, 100.0000000000000000 ) ;
#382 = CARTESIAN_POINT ( 'NONE',  ( 22.36537633069419329, 0.2000000000000000944, -1.000000000000000222 ) ) ;
#383 = PLANE ( 'NONE',  #292 ) ;
#384 = PLANE ( 'NONE',  #79 ) ;
#385 =( LENGTH_UNIT ( ) NAMED_UNIT ( * ) SI_UNIT ( .CENTI., .METRE. ) );
#386 = VECTOR ( 'NONE', #413, 100.0000000000000000 ) ;
#387 = UNCERTAINTY_MEASURE_WITH_UNIT (LENGTH_MEASURE( 1.000000000000000082E-05 ), #385, 'distance_accuracy_value', 'NONE');
#388 = VERTEX_POINT ( 'NONE', #48 ) ;
#389 = CARTESIAN_POINT ( 'NONE',  ( 22.36537633069419684, 0.2000000000000000944, -0.7500000000000001110 ) ) ;
#390 = DIRECTION ( 'NONE',  ( 0.000000000000000000, 0.000000000000000000, 1.000000000000000000 ) ) ;
#391 = EDGE_CURVE ( 'NONE', #388, #89, #499, .T. ) ;
#392 = CARTESIAN_POINT ( 'NONE',  ( -16.53462366930579464, 0.1999999999999999278, -0.2499999999999998890 ) ) ;
#393 = ORIENTED_EDGE ( 'NONE', *, *, #270, .F. ) ;
#394 = PLANE ( 'NONE',  #233 ) ;
#395 = CALENDAR_DATE ( 2025, 20, 11 ) ;
#396 = EDGE_CURVE ( 'NONE', #133, #458, #16, .T. ) ;
#397 = APPROVAL_DATE_TIME ( #480, #229 ) ;
#398 = VECTOR ( 'NONE', #110, 100.0000000000000000 ) ;
#399 = VECTOR ( 'NONE', #43, 100.0000000000000000 ) ;
#400 = PERSON_AND_ORGANIZATION_ROLE ( 'creator' ) ;
#401 = ORIENTED_EDGE ( 'NONE', *, *, #263, .F. ) ;
#402 = ADVANCED_FACE ( 'NONE', ( #52 ), #409, .F. ) ;
#403 = AXIS2_PLACEMENT_3D ( 'NONE', #223, #390, #482 ) ;
#404 = ADVANCED_FACE ( 'NONE', ( #366 ), #207, .T. ) ;
#405 = CALENDAR_DATE ( 2025, 20, 11 ) ;
#406 = ORIENTED_EDGE ( 'NONE', *, *, #443, .F. ) ;
#407 = DIRECTION ( 'NONE',  ( 0.000000000000000000, 0.000000000000000000, 1.000000000000000000 ) ) ;
#408 = ORIENTED_EDGE ( 'NONE', *, *, #162, .F. ) ;
#409 = PLANE ( 'NONE',  #343 ) ;
#410 = VECTOR ( 'NONE', #450, 100.0000000000000000 ) ;
#411 = CARTESIAN_POINT ( 'NONE',  ( -16.28462366930579464, 0.1999999999999999278, -0.7500000000000001110 ) ) ;
#412 = ORIENTED_EDGE ( 'NONE', *, *, #175, .F. ) ;
#413 = DIRECTION ( 'NONE',  ( -0.000000000000000000, -1.000000000000000000, -0.000000000000000000 ) ) ;
#414 = CC_DESIGN_PERSON_AND_ORGANIZATION_ASSIGNMENT ( #74, #159, ( #82 ) ) ;
#415 = VERTEX_POINT ( 'NONE', #456 ) ;
#416 = LINE ( 'NONE', #211, #157 ) ;
#417 = CARTESIAN_POINT ( 'NONE',  ( 22.11537633069419684, 0.2000000000000000944, -0.5000000000000001110 ) ) ;
#418 = CARTESIAN_POINT ( 'NONE',  ( -16.28462366930579464, 0.1999999999999999278, -0.4999999999999999445 ) ) ;
#419 = ORIENTED_EDGE ( 'NONE', *, *, #86, .F. ) ;
#420 = DIRECTION ( 'NONE',  ( 0.000000000000000000, 0.000000000000000000, 1.000000000000000000 ) ) ;
#421 = CC_DESIGN_PERSON_AND_ORGANIZATION_ASSIGNMENT ( #441, #400, ( #166 ) ) ;
#422 = LINE ( 'NONE', #56, #284 ) ;
#423 = ORIENTED_EDGE ( 'NONE', *, *, #311, .F. ) ;
#424 = CARTESIAN_POINT ( 'NONE',  ( 22.11537633069419684, 8.673617379884035472E-17, -0.5000000000000001110 ) ) ;
#425 = APPROVAL_PERSON_ORGANIZATION ( #486, #237, #77 ) ;
#426 = CARTESIAN_POINT ( 'NONE',  ( 22.61537633069419684, 0.2000000000000000944, -0.2500000000000018874 ) ) ;
#427 = CYLINDRICAL_SURFACE ( 'NONE', #268, 0.2499999999999998890 ) ;
#428 = DIRECTION ( 'NONE',  ( 0.000000000000000000, 0.000000000000000000, -1.000000000000000000 ) ) ;
#429 = CIRCLE ( 'NONE', #17, 0.2499999999999999722 ) ;
#430 = LINE ( 'NONE', #218, #107 ) ;
#431 = CARTESIAN_POINT ( 'NONE',  ( -16.53462366930579464, 0.1999999999999999278, -0.7500000000000000000 ) ) ;
#432 = DIRECTION ( 'NONE',  ( 0.000000000000000000, -0.000000000000000000, 1.000000000000000000 ) ) ;
#433 = VERTEX_POINT ( 'NONE', #9 ) ;
#434 = LINE ( 'NONE', #309, #179 ) ;
#435 = EDGE_CURVE ( 'NONE', #341, #308, #96, .T. ) ;
#436 = VERTEX_POINT ( 'NONE', #374 ) ;
#437 = ORIENTED_EDGE ( 'NONE', *, *, #490, .F. ) ;
#438 = AXIS2_PLACEMENT_3D ( 'NONE', #123, #168, #99 ) ;
#439 = ORIENTED_EDGE ( 'NONE', *, *, #154, .F. ) ;
#440 = DIRECTION ( 'NONE',  ( 0.000000000000000000, 0.000000000000000000, -1.000000000000000000 ) ) ;
#441 = PERSON_AND_ORGANIZATION ( #307, #310 ) ;
#442 = AXIS2_PLACEMENT_3D ( 'NONE', #329, #55, #420 ) ;
#443 = EDGE_CURVE ( 'NONE', #1, #510, #13, .T. ) ;
#444 = APPROVAL_STATUS ( 'not_yet_approved' ) ;
#445 = PERSON_AND_ORGANIZATION ( #307, #310 ) ;
#446 = PERSON_AND_ORGANIZATION_ROLE ( 'creator' ) ;
#447 = ADVANCED_FACE ( 'NONE', ( #339, #31, #189 ), #383, .F. ) ;
#448 = DIRECTION ( 'NONE',  ( -1.000000000000000000, 0.000000000000000000, 0.000000000000000000 ) ) ;
#449 = VERTEX_POINT ( 'NONE', #342 ) ;
#450 = DIRECTION ( 'NONE',  ( 0.000000000000000000, 0.000000000000000000, -1.000000000000000000 ) ) ;
#451 = VECTOR ( 'NONE', #504, 100.0000000000000000 ) ;
#452 = CC_DESIGN_PERSON_AND_ORGANIZATION_ASSIGNMENT ( #445, #232, ( #235 ) ) ;
#453 = ORIENTED_EDGE ( 'NONE', *, *, #243, .T. ) ;
#454 = DIRECTION ( 'NONE',  ( 0.000000000000000000, 1.000000000000000000, 0.000000000000000000 ) ) ;
#455 = ORIENTED_EDGE ( 'NONE', *, *, #435, .F. ) ;
#456 = CARTESIAN_POINT ( 'NONE',  ( 22.61537633069419684, 0.2000000000000000944, -0.7499999999999984457 ) ) ;
#457 = DIRECTION ( 'NONE',  ( 0.000000000000000000, 0.000000000000000000, -1.000000000000000000 ) ) ;
#458 = VERTEX_POINT ( 'NONE', #227 ) ;
#459 = DIRECTION ( 'NONE',  ( -0.000000000000000000, -1.000000000000000000, -0.000000000000000000 ) ) ;
#460 = EDGE_CURVE ( 'NONE', #174, #360, #69, .T. ) ;
#461 = FACE_BOUND ( 'NONE', #469, .T. ) ;
#462 = VERTEX_POINT ( 'NONE', #71 ) ;
#463 = DIRECTION ( 'NONE',  ( 0.000000000000000000, 0.000000000000000000, -1.000000000000000000 ) ) ;
#464 = EDGE_CURVE ( 'NONE', #365, #369, #476, .T. ) ;
#465 = DIRECTION ( 'NONE',  ( 0.000000000000000000, 1.000000000000000000, 0.000000000000000000 ) ) ;
#466 = ORIENTED_EDGE ( 'NONE', *, *, #291, .T. ) ;
#467 = CYLINDRICAL_SURFACE ( 'NONE', #471, 0.2499999999999999722 ) ;
#468 = CARTESIAN_POINT ( 'NONE',  ( -16.78462366930579464, -8.673617379884035472E-17, -0.2500000000000017208 ) ) ;
#469 = EDGE_LOOP ( 'NONE', ( #163, #401 ) ) ;
#470 = DIRECTION ( 'NONE',  ( -0.000000000000000000, -0.000000000000000000, 1.000000000000000000 ) ) ;
#471 = AXIS2_PLACEMENT_3D ( 'NONE', #392, #20, #440 ) ;
#472 = DIRECTION ( 'NONE',  ( -1.000000000000000000, -0.000000000000000000, -0.000000000000000000 ) ) ;
#473 = DIRECTION ( 'NONE',  ( -0.000000000000000000, -1.000000000000000000, -0.000000000000000000 ) ) ;
#474 = ORIENTED_EDGE ( 'NONE', *, *, #523, .F. ) ;
#475 = ORIENTED_EDGE ( 'NONE', *, *, #443, .T. ) ;
#476 = LINE ( 'NONE', #149, #323 ) ;
#477 = APPROVAL_PERSON_ORGANIZATION ( #118, #229, #192 ) ;
#478 = LINE ( 'NONE', #514, #381 ) ;
#479 = CIRCLE ( 'NONE', #128, 0.2499999999999999722 ) ;
#480 = DATE_AND_TIME ( #405, #14 ) ;
#481 = AXIS2_PLACEMENT_3D ( 'NONE', #496, #88, #90 ) ;
#482 = DIRECTION ( 'NONE',  ( 1.000000000000000000, 0.000000000000000000, 0.000000000000000000 ) ) ;
#483 = COORDINATED_UNIVERSAL_TIME_OFFSET ( 7, 0, .BEHIND. ) ;
#484 = EDGE_CURVE ( 'NONE', #449, #388, #151, .T. ) ;
#485 = ORIENTED_EDGE ( 'NONE', *, *, #298, .F. ) ;
#486 = PERSON_AND_ORGANIZATION ( #307, #310 ) ;
#487 = CARTESIAN_POINT ( 'NONE',  ( 22.36537633069419329, 8.293963314093383385E-17, -1.000000000000000222 ) ) ;
#488 = ORIENTED_EDGE ( 'NONE', *, *, #291, .F. ) ;
#489 = CC_DESIGN_APPROVAL ( #237, ( #166 ) ) ;
#490 = EDGE_CURVE ( 'NONE', #247, #365, #434, .T. ) ;
#491 = ORIENTED_EDGE ( 'NONE', *, *, #298, .T. ) ;
#492 = LINE ( 'NONE', #3, #22 ) ;
#493 = ORIENTED_EDGE ( 'NONE', *, *, #277, .F. ) ;
#494 = DIRECTION ( 'NONE',  ( 0.000000000000000000, 0.000000000000000000, -1.000000000000000000 ) ) ;
#495 = ORIENTED_EDGE ( 'NONE', *, *, #353, .T. ) ;
#496 = CARTESIAN_POINT ( 'NONE',  ( 22.36537633069419684, 0.2000000000000000944, -0.2500000000000000555 ) ) ;
#497 = APPROVAL_PERSON_ORGANIZATION ( #158, #377, #38 ) ;
#498 = LINE ( 'NONE', #426, #241 ) ;
#499 = CIRCLE ( 'NONE', #438, 0.2500000000000000555 ) ;
#500 = ORIENTED_EDGE ( 'NONE', *, *, #314, .F. ) ;
#501 = CARTESIAN_POINT ( 'NONE',  ( 22.11537633069419684, 0.2000000000000000944, -0.2499999999999998890 ) ) ;
#502 = EDGE_CURVE ( 'NONE', #247, #164, #478, .T. ) ;
#503 = FACE_BOUND ( 'NONE', #304, .T. ) ;
#504 = DIRECTION ( 'NONE',  ( 1.000000000000000000, 0.000000000000000000, 0.000000000000000000 ) ) ;
#505 = CARTESIAN_POINT ( 'NONE',  ( -16.53462366930579464, 0.1999999999999999278, -0.2499999999999998890 ) ) ;
#506 = ADVANCED_FACE ( 'NONE', ( #106 ), #427, .T. ) ;
#507 = CARTESIAN_POINT ( 'NONE',  ( 4.750000000000000000, 0.2000000000000000111, -0.2499999999999999722 ) ) ;
#508 = EDGE_LOOP ( 'NONE', ( #102, #206, #41, #121 ) ) ;
#509 = VECTOR ( 'NONE', #245, 100.0000000000000000 ) ;
#510 = VERTEX_POINT ( 'NONE', #63 ) ;
#511 = VECTOR ( 'NONE', #62, 100.0000000000000000 ) ;
#512 = CARTESIAN_POINT ( 'NONE',  ( 22.11537633069419684, 0.2000000000000000944, -0.5000000000000001110 ) ) ;
#513 = ORIENTED_EDGE ( 'NONE', *, *, #270, .T. ) ;
#514 = CARTESIAN_POINT ( 'NONE',  ( -16.78462366930579464, 0.1999999999999999278, -0.7499999999999981126 ) ) ;
#515 = ADVANCED_FACE ( 'NONE', ( #305 ), #467, .T. ) ;
#516 = CIRCLE ( 'NONE', #49, 0.2499999999999998890 ) ;
#517 = DIRECTION ( 'NONE',  ( 0.000000000000000000, -0.000000000000000000, 1.000000000000000000 ) ) ;
#518 = ADVANCED_FACE ( 'NONE', ( #59 ), #394, .F. ) ;
#519 = ORIENTED_EDGE ( 'NONE', *, *, #349, .T. ) ;
#520 = CIRCLE ( 'NONE', #193, 0.2500000000000000555 ) ;
#521 = DIRECTION ( 'NONE',  ( -0.000000000000000000, -1.000000000000000000, -0.000000000000000000 ) ) ;
#522 = CALENDAR_DATE ( 2025, 20, 11 ) ;
#523 = EDGE_CURVE ( 'NONE', #462, #174, #219, .T. ) ;
#524 = DATE_AND_TIME ( #357, #32 ) ;
#525 = ORIENTED_EDGE ( 'NONE', *, *, #523, .T. ) ;
ENDSEC;
END-ISO-10303-21;
