ISO-10303-21;
HEADER;
FILE_DESCRIPTION (( 'STEP AP203' ),
    '1' );
FILE_NAME ('Link E_Default_sldprt.STEP',
    '2025-11-20T16:13:36',
    ( '' ),
    ( '' ),
    'SwSTEP 2.0',
    'SolidWorks 2025',
    '' );
FILE_SCHEMA (( 'CONFIG_CONTROL_DESIGN' ));
ENDSEC;

DATA;
#1 = FACE_OUTER_BOUND ( 'NONE', #476, .T. ) ;
#2 = ADVANCED_FACE ( 'NONE', ( #342, #348, #429 ), #299, .F. ) ;
#3 = VERTEX_POINT ( 'NONE', #472 ) ;
#4 =( NAMED_UNIT ( * ) SI_UNIT ( $, .STERADIAN. ) SOLID_ANGLE_UNIT ( ) );
#5 = FACE_OUTER_BOUND ( 'NONE', #281, .T. ) ;
#6 = ORIENTED_EDGE ( 'NONE', *, *, #265, .F. ) ;
#7 = CYLINDRICAL_SURFACE ( 'NONE', #255, 0.2500000000000001110 ) ;
#8 = VECTOR ( 'NONE', #57, 100.0000000000000000 ) ;
#9 = FACE_OUTER_BOUND ( 'NONE', #485, .T. ) ;
#10 = VERTEX_POINT ( 'NONE', #218 ) ;
#11 = PERSON_AND_ORGANIZATION_ROLE ( 'design_supplier' ) ;
#12 = DIRECTION ( 'NONE',  ( -0.000000000000000000, -1.000000000000000000, -0.000000000000000000 ) ) ;
#13 = EDGE_LOOP ( 'NONE', ( #126, #519, #414, #367 ) ) ;
#14 = APPROVAL_STATUS ( 'not_yet_approved' ) ;
#15 = CARTESIAN_POINT ( 'NONE',  ( 26.26340458137399025, 0.2000000000000001221, -1.000000000000000222 ) ) ;
#16 = DIRECTION ( 'NONE',  ( -0.000000000000000000, -1.000000000000000000, -0.000000000000000000 ) ) ;
#17 = CIRCLE ( 'NONE', #405, 0.2500000000000001110 ) ;
#18 = DIRECTION ( 'NONE',  ( 0.000000000000000000, 1.000000000000000000, 0.000000000000000000 ) ) ;
#19 = EDGE_CURVE ( 'NONE', #65, #34, #302, .T. ) ;
#20 = AXIS2_PLACEMENT_3D ( 'NONE', #508, #395, #229 ) ;
#21 = ORIENTED_EDGE ( 'NONE', *, *, #94, .F. ) ;
#22 = COORDINATED_UNIVERSAL_TIME_OFFSET ( 7, 0, .BEHIND. ) ;
#23 = CARTESIAN_POINT ( 'NONE',  ( 30.51340458137398670, 1.301042606982605321E-16, -0.2499999999999998890 ) ) ;
#24 = DIRECTION ( 'NONE',  ( -0.000000000000000000, -1.000000000000000000, -0.000000000000000000 ) ) ;
#25 = CARTESIAN_POINT ( 'NONE',  ( -24.53659541862600335, -1.167043548908714307E-16, -0.9999999999999998890 ) ) ;
#26 = DIRECTION ( 'NONE',  ( -0.000000000000000000, -1.000000000000000000, -0.000000000000000000 ) ) ;
#27 = ORIENTED_EDGE ( 'NONE', *, *, #238, .T. ) ;
#28 = DIRECTION ( 'NONE',  ( 0.000000000000000000, 0.000000000000000000, 1.000000000000000000 ) ) ;
#29 = AXIS2_PLACEMENT_3D ( 'NONE', #92, #50, #254 ) ;
#30 = LINE ( 'NONE', #409, #279 ) ;
#31 = ADVANCED_FACE ( 'NONE', ( #191 ), #426, .F. ) ;
#32 = CARTESIAN_POINT ( 'NONE',  ( 31.01340458137398670, 1.224806210337046264E-16, -0.7499999999999984457 ) ) ;
#33 = ADVANCED_FACE ( 'NONE', ( #430 ), #501, .T. ) ;
#34 = VERTEX_POINT ( 'NONE', #23 ) ;
#35 = DIRECTION ( 'NONE',  ( 0.000000000000000000, 0.000000000000000000, 1.000000000000000000 ) ) ;
#36 = ORIENTED_EDGE ( 'NONE', *, *, #464, .F. ) ;
#37 = VECTOR ( 'NONE', #118, 100.0000000000000000 ) ;
#38 = CC_DESIGN_PERSON_AND_ORGANIZATION_ASSIGNMENT ( #427, #11, ( #450 ) ) ;
#39 = CARTESIAN_POINT ( 'NONE',  ( 30.51340458137398670, 1.301042606982605321E-16, -0.5000000000000001110 ) ) ;
#40 = ORIENTED_EDGE ( 'NONE', *, *, #55, .T. ) ;
#41 = LINE ( 'NONE', #309, #182 ) ;
#42 = CARTESIAN_POINT ( 'NONE',  ( -24.78659541862600335, 0.1999999999999999278, -0.2500000000000017208 ) ) ;
#43 = ORIENTED_EDGE ( 'NONE', *, *, #265, .T. ) ;
#44 = CARTESIAN_POINT ( 'NONE',  ( 31.01340458137398670, 0.2000000000000001221, -0.2500000000000018874 ) ) ;
#45 = ORIENTED_EDGE ( 'NONE', *, *, #360, .F. ) ;
#46 = AXIS2_PLACEMENT_3D ( 'NONE', #437, #274, #231 ) ;
#47 = LINE ( 'NONE', #499, #376 ) ;
#48 = ORIENTED_EDGE ( 'NONE', *, *, #488, .T. ) ;
#49 = PERSON_AND_ORGANIZATION ( #262, #432 ) ;
#50 = DIRECTION ( 'NONE',  ( 0.000000000000000000, 0.000000000000000000, 1.000000000000000000 ) ) ;
#51 = DIRECTION ( 'NONE',  ( 0.000000000000000000, 1.000000000000000000, 0.000000000000000000 ) ) ;
#52 = DIRECTION ( 'NONE',  ( -1.000000000000000000, 0.000000000000000000, -0.000000000000000000 ) ) ;
#53 = CARTESIAN_POINT ( 'NONE',  ( 31.01340458137398670, 0.2000000000000001221, -0.7499999999999984457 ) ) ;
#54 = AXIS2_PLACEMENT_3D ( 'NONE', #233, #399, #196 ) ;
#55 = EDGE_CURVE ( 'NONE', #173, #106, #383, .T. ) ;
#56 = CIRCLE ( 'NONE', #522, 0.2499999999999998890 ) ;
#57 = DIRECTION ( 'NONE',  ( -0.000000000000000000, -1.000000000000000000, -0.000000000000000000 ) ) ;
#58 = EDGE_CURVE ( 'NONE', #215, #76, #502, .T. ) ;
#59 = DIRECTION ( 'NONE',  ( 0.000000000000000000, 0.000000000000000000, -1.000000000000000000 ) ) ;
#60 = DIRECTION ( 'NONE',  ( -0.000000000000000000, -1.000000000000000000, -0.000000000000000000 ) ) ;
#61 = CC_DESIGN_APPROVAL ( #144, ( #68 ) ) ;
#62 = FACE_BOUND ( 'NONE', #148, .T. ) ;
#63 = EDGE_LOOP ( 'NONE', ( #396, #291, #80, #435, #286, #433, #21, #401 ) ) ;
#64 = LINE ( 'NONE', #66, #452 ) ;
#65 = VERTEX_POINT ( 'NONE', #224 ) ;
#66 = CARTESIAN_POINT ( 'NONE',  ( -24.28659541862600335, 0.1999999999999999278, -0.7500000000000001110 ) ) ;
#67 = VERTEX_POINT ( 'NONE', #347 ) ;
#68 = PRODUCT_DEFINITION ( 'UNKNOWN', '', #450, #334 ) ;
#69 = VECTOR ( 'NONE', #497, 100.0000000000000000 ) ;
#70 = CARTESIAN_POINT ( 'NONE',  ( 30.76340458137398670, 1.224806210337046264E-16, -1.000000000000000222 ) ) ;
#71 = ORIENTED_EDGE ( 'NONE', *, *, #207, .T. ) ;
#72 = DIRECTION ( 'NONE',  ( 1.000000000000000000, 0.000000000000000000, 0.000000000000000000 ) ) ;
#73 = ORIENTED_EDGE ( 'NONE', *, *, #225, .F. ) ;
#74 = DIRECTION ( 'NONE',  ( -1.000000000000000000, -0.000000000000000000, -0.000000000000000000 ) ) ;
#75 = EDGE_CURVE ( 'NONE', #370, #173, #17, .T. ) ;
#76 = VERTEX_POINT ( 'NONE', #90 ) ;
#77 = ORIENTED_EDGE ( 'NONE', *, *, #350, .F. ) ;
#78 = CC_DESIGN_APPROVAL ( #505, ( #450 ) ) ;
#79 = FACE_OUTER_BOUND ( 'NONE', #184, .T. ) ;
#80 = ORIENTED_EDGE ( 'NONE', *, *, #259, .F. ) ;
#81 = DIRECTION ( 'NONE',  ( -0.000000000000000000, -1.000000000000000000, -0.000000000000000000 ) ) ;
#82 = CYLINDRICAL_SURFACE ( 'NONE', #406, 0.2499999999999998890 ) ;
#83 = VERTEX_POINT ( 'NONE', #25 ) ;
#84 = CALENDAR_DATE ( 2025, 20, 11 ) ;
#85 = DIRECTION ( 'NONE',  ( 0.000000000000000000, 0.000000000000000000, -1.000000000000000000 ) ) ;
#86 = PRODUCT_RELATED_PRODUCT_CATEGORY ( 'detail', '', ( #190 ) ) ;
#87 = VERTEX_POINT ( 'NONE', #469 ) ;
#88 =( GEOMETRIC_REPRESENTATION_CONTEXT ( 3 ) GLOBAL_UNCERTAINTY_ASSIGNED_CONTEXT ( ( #111 ) ) GLOBAL_UNIT_ASSIGNED_CONTEXT ( ( #483, #411, #4 ) ) REPRESENTATION_CONTEXT ( 'NONE', 'WORKASPACE' ) );
#89 = DIRECTION ( 'NONE',  ( -0.000000000000000000, -1.000000000000000000, -0.000000000000000000 ) ) ;
#90 = CARTESIAN_POINT ( 'NONE',  ( -24.28659541862600335, -1.084202172485504434E-16, -0.2499999999999997780 ) ) ;
#91 = APPROVAL_ROLE ( '' ) ;
#92 = CARTESIAN_POINT ( 'NONE',  ( 26.26340458137399025, 0.2000000000000001221, -1.000000000000000222 ) ) ;
#93 = CARTESIAN_POINT ( 'NONE',  ( 30.76340458137398670, 1.301042606982605321E-16, -0.2500000000000000555 ) ) ;
#94 = EDGE_CURVE ( 'NONE', #514, #270, #477, .T. ) ;
#95 = CALENDAR_DATE ( 2025, 20, 11 ) ;
#96 = CYLINDRICAL_SURFACE ( 'NONE', #506, 0.2500000000000002220 ) ;
#97 = APPROVAL_DATE_TIME ( #127, #505 ) ;
#98 = CIRCLE ( 'NONE', #54, 0.2500000000000001110 ) ;
#99 = ORIENTED_EDGE ( 'NONE', *, *, #94, .T. ) ;
#100 = ORIENTED_EDGE ( 'NONE', *, *, #58, .T. ) ;
#101 = DIRECTION ( 'NONE',  ( 0.000000000000000000, 0.000000000000000000, -1.000000000000000000 ) ) ;
#102 = AXIS2_PLACEMENT_3D ( 'NONE', #333, #415, #327 ) ;
#103 = APPROVAL_PERSON_ORGANIZATION ( #177, #505, #339 ) ;
#104 = DIRECTION ( 'NONE',  ( -0.000000000000000000, -1.000000000000000000, -0.000000000000000000 ) ) ;
#105 = EDGE_CURVE ( 'NONE', #10, #198, #482, .T. ) ;
#106 = VERTEX_POINT ( 'NONE', #53 ) ;
#107 = CARTESIAN_POINT ( 'NONE',  ( 30.51340458137398670, 0.2000000000000001221, -0.7500000000000003331 ) ) ;
#108 = ORIENTED_EDGE ( 'NONE', *, *, #207, .F. ) ;
#109 = EDGE_CURVE ( 'NONE', #106, #389, #449, .T. ) ;
#110 = DIRECTION ( 'NONE',  ( 0.000000000000000000, 1.000000000000000000, 0.000000000000000000 ) ) ;
#111 = UNCERTAINTY_MEASURE_WITH_UNIT (LENGTH_MEASURE( 1.000000000000000082E-05 ), #483, 'distance_accuracy_value', 'NONE');
#112 = APPLICATION_PROTOCOL_DEFINITION ( 'international standard', 'config_control_design', 1994, #316 ) ;
#113 = VECTOR ( 'NONE', #382, 100.0000000000000000 ) ;
#114 = CARTESIAN_POINT ( 'NONE',  ( -24.28659541862600335, 0.1999999999999999278, -0.4999999999999999445 ) ) ;
#115 = ORIENTED_EDGE ( 'NONE', *, *, #169, .T. ) ;
#116 = ADVANCED_FACE ( 'NONE', ( #138 ), #96, .F. ) ;
#117 = VERTEX_POINT ( 'NONE', #119 ) ;
#118 = DIRECTION ( 'NONE',  ( -0.000000000000000000, -0.000000000000000000, 1.000000000000000000 ) ) ;
#119 = CARTESIAN_POINT ( 'NONE',  ( -24.78659541862600335, 0.1999999999999998723, -0.7499999999999981126 ) ) ;
#120 = CIRCLE ( 'NONE', #235, 0.2500000000000002220 ) ;
#121 = ORIENTED_EDGE ( 'NONE', *, *, #360, .T. ) ;
#122 = AXIS2_PLACEMENT_3D ( 'NONE', #240, #404, #454 ) ;
#123 = MECHANICAL_CONTEXT ( 'NONE', #266, 'mechanical' ) ;
#124 = VECTOR ( 'NONE', #104, 100.0000000000000000 ) ;
#125 = DIRECTION ( 'NONE',  ( 0.000000000000000000, 1.000000000000000000, -0.000000000000000000 ) ) ;
#126 = ORIENTED_EDGE ( 'NONE', *, *, #520, .T. ) ;
#127 = DATE_AND_TIME ( #95, #313 ) ;
#128 = CC_DESIGN_PERSON_AND_ORGANIZATION_ASSIGNMENT ( #294, #424, ( #386 ) ) ;
#129 = DIRECTION ( 'NONE',  ( -0.000000000000000000, -1.000000000000000000, -0.000000000000000000 ) ) ;
#130 = ORIENTED_EDGE ( 'NONE', *, *, #381, .F. ) ;
#131 = DIRECTION ( 'NONE',  ( 0.000000000000000000, 0.000000000000000000, 1.000000000000000000 ) ) ;
#132 = VERTEX_POINT ( 'NONE', #431 ) ;
#133 = APPROVAL_ROLE ( '' ) ;
#134 = AXIS2_PLACEMENT_3D ( 'NONE', #371, #484, #35 ) ;
#135 = LINE ( 'NONE', #261, #69 ) ;
#136 = EDGE_CURVE ( 'NONE', #67, #215, #388, .T. ) ;
#137 = DIRECTION ( 'NONE',  ( 0.000000000000000000, 0.000000000000000000, -1.000000000000000000 ) ) ;
#138 = FACE_OUTER_BOUND ( 'NONE', #154, .T. ) ;
#139 = CALENDAR_DATE ( 2025, 20, 11 ) ;
#140 = ORIENTED_EDGE ( 'NONE', *, *, #225, .T. ) ;
#141 = EDGE_CURVE ( 'NONE', #117, #3, #194, .T. ) ;
#142 = CIRCLE ( 'NONE', #441, 0.2500000000000001110 ) ;
#143 = ORIENTED_EDGE ( 'NONE', *, *, #365, .T. ) ;
#144 = APPROVAL ( #14, 'UNSPECIFIED' ) ;
#145 = DIRECTION ( 'NONE',  ( -0.000000000000000000, -1.000000000000000000, -0.000000000000000000 ) ) ;
#146 = PRODUCT_DEFINITION_SHAPE ( 'NONE', 'NONE',  #68 ) ;
#147 = CYLINDRICAL_SURFACE ( 'NONE', #20, 0.2499999999999999722 ) ;
#148 = EDGE_LOOP ( 'NONE', ( #165, #45 ) ) ;
#149 = AXIS2_PLACEMENT_3D ( 'NONE', #267, #51, #271 ) ;
#150 = VECTOR ( 'NONE', #237, 100.0000000000000000 ) ;
#152 = ADVANCED_FACE ( 'NONE', ( #79, #407, #62 ), #311, .T. ) ;
#151 = CARTESIAN_POINT ( 'NONE',  ( -24.78659541862600335, 0.1999999999999999278, -0.7499999999999981126 ) ) ;
#153 = VECTOR ( 'NONE', #434, 100.0000000000000000 ) ;
#154 = EDGE_LOOP ( 'NONE', ( #205, #157, #176, #521 ) ) ;
#155 = DIRECTION ( 'NONE',  ( 0.000000000000000000, 0.000000000000000000, -1.000000000000000000 ) ) ;
#156 = ADVANCED_FACE ( 'NONE', ( #288 ), #147, .T. ) ;
#157 = ORIENTED_EDGE ( 'NONE', *, *, #310, .T. ) ;
#158 = APPROVAL_PERSON_ORGANIZATION ( #264, #188, #91 ) ;
#159 = PERSON_AND_ORGANIZATION ( #262, #432 ) ;
#160 = LOCAL_TIME ( 9, 13, 36.00000000000000000, #421 ) ;
#161 = CARTESIAN_POINT ( 'NONE',  ( -24.78659541862600335, 0.1999999999999999278, -0.2500000000000016098 ) ) ;
#162 = CC_DESIGN_DATE_AND_TIME_ASSIGNMENT ( #493, #457, ( #68 ) ) ;
#163 = ORIENTED_EDGE ( 'NONE', *, *, #193, .T. ) ;
#164 = CARTESIAN_POINT ( 'NONE',  ( -24.53659541862600335, -1.084202172485504434E-16, -0.2499999999999998890 ) ) ;
#165 = ORIENTED_EDGE ( 'NONE', *, *, #136, .F. ) ;
#166 = PERSON_AND_ORGANIZATION_ROLE ( 'design_owner' ) ;
#167 = CARTESIAN_POINT ( 'NONE',  ( -24.78659541862600335, -1.167043548908714307E-16, -0.2500000000000015543 ) ) ;
#168 = AXIS2_PLACEMENT_3D ( 'NONE', #179, #217, #214 ) ;
#169 = EDGE_CURVE ( 'NONE', #83, #3, #425, .T. ) ;
#170 = ORIENTED_EDGE ( 'NONE', *, *, #353, .T. ) ;
#171 = DATE_AND_TIME ( #391, #201 ) ;
#172 = PLANE ( 'NONE',  #222 ) ;
#173 = VERTEX_POINT ( 'NONE', #451 ) ;
#174 = PERSON_AND_ORGANIZATION_ROLE ( 'creator' ) ;
#175 = DIRECTION ( 'NONE',  ( 1.000000000000000000, 0.000000000000000000, 0.000000000000000000 ) ) ;
#176 = ORIENTED_EDGE ( 'NONE', *, *, #230, .T. ) ;
#177 = PERSON_AND_ORGANIZATION ( #262, #432 ) ;
#178 = EDGE_CURVE ( 'NONE', #389, #270, #30, .T. ) ;
#179 = CARTESIAN_POINT ( 'NONE',  ( 30.51340458137398670, 0.2000000000000001221, -0.5000000000000001110 ) ) ;
#180 = ORIENTED_EDGE ( 'NONE', *, *, #178, .T. ) ;
#181 = AXIS2_PLACEMENT_3D ( 'NONE', #478, #351, #272 ) ;
#182 = VECTOR ( 'NONE', #486, 100.0000000000000000 ) ;
#183 = AXIS2_PLACEMENT_3D ( 'NONE', #93, #263, #423 ) ;
#184 = EDGE_LOOP ( 'NONE', ( #143, #524, #40, #445, #187, #256, #163, #170 ) ) ;
#185 = APPROVAL_STATUS ( 'not_yet_approved' ) ;
#186 = CARTESIAN_POINT ( 'NONE',  ( -24.78659541862600335, 0.1999999999999999278, -0.2500000000000017208 ) ) ;
#187 = ORIENTED_EDGE ( 'NONE', *, *, #377, .T. ) ;
#188 = APPROVAL ( #185, 'UNSPECIFIED' ) ;
#189 = VECTOR ( 'NONE', #375, 100.0000000000000000 ) ;
#190 = PRODUCT ( 'Link E_Default_sldprt', 'Link E_Default_sldprt', '', ( #123 ) ) ;
#191 = FACE_OUTER_BOUND ( 'NONE', #13, .T. ) ;
#192 = LINE ( 'NONE', #42, #153 ) ;
#193 = EDGE_CURVE ( 'NONE', #117, #202, #192, .T. ) ;
#194 = LINE ( 'NONE', #151, #245 ) ;
#195 = CIRCLE ( 'NONE', #512, 0.2499999999999999722 ) ;
#196 = DIRECTION ( 'NONE',  ( 0.000000000000000000, 0.000000000000000000, 1.000000000000000000 ) ) ;
#197 = AXIS2_PLACEMENT_3D ( 'NONE', #419, #60, #392 ) ;
#198 = VERTEX_POINT ( 'NONE', #354 ) ;
#199 = FACE_OUTER_BOUND ( 'NONE', #373, .T. ) ;
#200 = CARTESIAN_POINT ( 'NONE',  ( 30.51340458137398670, 1.301042606982605321E-16, -0.7500000000000003331 ) ) ;
#201 = LOCAL_TIME ( 9, 13, 36.00000000000000000, #461 ) ;
#202 = VERTEX_POINT ( 'NONE', #474 ) ;
#203 = DIRECTION ( 'NONE',  ( 0.000000000000000000, 0.000000000000000000, -1.000000000000000000 ) ) ;
#204 = FACE_OUTER_BOUND ( 'NONE', #380, .T. ) ;
#205 = ORIENTED_EDGE ( 'NONE', *, *, #19, .F. ) ;
#206 = CARTESIAN_POINT ( 'NONE',  ( 30.51340458137398670, 1.301042606982605321E-16, -0.5000000000000001110 ) ) ;
#207 = EDGE_CURVE ( 'NONE', #67, #87, #64, .T. ) ;
#208 = EDGE_LOOP ( 'NONE', ( #479, #489, #518, #220 ) ) ;
#209 = PERSON_AND_ORGANIZATION ( #262, #432 ) ;
#210 = FACE_OUTER_BOUND ( 'NONE', #234, .T. ) ;
#211 = AXIS2_PLACEMENT_3D ( 'NONE', #480, #277, #439 ) ;
#212 = ORIENTED_EDGE ( 'NONE', *, *, #447, .T. ) ;
#213 = DATE_AND_TIME ( #139, #463 ) ;
#214 = DIRECTION ( 'NONE',  ( 0.000000000000000000, 0.000000000000000000, 1.000000000000000000 ) ) ;
#215 = VERTEX_POINT ( 'NONE', #510 ) ;
#216 = DATE_AND_TIME ( #84, #458 ) ;
#217 = DIRECTION ( 'NONE',  ( 0.000000000000000000, 1.000000000000000000, 0.000000000000000000 ) ) ;
#218 = CARTESIAN_POINT ( 'NONE',  ( 30.76340458137398670, 1.224806210337046264E-16, -1.294046312188837975E-16 ) ) ;
#219 = CARTESIAN_POINT ( 'NONE',  ( -24.53659541862600335, 0.1999999999999999278, -0.7500000000000000000 ) ) ;
#220 = ORIENTED_EDGE ( 'NONE', *, *, #517, .T. ) ;
#221 = AXIS2_PLACEMENT_3D ( 'NONE', #248, #110, #359 ) ;
#222 = AXIS2_PLACEMENT_3D ( 'NONE', #467, #494, #52 ) ;
#223 = CIRCLE ( 'NONE', #46, 0.2500000000000001110 ) ;
#224 = CARTESIAN_POINT ( 'NONE',  ( 30.51340458137398670, 0.2000000000000001221, -0.2499999999999998890 ) ) ;
#225 = EDGE_CURVE ( 'NONE', #498, #34, #120, .T. ) ;
#226 = CARTESIAN_POINT ( 'NONE',  ( 30.51340458137398670, 0.2000000000000001221, -0.5000000000000001110 ) ) ;
#227 = DIRECTION ( 'NONE',  ( 0.000000000000000000, 0.000000000000000000, 1.000000000000000000 ) ) ;
#228 = VECTOR ( 'NONE', #72, 100.0000000000000000 ) ;
#229 = DIRECTION ( 'NONE',  ( 0.000000000000000000, 0.000000000000000000, -1.000000000000000000 ) ) ;
#230 = EDGE_CURVE ( 'NONE', #378, #498, #513, .T. ) ;
#231 = DIRECTION ( 'NONE',  ( 0.000000000000000000, 0.000000000000000000, 1.000000000000000000 ) ) ;
#232 = ADVANCED_BREP_SHAPE_REPRESENTATION ( 'Link E_Default_sldprt', ( #390, #394 ), #88 ) ;
#233 = CARTESIAN_POINT ( 'NONE',  ( -24.28659541862600335, -1.084202172485504434E-16, -0.4999999999999999445 ) ) ;
#234 = EDGE_LOOP ( 'NONE', ( #361, #241, #403, #246 ) ) ;
#235 = AXIS2_PLACEMENT_3D ( 'NONE', #206, #308, #516 ) ;
#236 = ORIENTED_EDGE ( 'NONE', *, *, #58, .F. ) ;
#237 = DIRECTION ( 'NONE',  ( -0.000000000000000000, -1.000000000000000000, -0.000000000000000000 ) ) ;
#238 = EDGE_CURVE ( 'NONE', #87, #76, #223, .T. ) ;
#239 = ORIENTED_EDGE ( 'NONE', *, *, #55, .F. ) ;
#240 = CARTESIAN_POINT ( 'NONE',  ( 30.76340458137398670, 0.2000000000000001221, -0.7500000000000001110 ) ) ;
#241 = ORIENTED_EDGE ( 'NONE', *, *, #365, .F. ) ;
#242 = CARTESIAN_POINT ( 'NONE',  ( 0.000000000000000000, 0.000000000000000000, 0.000000000000000000 ) ) ;
#243 = DIRECTION ( 'NONE',  ( 0.000000000000000000, 1.000000000000000000, 0.000000000000000000 ) ) ;
#244 = AXIS2_PLACEMENT_3D ( 'NONE', #470, #260, #137 ) ;
#245 = VECTOR ( 'NONE', #473, 100.0000000000000000 ) ;
#246 = ORIENTED_EDGE ( 'NONE', *, *, #444, .T. ) ;
#247 = EDGE_CURVE ( 'NONE', #34, #498, #356, .T. ) ;
#248 = CARTESIAN_POINT ( 'NONE',  ( 4.750000000000000000, 0.2000000000000000111, -0.2499999999999999722 ) ) ;
#249 = ORIENTED_EDGE ( 'NONE', *, *, #75, .F. ) ;
#250 = DIRECTION ( 'NONE',  ( -0.000000000000000000, -1.000000000000000000, -0.000000000000000000 ) ) ;
#251 = PLANE ( 'NONE',  #29 ) ;
#252 = EDGE_LOOP ( 'NONE', ( #27, #43 ) ) ;
#253 = APPROVAL_DATE_TIME ( #216, #188 ) ;
#254 = DIRECTION ( 'NONE',  ( 1.000000000000000000, 0.000000000000000000, -0.000000000000000000 ) ) ;
#255 = AXIS2_PLACEMENT_3D ( 'NONE', #114, #81, #442 ) ;
#256 = ORIENTED_EDGE ( 'NONE', *, *, #381, .T. ) ;
#257 = SHAPE_DEFINITION_REPRESENTATION ( #146, #232 ) ;
#258 = LINE ( 'NONE', #379, #416 ) ;
#259 = EDGE_CURVE ( 'NONE', #296, #322, #195, .T. ) ;
#260 = DIRECTION ( 'NONE',  ( 0.000000000000000000, 1.000000000000000000, -0.000000000000000000 ) ) ;
#261 = CARTESIAN_POINT ( 'NONE',  ( -24.53659541862600335, 0.1999999999999999278, -0.9999999999999998890 ) ) ;
#262 = PERSON ( 'UNSPECIFIED', 'UNSPECIFIED', 'UNSPECIFIED', ('UNSPECIFIED'), ('UNSPECIFIED'), ('UNSPECIFIED') ) ;
#263 = DIRECTION ( 'NONE',  ( 0.000000000000000000, 1.000000000000000000, 0.000000000000000000 ) ) ;
#264 = PERSON_AND_ORGANIZATION ( #262, #432 ) ;
#265 = EDGE_CURVE ( 'NONE', #76, #87, #98, .T. ) ;
#266 = APPLICATION_CONTEXT ( 'configuration controlled 3d designs of mechanical parts and assemblies' ) ;
#267 = CARTESIAN_POINT ( 'NONE',  ( 30.76340458137398670, 1.301042606982605321E-16, -0.2500000000000000555 ) ) ;
#268 = DATE_TIME_ROLE ( 'classification_date' ) ;
#269 = ADVANCED_FACE ( 'NONE', ( #1 ), #317, .F. ) ;
#270 = VERTEX_POINT ( 'NONE', #70 ) ;
#271 = DIRECTION ( 'NONE',  ( 0.000000000000000000, -0.000000000000000000, 1.000000000000000000 ) ) ;
#273 = ADVANCED_FACE ( 'NONE', ( #204 ), #369, .F. ) ;
#272 = DIRECTION ( 'NONE',  ( 0.000000000000000000, 0.000000000000000000, -1.000000000000000000 ) ) ;
#274 = DIRECTION ( 'NONE',  ( 0.000000000000000000, 1.000000000000000000, 0.000000000000000000 ) ) ;
#275 = ORIENTED_EDGE ( 'NONE', *, *, #238, .F. ) ;
#276 = DIRECTION ( 'NONE',  ( 0.000000000000000000, 1.000000000000000000, -0.000000000000000000 ) ) ;
#277 = DIRECTION ( 'NONE',  ( -0.000000000000000000, -1.000000000000000000, -0.000000000000000000 ) ) ;
#278 = LINE ( 'NONE', #523, #298 ) ;
#279 = VECTOR ( 'NONE', #26, 100.0000000000000000 ) ;
#280 = CC_DESIGN_PERSON_AND_ORGANIZATION_ASSIGNMENT ( #209, #166, ( #190 ) ) ;
#281 = EDGE_LOOP ( 'NONE', ( #446, #338, #460, #180 ) ) ;
#282 = CARTESIAN_POINT ( 'NONE',  ( -24.53659541862600335, 0.1999999999999998723, -0.9999999999999998890 ) ) ;
#283 = ORIENTED_EDGE ( 'NONE', *, *, #230, .F. ) ;
#284 = LINE ( 'NONE', #443, #150 ) ;
#285 = CC_DESIGN_APPROVAL ( #188, ( #386 ) ) ;
#286 = ORIENTED_EDGE ( 'NONE', *, *, #169, .F. ) ;
#287 = LINE ( 'NONE', #326, #366 ) ;
#288 = FACE_OUTER_BOUND ( 'NONE', #208, .T. ) ;
#289 = AXIS2_PLACEMENT_3D ( 'NONE', #387, #504, #59 ) ;
#290 = CIRCLE ( 'NONE', #102, 0.2499999999999999722 ) ;
#291 = ORIENTED_EDGE ( 'NONE', *, *, #444, .F. ) ;
#292 = CARTESIAN_POINT ( 'NONE',  ( 31.01340458137398670, 0.2000000000000001221, -0.2500000000000018874 ) ) ;
#293 = ORIENTED_EDGE ( 'NONE', *, *, #503, .F. ) ;
#294 = PERSON_AND_ORGANIZATION ( #262, #432 ) ;
#295 = CARTESIAN_POINT ( 'NONE',  ( -24.53659541862600335, 0.1999999999999999278, -0.7500000000000000000 ) ) ;
#296 = VERTEX_POINT ( 'NONE', #167 ) ;
#297 = DIRECTION ( 'NONE',  ( -1.000000000000000000, 0.000000000000000000, 0.000000000000000000 ) ) ;
#298 = VECTOR ( 'NONE', #74, 100.0000000000000000 ) ;
#299 = PLANE ( 'NONE',  #149 ) ;
#300 = CALENDAR_DATE ( 2025, 20, 11 ) ;
#301 = PLANE ( 'NONE',  #341 ) ;
#302 = LINE ( 'NONE', #349, #428 ) ;
#303 = DIRECTION ( 'NONE',  ( 0.000000000000000000, 0.000000000000000000, -1.000000000000000000 ) ) ;
#304 = ADVANCED_FACE ( 'NONE', ( #5 ), #251, .F. ) ;
#305 = PERSON_AND_ORGANIZATION ( #262, #432 ) ;
#306 = DIRECTION ( 'NONE',  ( 0.000000000000000000, 0.000000000000000000, -1.000000000000000000 ) ) ;
#307 = ORIENTED_EDGE ( 'NONE', *, *, #503, .T. ) ;
#308 = DIRECTION ( 'NONE',  ( 0.000000000000000000, 1.000000000000000000, 0.000000000000000000 ) ) ;
#309 = CARTESIAN_POINT ( 'NONE',  ( 31.01340458137398670, 0.2000000000000001221, -0.7499999999999984457 ) ) ;
#310 = EDGE_CURVE ( 'NONE', #65, #378, #400, .T. ) ;
#311 = PLANE ( 'NONE',  #221 ) ;
#312 = EDGE_LOOP ( 'NONE', ( #140, #495 ) ) ;
#313 = LOCAL_TIME ( 9, 13, 36.00000000000000000, #343 ) ;
#314 = AXIS2_PLACEMENT_3D ( 'NONE', #186, #507, #303 ) ;
#315 = DIRECTION ( 'NONE',  ( 0.000000000000000000, 1.000000000000000000, 0.000000000000000000 ) ) ;
#316 = APPLICATION_CONTEXT ( 'configuration controlled 3d designs of mechanical parts and assemblies' ) ;
#317 = CYLINDRICAL_SURFACE ( 'NONE', #211, 0.2500000000000001110 ) ;
#318 = EDGE_CURVE ( 'NONE', #453, #83, #135, .T. ) ;
#319 = VECTOR ( 'NONE', #250, 100.0000000000000000 ) ;
#320 = LINE ( 'NONE', #368, #37 ) ;
#321 = CC_DESIGN_PERSON_AND_ORGANIZATION_ASSIGNMENT ( #305, #331, ( #68 ) ) ;
#322 = VERTEX_POINT ( 'NONE', #372 ) ;
#323 = APPLICATION_PROTOCOL_DEFINITION ( 'international standard', 'config_control_design', 1994, #266 ) ;
#324 = CARTESIAN_POINT ( 'NONE',  ( 30.51340458137398670, 0.2000000000000001221, -0.5000000000000001110 ) ) ;
#325 = ORIENTED_EDGE ( 'NONE', *, *, #464, .T. ) ;
#326 = CARTESIAN_POINT ( 'NONE',  ( 31.01340458137398670, 1.301042606982605321E-16, -0.2500000000000018874 ) ) ;
#327 = DIRECTION ( 'NONE',  ( 0.000000000000000000, 0.000000000000000000, -1.000000000000000000 ) ) ;
#328 = CLOSED_SHELL ( 'NONE', ( #269, #273, #116, #436, #152, #2, #304, #398, #33, #384, #500, #420, #31, #156 ) ) ;
#329 = AXIS2_PLACEMENT_3D ( 'NONE', #39, #315, #397 ) ;
#330 = ORIENTED_EDGE ( 'NONE', *, *, #105, .T. ) ;
#331 = PERSON_AND_ORGANIZATION_ROLE ( 'creator' ) ;
#332 = CC_DESIGN_SECURITY_CLASSIFICATION ( #386, ( #450 ) ) ;
#333 = CARTESIAN_POINT ( 'NONE',  ( -24.53659541862600335, 0.1999999999999999278, -0.2499999999999998890 ) ) ;
#334 = DESIGN_CONTEXT ( 'detailed design', #316, 'design' ) ;
#335 = ORIENTED_EDGE ( 'NONE', *, *, #109, .F. ) ;
#336 = COORDINATED_UNIVERSAL_TIME_OFFSET ( 7, 0, .BEHIND. ) ;
#337 = LINE ( 'NONE', #15, #189 ) ;
#338 = ORIENTED_EDGE ( 'NONE', *, *, #318, .F. ) ;
#339 = APPROVAL_ROLE ( '' ) ;
#340 = CARTESIAN_POINT ( 'NONE',  ( 30.76340458137398670, 0.2000000000000001221, -1.294046312188837975E-16 ) ) ;
#341 = AXIS2_PLACEMENT_3D ( 'NONE', #44, #297, #459 ) ;
#342 = FACE_BOUND ( 'NONE', #312, .T. ) ;
#343 = COORDINATED_UNIVERSAL_TIME_OFFSET ( 7, 0, .BEHIND. ) ;
#344 = EDGE_CURVE ( 'NONE', #132, #322, #47, .T. ) ;
#345 = CARTESIAN_POINT ( 'NONE',  ( 31.01340458137398670, 0.2000000000000001221, -0.2500000000000018874 ) ) ;
#346 = APPROVAL_STATUS ( 'not_yet_approved' ) ;
#347 = CARTESIAN_POINT ( 'NONE',  ( -24.28659541862600335, 0.1999999999999999278, -0.7500000000000001110 ) ) ;
#348 = FACE_OUTER_BOUND ( 'NONE', #63, .T. ) ;
#349 = CARTESIAN_POINT ( 'NONE',  ( 30.51340458137398670, 0.2000000000000001221, -0.2499999999999998890 ) ) ;
#350 = EDGE_CURVE ( 'NONE', #173, #198, #490, .T. ) ;
#351 = DIRECTION ( 'NONE',  ( 0.000000000000000000, 1.000000000000000000, -0.000000000000000000 ) ) ;
#352 = ORIENTED_EDGE ( 'NONE', *, *, #136, .T. ) ;
#353 = EDGE_CURVE ( 'NONE', #202, #132, #290, .T. ) ;
#354 = CARTESIAN_POINT ( 'NONE',  ( 31.01340458137398670, 1.224806210337046264E-16, -0.2500000000000018874 ) ) ;
#355 = ORIENTED_EDGE ( 'NONE', *, *, #350, .T. ) ;
#356 = CIRCLE ( 'NONE', #329, 0.2500000000000002220 ) ;
#357 = APPROVAL_PERSON_ORGANIZATION ( #159, #144, #133 ) ;
#358 = AXIS2_PLACEMENT_3D ( 'NONE', #487, #243, #28 ) ;
#360 = EDGE_CURVE ( 'NONE', #215, #67, #142, .T. ) ;
#359 = DIRECTION ( 'NONE',  ( 0.000000000000000000, -0.000000000000000000, 1.000000000000000000 ) ) ;
#361 = ORIENTED_EDGE ( 'NONE', *, *, #488, .F. ) ;
#362 = LINE ( 'NONE', #161, #319 ) ;
#363 = ORIENTED_EDGE ( 'NONE', *, *, #19, .T. ) ;
#364 = CYLINDRICAL_SURFACE ( 'NONE', #122, 0.2500000000000000555 ) ;
#365 = EDGE_CURVE ( 'NONE', #132, #370, #258, .T. ) ;
#366 = VECTOR ( 'NONE', #203, 100.0000000000000000 ) ;
#367 = ORIENTED_EDGE ( 'NONE', *, *, #141, .T. ) ;
#368 = CARTESIAN_POINT ( 'NONE',  ( -24.78659541862600335, -1.084202172485504434E-16, -0.2500000000000017208 ) ) ;
#369 = CYLINDRICAL_SURFACE ( 'NONE', #515, 0.2500000000000002220 ) ;
#370 = VERTEX_POINT ( 'NONE', #340 ) ;
#371 = CARTESIAN_POINT ( 'NONE',  ( 30.51340458137398670, 0.2000000000000001221, -0.5000000000000001110 ) ) ;
#372 = CARTESIAN_POINT ( 'NONE',  ( -24.53659541862599980, -1.167043548908714307E-16, 1.233018242300968705E-16 ) ) ;
#373 = EDGE_LOOP ( 'NONE', ( #236, #121, #71, #6 ) ) ;
#374 = CARTESIAN_POINT ( 'NONE',  ( -24.53659541862599980, -1.084202172485504434E-16, 8.673617379884035472E-17 ) ) ;
#375 = DIRECTION ( 'NONE',  ( -1.000000000000000000, -0.000000000000000000, -0.000000000000000000 ) ) ;
#376 = VECTOR ( 'NONE', #12, 100.0000000000000000 ) ;
#377 = EDGE_CURVE ( 'NONE', #389, #453, #337, .T. ) ;
#378 = VERTEX_POINT ( 'NONE', #412 ) ;
#379 = CARTESIAN_POINT ( 'NONE',  ( -24.53659541862599980, 0.1999999999999999278, 8.673617379884035472E-17 ) ) ;
#380 = EDGE_LOOP ( 'NONE', ( #325, #363, #73, #283 ) ) ;
#381 = EDGE_CURVE ( 'NONE', #453, #117, #56, .T. ) ;
#382 = DIRECTION ( 'NONE',  ( -0.000000000000000000, -1.000000000000000000, -0.000000000000000000 ) ) ;
#383 = LINE ( 'NONE', #345, #491 ) ;
#384 = ADVANCED_FACE ( 'NONE', ( #9 ), #301, .F. ) ;
#385 = FACE_OUTER_BOUND ( 'NONE', #456, .T. ) ;
#386 = SECURITY_CLASSIFICATION ( '', '', #466 ) ;
#387 = CARTESIAN_POINT ( 'NONE',  ( 30.76340458137398670, 0.2000000000000001221, -0.7500000000000001110 ) ) ;
#388 = CIRCLE ( 'NONE', #358, 0.2500000000000001110 ) ;
#389 = VERTEX_POINT ( 'NONE', #418 ) ;
#390 = MANIFOLD_SOLID_BREP ( 'Flex1', #328 ) ;
#391 = CALENDAR_DATE ( 2025, 20, 11 ) ;
#392 = DIRECTION ( 'NONE',  ( 0.000000000000000000, 0.000000000000000000, -1.000000000000000000 ) ) ;
#393 = CARTESIAN_POINT ( 'NONE',  ( 30.76340458137398670, 0.2000000000000001221, -0.2500000000000000555 ) ) ;
#394 = AXIS2_PLACEMENT_3D ( 'NONE', #242, #481, #525 ) ;
#395 = DIRECTION ( 'NONE',  ( -0.000000000000000000, -1.000000000000000000, -0.000000000000000000 ) ) ;
#396 = ORIENTED_EDGE ( 'NONE', *, *, #105, .F. ) ;
#397 = DIRECTION ( 'NONE',  ( 0.000000000000000000, 0.000000000000000000, 1.000000000000000000 ) ) ;
#398 = ADVANCED_FACE ( 'NONE', ( #210 ), #172, .F. ) ;
#399 = DIRECTION ( 'NONE',  ( 0.000000000000000000, 1.000000000000000000, 0.000000000000000000 ) ) ;
#400 = CIRCLE ( 'NONE', #168, 0.2500000000000002220 ) ;
#401 = ORIENTED_EDGE ( 'NONE', *, *, #447, .F. ) ;
#402 = FACE_OUTER_BOUND ( 'NONE', #438, .T. ) ;
#403 = ORIENTED_EDGE ( 'NONE', *, *, #344, .T. ) ;
#404 = DIRECTION ( 'NONE',  ( -0.000000000000000000, -1.000000000000000000, -0.000000000000000000 ) ) ;
#405 = AXIS2_PLACEMENT_3D ( 'NONE', #393, #468, #227 ) ;
#406 = AXIS2_PLACEMENT_3D ( 'NONE', #295, #129, #85 ) ;
#407 = FACE_BOUND ( 'NONE', #440, .T. ) ;
#408 = ORIENTED_EDGE ( 'NONE', *, *, #178, .F. ) ;
#409 = CARTESIAN_POINT ( 'NONE',  ( 30.76340458137398670, 0.2000000000000001221, -1.000000000000000222 ) ) ;
#410 = EDGE_LOOP ( 'NONE', ( #330, #77, #249, #48 ) ) ;
#411 =( NAMED_UNIT ( * ) PLANE_ANGLE_UNIT ( ) SI_UNIT ( $, .RADIAN. ) );
#412 = CARTESIAN_POINT ( 'NONE',  ( 30.51340458137398670, 0.2000000000000001221, -0.7500000000000003331 ) ) ;
#413 = CC_DESIGN_PERSON_AND_ORGANIZATION_ASSIGNMENT ( #49, #174, ( #450 ) ) ;
#414 = ORIENTED_EDGE ( 'NONE', *, *, #193, .F. ) ;
#415 = DIRECTION ( 'NONE',  ( 0.000000000000000000, 1.000000000000000000, -0.000000000000000000 ) ) ;
#416 = VECTOR ( 'NONE', #175, 100.0000000000000000 ) ;
#417 = ORIENTED_EDGE ( 'NONE', *, *, #318, .T. ) ;
#418 = CARTESIAN_POINT ( 'NONE',  ( 30.76340458137398670, 0.2000000000000001221, -1.000000000000000222 ) ) ;
#419 = CARTESIAN_POINT ( 'NONE',  ( 30.76340458137398670, 0.2000000000000001221, -0.2500000000000000555 ) ) ;
#420 = ADVANCED_FACE ( 'NONE', ( #385 ), #82, .T. ) ;
#421 = COORDINATED_UNIVERSAL_TIME_OFFSET ( 7, 0, .BEHIND. ) ;
#422 = CARTESIAN_POINT ( 'NONE',  ( -24.28659541862600335, 0.1999999999999999278, -0.4999999999999999445 ) ) ;
#423 = DIRECTION ( 'NONE',  ( 0.000000000000000000, 0.000000000000000000, 1.000000000000000000 ) ) ;
#424 = PERSON_AND_ORGANIZATION_ROLE ( 'classification_officer' ) ;
#425 = CIRCLE ( 'NONE', #181, 0.2499999999999998890 ) ;
#426 = PLANE ( 'NONE',  #314 ) ;
#427 = PERSON_AND_ORGANIZATION ( #262, #432 ) ;
#428 = VECTOR ( 'NONE', #16, 100.0000000000000000 ) ;
#429 = FACE_BOUND ( 'NONE', #252, .T. ) ;
#430 = FACE_OUTER_BOUND ( 'NONE', #410, .T. ) ;
#431 = CARTESIAN_POINT ( 'NONE',  ( -24.53659541862599980, 0.1999999999999998723, 1.233018242300968705E-16 ) ) ;
#432 = ORGANIZATION ( 'UNSPECIFIED', 'UNSPECIFIED', '' ) ;
#433 = ORIENTED_EDGE ( 'NONE', *, *, #509, .F. ) ;
#434 = DIRECTION ( 'NONE',  ( -0.000000000000000000, -0.000000000000000000, 1.000000000000000000 ) ) ;
#435 = ORIENTED_EDGE ( 'NONE', *, *, #520, .F. ) ;
#436 = ADVANCED_FACE ( 'NONE', ( #199 ), #7, .F. ) ;
#437 = CARTESIAN_POINT ( 'NONE',  ( -24.28659541862600335, -1.084202172485504434E-16, -0.4999999999999999445 ) ) ;
#438 = EDGE_LOOP ( 'NONE', ( #99, #408, #335, #307 ) ) ;
#439 = DIRECTION ( 'NONE',  ( 0.000000000000000000, 0.000000000000000000, -1.000000000000000000 ) ) ;
#440 = EDGE_LOOP ( 'NONE', ( #36, #511 ) ) ;
#441 = AXIS2_PLACEMENT_3D ( 'NONE', #422, #18, #131 ) ;
#442 = DIRECTION ( 'NONE',  ( 0.000000000000000000, 0.000000000000000000, -1.000000000000000000 ) ) ;
#443 = CARTESIAN_POINT ( 'NONE',  ( 30.76340458137398670, 0.2000000000000001221, -8.673617379884035472E-17 ) ) ;
#444 = EDGE_CURVE ( 'NONE', #322, #10, #448, .T. ) ;
#445 = ORIENTED_EDGE ( 'NONE', *, *, #109, .T. ) ;
#446 = ORIENTED_EDGE ( 'NONE', *, *, #509, .T. ) ;
#447 = EDGE_CURVE ( 'NONE', #198, #514, #287, .T. ) ;
#448 = LINE ( 'NONE', #374, #228 ) ;
#449 = CIRCLE ( 'NONE', #289, 0.2500000000000000555 ) ;
#450 = PRODUCT_DEFINITION_FORMATION_WITH_SPECIFIED_SOURCE ( 'ANY', '', #190, .NOT_KNOWN. ) ;
#451 = CARTESIAN_POINT ( 'NONE',  ( 31.01340458137398670, 0.2000000000000001221, -0.2500000000000018874 ) ) ;
#452 = VECTOR ( 'NONE', #145, 100.0000000000000000 ) ;
#453 = VERTEX_POINT ( 'NONE', #282 ) ;
#454 = DIRECTION ( 'NONE',  ( 0.000000000000000000, 0.000000000000000000, -1.000000000000000000 ) ) ;
#455 = DIRECTION ( 'NONE',  ( 0.000000000000000000, 0.000000000000000000, -1.000000000000000000 ) ) ;
#456 = EDGE_LOOP ( 'NONE', ( #115, #492, #130, #417 ) ) ;
#457 = DATE_TIME_ROLE ( 'creation_date' ) ;
#458 = LOCAL_TIME ( 9, 13, 36.00000000000000000, #336 ) ;
#459 = DIRECTION ( 'NONE',  ( 0.000000000000000000, 0.000000000000000000, 1.000000000000000000 ) ) ;
#460 = ORIENTED_EDGE ( 'NONE', *, *, #377, .F. ) ;
#461 = COORDINATED_UNIVERSAL_TIME_OFFSET ( 7, 0, .BEHIND. ) ;
#462 = DIRECTION ( 'NONE',  ( 0.000000000000000000, 0.000000000000000000, -1.000000000000000000 ) ) ;
#463 = LOCAL_TIME ( 9, 13, 36.00000000000000000, #22 ) ;
#464 = EDGE_CURVE ( 'NONE', #378, #65, #475, .T. ) ;
#465 = CARTESIAN_POINT ( 'NONE',  ( -24.28659541862600335, 0.1999999999999999278, -0.2499999999999997780 ) ) ;
#466 = SECURITY_CLASSIFICATION_LEVEL ( 'unclassified' ) ;
#467 = CARTESIAN_POINT ( 'NONE',  ( 26.26340458137399025, 0.2000000000000001221, -8.673617379884035472E-17 ) ) ;
#468 = DIRECTION ( 'NONE',  ( 0.000000000000000000, 1.000000000000000000, 0.000000000000000000 ) ) ;
#469 = CARTESIAN_POINT ( 'NONE',  ( -24.28659541862600335, -1.084202172485504434E-16, -0.7500000000000001110 ) ) ;
#470 = CARTESIAN_POINT ( 'NONE',  ( 30.76340458137398670, 1.301042606982605321E-16, -0.7500000000000001110 ) ) ;
#471 = CC_DESIGN_DATE_AND_TIME_ASSIGNMENT ( #213, #268, ( #386 ) ) ;
#472 = CARTESIAN_POINT ( 'NONE',  ( -24.78659541862600335, -1.167043548908714307E-16, -0.7499999999999981126 ) ) ;
#473 = DIRECTION ( 'NONE',  ( -0.000000000000000000, -1.000000000000000000, -0.000000000000000000 ) ) ;
#474 = CARTESIAN_POINT ( 'NONE',  ( -24.78659541862600335, 0.1999999999999998723, -0.2500000000000015543 ) ) ;
#475 = CIRCLE ( 'NONE', #134, 0.2500000000000002220 ) ;
#476 = EDGE_LOOP ( 'NONE', ( #352, #100, #275, #108 ) ) ;
#477 = CIRCLE ( 'NONE', #244, 0.2500000000000000555 ) ;
#478 = CARTESIAN_POINT ( 'NONE',  ( -24.53659541862600335, -1.084202172485504434E-16, -0.7500000000000000000 ) ) ;
#479 = ORIENTED_EDGE ( 'NONE', *, *, #259, .T. ) ;
#480 = CARTESIAN_POINT ( 'NONE',  ( -24.28659541862600335, 0.1999999999999999278, -0.4999999999999999445 ) ) ;
#481 = DIRECTION ( 'NONE',  ( 0.000000000000000000, 0.000000000000000000, 1.000000000000000000 ) ) ;
#482 = CIRCLE ( 'NONE', #183, 0.2500000000000001110 ) ;
#483 =( LENGTH_UNIT ( ) NAMED_UNIT ( * ) SI_UNIT ( .CENTI., .METRE. ) );
#484 = DIRECTION ( 'NONE',  ( 0.000000000000000000, 1.000000000000000000, 0.000000000000000000 ) ) ;
#485 = EDGE_LOOP ( 'NONE', ( #212, #293, #239, #355 ) ) ;
#486 = DIRECTION ( 'NONE',  ( -0.000000000000000000, -1.000000000000000000, -0.000000000000000000 ) ) ;
#487 = CARTESIAN_POINT ( 'NONE',  ( -24.28659541862600335, 0.1999999999999999278, -0.4999999999999999445 ) ) ;
#488 = EDGE_CURVE ( 'NONE', #370, #10, #284, .T. ) ;
#489 = ORIENTED_EDGE ( 'NONE', *, *, #344, .F. ) ;
#490 = LINE ( 'NONE', #292, #113 ) ;
#491 = VECTOR ( 'NONE', #306, 100.0000000000000000 ) ;
#492 = ORIENTED_EDGE ( 'NONE', *, *, #141, .F. ) ;
#493 = DATE_AND_TIME ( #300, #160 ) ;
#494 = DIRECTION ( 'NONE',  ( 0.000000000000000000, 0.000000000000000000, -1.000000000000000000 ) ) ;
#495 = ORIENTED_EDGE ( 'NONE', *, *, #247, .T. ) ;
#496 = APPROVAL_DATE_TIME ( #171, #144 ) ;
#497 = DIRECTION ( 'NONE',  ( -0.000000000000000000, -1.000000000000000000, -0.000000000000000000 ) ) ;
#498 = VERTEX_POINT ( 'NONE', #200 ) ;
#499 = CARTESIAN_POINT ( 'NONE',  ( -24.53659541862599980, 0.1999999999999999278, 8.673617379884035472E-17 ) ) ;
#500 = ADVANCED_FACE ( 'NONE', ( #402 ), #364, .T. ) ;
#501 = CYLINDRICAL_SURFACE ( 'NONE', #197, 0.2500000000000000555 ) ;
#503 = EDGE_CURVE ( 'NONE', #106, #514, #41, .T. ) ;
#502 = LINE ( 'NONE', #465, #8 ) ;
#504 = DIRECTION ( 'NONE',  ( 0.000000000000000000, 1.000000000000000000, -0.000000000000000000 ) ) ;
#505 = APPROVAL ( #346, 'UNSPECIFIED' ) ;
#506 = AXIS2_PLACEMENT_3D ( 'NONE', #226, #24, #101 ) ;
#507 = DIRECTION ( 'NONE',  ( 1.000000000000000000, -0.000000000000000000, 0.000000000000000000 ) ) ;
#508 = CARTESIAN_POINT ( 'NONE',  ( -24.53659541862600335, 0.1999999999999999278, -0.2499999999999998890 ) ) ;
#509 = EDGE_CURVE ( 'NONE', #270, #83, #278, .T. ) ;
#510 = CARTESIAN_POINT ( 'NONE',  ( -24.28659541862600335, 0.1999999999999999278, -0.2499999999999997780 ) ) ;
#511 = ORIENTED_EDGE ( 'NONE', *, *, #310, .F. ) ;
#512 = AXIS2_PLACEMENT_3D ( 'NONE', #164, #276, #155 ) ;
#513 = LINE ( 'NONE', #107, #124 ) ;
#514 = VERTEX_POINT ( 'NONE', #32 ) ;
#515 = AXIS2_PLACEMENT_3D ( 'NONE', #324, #89, #462 ) ;
#516 = DIRECTION ( 'NONE',  ( 0.000000000000000000, 0.000000000000000000, 1.000000000000000000 ) ) ;
#517 = EDGE_CURVE ( 'NONE', #202, #296, #362, .T. ) ;
#518 = ORIENTED_EDGE ( 'NONE', *, *, #353, .F. ) ;
#519 = ORIENTED_EDGE ( 'NONE', *, *, #517, .F. ) ;
#520 = EDGE_CURVE ( 'NONE', #3, #296, #320, .T. ) ;
#521 = ORIENTED_EDGE ( 'NONE', *, *, #247, .F. ) ;
#522 = AXIS2_PLACEMENT_3D ( 'NONE', #219, #125, #455 ) ;
#523 = CARTESIAN_POINT ( 'NONE',  ( 26.26340458137399025, 1.301042606982605321E-16, -1.000000000000000222 ) ) ;
#524 = ORIENTED_EDGE ( 'NONE', *, *, #75, .T. ) ;
#525 = DIRECTION ( 'NONE',  ( 1.000000000000000000, 0.000000000000000000, 0.000000000000000000 ) ) ;
ENDSEC;
END-ISO-10303-21;
