ISO-10303-21;
HEADER;
FILE_DESCRIPTION (( 'STEP AP203' ),
    '1' );
FILE_NAME ('Link J_Default_sldprt.STEP',
    '2025-11-20T16:13:53',
    ( '' ),
    ( '' ),
    'SwSTEP 2.0',
    'SolidWorks 2025',
    '' );
FILE_SCHEMA (( 'CONFIG_CONTROL_DESIGN' ));
ENDSEC;

DATA;
#1 = DIRECTION ( 'NONE',  ( 0.000000000000000000, 0.000000000000000000, 1.000000000000000000 ) ) ;
#2 = EDGE_LOOP ( 'NONE', ( #172, #134, #14, #366 ) ) ;
#3 = DIRECTION ( 'NONE',  ( 0.000000000000000000, 0.000000000000000000, -1.000000000000000000 ) ) ;
#4 = CARTESIAN_POINT ( 'NONE',  ( 28.04337020003601566, 0.2000000000000000944, -0.2500000000000018874 ) ) ;
#5 = ORIENTED_EDGE ( 'NONE', *, *, #447, .T. ) ;
#6 = DIRECTION ( 'NONE',  ( 1.000000000000000000, -0.000000000000000000, 0.000000000000000000 ) ) ;
#7 = AXIS2_PLACEMENT_3D ( 'NONE', #354, #407, #3 ) ;
#8 = VERTEX_POINT ( 'NONE', #196 ) ;
#9 = FACE_BOUND ( 'NONE', #429, .T. ) ;
#10 = ADVANCED_FACE ( 'NONE', ( #277 ), #187, .T. ) ;
#11 = ORIENTED_EDGE ( 'NONE', *, *, #37, .F. ) ;
#12 = CARTESIAN_POINT ( 'NONE',  ( 27.79337020003601566, 0.2000000000000000944, -8.673617379884035472E-17 ) ) ;
#13 = FACE_OUTER_BOUND ( 'NONE', #325, .T. ) ;
#14 = ORIENTED_EDGE ( 'NONE', *, *, #369, .F. ) ;
#15 = ORIENTED_EDGE ( 'NONE', *, *, #230, .T. ) ;
#16 = DIRECTION ( 'NONE',  ( 0.000000000000000000, 1.000000000000000000, -0.000000000000000000 ) ) ;
#17 = ORGANIZATION ( 'UNSPECIFIED', 'UNSPECIFIED', '' ) ;
#18 = AXIS2_PLACEMENT_3D ( 'NONE', #48, #213, #1 ) ;
#19 = PERSON ( 'UNSPECIFIED', 'UNSPECIFIED', 'UNSPECIFIED', ('UNSPECIFIED'), ('UNSPECIFIED'), ('UNSPECIFIED') ) ;
#20 = DESIGN_CONTEXT ( 'detailed design', #109, 'design' ) ;
#21 = ORIENTED_EDGE ( 'NONE', *, *, #338, .T. ) ;
#22 = ORIENTED_EDGE ( 'NONE', *, *, #469, .T. ) ;
#23 = CALENDAR_DATE ( 2025, 20, 11 ) ;
#24 = LINE ( 'NONE', #351, #26 ) ;
#25 = EDGE_CURVE ( 'NONE', #422, #247, #387, .T. ) ;
#26 = VECTOR ( 'NONE', #229, 100.0000000000000000 ) ;
#27 = CARTESIAN_POINT ( 'NONE',  ( -21.70662979996398079, 0.1999999999999999278, -0.2499999999999998890 ) ) ;
#28 = EDGE_CURVE ( 'NONE', #47, #52, #349, .T. ) ;
#29 = CARTESIAN_POINT ( 'NONE',  ( -21.95662979996398079, 0.1999999999999999278, -0.7499999999999981126 ) ) ;
#30 = DIRECTION ( 'NONE',  ( 0.000000000000000000, 0.000000000000000000, 1.000000000000000000 ) ) ;
#31 = EDGE_CURVE ( 'NONE', #8, #254, #102, .T. ) ;
#32 =( NAMED_UNIT ( * ) PLANE_ANGLE_UNIT ( ) SI_UNIT ( $, .RADIAN. ) );
#33 = PERSON_AND_ORGANIZATION_ROLE ( 'design_supplier' ) ;
#34 = LINE ( 'NONE', #190, #430 ) ;
#35 = CARTESIAN_POINT ( 'NONE',  ( -21.95662979996398079, 0.1999999999999999278, -0.2500000000000017208 ) ) ;
#36 = VERTEX_POINT ( 'NONE', #394 ) ;
#37 = EDGE_CURVE ( 'NONE', #80, #345, #34, .T. ) ;
#38 = PERSON_AND_ORGANIZATION_ROLE ( 'classification_officer' ) ;
#39 = DIRECTION ( 'NONE',  ( 0.000000000000000000, 0.000000000000000000, -1.000000000000000000 ) ) ;
#40 = LINE ( 'NONE', #111, #136 ) ;
#41 = DATE_TIME_ROLE ( 'creation_date' ) ;
#42 = MANIFOLD_SOLID_BREP ( 'Flex1', #294 ) ;
#43 = CARTESIAN_POINT ( 'NONE',  ( 27.79337020003601566, 1.084966131204076525E-16, -1.000000000000000222 ) ) ;
#44 = CIRCLE ( 'NONE', #60, 0.2500000000000001110 ) ;
#45 = ORIENTED_EDGE ( 'NONE', *, *, #144, .F. ) ;
#46 = FACE_OUTER_BOUND ( 'NONE', #161, .T. ) ;
#47 = VERTEX_POINT ( 'NONE', #390 ) ;
#48 = CARTESIAN_POINT ( 'NONE',  ( -21.45662979996398079, 0.1999999999999999278, -0.4999999999999999445 ) ) ;
#49 = ADVANCED_FACE ( 'NONE', ( #274 ), #279, .F. ) ;
#50 = VERTEX_POINT ( 'NONE', #312 ) ;
#51 = CIRCLE ( 'NONE', #468, 0.2500000000000000555 ) ;
#52 = VERTEX_POINT ( 'NONE', #238 ) ;
#53 = EDGE_LOOP ( 'NONE', ( #217, #446, #119, #201 ) ) ;
#54 = CARTESIAN_POINT ( 'NONE',  ( 27.79337020003601566, 0.2000000000000000944, -0.7500000000000001110 ) ) ;
#55 = ADVANCED_FACE ( 'NONE', ( #110 ), #515, .F. ) ;
#56 = CYLINDRICAL_SURFACE ( 'NONE', #326, 0.2499999999999998890 ) ;
#57 = ORIENTED_EDGE ( 'NONE', *, *, #64, .T. ) ;
#58 = ORIENTED_EDGE ( 'NONE', *, *, #404, .F. ) ;
#59 = APPROVAL_PERSON_ORGANIZATION ( #204, #108, #114 ) ;
#60 = AXIS2_PLACEMENT_3D ( 'NONE', #330, #121, #79 ) ;
#61 = ORIENTED_EDGE ( 'NONE', *, *, #503, .T. ) ;
#62 = AXIS2_PLACEMENT_3D ( 'NONE', #352, #317, #105 ) ;
#63 = CARTESIAN_POINT ( 'NONE',  ( -21.70662979996397723, -1.033798419308900624E-16, 1.092240568967393668E-16 ) ) ;
#64 = EDGE_CURVE ( 'NONE', #496, #52, #257, .T. ) ;
#65 = DIRECTION ( 'NONE',  ( -1.000000000000000000, 0.000000000000000000, -0.000000000000000000 ) ) ;
#66 = AXIS2_PLACEMENT_3D ( 'NONE', #54, #16, #126 ) ;
#67 = CARTESIAN_POINT ( 'NONE',  ( 27.54337020003601566, 0.2000000000000000944, -0.7500000000000003331 ) ) ;
#68 = PRODUCT ( 'Link J_Default_sldprt', 'Link J_Default_sldprt', '', ( #145 ) ) ;
#69 = DIRECTION ( 'NONE',  ( -0.000000000000000000, -1.000000000000000000, -0.000000000000000000 ) ) ;
#70 = DIRECTION ( 'NONE',  ( -0.000000000000000000, -1.000000000000000000, -0.000000000000000000 ) ) ;
#71 = SHAPE_DEFINITION_REPRESENTATION ( #350, #495 ) ;
#72 = CARTESIAN_POINT ( 'NONE',  ( 23.29337020003601921, 0.2000000000000000944, -8.673617379884035472E-17 ) ) ;
#73 = AXIS2_PLACEMENT_3D ( 'NONE', #142, #234, #268 ) ;
#74 = DIRECTION ( 'NONE',  ( 0.000000000000000000, 1.000000000000000000, -0.000000000000000000 ) ) ;
#75 = CARTESIAN_POINT ( 'NONE',  ( 27.54337020003601566, 1.084202172485504434E-16, -0.2499999999999998890 ) ) ;
#76 = COORDINATED_UNIVERSAL_TIME_OFFSET ( 7, 0, .BEHIND. ) ;
#77 = DIRECTION ( 'NONE',  ( 0.000000000000000000, 0.000000000000000000, -1.000000000000000000 ) ) ;
#78 = COORDINATED_UNIVERSAL_TIME_OFFSET ( 7, 0, .BEHIND. ) ;
#79 = DIRECTION ( 'NONE',  ( 0.000000000000000000, 0.000000000000000000, 1.000000000000000000 ) ) ;
#80 = VERTEX_POINT ( 'NONE', #63 ) ;
#81 = APPROVAL_PERSON_ORGANIZATION ( #525, #168, #120 ) ;
#82 = LINE ( 'NONE', #253, #233 ) ;
#83 = CIRCLE ( 'NONE', #18, 0.2500000000000001110 ) ;
#84 = ORIENTED_EDGE ( 'NONE', *, *, #501, .T. ) ;
#85 = FACE_BOUND ( 'NONE', #258, .T. ) ;
#86 = EDGE_CURVE ( 'NONE', #47, #211, #308, .T. ) ;
#87 = DIRECTION ( 'NONE',  ( 0.000000000000000000, 0.000000000000000000, 1.000000000000000000 ) ) ;
#88 = VERTEX_POINT ( 'NONE', #156 ) ;
#89 = CARTESIAN_POINT ( 'NONE',  ( -21.45662979996398079, -1.084202172485504434E-16, -0.4999999999999999445 ) ) ;
#90 = ORIENTED_EDGE ( 'NONE', *, *, #218, .F. ) ;
#91 = DIRECTION ( 'NONE',  ( 0.000000000000000000, 0.000000000000000000, 1.000000000000000000 ) ) ;
#92 = DIRECTION ( 'NONE',  ( 0.000000000000000000, 1.000000000000000000, 0.000000000000000000 ) ) ;
#93 = VECTOR ( 'NONE', #418, 100.0000000000000000 ) ;
#94 = CIRCLE ( 'NONE', #66, 0.2500000000000000555 ) ;
#95 = VERTEX_POINT ( 'NONE', #508 ) ;
#96 = LINE ( 'NONE', #212, #271 ) ;
#97 = CC_DESIGN_PERSON_AND_ORGANIZATION_ASSIGNMENT ( #306, #222, ( #68 ) ) ;
#98 = ORIENTED_EDGE ( 'NONE', *, *, #469, .F. ) ;
#99 = ORIENTED_EDGE ( 'NONE', *, *, #64, .F. ) ;
#100 = EDGE_CURVE ( 'NONE', #50, #254, #466, .T. ) ;
#101 = VERTEX_POINT ( 'NONE', #275 ) ;
#102 = LINE ( 'NONE', #29, #132 ) ;
#103 = AXIS2_PLACEMENT_3D ( 'NONE', #235, #396, #30 ) ;
#104 = DIRECTION ( 'NONE',  ( 1.000000000000000000, 0.000000000000000000, 0.000000000000000000 ) ) ;
#105 = DIRECTION ( 'NONE',  ( 0.000000000000000000, 0.000000000000000000, -1.000000000000000000 ) ) ;
#106 = CC_DESIGN_PERSON_AND_ORGANIZATION_ASSIGNMENT ( #517, #192, ( #521 ) ) ;
#107 = AXIS2_PLACEMENT_3D ( 'NONE', #35, #6, #124 ) ;
#108 = APPROVAL ( #164, 'UNSPECIFIED' ) ;
#109 = APPLICATION_CONTEXT ( 'configuration controlled 3d designs of mechanical parts and assemblies' ) ;
#110 = FACE_OUTER_BOUND ( 'NONE', #344, .T. ) ;
#111 = CARTESIAN_POINT ( 'NONE',  ( 27.54337020003601566, 0.2000000000000000944, -0.2499999999999998890 ) ) ;
#112 = PERSON_AND_ORGANIZATION ( #19, #17 ) ;
#113 = CARTESIAN_POINT ( 'NONE',  ( -21.70662979996397723, 0.1999999999999999278, 8.673617379884035472E-17 ) ) ;
#114 = APPROVAL_ROLE ( '' ) ;
#115 = DIRECTION ( 'NONE',  ( 0.000000000000000000, 0.000000000000000000, 1.000000000000000000 ) ) ;
#116 = VECTOR ( 'NONE', #194, 100.0000000000000000 ) ;
#117 = FACE_OUTER_BOUND ( 'NONE', #208, .T. ) ;
#118 = EDGE_CURVE ( 'NONE', #211, #47, #481, .T. ) ;
#119 = ORIENTED_EDGE ( 'NONE', *, *, #127, .F. ) ;
#120 = APPROVAL_ROLE ( '' ) ;
#121 = DIRECTION ( 'NONE',  ( 0.000000000000000000, 1.000000000000000000, 0.000000000000000000 ) ) ;
#122 = EDGE_CURVE ( 'NONE', #254, #138, #24, .T. ) ;
#123 = ORIENTED_EDGE ( 'NONE', *, *, #198, .T. ) ;
#124 = DIRECTION ( 'NONE',  ( 0.000000000000000000, 0.000000000000000000, -1.000000000000000000 ) ) ;
#125 = ORIENTED_EDGE ( 'NONE', *, *, #218, .T. ) ;
#126 = DIRECTION ( 'NONE',  ( 0.000000000000000000, 0.000000000000000000, -1.000000000000000000 ) ) ;
#127 = EDGE_CURVE ( 'NONE', #360, #143, #311, .T. ) ;
#128 = LOCAL_TIME ( 9, 13, 53.00000000000000000, #436 ) ;
#129 = FACE_OUTER_BOUND ( 'NONE', #416, .T. ) ;
#130 = DIRECTION ( 'NONE',  ( 0.000000000000000000, -0.000000000000000000, 1.000000000000000000 ) ) ;
#131 = ORIENTED_EDGE ( 'NONE', *, *, #122, .T. ) ;
#132 = VECTOR ( 'NONE', #150, 100.0000000000000000 ) ;
#133 = DIRECTION ( 'NONE',  ( 0.000000000000000000, 0.000000000000000000, 1.000000000000000000 ) ) ;
#134 = ORIENTED_EDGE ( 'NONE', *, *, #428, .F. ) ;
#135 = DIRECTION ( 'NONE',  ( -0.000000000000000000, -0.000000000000000000, 1.000000000000000000 ) ) ;
#136 = VECTOR ( 'NONE', #290, 100.0000000000000000 ) ;
#137 = AXIS2_PLACEMENT_3D ( 'NONE', #485, #74, #242 ) ;
#138 = VERTEX_POINT ( 'NONE', #151 ) ;
#139 = PLANE ( 'NONE',  #283 ) ;
#140 = DIRECTION ( 'NONE',  ( 0.000000000000000000, 0.000000000000000000, -1.000000000000000000 ) ) ;
#141 = EDGE_LOOP ( 'NONE', ( #98, #519, #84, #182 ) ) ;
#142 = CARTESIAN_POINT ( 'NONE',  ( 0.000000000000000000, 0.000000000000000000, 0.000000000000000000 ) ) ;
#143 = VERTEX_POINT ( 'NONE', #471 ) ;
#144 = EDGE_CURVE ( 'NONE', #36, #422, #193, .T. ) ;
#145 = MECHANICAL_CONTEXT ( 'NONE', #179, 'mechanical' ) ;
#146 = ORIENTED_EDGE ( 'NONE', *, *, #31, .F. ) ;
#147 = LOCAL_TIME ( 9, 13, 53.00000000000000000, #76 ) ;
#148 = DIRECTION ( 'NONE',  ( 0.000000000000000000, 1.000000000000000000, 0.000000000000000000 ) ) ;
#149 = AXIS2_PLACEMENT_3D ( 'NONE', #435, #348, #510 ) ;
#150 = DIRECTION ( 'NONE',  ( -0.000000000000000000, -1.000000000000000000, -0.000000000000000000 ) ) ;
#151 = CARTESIAN_POINT ( 'NONE',  ( -21.95662979996398079, -1.033798419308900624E-16, -0.2500000000000015543 ) ) ;
#152 = AXIS2_PLACEMENT_3D ( 'NONE', #72, #399, #65 ) ;
#153 = DATE_AND_TIME ( #478, #346 ) ;
#154 = DIRECTION ( 'NONE',  ( 0.000000000000000000, 0.000000000000000000, -1.000000000000000000 ) ) ;
#155 = FACE_OUTER_BOUND ( 'NONE', #2, .T. ) ;
#156 = CARTESIAN_POINT ( 'NONE',  ( 28.04337020003601566, 0.2000000000000001221, -0.7499999999999984457 ) ) ;
#157 = COORDINATED_UNIVERSAL_TIME_OFFSET ( 7, 0, .BEHIND. ) ;
#158 = ADVANCED_FACE ( 'NONE', ( #438 ), #432, .F. ) ;
#159 = AXIS2_PLACEMENT_3D ( 'NONE', #476, #148, #470 ) ;
#160 = LINE ( 'NONE', #288, #276 ) ;
#161 = EDGE_LOOP ( 'NONE', ( #131, #490, #500, #307 ) ) ;
#162 = DIRECTION ( 'NONE',  ( 0.000000000000000000, 1.000000000000000000, -0.000000000000000000 ) ) ;
#163 = CC_DESIGN_APPROVAL ( #108, ( #400 ) ) ;
#164 = APPROVAL_STATUS ( 'not_yet_approved' ) ;
#165 = VECTOR ( 'NONE', #492, 100.0000000000000000 ) ;
#166 = DIRECTION ( 'NONE',  ( 0.000000000000000000, 0.000000000000000000, -1.000000000000000000 ) ) ;
#167 = ORIENTED_EDGE ( 'NONE', *, *, #503, .F. ) ;
#168 = APPROVAL ( #484, 'UNSPECIFIED' ) ;
#169 = CARTESIAN_POINT ( 'NONE',  ( -21.70662979996398079, 0.1999999999999999278, -0.2499999999999998890 ) ) ;
#170 = CARTESIAN_POINT ( 'NONE',  ( -21.45662979996398079, -1.084202172485504434E-16, -0.7500000000000001110 ) ) ;
#171 = LINE ( 'NONE', #522, #293 ) ;
#172 = ORIENTED_EDGE ( 'NONE', *, *, #464, .T. ) ;
#173 = CARTESIAN_POINT ( 'NONE',  ( 27.79337020003601566, 1.084966131204076525E-16, -1.146300867096411564E-16 ) ) ;
#174 = FACE_BOUND ( 'NONE', #227, .T. ) ;
#175 = ORIENTED_EDGE ( 'NONE', *, *, #501, .F. ) ;
#176 = CARTESIAN_POINT ( 'NONE',  ( -21.45662979996398079, 0.1999999999999999278, -0.2499999999999997780 ) ) ;
#177 = VERTEX_POINT ( 'NONE', #487 ) ;
#178 = ORIENTED_EDGE ( 'NONE', *, *, #184, .F. ) ;
#179 = APPLICATION_CONTEXT ( 'configuration controlled 3d designs of mechanical parts and assemblies' ) ;
#180 = ORIENTED_EDGE ( 'NONE', *, *, #462, .F. ) ;
#181 = APPROVAL_ROLE ( '' ) ;
#182 = ORIENTED_EDGE ( 'NONE', *, *, #437, .F. ) ;
#183 = ORIENTED_EDGE ( 'NONE', *, *, #316, .T. ) ;
#184 = EDGE_CURVE ( 'NONE', #177, #373, #83, .T. ) ;
#185 = DATE_AND_TIME ( #23, #427 ) ;
#186 = AXIS2_PLACEMENT_3D ( 'NONE', #273, #514, #154 ) ;
#187 = CYLINDRICAL_SURFACE ( 'NONE', #296, 0.2499999999999999722 ) ;
#188 = AXIS2_PLACEMENT_3D ( 'NONE', #298, #92, #130 ) ;
#189 = ADVANCED_FACE ( 'NONE', ( #372 ), #401, .F. ) ;
#190 = CARTESIAN_POINT ( 'NONE',  ( -21.70662979996397723, -1.084202172485504434E-16, 8.673617379884035472E-17 ) ) ;
#191 = DIRECTION ( 'NONE',  ( 0.000000000000000000, 1.000000000000000000, -0.000000000000000000 ) ) ;
#192 = PERSON_AND_ORGANIZATION_ROLE ( 'creator' ) ;
#193 = LINE ( 'NONE', #113, #498 ) ;
#194 = DIRECTION ( 'NONE',  ( -0.000000000000000000, -1.000000000000000000, -0.000000000000000000 ) ) ;
#195 =( GEOMETRIC_REPRESENTATION_CONTEXT ( 3 ) GLOBAL_UNCERTAINTY_ASSIGNED_CONTEXT ( ( #225 ) ) GLOBAL_UNIT_ASSIGNED_CONTEXT ( ( #398, #32, #477 ) ) REPRESENTATION_CONTEXT ( 'NONE', 'WORKASPACE' ) );
#196 = CARTESIAN_POINT ( 'NONE',  ( -21.95662979996398079, 0.1999999999999999278, -0.7499999999999981126 ) ) ;
#197 = DIRECTION ( 'NONE',  ( -0.000000000000000000, -1.000000000000000000, -0.000000000000000000 ) ) ;
#198 = EDGE_CURVE ( 'NONE', #345, #101, #44, .T. ) ;
#199 = APPROVAL_DATE_TIME ( #520, #108 ) ;
#200 = CARTESIAN_POINT ( 'NONE',  ( 27.54337020003601566, 1.084202172485504434E-16, -0.5000000000000001110 ) ) ;
#201 = ORIENTED_EDGE ( 'NONE', *, *, #428, .T. ) ;
#202 = LINE ( 'NONE', #357, #505 ) ;
#203 = CARTESIAN_POINT ( 'NONE',  ( -21.45662979996398079, 0.1999999999999999278, -0.4999999999999999445 ) ) ;
#204 = PERSON_AND_ORGANIZATION ( #19, #17 ) ;
#205 = CIRCLE ( 'NONE', #420, 0.2500000000000001110 ) ;
#206 = APPROVAL ( #389, 'UNSPECIFIED' ) ;
#207 = LINE ( 'NONE', #362, #513 ) ;
#208 = EDGE_LOOP ( 'NONE', ( #250, #22, #524, #175 ) ) ;
#209 = FACE_OUTER_BOUND ( 'NONE', #289, .T. ) ;
#210 = ADVANCED_FACE ( 'NONE', ( #129 ), #249, .T. ) ;
#211 = VERTEX_POINT ( 'NONE', #295 ) ;
#212 = CARTESIAN_POINT ( 'NONE',  ( 27.79337020003601566, 0.2000000000000000944, -1.000000000000000222 ) ) ;
#213 = DIRECTION ( 'NONE',  ( 0.000000000000000000, 1.000000000000000000, 0.000000000000000000 ) ) ;
#214 = VERTEX_POINT ( 'NONE', #43 ) ;
#215 = CARTESIAN_POINT ( 'NONE',  ( -21.45662979996398079, 0.1999999999999999278, -0.4999999999999999445 ) ) ;
#216 = CC_DESIGN_PERSON_AND_ORGANIZATION_ASSIGNMENT ( #112, #33, ( #400 ) ) ;
#217 = ORIENTED_EDGE ( 'NONE', *, *, #395, .T. ) ;
#218 = EDGE_CURVE ( 'NONE', #247, #88, #207, .T. ) ;
#219 = VERTEX_POINT ( 'NONE', #170 ) ;
#220 = LINE ( 'NONE', #450, #165 ) ;
#221 = ORIENTED_EDGE ( 'NONE', *, *, #278, .T. ) ;
#222 = PERSON_AND_ORGANIZATION_ROLE ( 'design_owner' ) ;
#223 = CARTESIAN_POINT ( 'NONE',  ( -21.70662979996398079, 0.1999999999999999278, -0.7500000000000000000 ) ) ;
#224 = ADVANCED_FACE ( 'NONE', ( #46 ), #256, .F. ) ;
#225 = UNCERTAINTY_MEASURE_WITH_UNIT (LENGTH_MEASURE( 1.000000000000000082E-05 ), #398, 'distance_accuracy_value', 'NONE');
#226 = AXIS2_PLACEMENT_3D ( 'NONE', #409, #412, #166 ) ;
#227 = EDGE_LOOP ( 'NONE', ( #457, #342 ) ) ;
#228 = ORIENTED_EDGE ( 'NONE', *, *, #198, .F. ) ;
#229 = DIRECTION ( 'NONE',  ( -0.000000000000000000, -0.000000000000000000, 1.000000000000000000 ) ) ;
#230 = EDGE_CURVE ( 'NONE', #52, #496, #411, .T. ) ;
#231 = DIRECTION ( 'NONE',  ( -1.000000000000000000, -0.000000000000000000, -0.000000000000000000 ) ) ;
#232 = LOCAL_TIME ( 9, 13, 53.00000000000000000, #78 ) ;
#233 = VECTOR ( 'NONE', #246, 100.0000000000000000 ) ;
#234 = DIRECTION ( 'NONE',  ( 0.000000000000000000, 0.000000000000000000, 1.000000000000000000 ) ) ;
#235 = CARTESIAN_POINT ( 'NONE',  ( 27.79337020003601566, 0.2000000000000000944, -0.2500000000000000555 ) ) ;
#236 = DIRECTION ( 'NONE',  ( 0.000000000000000000, 0.000000000000000000, 1.000000000000000000 ) ) ;
#237 = AXIS2_PLACEMENT_3D ( 'NONE', #397, #191, #474 ) ;
#238 = CARTESIAN_POINT ( 'NONE',  ( 27.54337020003601566, 1.084202172485504434E-16, -0.7500000000000003331 ) ) ;
#239 = EDGE_CURVE ( 'NONE', #36, #80, #518, .T. ) ;
#240 = AXIS2_PLACEMENT_3D ( 'NONE', #431, #356, #236 ) ;
#241 = CIRCLE ( 'NONE', #392, 0.2499999999999998890 ) ;
#242 = DIRECTION ( 'NONE',  ( 0.000000000000000000, 0.000000000000000000, -1.000000000000000000 ) ) ;
#243 = EDGE_CURVE ( 'NONE', #101, #95, #160, .T. ) ;
#244 = ORIENTED_EDGE ( 'NONE', *, *, #472, .F. ) ;
#245 = CALENDAR_DATE ( 2025, 20, 11 ) ;
#246 = DIRECTION ( 'NONE',  ( -0.000000000000000000, -1.000000000000000000, -0.000000000000000000 ) ) ;
#247 = VERTEX_POINT ( 'NONE', #284 ) ;
#248 = CARTESIAN_POINT ( 'NONE',  ( -21.45662979996398079, 0.1999999999999999278, -0.2499999999999997780 ) ) ;
#249 = CYLINDRICAL_SURFACE ( 'NONE', #226, 0.2500000000000000555 ) ;
#250 = ORIENTED_EDGE ( 'NONE', *, *, #184, .T. ) ;
#251 = CIRCLE ( 'NONE', #512, 0.2499999999999999722 ) ;
#252 = AXIS2_PLACEMENT_3D ( 'NONE', #203, #452, #445 ) ;
#253 = CARTESIAN_POINT ( 'NONE',  ( 28.04337020003601566, 0.2000000000000000944, -0.2500000000000018874 ) ) ;
#254 = VERTEX_POINT ( 'NONE', #482 ) ;
#255 = CARTESIAN_POINT ( 'NONE',  ( 4.750000000000000000, 0.2000000000000000111, -0.2499999999999999722 ) ) ;
#256 = PLANE ( 'NONE',  #107 ) ;
#257 = CIRCLE ( 'NONE', #149, 0.2500000000000002220 ) ;
#258 = EDGE_LOOP ( 'NONE', ( #410, #384 ) ) ;
#259 = FACE_OUTER_BOUND ( 'NONE', #297, .T. ) ;
#260 = ADVANCED_FACE ( 'NONE', ( #117 ), #442, .F. ) ;
#261 = ORIENTED_EDGE ( 'NONE', *, *, #127, .T. ) ;
#262 = CARTESIAN_POINT ( 'NONE',  ( -21.95662979996398079, 0.1999999999999999278, -0.2500000000000016098 ) ) ;
#263 = AXIS2_PLACEMENT_3D ( 'NONE', #4, #405, #115 ) ;
#264 = ORIENTED_EDGE ( 'NONE', *, *, #378, .T. ) ;
#265 = DIRECTION ( 'NONE',  ( -0.000000000000000000, -1.000000000000000000, -0.000000000000000000 ) ) ;
#266 = EDGE_LOOP ( 'NONE', ( #228, #11, #488, #334, #272, #406, #302, #379 ) ) ;
#267 = DIRECTION ( 'NONE',  ( 0.000000000000000000, 1.000000000000000000, 0.000000000000000000 ) ) ;
#268 = DIRECTION ( 'NONE',  ( 1.000000000000000000, 0.000000000000000000, 0.000000000000000000 ) ) ;
#269 = PLANE ( 'NONE',  #188 ) ;
#270 = EDGE_LOOP ( 'NONE', ( #339, #45, #332, #376 ) ) ;
#271 = VECTOR ( 'NONE', #265, 100.0000000000000000 ) ;
#272 = ORIENTED_EDGE ( 'NONE', *, *, #100, .F. ) ;
#273 = CARTESIAN_POINT ( 'NONE',  ( 27.54337020003601566, 0.2000000000000000944, -0.5000000000000001110 ) ) ;
#274 = FACE_OUTER_BOUND ( 'NONE', #299, .T. ) ;
#275 = CARTESIAN_POINT ( 'NONE',  ( 28.04337020003601566, 1.084966131204076525E-16, -0.2500000000000018874 ) ) ;
#276 = VECTOR ( 'NONE', #322, 100.0000000000000000 ) ;
#277 = FACE_OUTER_BOUND ( 'NONE', #413, .T. ) ;
#278 = EDGE_CURVE ( 'NONE', #247, #101, #82, .T. ) ;
#279 = CYLINDRICAL_SURFACE ( 'NONE', #186, 0.2500000000000002220 ) ;
#280 = DIRECTION ( 'NONE',  ( 0.000000000000000000, 0.000000000000000000, -1.000000000000000000 ) ) ;
#281 = PERSON_AND_ORGANIZATION_ROLE ( 'creator' ) ;
#282 = DIRECTION ( 'NONE',  ( -0.000000000000000000, -1.000000000000000000, -0.000000000000000000 ) ) ;
#283 = AXIS2_PLACEMENT_3D ( 'NONE', #255, #380, #340 ) ;
#284 = CARTESIAN_POINT ( 'NONE',  ( 28.04337020003601566, 0.2000000000000001221, -0.2500000000000018874 ) ) ;
#285 = ADVANCED_FACE ( 'NONE', ( #209 ), #368, .F. ) ;
#286 = DIRECTION ( 'NONE',  ( 0.000000000000000000, 0.000000000000000000, -1.000000000000000000 ) ) ;
#287 = CALENDAR_DATE ( 2025, 20, 11 ) ;
#288 = CARTESIAN_POINT ( 'NONE',  ( 28.04337020003601566, 1.084202172485504434E-16, -0.2500000000000018874 ) ) ;
#289 = EDGE_LOOP ( 'NONE', ( #486, #244, #90, #221 ) ) ;
#290 = DIRECTION ( 'NONE',  ( -0.000000000000000000, -1.000000000000000000, -0.000000000000000000 ) ) ;
#291 = DIRECTION ( 'NONE',  ( -0.000000000000000000, -1.000000000000000000, -0.000000000000000000 ) ) ;
#292 = CARTESIAN_POINT ( 'NONE',  ( -21.45662979996398079, -1.084202172485504434E-16, -0.2499999999999997780 ) ) ;
#293 = VECTOR ( 'NONE', #282, 100.0000000000000000 ) ;
#294 = CLOSED_SHELL ( 'NONE', ( #260, #49, #55, #189, #440, #321, #310, #158, #210, #285, #479, #333, #224, #10 ) ) ;
#295 = CARTESIAN_POINT ( 'NONE',  ( 27.54337020003601566, 0.2000000000000000944, -0.2499999999999998890 ) ) ;
#296 = AXIS2_PLACEMENT_3D ( 'NONE', #27, #69, #509 ) ;
#297 = EDGE_LOOP ( 'NONE', ( #453, #493, #125, #309, #261, #455, #264, #424 ) ) ;
#298 = CARTESIAN_POINT ( 'NONE',  ( 27.79337020003601566, 1.084202172485504434E-16, -0.2500000000000000555 ) ) ;
#299 = EDGE_LOOP ( 'NONE', ( #388, #61, #504, #502 ) ) ;
#300 = CARTESIAN_POINT ( 'NONE',  ( -21.45662979996398079, -1.084202172485504434E-16, -0.4999999999999999445 ) ) ;
#301 = AXIS2_PLACEMENT_3D ( 'NONE', #319, #448, #77 ) ;
#302 = ORIENTED_EDGE ( 'NONE', *, *, #464, .F. ) ;
#303 = EDGE_CURVE ( 'NONE', #143, #50, #171, .T. ) ;
#304 = PRODUCT_RELATED_PRODUCT_CATEGORY ( 'detail', '', ( #68 ) ) ;
#305 = ORIENTED_EDGE ( 'NONE', *, *, #28, .T. ) ;
#306 = PERSON_AND_ORGANIZATION ( #19, #17 ) ;
#307 = ORIENTED_EDGE ( 'NONE', *, *, #31, .T. ) ;
#308 = CIRCLE ( 'NONE', #240, 0.2500000000000002220 ) ;
#309 = ORIENTED_EDGE ( 'NONE', *, *, #369, .T. ) ;
#310 = ADVANCED_FACE ( 'NONE', ( #328 ), #331, .F. ) ;
#311 = LINE ( 'NONE', #434, #383 ) ;
#312 = CARTESIAN_POINT ( 'NONE',  ( -21.70662979996398079, -1.033798419308900624E-16, -0.9999999999999998890 ) ) ;
#313 = DIRECTION ( 'NONE',  ( -0.000000000000000000, -1.000000000000000000, -0.000000000000000000 ) ) ;
#314 = CC_DESIGN_APPROVAL ( #206, ( #521 ) ) ;
#315 = CIRCLE ( 'NONE', #137, 0.2499999999999999722 ) ;
#316 = EDGE_CURVE ( 'NONE', #138, #80, #315, .T. ) ;
#317 = DIRECTION ( 'NONE',  ( -0.000000000000000000, -1.000000000000000000, -0.000000000000000000 ) ) ;
#318 = APPROVAL_DATE_TIME ( #185, #206 ) ;
#319 = CARTESIAN_POINT ( 'NONE',  ( -21.45662979996398079, 0.1999999999999999278, -0.4999999999999999445 ) ) ;
#320 = APPROVAL_DATE_TIME ( #444, #168 ) ;
#321 = ADVANCED_FACE ( 'NONE', ( #489, #341, #174 ), #269, .F. ) ;
#322 = DIRECTION ( 'NONE',  ( 0.000000000000000000, 0.000000000000000000, -1.000000000000000000 ) ) ;
#323 = CC_DESIGN_PERSON_AND_ORGANIZATION_ASSIGNMENT ( #364, #38, ( #459 ) ) ;
#324 = AXIS2_PLACEMENT_3D ( 'NONE', #89, #267, #91 ) ;
#325 = EDGE_LOOP ( 'NONE', ( #336, #146, #180, #491 ) ) ;
#326 = AXIS2_PLACEMENT_3D ( 'NONE', #223, #499, #140 ) ;
#327 = PERSON_AND_ORGANIZATION ( #19, #17 ) ;
#328 = FACE_OUTER_BOUND ( 'NONE', #53, .T. ) ;
#329 = DIRECTION ( 'NONE',  ( 0.000000000000000000, 1.000000000000000000, -0.000000000000000000 ) ) ;
#330 = CARTESIAN_POINT ( 'NONE',  ( 27.79337020003601566, 1.084202172485504434E-16, -0.2500000000000000555 ) ) ;
#331 = PLANE ( 'NONE',  #483 ) ;
#332 = ORIENTED_EDGE ( 'NONE', *, *, #239, .T. ) ;
#333 = ADVANCED_FACE ( 'NONE', ( #13 ), #56, .T. ) ;
#334 = ORIENTED_EDGE ( 'NONE', *, *, #122, .F. ) ;
#335 = DIRECTION ( 'NONE',  ( 0.000000000000000000, 0.000000000000000000, 1.000000000000000000 ) ) ;
#336 = ORIENTED_EDGE ( 'NONE', *, *, #100, .T. ) ;
#337 = LINE ( 'NONE', #414, #393 ) ;
#338 = EDGE_CURVE ( 'NONE', #460, #138, #454, .T. ) ;
#339 = ORIENTED_EDGE ( 'NONE', *, *, #447, .F. ) ;
#340 = DIRECTION ( 'NONE',  ( 0.000000000000000000, -0.000000000000000000, 1.000000000000000000 ) ) ;
#341 = FACE_OUTER_BOUND ( 'NONE', #266, .T. ) ;
#342 = ORIENTED_EDGE ( 'NONE', *, *, #437, .T. ) ;
#343 = APPLICATION_PROTOCOL_DEFINITION ( 'international standard', 'config_control_design', 1994, #109 ) ;
#344 = EDGE_LOOP ( 'NONE', ( #167, #370, #305, #99 ) ) ;
#345 = VERTEX_POINT ( 'NONE', #173 ) ;
#346 = LOCAL_TIME ( 9, 13, 53.00000000000000000, #157 ) ;
#347 = CC_DESIGN_SECURITY_CLASSIFICATION ( #459, ( #400 ) ) ;
#348 = DIRECTION ( 'NONE',  ( 0.000000000000000000, 1.000000000000000000, 0.000000000000000000 ) ) ;
#349 = LINE ( 'NONE', #67, #358 ) ;
#350 = PRODUCT_DEFINITION_SHAPE ( 'NONE', 'NONE',  #521 ) ;
#351 = CARTESIAN_POINT ( 'NONE',  ( -21.95662979996398079, -1.084202172485504434E-16, -0.2500000000000017208 ) ) ;
#352 = CARTESIAN_POINT ( 'NONE',  ( 27.54337020003601566, 0.2000000000000000944, -0.5000000000000001110 ) ) ;
#353 = VECTOR ( 'NONE', #70, 100.0000000000000000 ) ;
#354 = CARTESIAN_POINT ( 'NONE',  ( 27.79337020003601566, 0.2000000000000000944, -0.7500000000000001110 ) ) ;
#355 = DATE_AND_TIME ( #408, #232 ) ;
#356 = DIRECTION ( 'NONE',  ( 0.000000000000000000, 1.000000000000000000, 0.000000000000000000 ) ) ;
#357 = CARTESIAN_POINT ( 'NONE',  ( -21.45662979996398079, 0.1999999999999999278, -0.7500000000000001110 ) ) ;
#358 = VECTOR ( 'NONE', #313, 100.0000000000000000 ) ;
#359 = DIRECTION ( 'NONE',  ( 0.000000000000000000, 1.000000000000000000, 0.000000000000000000 ) ) ;
#360 = VERTEX_POINT ( 'NONE', #382 ) ;
#361 = LINE ( 'NONE', #516, #116 ) ;
#362 = CARTESIAN_POINT ( 'NONE',  ( 28.04337020003601566, 0.2000000000000000944, -0.2500000000000018874 ) ) ;
#363 = CIRCLE ( 'NONE', #433, 0.2500000000000001110 ) ;
#364 = PERSON_AND_ORGANIZATION ( #19, #17 ) ;
#365 = CARTESIAN_POINT ( 'NONE',  ( -21.70662979996397723, 0.1999999999999999278, 8.673617379884035472E-17 ) ) ;
#366 = ORIENTED_EDGE ( 'NONE', *, *, #472, .T. ) ;
#367 = CARTESIAN_POINT ( 'NONE',  ( 27.79337020003601566, 1.084202172485504434E-16, -0.7500000000000001110 ) ) ;
#368 = PLANE ( 'NONE',  #263 ) ;
#369 = EDGE_CURVE ( 'NONE', #88, #360, #94, .T. ) ;
#370 = ORIENTED_EDGE ( 'NONE', *, *, #118, .T. ) ;
#371 = LINE ( 'NONE', #12, #93 ) ;
#372 = FACE_OUTER_BOUND ( 'NONE', #141, .T. ) ;
#373 = VERTEX_POINT ( 'NONE', #176 ) ;
#374 = DIRECTION ( 'NONE',  ( 0.000000000000000000, 1.000000000000000000, 0.000000000000000000 ) ) ;
#375 = APPROVAL_PERSON_ORGANIZATION ( #386, #206, #181 ) ;
#376 = ORIENTED_EDGE ( 'NONE', *, *, #37, .T. ) ;
#377 = CARTESIAN_POINT ( 'NONE',  ( -21.95662979996398079, 0.1999999999999999278, -0.2500000000000015543 ) ) ;
#378 = EDGE_CURVE ( 'NONE', #8, #460, #337, .T. ) ;
#379 = ORIENTED_EDGE ( 'NONE', *, *, #243, .F. ) ;
#380 = DIRECTION ( 'NONE',  ( 0.000000000000000000, 1.000000000000000000, 0.000000000000000000 ) ) ;
#381 = VERTEX_POINT ( 'NONE', #292 ) ;
#382 = CARTESIAN_POINT ( 'NONE',  ( 27.79337020003601566, 0.2000000000000001221, -1.000000000000000222 ) ) ;
#383 = VECTOR ( 'NONE', #231, 100.0000000000000000 ) ;
#384 = ORIENTED_EDGE ( 'NONE', *, *, #118, .F. ) ;
#385 = CC_DESIGN_PERSON_AND_ORGANIZATION_ASSIGNMENT ( #327, #281, ( #400 ) ) ;
#386 = PERSON_AND_ORGANIZATION ( #19, #17 ) ;
#387 = CIRCLE ( 'NONE', #103, 0.2500000000000001110 ) ;
#388 = ORIENTED_EDGE ( 'NONE', *, *, #86, .T. ) ;
#389 = APPROVAL_STATUS ( 'not_yet_approved' ) ;
#390 = CARTESIAN_POINT ( 'NONE',  ( 27.54337020003601566, 0.2000000000000000944, -0.7500000000000003331 ) ) ;
#391 = APPLICATION_PROTOCOL_DEFINITION ( 'international standard', 'config_control_design', 1994, #179 ) ;
#392 = AXIS2_PLACEMENT_3D ( 'NONE', #423, #461, #425 ) ;
#393 = VECTOR ( 'NONE', #135, 100.0000000000000000 ) ;
#394 = CARTESIAN_POINT ( 'NONE',  ( -21.70662979996397723, 0.1999999999999999278, 1.092240568967393668E-16 ) ) ;
#395 = EDGE_CURVE ( 'NONE', #214, #50, #220, .T. ) ;
#396 = DIRECTION ( 'NONE',  ( 0.000000000000000000, 1.000000000000000000, 0.000000000000000000 ) ) ;
#397 = CARTESIAN_POINT ( 'NONE',  ( -21.70662979996398079, -1.084202172485504434E-16, -0.7500000000000000000 ) ) ;
#398 =( LENGTH_UNIT ( ) NAMED_UNIT ( * ) SI_UNIT ( .CENTI., .METRE. ) );
#399 = DIRECTION ( 'NONE',  ( 0.000000000000000000, 0.000000000000000000, -1.000000000000000000 ) ) ;
#400 = PRODUCT_DEFINITION_FORMATION_WITH_SPECIFIED_SOURCE ( 'ANY', '', #68, .NOT_KNOWN. ) ;
#401 = CYLINDRICAL_SURFACE ( 'NONE', #252, 0.2500000000000001110 ) ;
#402 = ORIENTED_EDGE ( 'NONE', *, *, #25, .F. ) ;
#403 = CYLINDRICAL_SURFACE ( 'NONE', #7, 0.2500000000000000555 ) ;
#404 = EDGE_CURVE ( 'NONE', #373, #177, #363, .T. ) ;
#405 = DIRECTION ( 'NONE',  ( -1.000000000000000000, 0.000000000000000000, 0.000000000000000000 ) ) ;
#406 = ORIENTED_EDGE ( 'NONE', *, *, #395, .F. ) ;
#407 = DIRECTION ( 'NONE',  ( -0.000000000000000000, -1.000000000000000000, -0.000000000000000000 ) ) ;
#408 = CALENDAR_DATE ( 2025, 20, 11 ) ;
#409 = CARTESIAN_POINT ( 'NONE',  ( 27.79337020003601566, 0.2000000000000000944, -0.2500000000000000555 ) ) ;
#410 = ORIENTED_EDGE ( 'NONE', *, *, #86, .F. ) ;
#411 = CIRCLE ( 'NONE', #523, 0.2500000000000002220 ) ;
#412 = DIRECTION ( 'NONE',  ( -0.000000000000000000, -1.000000000000000000, -0.000000000000000000 ) ) ;
#413 = EDGE_LOOP ( 'NONE', ( #183, #467, #417, #21 ) ) ;
#414 = CARTESIAN_POINT ( 'NONE',  ( -21.95662979996398079, 0.1999999999999999278, -0.2500000000000017208 ) ) ;
#415 = DIRECTION ( 'NONE',  ( 1.000000000000000000, 0.000000000000000000, -0.000000000000000000 ) ) ;
#416 = EDGE_LOOP ( 'NONE', ( #123, #463, #402, #5 ) ) ;
#417 = ORIENTED_EDGE ( 'NONE', *, *, #506, .F. ) ;
#418 = DIRECTION ( 'NONE',  ( -0.000000000000000000, -1.000000000000000000, -0.000000000000000000 ) ) ;
#419 = EDGE_CURVE ( 'NONE', #219, #381, #205, .T. ) ;
#420 = AXIS2_PLACEMENT_3D ( 'NONE', #300, #374, #133 ) ;
#421 = VECTOR ( 'NONE', #291, 100.0000000000000000 ) ;
#422 = VERTEX_POINT ( 'NONE', #456 ) ;
#423 = CARTESIAN_POINT ( 'NONE',  ( -21.70662979996398079, 0.1999999999999999278, -0.7500000000000000000 ) ) ;
#424 = ORIENTED_EDGE ( 'NONE', *, *, #506, .T. ) ;
#425 = DIRECTION ( 'NONE',  ( 0.000000000000000000, 0.000000000000000000, -1.000000000000000000 ) ) ;
#426 = EDGE_LOOP ( 'NONE', ( #15, #57 ) ) ;
#427 = LOCAL_TIME ( 9, 13, 53.00000000000000000, #465 ) ;
#428 = EDGE_CURVE ( 'NONE', #360, #214, #96, .T. ) ;
#429 = EDGE_LOOP ( 'NONE', ( #178, #58 ) ) ;
#430 = VECTOR ( 'NONE', #475, 100.0000000000000000 ) ;
#431 = CARTESIAN_POINT ( 'NONE',  ( 27.54337020003601566, 0.2000000000000000944, -0.5000000000000001110 ) ) ;
#432 = PLANE ( 'NONE',  #152 ) ;
#433 = AXIS2_PLACEMENT_3D ( 'NONE', #215, #458, #335 ) ;
#434 = CARTESIAN_POINT ( 'NONE',  ( 23.29337020003601921, 0.2000000000000000944, -1.000000000000000222 ) ) ;
#435 = CARTESIAN_POINT ( 'NONE',  ( 27.54337020003601566, 1.084202172485504434E-16, -0.5000000000000001110 ) ) ;
#436 = COORDINATED_UNIVERSAL_TIME_OFFSET ( 7, 0, .BEHIND. ) ;
#437 = EDGE_CURVE ( 'NONE', #381, #219, #497, .T. ) ;
#438 = FACE_OUTER_BOUND ( 'NONE', #270, .T. ) ;
#439 = CARTESIAN_POINT ( 'NONE',  ( 23.29337020003601921, 0.2000000000000000944, -1.000000000000000222 ) ) ;
#440 = ADVANCED_FACE ( 'NONE', ( #259, #85, #9 ), #139, .T. ) ;
#441 = SECURITY_CLASSIFICATION_LEVEL ( 'unclassified' ) ;
#442 = CYLINDRICAL_SURFACE ( 'NONE', #301, 0.2500000000000001110 ) ;
#443 = LINE ( 'NONE', #248, #353 ) ;
#444 = DATE_AND_TIME ( #287, #147 ) ;
#445 = DIRECTION ( 'NONE',  ( 0.000000000000000000, 0.000000000000000000, -1.000000000000000000 ) ) ;
#446 = ORIENTED_EDGE ( 'NONE', *, *, #303, .F. ) ;
#447 = EDGE_CURVE ( 'NONE', #422, #345, #371, .T. ) ;
#448 = DIRECTION ( 'NONE',  ( -0.000000000000000000, -1.000000000000000000, -0.000000000000000000 ) ) ;
#449 = CC_DESIGN_APPROVAL ( #168, ( #459 ) ) ;
#450 = CARTESIAN_POINT ( 'NONE',  ( 23.29337020003601921, 1.084202172485504434E-16, -1.000000000000000222 ) ) ;
#451 = VECTOR ( 'NONE', #494, 100.0000000000000000 ) ;
#452 = DIRECTION ( 'NONE',  ( -0.000000000000000000, -1.000000000000000000, -0.000000000000000000 ) ) ;
#453 = ORIENTED_EDGE ( 'NONE', *, *, #144, .T. ) ;
#454 = LINE ( 'NONE', #262, #451 ) ;
#455 = ORIENTED_EDGE ( 'NONE', *, *, #462, .T. ) ;
#456 = CARTESIAN_POINT ( 'NONE',  ( 27.79337020003601566, 0.2000000000000001221, -1.146300867096411564E-16 ) ) ;
#457 = ORIENTED_EDGE ( 'NONE', *, *, #419, .T. ) ;
#458 = DIRECTION ( 'NONE',  ( 0.000000000000000000, 1.000000000000000000, 0.000000000000000000 ) ) ;
#459 = SECURITY_CLASSIFICATION ( '', '', #441 ) ;
#460 = VERTEX_POINT ( 'NONE', #377 ) ;
#461 = DIRECTION ( 'NONE',  ( 0.000000000000000000, 1.000000000000000000, -0.000000000000000000 ) ) ;
#462 = EDGE_CURVE ( 'NONE', #143, #8, #241, .T. ) ;
#463 = ORIENTED_EDGE ( 'NONE', *, *, #278, .F. ) ;
#464 = EDGE_CURVE ( 'NONE', #95, #214, #51, .T. ) ;
#465 = COORDINATED_UNIVERSAL_TIME_OFFSET ( 7, 0, .BEHIND. ) ;
#466 = CIRCLE ( 'NONE', #237, 0.2499999999999998890 ) ;
#467 = ORIENTED_EDGE ( 'NONE', *, *, #239, .F. ) ;
#468 = AXIS2_PLACEMENT_3D ( 'NONE', #367, #162, #286 ) ;
#469 = EDGE_CURVE ( 'NONE', #373, #381, #443, .T. ) ;
#470 = DIRECTION ( 'NONE',  ( 0.000000000000000000, 0.000000000000000000, 1.000000000000000000 ) ) ;
#471 = CARTESIAN_POINT ( 'NONE',  ( -21.70662979996398079, 0.1999999999999999278, -0.9999999999999998890 ) ) ;
#472 = EDGE_CURVE ( 'NONE', #88, #95, #361, .T. ) ;
#473 = CC_DESIGN_DATE_AND_TIME_ASSIGNMENT ( #355, #511, ( #459 ) ) ;
#474 = DIRECTION ( 'NONE',  ( 0.000000000000000000, 0.000000000000000000, -1.000000000000000000 ) ) ;
#475 = DIRECTION ( 'NONE',  ( 1.000000000000000000, 0.000000000000000000, 0.000000000000000000 ) ) ;
#476 = CARTESIAN_POINT ( 'NONE',  ( 27.54337020003601566, 0.2000000000000000944, -0.5000000000000001110 ) ) ;
#477 =( NAMED_UNIT ( * ) SI_UNIT ( $, .STERADIAN. ) SOLID_ANGLE_UNIT ( ) );
#478 = CALENDAR_DATE ( 2025, 20, 11 ) ;
#479 = ADVANCED_FACE ( 'NONE', ( #155 ), #403, .T. ) ;
#480 = DIRECTION ( 'NONE',  ( 0.000000000000000000, 0.000000000000000000, 1.000000000000000000 ) ) ;
#481 = CIRCLE ( 'NONE', #159, 0.2500000000000002220 ) ;
#482 = CARTESIAN_POINT ( 'NONE',  ( -21.95662979996398079, -1.033798419308900624E-16, -0.7499999999999981126 ) ) ;
#483 = AXIS2_PLACEMENT_3D ( 'NONE', #439, #87, #415 ) ;
#484 = APPROVAL_STATUS ( 'not_yet_approved' ) ;
#485 = CARTESIAN_POINT ( 'NONE',  ( -21.70662979996398079, -1.084202172485504434E-16, -0.2499999999999998890 ) ) ;
#486 = ORIENTED_EDGE ( 'NONE', *, *, #243, .T. ) ;
#487 = CARTESIAN_POINT ( 'NONE',  ( -21.45662979996398079, 0.1999999999999999278, -0.7500000000000001110 ) ) ;
#488 = ORIENTED_EDGE ( 'NONE', *, *, #316, .F. ) ;
#489 = FACE_BOUND ( 'NONE', #426, .T. ) ;
#490 = ORIENTED_EDGE ( 'NONE', *, *, #338, .F. ) ;
#491 = ORIENTED_EDGE ( 'NONE', *, *, #303, .T. ) ;
#492 = DIRECTION ( 'NONE',  ( -1.000000000000000000, -0.000000000000000000, -0.000000000000000000 ) ) ;
#493 = ORIENTED_EDGE ( 'NONE', *, *, #25, .T. ) ;
#494 = DIRECTION ( 'NONE',  ( -0.000000000000000000, -1.000000000000000000, -0.000000000000000000 ) ) ;
#495 = ADVANCED_BREP_SHAPE_REPRESENTATION ( 'Link J_Default_sldprt', ( #42, #73 ), #195 ) ;
#496 = VERTEX_POINT ( 'NONE', #75 ) ;
#497 = CIRCLE ( 'NONE', #324, 0.2500000000000001110 ) ;
#498 = VECTOR ( 'NONE', #104, 100.0000000000000000 ) ;
#499 = DIRECTION ( 'NONE',  ( -0.000000000000000000, -1.000000000000000000, -0.000000000000000000 ) ) ;
#500 = ORIENTED_EDGE ( 'NONE', *, *, #378, .F. ) ;
#501 = EDGE_CURVE ( 'NONE', #177, #219, #202, .T. ) ;
#502 = ORIENTED_EDGE ( 'NONE', *, *, #28, .F. ) ;
#503 = EDGE_CURVE ( 'NONE', #211, #496, #40, .T. ) ;
#504 = ORIENTED_EDGE ( 'NONE', *, *, #230, .F. ) ;
#505 = VECTOR ( 'NONE', #197, 100.0000000000000000 ) ;
#506 = EDGE_CURVE ( 'NONE', #460, #36, #251, .T. ) ;
#507 = CC_DESIGN_DATE_AND_TIME_ASSIGNMENT ( #153, #41, ( #521 ) ) ;
#508 = CARTESIAN_POINT ( 'NONE',  ( 28.04337020003601566, 1.084966131204076525E-16, -0.7499999999999984457 ) ) ;
#509 = DIRECTION ( 'NONE',  ( 0.000000000000000000, 0.000000000000000000, -1.000000000000000000 ) ) ;
#510 = DIRECTION ( 'NONE',  ( 0.000000000000000000, 0.000000000000000000, 1.000000000000000000 ) ) ;
#511 = DATE_TIME_ROLE ( 'classification_date' ) ;
#512 = AXIS2_PLACEMENT_3D ( 'NONE', #169, #329, #280 ) ;
#513 = VECTOR ( 'NONE', #39, 100.0000000000000000 ) ;
#514 = DIRECTION ( 'NONE',  ( -0.000000000000000000, -1.000000000000000000, -0.000000000000000000 ) ) ;
#515 = CYLINDRICAL_SURFACE ( 'NONE', #62, 0.2500000000000002220 ) ;
#516 = CARTESIAN_POINT ( 'NONE',  ( 28.04337020003601566, 0.2000000000000000944, -0.7499999999999984457 ) ) ;
#517 = PERSON_AND_ORGANIZATION ( #19, #17 ) ;
#518 = LINE ( 'NONE', #365, #421 ) ;
#519 = ORIENTED_EDGE ( 'NONE', *, *, #404, .T. ) ;
#520 = DATE_AND_TIME ( #245, #128 ) ;
#521 = PRODUCT_DEFINITION ( 'UNKNOWN', '', #400, #20 ) ;
#522 = CARTESIAN_POINT ( 'NONE',  ( -21.70662979996398079, 0.1999999999999999278, -0.9999999999999998890 ) ) ;
#523 = AXIS2_PLACEMENT_3D ( 'NONE', #200, #359, #480 ) ;
#524 = ORIENTED_EDGE ( 'NONE', *, *, #419, .F. ) ;
#525 = PERSON_AND_ORGANIZATION ( #19, #17 ) ;
ENDSEC;
END-ISO-10303-21;
