ISO-10303-21;
HEADER;
FILE_DESCRIPTION (( 'STEP AP203' ),
    '1' );
FILE_NAME ('Link A_Default_sldprt.STEP',
    '2025-11-20T16:13:23',
    ( '' ),
    ( '' ),
    'SwSTEP 2.0',
    'SolidWorks 2025',
    '' );
FILE_SCHEMA (( 'CONFIG_CONTROL_DESIGN' ));
ENDSEC;

DATA;
#1 = CC_DESIGN_PERSON_AND_ORGANIZATION_ASSIGNMENT ( #292, #3, ( #397 ) ) ;
#2 = FACE_OUTER_BOUND ( 'NONE', #404, .T. ) ;
#3 = PERSON_AND_ORGANIZATION_ROLE ( 'classification_officer' ) ;
#4 = FACE_OUTER_BOUND ( 'NONE', #86, .T. ) ;
#5 = PERSON_AND_ORGANIZATION ( #509, #88 ) ;
#6 = CARTESIAN_POINT ( 'NONE',  ( -15.60152851997358781, -6.505213034913026604E-17, -0.4999999999999999445 ) ) ;
#7 = CARTESIAN_POINT ( 'NONE',  ( 21.89847148002641575, 0.2000000000000000944, -0.2500000000000018874 ) ) ;
#8 = AXIS2_PLACEMENT_3D ( 'NONE', #507, #265, #108 ) ;
#9 = EDGE_CURVE ( 'NONE', #466, #429, #486, .T. ) ;
#10 = CARTESIAN_POINT ( 'NONE',  ( -15.60152851997358781, 0.1999999999999999278, -0.7500000000000001110 ) ) ;
#11 = ORIENTED_EDGE ( 'NONE', *, *, #311, .F. ) ;
#12 = CYLINDRICAL_SURFACE ( 'NONE', #43, 0.2500000000000002220 ) ;
#13 = ORIENTED_EDGE ( 'NONE', *, *, #138, .T. ) ;
#14 = CARTESIAN_POINT ( 'NONE',  ( 21.39847148002641575, 0.2000000000000000944, -0.2499999999999998890 ) ) ;
#15 = ORIENTED_EDGE ( 'NONE', *, *, #87, .F. ) ;
#16 = VECTOR ( 'NONE', #383, 100.0000000000000000 ) ;
#17 = CARTESIAN_POINT ( 'NONE',  ( 21.89847148002641575, 7.956418295496562086E-17, -0.2500000000000018874 ) ) ;
#18 = PRODUCT_DEFINITION_SHAPE ( 'NONE', 'NONE',  #391 ) ;
#19 = ORIENTED_EDGE ( 'NONE', *, *, #148, .T. ) ;
#20 = CARTESIAN_POINT ( 'NONE',  ( 21.39847148002641575, 0.2000000000000000944, -0.7500000000000003331 ) ) ;
#21 = ORIENTED_EDGE ( 'NONE', *, *, #467, .F. ) ;
#22 = EDGE_CURVE ( 'NONE', #524, #323, #223, .T. ) ;
#23 = CARTESIAN_POINT ( 'NONE',  ( -15.60152851997358781, -6.505213034913026604E-17, -0.4999999999999999445 ) ) ;
#24 = EDGE_LOOP ( 'NONE', ( #60, #294, #470, #65 ) ) ;
#25 = AXIS2_PLACEMENT_3D ( 'NONE', #272, #523, #75 ) ;
#26 = APPLICATION_PROTOCOL_DEFINITION ( 'international standard', 'config_control_design', 1994, #174 ) ;
#27 = DIRECTION ( 'NONE',  ( 0.000000000000000000, 1.000000000000000000, 0.000000000000000000 ) ) ;
#28 = EDGE_CURVE ( 'NONE', #431, #69, #210, .T. ) ;
#29 = CIRCLE ( 'NONE', #328, 0.2500000000000002220 ) ;
#30 = CARTESIAN_POINT ( 'NONE',  ( -15.85152851997358781, 0.1999999999999999278, -0.9999999999999998890 ) ) ;
#31 = LINE ( 'NONE', #70, #387 ) ;
#32 = EDGE_CURVE ( 'NONE', #323, #142, #125, .T. ) ;
#33 = CARTESIAN_POINT ( 'NONE',  ( 21.64847148002641219, 7.956418295496562086E-17, -8.406206358707019942E-17 ) ) ;
#34 = DIRECTION ( 'NONE',  ( -0.000000000000000000, -1.000000000000000000, -0.000000000000000000 ) ) ;
#35 = FACE_OUTER_BOUND ( 'NONE', #386, .T. ) ;
#36 = VECTOR ( 'NONE', #251, 100.0000000000000000 ) ;
#37 = EDGE_CURVE ( 'NONE', #155, #184, #348, .T. ) ;
#38 = LINE ( 'NONE', #319, #100 ) ;
#39 = ORIENTED_EDGE ( 'NONE', *, *, #32, .T. ) ;
#40 = CIRCLE ( 'NONE', #202, 0.2499999999999998890 ) ;
#41 = DIRECTION ( 'NONE',  ( 0.000000000000000000, 0.000000000000000000, -1.000000000000000000 ) ) ;
#42 = CALENDAR_DATE ( 2025, 20, 11 ) ;
#43 = AXIS2_PLACEMENT_3D ( 'NONE', #352, #344, #185 ) ;
#44 = CARTESIAN_POINT ( 'NONE',  ( -15.60152851997358781, -6.505213034913026604E-17, -0.2499999999999997780 ) ) ;
#45 = EDGE_LOOP ( 'NONE', ( #399, #338 ) ) ;
#46 = EDGE_CURVE ( 'NONE', #431, #299, #129, .T. ) ;
#47 = DIRECTION ( 'NONE',  ( 0.000000000000000000, 1.000000000000000000, 0.000000000000000000 ) ) ;
#48 = ORIENTED_EDGE ( 'NONE', *, *, #81, .F. ) ;
#49 = VECTOR ( 'NONE', #201, 100.0000000000000000 ) ;
#50 = APPROVAL_DATE_TIME ( #89, #511 ) ;
#51 = CARTESIAN_POINT ( 'NONE',  ( 21.64847148002641219, 7.956418295496562086E-17, -1.000000000000000000 ) ) ;
#52 = VERTEX_POINT ( 'NONE', #79 ) ;
#53 = DATE_TIME_ROLE ( 'creation_date' ) ;
#54 = LINE ( 'NONE', #340, #269 ) ;
#55 = AXIS2_PLACEMENT_3D ( 'NONE', #455, #295, #453 ) ;
#56 = VERTEX_POINT ( 'NONE', #126 ) ;
#57 = LINE ( 'NONE', #64, #493 ) ;
#58 = ORIENTED_EDGE ( 'NONE', *, *, #321, .T. ) ;
#59 = CARTESIAN_POINT ( 'NONE',  ( 21.89847148002641575, 0.2000000000000000944, -0.7499999999999984457 ) ) ;
#60 = ORIENTED_EDGE ( 'NONE', *, *, #522, .T. ) ;
#61 = CARTESIAN_POINT ( 'NONE',  ( 21.64847148002641575, 0.2000000000000000944, -0.2500000000000000555 ) ) ;
#62 = ORIENTED_EDGE ( 'NONE', *, *, #307, .T. ) ;
#63 = APPROVAL_PERSON_ORGANIZATION ( #457, #448, #131 ) ;
#64 = CARTESIAN_POINT ( 'NONE',  ( -16.10152851997358781, 0.1999999999999999278, -0.2500000000000016098 ) ) ;
#65 = ORIENTED_EDGE ( 'NONE', *, *, #499, .T. ) ;
#66 = AXIS2_PLACEMENT_3D ( 'NONE', #77, #167, #446 ) ;
#67 = LINE ( 'NONE', #14, #485 ) ;
#68 = CC_DESIGN_DATE_AND_TIME_ASSIGNMENT ( #169, #53, ( #391 ) ) ;
#69 = VERTEX_POINT ( 'NONE', #33 ) ;
#70 = CARTESIAN_POINT ( 'NONE',  ( 21.89847148002641575, 0.2000000000000000944, -0.7499999999999984457 ) ) ;
#71 = ORIENTED_EDGE ( 'NONE', *, *, #9, .F. ) ;
#72 = EDGE_CURVE ( 'NONE', #142, #434, #163, .T. ) ;
#73 = LINE ( 'NONE', #162, #110 ) ;
#74 = ORIENTED_EDGE ( 'NONE', *, *, #481, .F. ) ;
#75 = DIRECTION ( 'NONE',  ( 1.000000000000000000, 0.000000000000000000, 0.000000000000000000 ) ) ;
#76 = CIRCLE ( 'NONE', #459, 0.2500000000000001110 ) ;
#77 = CARTESIAN_POINT ( 'NONE',  ( 21.64847148002641575, 0.2000000000000000944, -0.7500000000000001110 ) ) ;
#78 = DIRECTION ( 'NONE',  ( 0.000000000000000000, 1.000000000000000000, -0.000000000000000000 ) ) ;
#79 = CARTESIAN_POINT ( 'NONE',  ( -15.60152851997358781, -6.505213034913026604E-17, -0.7500000000000001110 ) ) ;
#80 = LOCAL_TIME ( 9, 13, 23.00000000000000000, #332 ) ;
#81 = EDGE_CURVE ( 'NONE', #197, #304, #402, .T. ) ;
#82 = VERTEX_POINT ( 'NONE', #519 ) ;
#83 = COORDINATED_UNIVERSAL_TIME_OFFSET ( 7, 0, .BEHIND. ) ;
#84 = DIRECTION ( 'NONE',  ( 0.000000000000000000, -0.000000000000000000, 1.000000000000000000 ) ) ;
#85 = CARTESIAN_POINT ( 'NONE',  ( -16.10152851997358781, 0.1999999999999999278, -0.2500000000000016098 ) ) ;
#86 = EDGE_LOOP ( 'NONE', ( #235, #264, #229, #179, #421, #19, #186, #107 ) ) ;
#87 = EDGE_CURVE ( 'NONE', #69, #384, #76, .T. ) ;
#88 = ORGANIZATION ( 'UNSPECIFIED', 'UNSPECIFIED', '' ) ;
#89 = DATE_AND_TIME ( #42, #80 ) ;
#90 = UNCERTAINTY_MEASURE_WITH_UNIT (LENGTH_MEASURE( 1.000000000000000082E-05 ), #475, 'distance_accuracy_value', 'NONE');
#91 = DIRECTION ( 'NONE',  ( 0.000000000000000000, -0.000000000000000000, 1.000000000000000000 ) ) ;
#92 = EDGE_CURVE ( 'NONE', #434, #142, #403, .T. ) ;
#93 = COORDINATED_UNIVERSAL_TIME_OFFSET ( 7, 0, .BEHIND. ) ;
#94 = DIRECTION ( 'NONE',  ( -0.000000000000000000, -1.000000000000000000, -0.000000000000000000 ) ) ;
#95 = EDGE_LOOP ( 'NONE', ( #58, #74, #133, #350 ) ) ;
#96 = VECTOR ( 'NONE', #355, 100.0000000000000000 ) ;
#97 = DIRECTION ( 'NONE',  ( 0.000000000000000000, 0.000000000000000000, 1.000000000000000000 ) ) ;
#98 = ADVANCED_FACE ( 'NONE', ( #365 ), #521, .T. ) ;
#99 = DIRECTION ( 'NONE',  ( 0.000000000000000000, 1.000000000000000000, 0.000000000000000000 ) ) ;
#100 = VECTOR ( 'NONE', #270, 100.0000000000000000 ) ;
#101 = ADVANCED_FACE ( 'NONE', ( #243 ), #277, .F. ) ;
#102 = ORIENTED_EDGE ( 'NONE', *, *, #239, .T. ) ;
#103 = LINE ( 'NONE', #298, #16 ) ;
#104 = VERTEX_POINT ( 'NONE', #117 ) ;
#105 = VECTOR ( 'NONE', #248, 100.0000000000000000 ) ;
#106 = CARTESIAN_POINT ( 'NONE',  ( -15.85152851997358781, -7.581188408265272067E-17, -1.000000000000000000 ) ) ;
#107 = ORIENTED_EDGE ( 'NONE', *, *, #37, .T. ) ;
#108 = DIRECTION ( 'NONE',  ( 0.000000000000000000, 0.000000000000000000, -1.000000000000000000 ) ) ;
#109 = ORIENTED_EDGE ( 'NONE', *, *, #354, .F. ) ;
#110 = VECTOR ( 'NONE', #280, 100.0000000000000000 ) ;
#111 = CYLINDRICAL_SURFACE ( 'NONE', #8, 0.2499999999999999722 ) ;
#112 = ORIENTED_EDGE ( 'NONE', *, *, #315, .T. ) ;
#113 =( NAMED_UNIT ( * ) SI_UNIT ( $, .STERADIAN. ) SOLID_ANGLE_UNIT ( ) );
#114 = EDGE_CURVE ( 'NONE', #331, #82, #356, .T. ) ;
#115 = ORIENTED_EDGE ( 'NONE', *, *, #307, .F. ) ;
#116 = PERSON_AND_ORGANIZATION_ROLE ( 'creator' ) ;
#117 = CARTESIAN_POINT ( 'NONE',  ( -15.60152851997358781, 0.1999999999999999278, -0.7500000000000001110 ) ) ;
#118 = CIRCLE ( 'NONE', #55, 0.2499999999999998890 ) ;
#119 = AXIS2_PLACEMENT_3D ( 'NONE', #414, #172, #91 ) ;
#120 = DIRECTION ( 'NONE',  ( -0.000000000000000000, -1.000000000000000000, -0.000000000000000000 ) ) ;
#121 = CARTESIAN_POINT ( 'NONE',  ( -15.85152851997358425, -6.505213034913026604E-17, 8.673617379884035472E-17 ) ) ;
#122 = VECTOR ( 'NONE', #204, 100.0000000000000000 ) ;
#123 = DIRECTION ( 'NONE',  ( 0.000000000000000000, 0.000000000000000000, 1.000000000000000000 ) ) ;
#124 = DIRECTION ( 'NONE',  ( 0.000000000000000000, 0.000000000000000000, -1.000000000000000000 ) ) ;
#125 = LINE ( 'NONE', #161, #96 ) ;
#126 = CARTESIAN_POINT ( 'NONE',  ( -16.10152851997358781, -7.581188408265272067E-17, -0.7499999999999981126 ) ) ;
#127 = CALENDAR_DATE ( 2025, 20, 11 ) ;
#128 = FACE_BOUND ( 'NONE', #45, .T. ) ;
#129 = CIRCLE ( 'NONE', #393, 0.2500000000000001110 ) ;
#130 = ADVANCED_FACE ( 'NONE', ( #35 ), #363, .F. ) ;
#131 = APPROVAL_ROLE ( '' ) ;
#132 = CARTESIAN_POINT ( 'NONE',  ( 21.64847148002641575, 8.673617379884035472E-17, -0.2500000000000000555 ) ) ;
#133 = ORIENTED_EDGE ( 'NONE', *, *, #37, .F. ) ;
#134 = PRODUCT_RELATED_PRODUCT_CATEGORY ( 'detail', '', ( #263 ) ) ;
#135 = LOCAL_TIME ( 9, 13, 23.00000000000000000, #83 ) ;
#136 = FACE_OUTER_BOUND ( 'NONE', #260, .T. ) ;
#137 = ORIENTED_EDGE ( 'NONE', *, *, #315, .F. ) ;
#138 = EDGE_CURVE ( 'NONE', #56, #289, #54, .T. ) ;
#139 = FACE_OUTER_BOUND ( 'NONE', #302, .T. ) ;
#140 = CC_DESIGN_DATE_AND_TIME_ASSIGNMENT ( #177, #287, ( #397 ) ) ;
#141 = CARTESIAN_POINT ( 'NONE',  ( -15.60152851997358781, 0.1999999999999999278, -0.4999999999999999445 ) ) ;
#142 = VERTEX_POINT ( 'NONE', #283 ) ;
#143 = DIRECTION ( 'NONE',  ( 0.000000000000000000, 0.000000000000000000, -1.000000000000000000 ) ) ;
#144 = PRODUCT_DEFINITION_FORMATION_WITH_SPECIFIED_SOURCE ( 'ANY', '', #263, .NOT_KNOWN. ) ;
#145 = ORIENTED_EDGE ( 'NONE', *, *, #92, .F. ) ;
#146 = CARTESIAN_POINT ( 'NONE',  ( 21.89847148002641575, 0.2000000000000000944, -0.2500000000000018874 ) ) ;
#147 = ORIENTED_EDGE ( 'NONE', *, *, #274, .F. ) ;
#148 = EDGE_CURVE ( 'NONE', #466, #437, #40, .T. ) ;
#149 = FACE_OUTER_BOUND ( 'NONE', #368, .T. ) ;
#150 = VERTEX_POINT ( 'NONE', #257 ) ;
#151 = EDGE_CURVE ( 'NONE', #437, #56, #220, .T. ) ;
#152 = FACE_OUTER_BOUND ( 'NONE', #164, .T. ) ;
#153 = ORIENTED_EDGE ( 'NONE', *, *, #22, .T. ) ;
#154 = APPLICATION_PROTOCOL_DEFINITION ( 'international standard', 'config_control_design', 1994, #276 ) ;
#155 = VERTEX_POINT ( 'NONE', #85 ) ;
#156 = CC_DESIGN_PERSON_AND_ORGANIZATION_ASSIGNMENT ( #242, #477, ( #263 ) ) ;
#157 = DIRECTION ( 'NONE',  ( 0.000000000000000000, 0.000000000000000000, -1.000000000000000000 ) ) ;
#158 = DIRECTION ( 'NONE',  ( 0.000000000000000000, 0.000000000000000000, -1.000000000000000000 ) ) ;
#159 = CARTESIAN_POINT ( 'NONE',  ( 21.64847148002641575, 8.673617379884035472E-17, -0.2500000000000000555 ) ) ;
#160 = VECTOR ( 'NONE', #34, 100.0000000000000000 ) ;
#161 = CARTESIAN_POINT ( 'NONE',  ( 21.39847148002641575, 0.2000000000000000944, -0.7500000000000003331 ) ) ;
#162 = CARTESIAN_POINT ( 'NONE',  ( 21.64847148002641219, 0.2000000000000000944, -1.000000000000000222 ) ) ;
#163 = CIRCLE ( 'NONE', #438, 0.2500000000000002220 ) ;
#164 = EDGE_LOOP ( 'NONE', ( #271, #232, #222, #194 ) ) ;
#165 = APPROVAL ( #322, 'UNSPECIFIED' ) ;
#166 = DATE_AND_TIME ( #336, #227 ) ;
#167 = DIRECTION ( 'NONE',  ( 0.000000000000000000, 1.000000000000000000, -0.000000000000000000 ) ) ;
#168 = LOCAL_TIME ( 9, 13, 23.00000000000000000, #203 ) ;
#169 = DATE_AND_TIME ( #517, #168 ) ;
#170 = DIRECTION ( 'NONE',  ( 1.000000000000000000, -0.000000000000000000, 0.000000000000000000 ) ) ;
#171 = ADVANCED_FACE ( 'NONE', ( #333, #139, #371 ), #423, .F. ) ;
#172 = DIRECTION ( 'NONE',  ( 0.000000000000000000, 1.000000000000000000, 0.000000000000000000 ) ) ;
#173 = CIRCLE ( 'NONE', #468, 0.2500000000000001110 ) ;
#174 = APPLICATION_CONTEXT ( 'configuration controlled 3d designs of mechanical parts and assemblies' ) ;
#175 = ORIENTED_EDGE ( 'NONE', *, *, #195, .T. ) ;
#176 = AXIS2_PLACEMENT_3D ( 'NONE', #366, #489, #247 ) ;
#177 = DATE_AND_TIME ( #127, #135 ) ;
#178 = CARTESIAN_POINT ( 'NONE',  ( -15.85152851997358425, 0.1999999999999999278, 8.009764172427554223E-17 ) ) ;
#179 = ORIENTED_EDGE ( 'NONE', *, *, #114, .T. ) ;
#180 = AXIS2_PLACEMENT_3D ( 'NONE', #23, #99, #258 ) ;
#181 = DIRECTION ( 'NONE',  ( -0.000000000000000000, -0.000000000000000000, 1.000000000000000000 ) ) ;
#182 = ORIENTED_EDGE ( 'NONE', *, *, #81, .T. ) ;
#183 = CARTESIAN_POINT ( 'NONE',  ( -16.10152851997358781, 0.1999999999999999278, -0.2500000000000017208 ) ) ;
#184 = VERTEX_POINT ( 'NONE', #178 ) ;
#185 = DIRECTION ( 'NONE',  ( 0.000000000000000000, 0.000000000000000000, -1.000000000000000000 ) ) ;
#186 = ORIENTED_EDGE ( 'NONE', *, *, #460, .T. ) ;
#187 = VECTOR ( 'NONE', #405, 100.0000000000000000 ) ;
#188 = DIRECTION ( 'NONE',  ( -1.000000000000000000, 0.000000000000000000, 0.000000000000000000 ) ) ;
#189 = VERTEX_POINT ( 'NONE', #51 ) ;
#190 = DIRECTION ( 'NONE',  ( 0.000000000000000000, 0.000000000000000000, -1.000000000000000000 ) ) ;
#191 = ORIENTED_EDGE ( 'NONE', *, *, #374, .F. ) ;
#192 = AXIS2_PLACEMENT_3D ( 'NONE', #450, #325, #238 ) ;
#193 = DIRECTION ( 'NONE',  ( 0.000000000000000000, 1.000000000000000000, 0.000000000000000000 ) ) ;
#194 = ORIENTED_EDGE ( 'NONE', *, *, #28, .T. ) ;
#195 = EDGE_CURVE ( 'NONE', #323, #524, #29, .T. ) ;
#196 = DIRECTION ( 'NONE',  ( 0.000000000000000000, 0.000000000000000000, -1.000000000000000000 ) ) ;
#197 = VERTEX_POINT ( 'NONE', #218 ) ;
#198 = VECTOR ( 'NONE', #196, 100.0000000000000000 ) ;
#199 = CC_DESIGN_PERSON_AND_ORGANIZATION_ASSIGNMENT ( #245, #116, ( #391 ) ) ;
#200 = COORDINATED_UNIVERSAL_TIME_OFFSET ( 7, 0, .BEHIND. ) ;
#201 = DIRECTION ( 'NONE',  ( -0.000000000000000000, -1.000000000000000000, -0.000000000000000000 ) ) ;
#202 = AXIS2_PLACEMENT_3D ( 'NONE', #451, #492, #41 ) ;
#203 = COORDINATED_UNIVERSAL_TIME_OFFSET ( 7, 0, .BEHIND. ) ;
#204 = DIRECTION ( 'NONE',  ( -0.000000000000000000, -1.000000000000000000, -0.000000000000000000 ) ) ;
#205 = CYLINDRICAL_SURFACE ( 'NONE', #208, 0.2499999999999998890 ) ;
#206 = EDGE_CURVE ( 'NONE', #299, #384, #495, .T. ) ;
#207 = CARTESIAN_POINT ( 'NONE',  ( 21.39847148002641575, 8.673617379884035472E-17, -0.5000000000000001110 ) ) ;
#208 = AXIS2_PLACEMENT_3D ( 'NONE', #442, #357, #124 ) ;
#209 = CARTESIAN_POINT ( 'NONE',  ( 21.64847148002641575, 8.673617379884035472E-17, -0.7500000000000001110 ) ) ;
#210 = LINE ( 'NONE', #484, #49 ) ;
#211 = DIRECTION ( 'NONE',  ( -0.000000000000000000, -1.000000000000000000, -0.000000000000000000 ) ) ;
#212 = DIRECTION ( 'NONE',  ( 0.000000000000000000, 0.000000000000000000, 1.000000000000000000 ) ) ;
#213 = DIRECTION ( 'NONE',  ( 0.000000000000000000, 0.000000000000000000, 1.000000000000000000 ) ) ;
#214 = CARTESIAN_POINT ( 'NONE',  ( -16.10152851997358781, 0.1999999999999999278, -0.7499999999999981126 ) ) ;
#215 = MANIFOLD_SOLID_BREP ( 'Flex1', #373 ) ;
#216 = ORIENTED_EDGE ( 'NONE', *, *, #151, .F. ) ;
#217 = CARTESIAN_POINT ( 'NONE',  ( 21.89847148002641575, 0.2000000000000000944, -0.2500000000000018874 ) ) ;
#218 = CARTESIAN_POINT ( 'NONE',  ( -15.60152851997358781, 0.1999999999999999278, -0.2499999999999997780 ) ) ;
#219 = CIRCLE ( 'NONE', #180, 0.2500000000000001110 ) ;
#220 = LINE ( 'NONE', #214, #488 ) ;
#221 = DIRECTION ( 'NONE',  ( -0.000000000000000000, -1.000000000000000000, -0.000000000000000000 ) ) ;
#222 = ORIENTED_EDGE ( 'NONE', *, *, #46, .F. ) ;
#223 = CIRCLE ( 'NONE', #419, 0.2500000000000002220 ) ;
#224 = EDGE_CURVE ( 'NONE', #304, #52, #173, .T. ) ;
#225 = DIRECTION ( 'NONE',  ( -1.000000000000000000, 0.000000000000000000, -0.000000000000000000 ) ) ;
#226 = ORIENTED_EDGE ( 'NONE', *, *, #148, .F. ) ;
#227 = LOCAL_TIME ( 9, 13, 23.00000000000000000, #93 ) ;
#228 = DIRECTION ( 'NONE',  ( -0.000000000000000000, -1.000000000000000000, -0.000000000000000000 ) ) ;
#229 = ORIENTED_EDGE ( 'NONE', *, *, #412, .T. ) ;
#230 = DIRECTION ( 'NONE',  ( 0.000000000000000000, 0.000000000000000000, 1.000000000000000000 ) ) ;
#231 = ADVANCED_FACE ( 'NONE', ( #2 ), #380, .F. ) ;
#232 = ORIENTED_EDGE ( 'NONE', *, *, #206, .F. ) ;
#233 = AXIS2_PLACEMENT_3D ( 'NONE', #480, #27, #123 ) ;
#234 = DIRECTION ( 'NONE',  ( 0.000000000000000000, 0.000000000000000000, 1.000000000000000000 ) ) ;
#235 = ORIENTED_EDGE ( 'NONE', *, *, #311, .T. ) ;
#236 = DIRECTION ( 'NONE',  ( 0.000000000000000000, 0.000000000000000000, -1.000000000000000000 ) ) ;
#237 = CARTESIAN_POINT ( 'NONE',  ( -15.60152851997358781, 0.1999999999999999278, -0.2499999999999997780 ) ) ;
#238 = DIRECTION ( 'NONE',  ( 0.000000000000000000, 0.000000000000000000, -1.000000000000000000 ) ) ;
#239 = EDGE_CURVE ( 'NONE', #104, #52, #482, .T. ) ;
#240 = CARTESIAN_POINT ( 'NONE',  ( -15.85152851997358425, 0.1999999999999999278, 8.673617379884035472E-17 ) ) ;
#241 = EDGE_LOOP ( 'NONE', ( #392, #11, #474, #454 ) ) ;
#242 = PERSON_AND_ORGANIZATION ( #509, #88 ) ;
#243 = FACE_OUTER_BOUND ( 'NONE', #313, .T. ) ;
#244 = AXIS2_PLACEMENT_3D ( 'NONE', #435, #211, #236 ) ;
#245 = PERSON_AND_ORGANIZATION ( #509, #88 ) ;
#246 = DIRECTION ( 'NONE',  ( 0.000000000000000000, 1.000000000000000000, 0.000000000000000000 ) ) ;
#247 = DIRECTION ( 'NONE',  ( 0.000000000000000000, 0.000000000000000000, -1.000000000000000000 ) ) ;
#248 = DIRECTION ( 'NONE',  ( -0.000000000000000000, -1.000000000000000000, -0.000000000000000000 ) ) ;
#249 = ORIENTED_EDGE ( 'NONE', *, *, #22, .F. ) ;
#250 = CIRCLE ( 'NONE', #432, 0.2500000000000001110 ) ;
#251 = DIRECTION ( 'NONE',  ( -1.000000000000000000, -0.000000000000000000, -0.000000000000000000 ) ) ;
#252 = SECURITY_CLASSIFICATION_LEVEL ( 'unclassified' ) ;
#253 = DESIGN_CONTEXT ( 'detailed design', #174, 'design' ) ;
#254 = PLANE ( 'NONE',  #119 ) ;
#255 = EDGE_LOOP ( 'NONE', ( #376, #341, #496, #334 ) ) ;
#256 = ADVANCED_FACE ( 'NONE', ( #136 ), #293, .F. ) ;
#257 = CARTESIAN_POINT ( 'NONE',  ( -15.85152851997358425, -7.581188408265272067E-17, 8.009764172427554223E-17 ) ) ;
#258 = DIRECTION ( 'NONE',  ( 0.000000000000000000, 0.000000000000000000, 1.000000000000000000 ) ) ;
#259 = PLANE ( 'NONE',  #415 ) ;
#260 = EDGE_LOOP ( 'NONE', ( #13, #191, #306, #416 ) ) ;
#261 = AXIS2_PLACEMENT_3D ( 'NONE', #132, #417, #84 ) ;
#262 = CARTESIAN_POINT ( 'NONE',  ( -15.60152851997358781, 0.1999999999999999278, -0.4999999999999999445 ) ) ;
#263 = PRODUCT ( 'Link A_Default_sldprt', 'Link A_Default_sldprt', '', ( #398 ) ) ;
#264 = ORIENTED_EDGE ( 'NONE', *, *, #46, .T. ) ;
#265 = DIRECTION ( 'NONE',  ( -0.000000000000000000, -1.000000000000000000, -0.000000000000000000 ) ) ;
#266 = ORIENTED_EDGE ( 'NONE', *, *, #9, .T. ) ;
#267 = CYLINDRICAL_SURFACE ( 'NONE', #244, 0.2500000000000001110 ) ;
#268 = ORIENTED_EDGE ( 'NONE', *, *, #330, .T. ) ;
#269 = VECTOR ( 'NONE', #181, 100.0000000000000000 ) ;
#270 = DIRECTION ( 'NONE',  ( -0.000000000000000000, -0.000000000000000000, 1.000000000000000000 ) ) ;
#271 = ORIENTED_EDGE ( 'NONE', *, *, #87, .T. ) ;
#272 = CARTESIAN_POINT ( 'NONE',  ( 0.000000000000000000, 0.000000000000000000, 0.000000000000000000 ) ) ;
#273 = ORIENTED_EDGE ( 'NONE', *, *, #92, .T. ) ;
#274 = EDGE_CURVE ( 'NONE', #82, #466, #487, .T. ) ;
#275 = APPROVAL_ROLE ( '' ) ;
#276 = APPLICATION_CONTEXT ( 'configuration controlled 3d designs of mechanical parts and assemblies' ) ;
#277 = PLANE ( 'NONE',  #296 ) ;
#278 = LINE ( 'NONE', #121, #187 ) ;
#279 = DIRECTION ( 'NONE',  ( 1.000000000000000000, 0.000000000000000000, -0.000000000000000000 ) ) ;
#280 = DIRECTION ( 'NONE',  ( -0.000000000000000000, -1.000000000000000000, -0.000000000000000000 ) ) ;
#281 = DIRECTION ( 'NONE',  ( 0.000000000000000000, 1.000000000000000000, 0.000000000000000000 ) ) ;
#282 = AXIS2_PLACEMENT_3D ( 'NONE', #61, #228, #190 ) ;
#283 = CARTESIAN_POINT ( 'NONE',  ( 21.39847148002641575, 8.673617379884035472E-17, -0.7500000000000003331 ) ) ;
#284 = AXIS2_PLACEMENT_3D ( 'NONE', #445, #120, #157 ) ;
#285 = CARTESIAN_POINT ( 'NONE',  ( -16.10152851997358781, -7.581188408265272067E-17, -0.2500000000000016098 ) ) ;
#286 = AXIS2_PLACEMENT_3D ( 'NONE', #183, #170, #326 ) ;
#287 = DATE_TIME_ROLE ( 'classification_date' ) ;
#288 = CARTESIAN_POINT ( 'NONE',  ( 17.14847148002641575, 0.2000000000000000944, -1.000000000000000222 ) ) ;
#289 = VERTEX_POINT ( 'NONE', #285 ) ;
#290 = CC_DESIGN_SECURITY_CLASSIFICATION ( #397, ( #144 ) ) ;
#291 = ADVANCED_FACE ( 'NONE', ( #4, #378, #128 ), #254, .T. ) ;
#292 = PERSON_AND_ORGANIZATION ( #509, #88 ) ;
#293 = PLANE ( 'NONE',  #286 ) ;
#294 = ORIENTED_EDGE ( 'NONE', *, *, #518, .F. ) ;
#295 = DIRECTION ( 'NONE',  ( 0.000000000000000000, 1.000000000000000000, -0.000000000000000000 ) ) ;
#296 = AXIS2_PLACEMENT_3D ( 'NONE', #407, #525, #279 ) ;
#297 = ORIENTED_EDGE ( 'NONE', *, *, #518, .T. ) ;
#298 = CARTESIAN_POINT ( 'NONE',  ( 17.14847148002641575, 8.673617379884035472E-17, -1.000000000000000222 ) ) ;
#299 = VERTEX_POINT ( 'NONE', #7 ) ;
#300 = AXIS2_PLACEMENT_3D ( 'NONE', #262, #388, #390 ) ;
#301 = FACE_OUTER_BOUND ( 'NONE', #241, .T. ) ;
#302 = EDGE_LOOP ( 'NONE', ( #15, #21, #463, #508, #115, #381, #424, #109 ) ) ;
#303 = CARTESIAN_POINT ( 'NONE',  ( 21.89847148002641575, 7.956418295496562086E-17, -0.7499999999999984457 ) ) ;
#304 = VERTEX_POINT ( 'NONE', #44 ) ;
#305 = FACE_OUTER_BOUND ( 'NONE', #95, .T. ) ;
#306 = ORIENTED_EDGE ( 'NONE', *, *, #460, .F. ) ;
#307 = EDGE_CURVE ( 'NONE', #429, #56, #118, .T. ) ;
#308 =( GEOMETRIC_REPRESENTATION_CONTEXT ( 3 ) GLOBAL_UNCERTAINTY_ASSIGNED_CONTEXT ( ( #90 ) ) GLOBAL_UNIT_ASSIGNED_CONTEXT ( ( #475, #401, #113 ) ) REPRESENTATION_CONTEXT ( 'NONE', 'WORKASPACE' ) );
#309 = CYLINDRICAL_SURFACE ( 'NONE', #282, 0.2500000000000000555 ) ;
#310 = EDGE_LOOP ( 'NONE', ( #440, #273 ) ) ;
#311 = EDGE_CURVE ( 'NONE', #184, #431, #337, .T. ) ;
#312 = CARTESIAN_POINT ( 'NONE',  ( -15.85152851997358781, 0.1999999999999999278, -1.000000000000000000 ) ) ;
#313 = EDGE_LOOP ( 'NONE', ( #500, #71, #147, #297 ) ) ;
#314 = CALENDAR_DATE ( 2025, 20, 11 ) ;
#315 = EDGE_CURVE ( 'NONE', #52, #304, #219, .T. ) ;
#316 = ORIENTED_EDGE ( 'NONE', *, *, #409, .T. ) ;
#317 = CIRCLE ( 'NONE', #335, 0.2500000000000000555 ) ;
#318 = DIRECTION ( 'NONE',  ( 0.000000000000000000, 0.000000000000000000, 1.000000000000000000 ) ) ;
#319 = CARTESIAN_POINT ( 'NONE',  ( -16.10152851997358781, 0.1999999999999999278, -0.2500000000000017208 ) ) ;
#320 = DIRECTION ( 'NONE',  ( 0.000000000000000000, 0.000000000000000000, 1.000000000000000000 ) ) ;
#321 = EDGE_CURVE ( 'NONE', #289, #150, #510, .T. ) ;
#322 = APPROVAL_STATUS ( 'not_yet_approved' ) ;
#323 = VERTEX_POINT ( 'NONE', #20 ) ;
#324 = PERSON_AND_ORGANIZATION_ROLE ( 'design_supplier' ) ;
#325 = DIRECTION ( 'NONE',  ( 0.000000000000000000, 1.000000000000000000, -0.000000000000000000 ) ) ;
#326 = DIRECTION ( 'NONE',  ( 0.000000000000000000, 0.000000000000000000, -1.000000000000000000 ) ) ;
#327 = PERSON_AND_ORGANIZATION_ROLE ( 'creator' ) ;
#328 = AXIS2_PLACEMENT_3D ( 'NONE', #458, #47, #213 ) ;
#329 = DIRECTION ( 'NONE',  ( -0.000000000000000000, -1.000000000000000000, -0.000000000000000000 ) ) ;
#330 = EDGE_CURVE ( 'NONE', #197, #104, #250, .T. ) ;
#331 = VERTEX_POINT ( 'NONE', #59 ) ;
#332 = COORDINATED_UNIVERSAL_TIME_OFFSET ( 7, 0, .BEHIND. ) ;
#333 = FACE_BOUND ( 'NONE', #310, .T. ) ;
#334 = ORIENTED_EDGE ( 'NONE', *, *, #206, .T. ) ;
#335 = AXIS2_PLACEMENT_3D ( 'NONE', #209, #78, #158 ) ;
#336 = CALENDAR_DATE ( 2025, 20, 11 ) ;
#337 = LINE ( 'NONE', #461, #479 ) ;
#338 = ORIENTED_EDGE ( 'NONE', *, *, #330, .F. ) ;
#339 = ADVANCED_FACE ( 'NONE', ( #305 ), #111, .T. ) ;
#340 = CARTESIAN_POINT ( 'NONE',  ( -16.10152851997358781, -6.505213034913026604E-17, -0.2500000000000017208 ) ) ;
#341 = ORIENTED_EDGE ( 'NONE', *, *, #499, .F. ) ;
#342 = CARTESIAN_POINT ( 'NONE',  ( 21.89847148002641575, 8.673617379884035472E-17, -0.2500000000000018874 ) ) ;
#343 = EDGE_LOOP ( 'NONE', ( #62, #216, #226, #266 ) ) ;
#344 = DIRECTION ( 'NONE',  ( -0.000000000000000000, -1.000000000000000000, -0.000000000000000000 ) ) ;
#345 = ORIENTED_EDGE ( 'NONE', *, *, #224, .T. ) ;
#346 = CARTESIAN_POINT ( 'NONE',  ( -16.10152851997358781, 0.1999999999999999278, -0.7499999999999981126 ) ) ;
#347 = EDGE_LOOP ( 'NONE', ( #494, #249 ) ) ;
#348 = CIRCLE ( 'NONE', #192, 0.2499999999999999722 ) ;
#349 = CARTESIAN_POINT ( 'NONE',  ( 21.64847148002641219, 0.2000000000000000944, -8.406206358707019942E-17 ) ) ;
#350 = ORIENTED_EDGE ( 'NONE', *, *, #374, .T. ) ;
#351 = ADVANCED_FACE ( 'NONE', ( #426 ), #433, .F. ) ;
#352 = CARTESIAN_POINT ( 'NONE',  ( 21.39847148002641575, 0.2000000000000000944, -0.5000000000000001110 ) ) ;
#353 = ORIENTED_EDGE ( 'NONE', *, *, #72, .F. ) ;
#354 = EDGE_CURVE ( 'NONE', #384, #389, #473, .T. ) ;
#355 = DIRECTION ( 'NONE',  ( -0.000000000000000000, -1.000000000000000000, -0.000000000000000000 ) ) ;
#356 = CIRCLE ( 'NONE', #66, 0.2500000000000000555 ) ;
#357 = DIRECTION ( 'NONE',  ( -0.000000000000000000, -1.000000000000000000, -0.000000000000000000 ) ) ;
#358 = CARTESIAN_POINT ( 'NONE',  ( 21.39847148002641575, 0.2000000000000000944, -0.5000000000000001110 ) ) ;
#359 = DIRECTION ( 'NONE',  ( -0.000000000000000000, -1.000000000000000000, -0.000000000000000000 ) ) ;
#360 = AXIS2_PLACEMENT_3D ( 'NONE', #471, #502, #428 ) ;
#361 = DIRECTION ( 'NONE',  ( -0.000000000000000000, -1.000000000000000000, -0.000000000000000000 ) ) ;
#362 = CARTESIAN_POINT ( 'NONE',  ( 21.39847148002641575, 0.2000000000000000944, -0.2499999999999998890 ) ) ;
#363 = CYLINDRICAL_SURFACE ( 'NONE', #427, 0.2500000000000002220 ) ;
#364 = CC_DESIGN_PERSON_AND_ORGANIZATION_ASSIGNMENT ( #413, #327, ( #144 ) ) ;
#365 = FACE_OUTER_BOUND ( 'NONE', #24, .T. ) ;
#366 = CARTESIAN_POINT ( 'NONE',  ( -15.60152851997358781, 0.1999999999999999278, -0.4999999999999999445 ) ) ;
#367 = LOCAL_TIME ( 9, 13, 23.00000000000000000, #200 ) ;
#368 = EDGE_LOOP ( 'NONE', ( #395, #182, #137, #472 ) ) ;
#369 = APPROVAL_STATUS ( 'not_yet_approved' ) ;
#370 = EDGE_CURVE ( 'NONE', #189, #429, #103, .T. ) ;
#371 = FACE_BOUND ( 'NONE', #476, .T. ) ;
#372 = PERSON_AND_ORGANIZATION ( #509, #88 ) ;
#373 = CLOSED_SHELL ( 'NONE', ( #452, #130, #382, #231, #291, #171, #101, #400, #436, #351, #98, #506, #256, #339 ) ) ;
#374 = EDGE_CURVE ( 'NONE', #155, #289, #57, .T. ) ;
#375 = DIRECTION ( 'NONE',  ( 0.000000000000000000, 0.000000000000000000, -1.000000000000000000 ) ) ;
#376 = ORIENTED_EDGE ( 'NONE', *, *, #354, .T. ) ;
#377 = VECTOR ( 'NONE', #94, 100.0000000000000000 ) ;
#378 = FACE_BOUND ( 'NONE', #347, .T. ) ;
#379 = CC_DESIGN_APPROVAL ( #511, ( #397 ) ) ;
#380 = CYLINDRICAL_SURFACE ( 'NONE', #176, 0.2500000000000001110 ) ;
#381 = ORIENTED_EDGE ( 'NONE', *, *, #370, .F. ) ;
#382 = ADVANCED_FACE ( 'NONE', ( #394 ), #12, .F. ) ;
#383 = DIRECTION ( 'NONE',  ( -1.000000000000000000, -0.000000000000000000, -0.000000000000000000 ) ) ;
#384 = VERTEX_POINT ( 'NONE', #17 ) ;
#385 = DIRECTION ( 'NONE',  ( 0.000000000000000000, 0.000000000000000000, -1.000000000000000000 ) ) ;
#386 = EDGE_LOOP ( 'NONE', ( #175, #316, #353, #503 ) ) ;
#387 = VECTOR ( 'NONE', #359, 100.0000000000000000 ) ;
#388 = DIRECTION ( 'NONE',  ( 0.000000000000000000, 1.000000000000000000, 0.000000000000000000 ) ) ;
#389 = VERTEX_POINT ( 'NONE', #303 ) ;
#390 = DIRECTION ( 'NONE',  ( 0.000000000000000000, 0.000000000000000000, 1.000000000000000000 ) ) ;
#391 = PRODUCT_DEFINITION ( 'UNKNOWN', '', #144, #253 ) ;
#392 = ORIENTED_EDGE ( 'NONE', *, *, #28, .F. ) ;
#393 = AXIS2_PLACEMENT_3D ( 'NONE', #443, #246, #320 ) ;
#394 = FACE_OUTER_BOUND ( 'NONE', #505, .T. ) ;
#395 = ORIENTED_EDGE ( 'NONE', *, *, #396, .T. ) ;
#396 = EDGE_CURVE ( 'NONE', #104, #197, #449, .T. ) ;
#397 = SECURITY_CLASSIFICATION ( '', '', #252 ) ;
#398 = MECHANICAL_CONTEXT ( 'NONE', #276, 'mechanical' ) ;
#399 = ORIENTED_EDGE ( 'NONE', *, *, #396, .F. ) ;
#400 = ADVANCED_FACE ( 'NONE', ( #301 ), #259, .F. ) ;
#401 =( NAMED_UNIT ( * ) PLANE_ANGLE_UNIT ( ) SI_UNIT ( $, .RADIAN. ) );
#402 = LINE ( 'NONE', #237, #514 ) ;
#403 = CIRCLE ( 'NONE', #233, 0.2500000000000002220 ) ;
#404 = EDGE_LOOP ( 'NONE', ( #48, #268, #102, #490 ) ) ;
#405 = DIRECTION ( 'NONE',  ( 1.000000000000000000, 0.000000000000000000, 0.000000000000000000 ) ) ;
#406 = APPROVAL_PERSON_ORGANIZATION ( #372, #511, #422 ) ;
#407 = CARTESIAN_POINT ( 'NONE',  ( 17.14847148002641575, 0.2000000000000000944, -1.000000000000000222 ) ) ;
#408 = DIRECTION ( 'NONE',  ( 0.000000000000000000, 1.000000000000000000, 0.000000000000000000 ) ) ;
#409 = EDGE_CURVE ( 'NONE', #524, #434, #67, .T. ) ;
#410 = SHAPE_DEFINITION_REPRESENTATION ( #18, #516 ) ;
#411 = DIRECTION ( 'NONE',  ( 0.000000000000000000, 1.000000000000000000, 0.000000000000000000 ) ) ;
#412 = EDGE_CURVE ( 'NONE', #299, #331, #469, .T. ) ;
#413 = PERSON_AND_ORGANIZATION ( #509, #88 ) ;
#414 = CARTESIAN_POINT ( 'NONE',  ( 4.750000000000000000, 0.2000000000000000111, -0.2499999999999999722 ) ) ;
#415 = AXIS2_PLACEMENT_3D ( 'NONE', #498, #143, #225 ) ;
#416 = ORIENTED_EDGE ( 'NONE', *, *, #151, .T. ) ;
#417 = DIRECTION ( 'NONE',  ( 0.000000000000000000, 1.000000000000000000, 0.000000000000000000 ) ) ;
#418 = APPROVAL_STATUS ( 'not_yet_approved' ) ;
#419 = AXIS2_PLACEMENT_3D ( 'NONE', #358, #281, #478 ) ;
#420 = CARTESIAN_POINT ( 'NONE',  ( 21.39847148002641575, 0.2000000000000000944, -0.5000000000000001110 ) ) ;
#421 = ORIENTED_EDGE ( 'NONE', *, *, #274, .T. ) ;
#422 = APPROVAL_ROLE ( '' ) ;
#423 = PLANE ( 'NONE',  #261 ) ;
#424 = ORIENTED_EDGE ( 'NONE', *, *, #522, .F. ) ;
#425 = AXIS2_PLACEMENT_3D ( 'NONE', #146, #188, #234 ) ;
#426 = FACE_OUTER_BOUND ( 'NONE', #255, .T. ) ;
#427 = AXIS2_PLACEMENT_3D ( 'NONE', #420, #497, #375 ) ;
#428 = DIRECTION ( 'NONE',  ( 0.000000000000000000, 0.000000000000000000, -1.000000000000000000 ) ) ;
#429 = VERTEX_POINT ( 'NONE', #106 ) ;
#430 = CARTESIAN_POINT ( 'NONE',  ( 21.39847148002641575, 8.673617379884035472E-17, -0.2499999999999998890 ) ) ;
#431 = VERTEX_POINT ( 'NONE', #349 ) ;
#432 = AXIS2_PLACEMENT_3D ( 'NONE', #141, #193, #230 ) ;
#433 = PLANE ( 'NONE',  #425 ) ;
#434 = VERTEX_POINT ( 'NONE', #430 ) ;
#435 = CARTESIAN_POINT ( 'NONE',  ( -15.60152851997358781, 0.1999999999999999278, -0.4999999999999999445 ) ) ;
#436 = ADVANCED_FACE ( 'NONE', ( #152 ), #309, .T. ) ;
#437 = VERTEX_POINT ( 'NONE', #346 ) ;
#438 = AXIS2_PLACEMENT_3D ( 'NONE', #207, #408, #212 ) ;
#439 = LINE ( 'NONE', #240, #160 ) ;
#440 = ORIENTED_EDGE ( 'NONE', *, *, #72, .T. ) ;
#441 = CC_DESIGN_PERSON_AND_ORGANIZATION_ASSIGNMENT ( #5, #324, ( #144 ) ) ;
#442 = CARTESIAN_POINT ( 'NONE',  ( -15.85152851997358781, 0.1999999999999999278, -0.7500000000000000000 ) ) ;
#443 = CARTESIAN_POINT ( 'NONE',  ( 21.64847148002641575, 0.2000000000000000944, -0.2500000000000000555 ) ) ;
#444 = DATE_AND_TIME ( #314, #367 ) ;
#445 = CARTESIAN_POINT ( 'NONE',  ( 21.64847148002641575, 0.2000000000000000944, -0.7500000000000001110 ) ) ;
#446 = DIRECTION ( 'NONE',  ( 0.000000000000000000, 0.000000000000000000, -1.000000000000000000 ) ) ;
#447 = APPROVAL_DATE_TIME ( #444, #165 ) ;
#448 = APPROVAL ( #369, 'UNSPECIFIED' ) ;
#449 = CIRCLE ( 'NONE', #300, 0.2500000000000001110 ) ;
#450 = CARTESIAN_POINT ( 'NONE',  ( -15.85152851997358781, 0.1999999999999999278, -0.2499999999999998890 ) ) ;
#451 = CARTESIAN_POINT ( 'NONE',  ( -15.85152851997358781, 0.1999999999999999278, -0.7500000000000000000 ) ) ;
#452 = ADVANCED_FACE ( 'NONE', ( #149 ), #267, .F. ) ;
#453 = DIRECTION ( 'NONE',  ( 0.000000000000000000, 0.000000000000000000, -1.000000000000000000 ) ) ;
#454 = ORIENTED_EDGE ( 'NONE', *, *, #467, .T. ) ;
#455 = CARTESIAN_POINT ( 'NONE',  ( -15.85152851997358781, -6.505213034913026604E-17, -0.7500000000000000000 ) ) ;
#456 = CC_DESIGN_APPROVAL ( #165, ( #391 ) ) ;
#457 = PERSON_AND_ORGANIZATION ( #509, #88 ) ;
#458 = CARTESIAN_POINT ( 'NONE',  ( 21.39847148002641575, 0.2000000000000000944, -0.5000000000000001110 ) ) ;
#459 = AXIS2_PLACEMENT_3D ( 'NONE', #159, #515, #318 ) ;
#460 = EDGE_CURVE ( 'NONE', #437, #155, #38, .T. ) ;
#461 = CARTESIAN_POINT ( 'NONE',  ( -15.85152851997358425, 0.1999999999999999278, 8.673617379884035472E-17 ) ) ;
#462 = DIRECTION ( 'NONE',  ( 1.000000000000000000, 0.000000000000000000, 0.000000000000000000 ) ) ;
#463 = ORIENTED_EDGE ( 'NONE', *, *, #321, .F. ) ;
#464 = APPROVAL_PERSON_ORGANIZATION ( #483, #165, #275 ) ;
#465 = CARTESIAN_POINT ( 'NONE',  ( 21.89847148002641575, 0.2000000000000000944, -0.2500000000000018874 ) ) ;
#466 = VERTEX_POINT ( 'NONE', #312 ) ;
#467 = EDGE_CURVE ( 'NONE', #150, #69, #278, .T. ) ;
#468 = AXIS2_PLACEMENT_3D ( 'NONE', #6, #411, #97 ) ;
#469 = LINE ( 'NONE', #465, #520 ) ;
#470 = ORIENTED_EDGE ( 'NONE', *, *, #114, .F. ) ;
#471 = CARTESIAN_POINT ( 'NONE',  ( -15.85152851997358781, -6.505213034913026604E-17, -0.2499999999999998890 ) ) ;
#472 = ORIENTED_EDGE ( 'NONE', *, *, #239, .F. ) ;
#473 = LINE ( 'NONE', #342, #198 ) ;
#474 = ORIENTED_EDGE ( 'NONE', *, *, #481, .T. ) ;
#475 =( LENGTH_UNIT ( ) NAMED_UNIT ( * ) SI_UNIT ( .CENTI., .METRE. ) );
#476 = EDGE_LOOP ( 'NONE', ( #112, #345 ) ) ;
#477 = PERSON_AND_ORGANIZATION_ROLE ( 'design_owner' ) ;
#478 = DIRECTION ( 'NONE',  ( 0.000000000000000000, 0.000000000000000000, 1.000000000000000000 ) ) ;
#479 = VECTOR ( 'NONE', #462, 100.0000000000000000 ) ;
#480 = CARTESIAN_POINT ( 'NONE',  ( 21.39847148002641575, 8.673617379884035472E-17, -0.5000000000000001110 ) ) ;
#481 = EDGE_CURVE ( 'NONE', #184, #150, #439, .T. ) ;
#482 = LINE ( 'NONE', #10, #377 ) ;
#483 = PERSON_AND_ORGANIZATION ( #509, #88 ) ;
#484 = CARTESIAN_POINT ( 'NONE',  ( 21.64847148002641219, 0.2000000000000000944, -8.673617379884035472E-17 ) ) ;
#485 = VECTOR ( 'NONE', #504, 100.0000000000000000 ) ;
#486 = LINE ( 'NONE', #30, #122 ) ;
#487 = LINE ( 'NONE', #288, #36 ) ;
#488 = VECTOR ( 'NONE', #329, 100.0000000000000000 ) ;
#489 = DIRECTION ( 'NONE',  ( -0.000000000000000000, -1.000000000000000000, -0.000000000000000000 ) ) ;
#490 = ORIENTED_EDGE ( 'NONE', *, *, #224, .F. ) ;
#491 = APPROVAL_DATE_TIME ( #166, #448 ) ;
#492 = DIRECTION ( 'NONE',  ( 0.000000000000000000, 1.000000000000000000, -0.000000000000000000 ) ) ;
#493 = VECTOR ( 'NONE', #221, 100.0000000000000000 ) ;
#494 = ORIENTED_EDGE ( 'NONE', *, *, #195, .F. ) ;
#495 = LINE ( 'NONE', #217, #105 ) ;
#496 = ORIENTED_EDGE ( 'NONE', *, *, #412, .F. ) ;
#497 = DIRECTION ( 'NONE',  ( -0.000000000000000000, -1.000000000000000000, -0.000000000000000000 ) ) ;
#498 = CARTESIAN_POINT ( 'NONE',  ( 17.14847148002641575, 0.2000000000000000944, -8.673617379884035472E-17 ) ) ;
#499 = EDGE_CURVE ( 'NONE', #331, #389, #31, .T. ) ;
#500 = ORIENTED_EDGE ( 'NONE', *, *, #370, .T. ) ;
#501 = CC_DESIGN_APPROVAL ( #448, ( #144 ) ) ;
#502 = DIRECTION ( 'NONE',  ( 0.000000000000000000, 1.000000000000000000, -0.000000000000000000 ) ) ;
#503 = ORIENTED_EDGE ( 'NONE', *, *, #32, .F. ) ;
#504 = DIRECTION ( 'NONE',  ( -0.000000000000000000, -1.000000000000000000, -0.000000000000000000 ) ) ;
#505 = EDGE_LOOP ( 'NONE', ( #513, #153, #39, #145 ) ) ;
#506 = ADVANCED_FACE ( 'NONE', ( #512 ), #205, .T. ) ;
#507 = CARTESIAN_POINT ( 'NONE',  ( -15.85152851997358781, 0.1999999999999999278, -0.2499999999999998890 ) ) ;
#508 = ORIENTED_EDGE ( 'NONE', *, *, #138, .F. ) ;
#509 = PERSON ( 'UNSPECIFIED', 'UNSPECIFIED', 'UNSPECIFIED', ('UNSPECIFIED'), ('UNSPECIFIED'), ('UNSPECIFIED') ) ;
#510 = CIRCLE ( 'NONE', #360, 0.2499999999999999722 ) ;
#511 = APPROVAL ( #418, 'UNSPECIFIED' ) ;
#512 = FACE_OUTER_BOUND ( 'NONE', #343, .T. ) ;
#513 = ORIENTED_EDGE ( 'NONE', *, *, #409, .F. ) ;
#514 = VECTOR ( 'NONE', #361, 100.0000000000000000 ) ;
#515 = DIRECTION ( 'NONE',  ( 0.000000000000000000, 1.000000000000000000, 0.000000000000000000 ) ) ;
#516 = ADVANCED_BREP_SHAPE_REPRESENTATION ( 'Link A_Default_sldprt', ( #215, #25 ), #308 ) ;
#517 = CALENDAR_DATE ( 2025, 20, 11 ) ;
#518 = EDGE_CURVE ( 'NONE', #82, #189, #73, .T. ) ;
#519 = CARTESIAN_POINT ( 'NONE',  ( 21.64847148002641219, 0.2000000000000000944, -1.000000000000000000 ) ) ;
#520 = VECTOR ( 'NONE', #385, 100.0000000000000000 ) ;
#521 = CYLINDRICAL_SURFACE ( 'NONE', #284, 0.2500000000000000555 ) ;
#522 = EDGE_CURVE ( 'NONE', #389, #189, #317, .T. ) ;
#523 = DIRECTION ( 'NONE',  ( 0.000000000000000000, 0.000000000000000000, 1.000000000000000000 ) ) ;
#524 = VERTEX_POINT ( 'NONE', #362 ) ;
#525 = DIRECTION ( 'NONE',  ( 0.000000000000000000, 0.000000000000000000, 1.000000000000000000 ) ) ;
ENDSEC;
END-ISO-10303-21;
