ISO-10303-21;
HEADER;
FILE_DESCRIPTION (( 'STEP AP203' ),
    '1' );
FILE_NAME ('Link G_Default_sldprt.STEP',
    '2025-11-20T16:13:43',
    ( '' ),
    ( '' ),
    'SwSTEP 2.0',
    'SolidWorks 2025',
    '' );
FILE_SCHEMA (( 'CONFIG_CONTROL_DESIGN' ));
ENDSEC;

DATA;
#1 = CARTESIAN_POINT ( 'NONE',  ( 20.98277411869203846, 8.673617379884035472E-17, -0.7500000000000001110 ) ) ;
#2 = CC_DESIGN_PERSON_AND_ORGANIZATION_ASSIGNMENT ( #11, #391, ( #421 ) ) ;
#3 = VECTOR ( 'NONE', #163, 100.0000000000000000 ) ;
#4 = CARTESIAN_POINT ( 'NONE',  ( 4.750000000000000000, 0.2000000000000000111, -0.2499999999999999722 ) ) ;
#5 = CARTESIAN_POINT ( 'NONE',  ( -15.21722588130796083, -7.282535531576034013E-17, -1.000000000000000000 ) ) ;
#6 = LINE ( 'NONE', #239, #298 ) ;
#7 = CARTESIAN_POINT ( 'NONE',  ( -14.96722588130796083, 0.1999999999999999278, -0.4999999999999999445 ) ) ;
#8 = PLANE ( 'NONE',  #474 ) ;
#9 = CIRCLE ( 'NONE', #290, 0.2500000000000002220 ) ;
#10 = ORIENTED_EDGE ( 'NONE', *, *, #521, .T. ) ;
#11 = PERSON_AND_ORGANIZATION ( #386, #83 ) ;
#12 = AXIS2_PLACEMENT_3D ( 'NONE', #138, #254, #94 ) ;
#13 = EDGE_CURVE ( 'NONE', #65, #427, #175, .T. ) ;
#14 = VERTEX_POINT ( 'NONE', #321 ) ;
#15 = CARTESIAN_POINT ( 'NONE',  ( -14.96722588130796083, -6.505213034913026604E-17, -0.7500000000000001110 ) ) ;
#16 = ORIENTED_EDGE ( 'NONE', *, *, #218, .F. ) ;
#17 = CARTESIAN_POINT ( 'NONE',  ( -15.21722588130795728, -6.505213034913026604E-17, 8.673617379884035472E-17 ) ) ;
#18 = ORIENTED_EDGE ( 'NONE', *, *, #475, .T. ) ;
#19 = CARTESIAN_POINT ( 'NONE',  ( 20.73277411869203846, 8.673617379884035472E-17, -0.7500000000000003331 ) ) ;
#20 = EDGE_LOOP ( 'NONE', ( #499, #389, #123, #267 ) ) ;
#21 = PERSON_AND_ORGANIZATION ( #386, #83 ) ;
#22 = VERTEX_POINT ( 'NONE', #524 ) ;
#23 = LINE ( 'NONE', #295, #53 ) ;
#24 = ORIENTED_EDGE ( 'NONE', *, *, #235, .T. ) ;
#25 = COORDINATED_UNIVERSAL_TIME_OFFSET ( 7, 0, .BEHIND. ) ;
#26 = LINE ( 'NONE', #271, #209 ) ;
#27 = ORIENTED_EDGE ( 'NONE', *, *, #268, .T. ) ;
#28 = CARTESIAN_POINT ( 'NONE',  ( -15.21722588130796083, 0.1999999999999999278, -0.7500000000000000000 ) ) ;
#29 = VERTEX_POINT ( 'NONE', #242 ) ;
#30 = CIRCLE ( 'NONE', #166, 0.2500000000000001110 ) ;
#31 = DIRECTION ( 'NONE',  ( 1.000000000000000000, 0.000000000000000000, 0.000000000000000000 ) ) ;
#32 = AXIS2_PLACEMENT_3D ( 'NONE', #211, #313, #352 ) ;
#33 = MANIFOLD_SOLID_BREP ( 'Flex1', #515 ) ;
#34 = DIRECTION ( 'NONE',  ( 1.000000000000000000, -0.000000000000000000, 0.000000000000000000 ) ) ;
#35 = VECTOR ( 'NONE', #414, 100.0000000000000000 ) ;
#36 = EDGE_CURVE ( 'NONE', #134, #65, #518, .T. ) ;
#37 = CARTESIAN_POINT ( 'NONE',  ( 16.48277411869204201, 8.673617379884035472E-17, -1.000000000000000222 ) ) ;
#38 = FACE_OUTER_BOUND ( 'NONE', #308, .T. ) ;
#39 = CC_DESIGN_SECURITY_CLASSIFICATION ( #449, ( #302 ) ) ;
#40 = DIRECTION ( 'NONE',  ( 0.000000000000000000, 0.000000000000000000, -1.000000000000000000 ) ) ;
#41 = CARTESIAN_POINT ( 'NONE',  ( 21.23277411869203846, 0.2000000000000000944, -0.7499999999999984457 ) ) ;
#42 = DIRECTION ( 'NONE',  ( -0.000000000000000000, -0.000000000000000000, 1.000000000000000000 ) ) ;
#43 = EDGE_CURVE ( 'NONE', #14, #283, #215, .T. ) ;
#44 = DIRECTION ( 'NONE',  ( -0.000000000000000000, -1.000000000000000000, -0.000000000000000000 ) ) ;
#45 = FACE_OUTER_BOUND ( 'NONE', #459, .T. ) ;
#46 = LINE ( 'NONE', #41, #362 ) ;
#47 = CARTESIAN_POINT ( 'NONE',  ( 20.73277411869203846, 0.2000000000000000944, -0.7500000000000003331 ) ) ;
#48 = DIRECTION ( 'NONE',  ( -0.000000000000000000, -1.000000000000000000, -0.000000000000000000 ) ) ;
#49 = DIRECTION ( 'NONE',  ( -0.000000000000000000, -1.000000000000000000, -0.000000000000000000 ) ) ;
#50 = CARTESIAN_POINT ( 'NONE',  ( -15.21722588130796083, -6.505213034913026604E-17, -0.7500000000000000000 ) ) ;
#51 = CARTESIAN_POINT ( 'NONE',  ( 20.73277411869203846, 0.2000000000000000944, -0.5000000000000001110 ) ) ;
#52 = EDGE_CURVE ( 'NONE', #132, #511, #30, .T. ) ;
#53 = VECTOR ( 'NONE', #253, 100.0000000000000000 ) ;
#54 = ORIENTED_EDGE ( 'NONE', *, *, #56, .T. ) ;
#55 = DATE_AND_TIME ( #60, #162 ) ;
#56 = EDGE_CURVE ( 'NONE', #481, #98, #114, .T. ) ;
#57 = MECHANICAL_CONTEXT ( 'NONE', #179, 'mechanical' ) ;
#58 = ADVANCED_FACE ( 'NONE', ( #82 ), #438, .F. ) ;
#59 = ORIENTED_EDGE ( 'NONE', *, *, #43, .F. ) ;
#60 = CALENDAR_DATE ( 2025, 20, 11 ) ;
#61 = CIRCLE ( 'NONE', #403, 0.2500000000000001110 ) ;
#62 = ORIENTED_EDGE ( 'NONE', *, *, #245, .T. ) ;
#63 = DATE_AND_TIME ( #368, #265 ) ;
#64 = AXIS2_PLACEMENT_3D ( 'NONE', #284, #443, #480 ) ;
#65 = VERTEX_POINT ( 'NONE', #240 ) ;
#66 = ORIENTED_EDGE ( 'NONE', *, *, #343, .T. ) ;
#67 = ORIENTED_EDGE ( 'NONE', *, *, #343, .F. ) ;
#68 = DIRECTION ( 'NONE',  ( -0.000000000000000000, -1.000000000000000000, -0.000000000000000000 ) ) ;
#69 = EDGE_LOOP ( 'NONE', ( #149, #16, #393, #316 ) ) ;
#70 = EDGE_CURVE ( 'NONE', #496, #98, #400, .T. ) ;
#71 = DIRECTION ( 'NONE',  ( 0.000000000000000000, 0.000000000000000000, -1.000000000000000000 ) ) ;
#72 = AXIS2_PLACEMENT_3D ( 'NONE', #338, #451, #210 ) ;
#73 = ADVANCED_FACE ( 'NONE', ( #411 ), #153, .T. ) ;
#74 = FACE_OUTER_BOUND ( 'NONE', #345, .T. ) ;
#75 = DIRECTION ( 'NONE',  ( 0.000000000000000000, 0.000000000000000000, -1.000000000000000000 ) ) ;
#76 = DIRECTION ( 'NONE',  ( -0.000000000000000000, -1.000000000000000000, -0.000000000000000000 ) ) ;
#77 = EDGE_CURVE ( 'NONE', #14, #65, #46, .T. ) ;
#78 = ORIENTED_EDGE ( 'NONE', *, *, #255, .F. ) ;
#79 = DIRECTION ( 'NONE',  ( 1.000000000000000000, 0.000000000000000000, -0.000000000000000000 ) ) ;
#80 = EDGE_LOOP ( 'NONE', ( #234, #230, #67, #453 ) ) ;
#81 = FACE_OUTER_BOUND ( 'NONE', #174, .T. ) ;
#82 = FACE_OUTER_BOUND ( 'NONE', #429, .T. ) ;
#83 = ORGANIZATION ( 'UNSPECIFIED', 'UNSPECIFIED', '' ) ;
#84 = LINE ( 'NONE', #250, #105 ) ;
#85 = VERTEX_POINT ( 'NONE', #5 ) ;
#86 = EDGE_CURVE ( 'NONE', #464, #481, #9, .T. ) ;
#87 = APPLICATION_PROTOCOL_DEFINITION ( 'international standard', 'config_control_design', 1994, #179 ) ;
#88 = LINE ( 'NONE', #182, #35 ) ;
#89 = ORIENTED_EDGE ( 'NONE', *, *, #486, .T. ) ;
#90 = APPROVAL_STATUS ( 'not_yet_approved' ) ;
#91 = PRODUCT ( 'Link G_Default_sldprt', 'Link G_Default_sldprt', '', ( #57 ) ) ;
#92 = CC_DESIGN_PERSON_AND_ORGANIZATION_ASSIGNMENT ( #21, #178, ( #91 ) ) ;
#93 = EDGE_LOOP ( 'NONE', ( #170, #396 ) ) ;
#94 = DIRECTION ( 'NONE',  ( 1.000000000000000000, 0.000000000000000000, 0.000000000000000000 ) ) ;
#95 = ORIENTED_EDGE ( 'NONE', *, *, #357, .F. ) ;
#96 = CIRCLE ( 'NONE', #167, 0.2500000000000002220 ) ;
#97 = APPROVAL_STATUS ( 'not_yet_approved' ) ;
#98 = VERTEX_POINT ( 'NONE', #202 ) ;
#99 = ORIENTED_EDGE ( 'NONE', *, *, #218, .T. ) ;
#100 = EDGE_CURVE ( 'NONE', #511, #132, #61, .T. ) ;
#101 = EDGE_LOOP ( 'NONE', ( #471, #318, #508, #467 ) ) ;
#102 = AXIS2_PLACEMENT_3D ( 'NONE', #289, #476, #194 ) ;
#103 = LINE ( 'NONE', #37, #236 ) ;
#104 = ORIENTED_EDGE ( 'NONE', *, *, #268, .F. ) ;
#105 = VECTOR ( 'NONE', #76, 100.0000000000000000 ) ;
#106 = ADVANCED_FACE ( 'NONE', ( #447 ), #374, .F. ) ;
#107 = VERTEX_POINT ( 'NONE', #237 ) ;
#108 = COORDINATED_UNIVERSAL_TIME_OFFSET ( 7, 0, .BEHIND. ) ;
#109 = CARTESIAN_POINT ( 'NONE',  ( -15.21722588130795728, 0.1999999999999999278, 8.673617379884035472E-17 ) ) ;
#110 = DIRECTION ( 'NONE',  ( 0.000000000000000000, 1.000000000000000000, 0.000000000000000000 ) ) ;
#111 = CIRCLE ( 'NONE', #224, 0.2500000000000001110 ) ;
#112 = CARTESIAN_POINT ( 'NONE',  ( 20.98277411869203846, 0.2000000000000000944, -1.000000000000000000 ) ) ;
#113 = CIRCLE ( 'NONE', #351, 0.2499999999999999722 ) ;
#114 = LINE ( 'NONE', #120, #259 ) ;
#115 = CARTESIAN_POINT ( 'NONE',  ( 20.98277411869203846, 0.2000000000000000944, -8.075052774879166409E-17 ) ) ;
#116 = CARTESIAN_POINT ( 'NONE',  ( 21.23277411869203846, 8.673617379884035472E-17, -0.2500000000000018874 ) ) ;
#117 = CIRCLE ( 'NONE', #466, 0.2499999999999999722 ) ;
#118 = ADVANCED_FACE ( 'NONE', ( #38 ), #369, .T. ) ;
#119 = FACE_OUTER_BOUND ( 'NONE', #20, .T. ) ;
#120 = CARTESIAN_POINT ( 'NONE',  ( 20.73277411869203846, 0.2000000000000000944, -0.2499999999999998890 ) ) ;
#121 = DIRECTION ( 'NONE',  ( -0.000000000000000000, -1.000000000000000000, -0.000000000000000000 ) ) ;
#122 = AXIS2_PLACEMENT_3D ( 'NONE', #477, #355, #312 ) ;
#123 = ORIENTED_EDGE ( 'NONE', *, *, #189, .F. ) ;
#124 = FACE_OUTER_BOUND ( 'NONE', #212, .T. ) ;
#125 = APPROVAL ( #97, 'UNSPECIFIED' ) ;
#126 = DIRECTION ( 'NONE',  ( -0.000000000000000000, -1.000000000000000000, -0.000000000000000000 ) ) ;
#127 = APPLICATION_CONTEXT ( 'configuration controlled 3d designs of mechanical parts and assemblies' ) ;
#128 = VECTOR ( 'NONE', #425, 100.0000000000000000 ) ;
#129 = DIRECTION ( 'NONE',  ( 0.000000000000000000, -0.000000000000000000, 1.000000000000000000 ) ) ;
#130 = AXIS2_PLACEMENT_3D ( 'NONE', #169, #282, #40 ) ;
#131 = DIRECTION ( 'NONE',  ( 0.000000000000000000, 1.000000000000000000, -0.000000000000000000 ) ) ;
#132 = VERTEX_POINT ( 'NONE', #263 ) ;
#133 = LINE ( 'NONE', #17, #128 ) ;
#134 = VERTEX_POINT ( 'NONE', #309 ) ;
#135 = EDGE_CURVE ( 'NONE', #216, #399, #306, .T. ) ;
#136 =( NAMED_UNIT ( * ) SI_UNIT ( $, .STERADIAN. ) SOLID_ANGLE_UNIT ( ) );
#137 = ORIENTED_EDGE ( 'NONE', *, *, #364, .T. ) ;
#138 = CARTESIAN_POINT ( 'NONE',  ( 0.000000000000000000, 0.000000000000000000, 0.000000000000000000 ) ) ;
#139 = APPROVAL_ROLE ( '' ) ;
#140 = EDGE_CURVE ( 'NONE', #442, #22, #143, .T. ) ;
#141 = VERTEX_POINT ( 'NONE', #146 ) ;
#142 = DIRECTION ( 'NONE',  ( 0.000000000000000000, 0.000000000000000000, 1.000000000000000000 ) ) ;
#143 = CIRCLE ( 'NONE', #437, 0.2500000000000001110 ) ;
#144 = EDGE_CURVE ( 'NONE', #29, #85, #219, .T. ) ;
#145 = ORIENTED_EDGE ( 'NONE', *, *, #297, .T. ) ;
#146 = CARTESIAN_POINT ( 'NONE',  ( -15.21722588130795728, -7.282535531576034013E-17, 7.694228008059196041E-17 ) ) ;
#147 = VERTEX_POINT ( 'NONE', #392 ) ;
#148 = FACE_BOUND ( 'NONE', #349, .T. ) ;
#149 = ORIENTED_EDGE ( 'NONE', *, *, #135, .T. ) ;
#150 = EDGE_CURVE ( 'NONE', #85, #216, #507, .T. ) ;
#151 = DIRECTION ( 'NONE',  ( -1.000000000000000000, -0.000000000000000000, -0.000000000000000000 ) ) ;
#152 = ORIENTED_EDGE ( 'NONE', *, *, #486, .F. ) ;
#153 = CYLINDRICAL_SURFACE ( 'NONE', #470, 0.2500000000000000555 ) ;
#154 = PRODUCT_DEFINITION_SHAPE ( 'NONE', 'NONE',  #421 ) ;
#155 = ORIENTED_EDGE ( 'NONE', *, *, #521, .F. ) ;
#156 = CIRCLE ( 'NONE', #502, 0.2500000000000001110 ) ;
#157 = CARTESIAN_POINT ( 'NONE',  ( 20.73277411869203846, 0.2000000000000000944, -0.5000000000000001110 ) ) ;
#158 = DIRECTION ( 'NONE',  ( 0.000000000000000000, 1.000000000000000000, 0.000000000000000000 ) ) ;
#159 = APPROVAL ( #90, 'UNSPECIFIED' ) ;
#160 = CARTESIAN_POINT ( 'NONE',  ( 20.98277411869203846, 0.2000000000000000944, -0.2500000000000000555 ) ) ;
#161 = DIRECTION ( 'NONE',  ( 0.000000000000000000, 0.000000000000000000, -1.000000000000000000 ) ) ;
#162 = LOCAL_TIME ( 9, 13, 43.00000000000000000, #340 ) ;
#163 = DIRECTION ( 'NONE',  ( -0.000000000000000000, -1.000000000000000000, -0.000000000000000000 ) ) ;
#164 = DIRECTION ( 'NONE',  ( 0.000000000000000000, 1.000000000000000000, -0.000000000000000000 ) ) ;
#165 = DIRECTION ( 'NONE',  ( 0.000000000000000000, 0.000000000000000000, 1.000000000000000000 ) ) ;
#166 = AXIS2_PLACEMENT_3D ( 'NONE', #404, #522, #246 ) ;
#167 = AXIS2_PLACEMENT_3D ( 'NONE', #509, #398, #322 ) ;
#168 = DIRECTION ( 'NONE',  ( -0.000000000000000000, -1.000000000000000000, -0.000000000000000000 ) ) ;
#169 = CARTESIAN_POINT ( 'NONE',  ( 20.73277411869203846, 0.2000000000000000944, -0.5000000000000001110 ) ) ;
#170 = ORIENTED_EDGE ( 'NONE', *, *, #100, .T. ) ;
#171 = APPROVAL_ROLE ( '' ) ;
#172 = FACE_OUTER_BOUND ( 'NONE', #300, .T. ) ;
#173 = EDGE_CURVE ( 'NONE', #478, #216, #88, .T. ) ;
#174 = EDGE_LOOP ( 'NONE', ( #472, #228, #331, #137 ) ) ;
#175 = CIRCLE ( 'NONE', #288, 0.2500000000000000555 ) ;
#176 = ORIENTED_EDGE ( 'NONE', *, *, #70, .F. ) ;
#177 = DESIGN_CONTEXT ( 'detailed design', #127, 'design' ) ;
#178 = PERSON_AND_ORGANIZATION_ROLE ( 'design_owner' ) ;
#179 = APPLICATION_CONTEXT ( 'configuration controlled 3d designs of mechanical parts and assemblies' ) ;
#180 = ORIENTED_EDGE ( 'NONE', *, *, #364, .F. ) ;
#181 = PERSON_AND_ORGANIZATION ( #386, #83 ) ;
#182 = CARTESIAN_POINT ( 'NONE',  ( -15.46722588130796083, 0.1999999999999999278, -0.7499999999999981126 ) ) ;
#183 = ORIENTED_EDGE ( 'NONE', *, *, #135, .F. ) ;
#184 = CARTESIAN_POINT ( 'NONE',  ( -15.21722588130795728, 0.1999999999999999278, 8.673617379884035472E-17 ) ) ;
#185 = ORIENTED_EDGE ( 'NONE', *, *, #260, .T. ) ;
#186 = DATE_AND_TIME ( #266, #248 ) ;
#187 = DIRECTION ( 'NONE',  ( 0.000000000000000000, 0.000000000000000000, -1.000000000000000000 ) ) ;
#188 = EDGE_LOOP ( 'NONE', ( #431, #152 ) ) ;
#189 = EDGE_CURVE ( 'NONE', #417, #14, #23, .T. ) ;
#190 = DIRECTION ( 'NONE',  ( 0.000000000000000000, 0.000000000000000000, -1.000000000000000000 ) ) ;
#191 = ORIENTED_EDGE ( 'NONE', *, *, #235, .F. ) ;
#192 = APPROVAL_DATE_TIME ( #186, #380 ) ;
#193 = CARTESIAN_POINT ( 'NONE',  ( 20.98277411869203846, 8.673617379884035472E-17, -0.2500000000000000555 ) ) ;
#194 = DIRECTION ( 'NONE',  ( 0.000000000000000000, 0.000000000000000000, 1.000000000000000000 ) ) ;
#195 = APPROVAL_STATUS ( 'not_yet_approved' ) ;
#196 = PLANE ( 'NONE',  #122 ) ;
#197 = DIRECTION ( 'NONE',  ( -0.000000000000000000, -1.000000000000000000, -0.000000000000000000 ) ) ;
#198 = CARTESIAN_POINT ( 'NONE',  ( 21.23277411869203846, 0.2000000000000000944, -0.2500000000000018874 ) ) ;
#199 = CARTESIAN_POINT ( 'NONE',  ( 20.73277411869203846, 0.2000000000000000944, -0.5000000000000001110 ) ) ;
#200 = LINE ( 'NONE', #373, #3 ) ;
#201 = ADVANCED_FACE ( 'NONE', ( #419 ), #506, .T. ) ;
#202 = CARTESIAN_POINT ( 'NONE',  ( 20.73277411869203846, 8.673617379884035472E-17, -0.2499999999999998890 ) ) ;
#203 = PLANE ( 'NONE',  #233 ) ;
#204 = EDGE_LOOP ( 'NONE', ( #310, #54, #176, #95 ) ) ;
#205 = EDGE_CURVE ( 'NONE', #147, #141, #385, .T. ) ;
#206 = FACE_BOUND ( 'NONE', #304, .T. ) ;
#207 = CARTESIAN_POINT ( 'NONE',  ( -15.21722588130796083, 0.1999999999999999278, -0.9999999999999998890 ) ) ;
#208 = DIRECTION ( 'NONE',  ( 0.000000000000000000, 1.000000000000000000, 0.000000000000000000 ) ) ;
#209 = VECTOR ( 'NONE', #394, 100.0000000000000000 ) ;
#210 = DIRECTION ( 'NONE',  ( 0.000000000000000000, 0.000000000000000000, -1.000000000000000000 ) ) ;
#211 = CARTESIAN_POINT ( 'NONE',  ( -15.21722588130796083, 0.1999999999999999278, -0.7500000000000000000 ) ) ;
#212 = EDGE_LOOP ( 'NONE', ( #145, #66, #498, #354, #62, #185, #458, #382 ) ) ;
#213 = PERSON_AND_ORGANIZATION_ROLE ( 'design_supplier' ) ;
#214 = DATE_TIME_ROLE ( 'creation_date' ) ;
#215 = CIRCLE ( 'NONE', #423, 0.2500000000000000555 ) ;
#216 = VERTEX_POINT ( 'NONE', #249 ) ;
#217 = APPROVAL_DATE_TIME ( #55, #159 ) ;
#218 = EDGE_CURVE ( 'NONE', #225, #399, #428, .T. ) ;
#219 = LINE ( 'NONE', #207, #463 ) ;
#220 = ORIENTED_EDGE ( 'NONE', *, *, #479, .F. ) ;
#221 = APPROVAL_ROLE ( '' ) ;
#222 = ADVANCED_BREP_SHAPE_REPRESENTATION ( 'Link G_Default_sldprt', ( #33, #12 ), #292 ) ;
#223 = ADVANCED_FACE ( 'NONE', ( #172 ), #356, .F. ) ;
#224 = AXIS2_PLACEMENT_3D ( 'NONE', #160, #208, #328 ) ;
#225 = VERTEX_POINT ( 'NONE', #293 ) ;
#226 = FACE_OUTER_BOUND ( 'NONE', #275, .T. ) ;
#227 = EDGE_CURVE ( 'NONE', #427, #85, #103, .T. ) ;
#228 = ORIENTED_EDGE ( 'NONE', *, *, #144, .F. ) ;
#229 = LOCAL_TIME ( 9, 13, 43.00000000000000000, #493 ) ;
#230 = ORIENTED_EDGE ( 'NONE', *, *, #285, .F. ) ;
#231 = PERSON_AND_ORGANIZATION ( #386, #83 ) ;
#232 = LINE ( 'NONE', #109, #323 ) ;
#233 = AXIS2_PLACEMENT_3D ( 'NONE', #4, #291, #129 ) ;
#234 = ORIENTED_EDGE ( 'NONE', *, *, #327, .T. ) ;
#235 = EDGE_CURVE ( 'NONE', #98, #496, #96, .T. ) ;
#236 = VECTOR ( 'NONE', #269, 100.0000000000000000 ) ;
#237 = CARTESIAN_POINT ( 'NONE',  ( 20.98277411869203846, 7.642983635370939492E-17, -8.075052774879166409E-17 ) ) ;
#238 = ADVANCED_FACE ( 'NONE', ( #226 ), #196, .F. ) ;
#239 = CARTESIAN_POINT ( 'NONE',  ( 20.98277411869203846, 0.2000000000000000944, -1.000000000000000222 ) ) ;
#240 = CARTESIAN_POINT ( 'NONE',  ( 21.23277411869203846, 7.642983635370939492E-17, -0.7499999999999984457 ) ) ;
#241 = CARTESIAN_POINT ( 'NONE',  ( 20.98277411869203846, 7.642983635370939492E-17, -1.000000000000000000 ) ) ;
#242 = CARTESIAN_POINT ( 'NONE',  ( -15.21722588130796083, 0.1999999999999999278, -1.000000000000000000 ) ) ;
#243 = VECTOR ( 'NONE', #376, 100.0000000000000000 ) ;
#244 = FACE_OUTER_BOUND ( 'NONE', #204, .T. ) ;
#245 = EDGE_CURVE ( 'NONE', #283, #29, #365, .T. ) ;
#246 = DIRECTION ( 'NONE',  ( 0.000000000000000000, 0.000000000000000000, 1.000000000000000000 ) ) ;
#247 = FACE_OUTER_BOUND ( 'NONE', #503, .T. ) ;
#248 = LOCAL_TIME ( 9, 13, 43.00000000000000000, #25 ) ;
#249 = CARTESIAN_POINT ( 'NONE',  ( -15.46722588130796083, -7.282535531576034013E-17, -0.7499999999999981126 ) ) ;
#250 = CARTESIAN_POINT ( 'NONE',  ( -14.96722588130796083, 0.1999999999999999278, -0.2499999999999997780 ) ) ;
#251 = DIRECTION ( 'NONE',  ( -0.000000000000000000, -0.000000000000000000, 1.000000000000000000 ) ) ;
#252 = DATE_AND_TIME ( #390, #491 ) ;
#253 = DIRECTION ( 'NONE',  ( 0.000000000000000000, 0.000000000000000000, -1.000000000000000000 ) ) ;
#254 = DIRECTION ( 'NONE',  ( 0.000000000000000000, 0.000000000000000000, 1.000000000000000000 ) ) ;
#255 = EDGE_CURVE ( 'NONE', #22, #511, #26, .T. ) ;
#256 = CC_DESIGN_APPROVAL ( #380, ( #449 ) ) ;
#257 = CARTESIAN_POINT ( 'NONE',  ( -14.96722588130796083, 0.1999999999999999278, -0.4999999999999999445 ) ) ;
#258 = ORIENTED_EDGE ( 'NONE', *, *, #56, .F. ) ;
#259 = VECTOR ( 'NONE', #44, 100.0000000000000000 ) ;
#260 = EDGE_CURVE ( 'NONE', #29, #478, #278, .T. ) ;
#261 = ORIENTED_EDGE ( 'NONE', *, *, #140, .T. ) ;
#262 = DIRECTION ( 'NONE',  ( 0.000000000000000000, 0.000000000000000000, 1.000000000000000000 ) ) ;
#263 = CARTESIAN_POINT ( 'NONE',  ( -14.96722588130796083, -6.505213034913026604E-17, -0.2499999999999997780 ) ) ;
#264 = ORIENTED_EDGE ( 'NONE', *, *, #13, .F. ) ;
#265 = LOCAL_TIME ( 9, 13, 43.00000000000000000, #108 ) ;
#266 = CALENDAR_DATE ( 2025, 20, 11 ) ;
#267 = ORIENTED_EDGE ( 'NONE', *, *, #285, .T. ) ;
#268 = EDGE_CURVE ( 'NONE', #399, #141, #113, .T. ) ;
#269 = DIRECTION ( 'NONE',  ( -1.000000000000000000, -0.000000000000000000, -0.000000000000000000 ) ) ;
#270 = ORIENTED_EDGE ( 'NONE', *, *, #255, .T. ) ;
#271 = CARTESIAN_POINT ( 'NONE',  ( -14.96722588130796083, 0.1999999999999999278, -0.7500000000000001110 ) ) ;
#272 = ORIENTED_EDGE ( 'NONE', *, *, #297, .F. ) ;
#273 = LINE ( 'NONE', #279, #430 ) ;
#274 = AXIS2_PLACEMENT_3D ( 'NONE', #488, #121, #336 ) ;
#275 = EDGE_LOOP ( 'NONE', ( #220, #272, #469, #10 ) ) ;
#276 = DIRECTION ( 'NONE',  ( 0.000000000000000000, 0.000000000000000000, 1.000000000000000000 ) ) ;
#277 = DIRECTION ( 'NONE',  ( 0.000000000000000000, 0.000000000000000000, 1.000000000000000000 ) ) ;
#278 = CIRCLE ( 'NONE', #353, 0.2499999999999998890 ) ;
#279 = CARTESIAN_POINT ( 'NONE',  ( 21.23277411869203846, 0.2000000000000000944, -0.2500000000000018874 ) ) ;
#280 = AXIS2_PLACEMENT_3D ( 'NONE', #50, #131, #465 ) ;
#281 = ORIENTED_EDGE ( 'NONE', *, *, #357, .T. ) ;
#282 = DIRECTION ( 'NONE',  ( -0.000000000000000000, -1.000000000000000000, -0.000000000000000000 ) ) ;
#283 = VERTEX_POINT ( 'NONE', #112 ) ;
#284 = CARTESIAN_POINT ( 'NONE',  ( 21.23277411869203846, 0.2000000000000000944, -0.2500000000000018874 ) ) ;
#285 = EDGE_CURVE ( 'NONE', #417, #134, #273, .T. ) ;
#286 = CARTESIAN_POINT ( 'NONE',  ( -14.96722588130796083, 0.1999999999999999278, -0.4999999999999999445 ) ) ;
#287 = PLANE ( 'NONE',  #64 ) ;
#288 = AXIS2_PLACEMENT_3D ( 'NONE', #1, #164, #161 ) ;
#289 = CARTESIAN_POINT ( 'NONE',  ( 20.73277411869203846, 8.673617379884035472E-17, -0.5000000000000001110 ) ) ;
#290 = AXIS2_PLACEMENT_3D ( 'NONE', #199, #158, #326 ) ;
#291 = DIRECTION ( 'NONE',  ( 0.000000000000000000, 1.000000000000000000, 0.000000000000000000 ) ) ;
#292 =( GEOMETRIC_REPRESENTATION_CONTEXT ( 3 ) GLOBAL_UNCERTAINTY_ASSIGNED_CONTEXT ( ( #346 ) ) GLOBAL_UNIT_ASSIGNED_CONTEXT ( ( #341, #383, #136 ) ) REPRESENTATION_CONTEXT ( 'NONE', 'WORKASPACE' ) );
#293 = CARTESIAN_POINT ( 'NONE',  ( -15.46722588130796083, 0.1999999999999999278, -0.2500000000000016098 ) ) ;
#294 = DIRECTION ( 'NONE',  ( 0.000000000000000000, 1.000000000000000000, 0.000000000000000000 ) ) ;
#295 = CARTESIAN_POINT ( 'NONE',  ( 21.23277411869203846, 0.2000000000000000944, -0.2500000000000018874 ) ) ;
#296 = ORIENTED_EDGE ( 'NONE', *, *, #70, .T. ) ;
#297 = EDGE_CURVE ( 'NONE', #147, #456, #232, .T. ) ;
#298 = VECTOR ( 'NONE', #49, 100.0000000000000000 ) ;
#299 = DATE_AND_TIME ( #388, #229 ) ;
#300 = EDGE_LOOP ( 'NONE', ( #360, #261, #270, #516 ) ) ;
#301 = APPLICATION_PROTOCOL_DEFINITION ( 'international standard', 'config_control_design', 1994, #127 ) ;
#302 = PRODUCT_DEFINITION_FORMATION_WITH_SPECIFIED_SOURCE ( 'ANY', '', #91, .NOT_KNOWN. ) ;
#303 = DIRECTION ( 'NONE',  ( 0.000000000000000000, 1.000000000000000000, 0.000000000000000000 ) ) ;
#304 = EDGE_LOOP ( 'NONE', ( #397, #372 ) ) ;
#305 = PERSON_AND_ORGANIZATION_ROLE ( 'creator' ) ;
#306 = LINE ( 'NONE', #426, #381 ) ;
#307 = VECTOR ( 'NONE', #151, 100.0000000000000000 ) ;
#308 = EDGE_LOOP ( 'NONE', ( #436, #180, #59, #435 ) ) ;
#309 = CARTESIAN_POINT ( 'NONE',  ( 21.23277411869203846, 7.642983635370939492E-17, -0.2500000000000018874 ) ) ;
#310 = ORIENTED_EDGE ( 'NONE', *, *, #86, .T. ) ;
#311 = APPROVAL_PERSON_ORGANIZATION ( #231, #380, #221 ) ;
#312 = DIRECTION ( 'NONE',  ( -1.000000000000000000, 0.000000000000000000, -0.000000000000000000 ) ) ;
#313 = DIRECTION ( 'NONE',  ( -0.000000000000000000, -1.000000000000000000, -0.000000000000000000 ) ) ;
#314 = ORIENTED_EDGE ( 'NONE', *, *, #454, .F. ) ;
#315 = PRODUCT_RELATED_PRODUCT_CATEGORY ( 'detail', '', ( #91 ) ) ;
#316 = ORIENTED_EDGE ( 'NONE', *, *, #173, .T. ) ;
#317 = CARTESIAN_POINT ( 'NONE',  ( -15.21722588130796083, -6.505213034913026604E-17, -0.2499999999999998890 ) ) ;
#318 = ORIENTED_EDGE ( 'NONE', *, *, #173, .F. ) ;
#319 = CARTESIAN_POINT ( 'NONE',  ( 16.48277411869204201, 0.2000000000000000944, -1.000000000000000222 ) ) ;
#320 = CC_DESIGN_PERSON_AND_ORGANIZATION_ASSIGNMENT ( #181, #350, ( #449 ) ) ;
#321 = CARTESIAN_POINT ( 'NONE',  ( 21.23277411869203846, 0.2000000000000000944, -0.7499999999999984457 ) ) ;
#322 = DIRECTION ( 'NONE',  ( 0.000000000000000000, 0.000000000000000000, 1.000000000000000000 ) ) ;
#323 = VECTOR ( 'NONE', #31, 100.0000000000000000 ) ;
#324 = CARTESIAN_POINT ( 'NONE',  ( 20.98277411869203846, 0.2000000000000000944, -0.2500000000000000555 ) ) ;
#325 = DIRECTION ( 'NONE',  ( 0.000000000000000000, 1.000000000000000000, -0.000000000000000000 ) ) ;
#326 = DIRECTION ( 'NONE',  ( 0.000000000000000000, 0.000000000000000000, 1.000000000000000000 ) ) ;
#327 = EDGE_CURVE ( 'NONE', #107, #134, #156, .T. ) ;
#328 = DIRECTION ( 'NONE',  ( 0.000000000000000000, 0.000000000000000000, 1.000000000000000000 ) ) ;
#329 = CARTESIAN_POINT ( 'NONE',  ( 20.98277411869203846, 0.2000000000000000944, -0.7500000000000001110 ) ) ;
#330 = CARTESIAN_POINT ( 'NONE',  ( 20.73277411869203846, 0.2000000000000000944, -0.2499999999999998890 ) ) ;
#331 = ORIENTED_EDGE ( 'NONE', *, *, #245, .F. ) ;
#332 = VECTOR ( 'NONE', #126, 100.0000000000000000 ) ;
#333 = CYLINDRICAL_SURFACE ( 'NONE', #274, 0.2499999999999999722 ) ;
#334 = DIRECTION ( 'NONE',  ( 0.000000000000000000, 0.000000000000000000, -1.000000000000000000 ) ) ;
#335 = ORIENTED_EDGE ( 'NONE', *, *, #100, .F. ) ;
#336 = DIRECTION ( 'NONE',  ( 0.000000000000000000, 0.000000000000000000, -1.000000000000000000 ) ) ;
#337 = ADVANCED_FACE ( 'NONE', ( #148, #74, #514 ), #517, .F. ) ;
#338 = CARTESIAN_POINT ( 'NONE',  ( 20.98277411869203846, 0.2000000000000000944, -0.7500000000000001110 ) ) ;
#339 = ORIENTED_EDGE ( 'NONE', *, *, #327, .F. ) ;
#340 = COORDINATED_UNIVERSAL_TIME_OFFSET ( 7, 0, .BEHIND. ) ;
#341 =( LENGTH_UNIT ( ) NAMED_UNIT ( * ) SI_UNIT ( .CENTI., .METRE. ) );
#342 = ORIENTED_EDGE ( 'NONE', *, *, #227, .F. ) ;
#343 = EDGE_CURVE ( 'NONE', #456, #417, #111, .T. ) ;
#344 = APPROVAL_PERSON_ORGANIZATION ( #418, #125, #171 ) ;
#345 = EDGE_LOOP ( 'NONE', ( #339, #155, #104, #183, #358, #342, #264, #433 ) ) ;
#346 = UNCERTAINTY_MEASURE_WITH_UNIT (LENGTH_MEASURE( 1.000000000000000082E-05 ), #341, 'distance_accuracy_value', 'NONE');
#347 = PERSON_AND_ORGANIZATION ( #386, #83 ) ;
#348 = VECTOR ( 'NONE', #42, 100.0000000000000000 ) ;
#349 = EDGE_LOOP ( 'NONE', ( #296, #24 ) ) ;
#350 = PERSON_AND_ORGANIZATION_ROLE ( 'classification_officer' ) ;
#351 = AXIS2_PLACEMENT_3D ( 'NONE', #317, #432, #187 ) ;
#352 = DIRECTION ( 'NONE',  ( 0.000000000000000000, 0.000000000000000000, -1.000000000000000000 ) ) ;
#353 = AXIS2_PLACEMENT_3D ( 'NONE', #28, #361, #190 ) ;
#354 = ORIENTED_EDGE ( 'NONE', *, *, #43, .T. ) ;
#355 = DIRECTION ( 'NONE',  ( 0.000000000000000000, 0.000000000000000000, -1.000000000000000000 ) ) ;
#356 = CYLINDRICAL_SURFACE ( 'NONE', #505, 0.2500000000000001110 ) ;
#357 = EDGE_CURVE ( 'NONE', #464, #496, #483, .T. ) ;
#358 = ORIENTED_EDGE ( 'NONE', *, *, #150, .F. ) ;
#359 = DIRECTION ( 'NONE',  ( 0.000000000000000000, 1.000000000000000000, 0.000000000000000000 ) ) ;
#360 = ORIENTED_EDGE ( 'NONE', *, *, #475, .F. ) ;
#361 = DIRECTION ( 'NONE',  ( 0.000000000000000000, 1.000000000000000000, -0.000000000000000000 ) ) ;
#362 = VECTOR ( 'NONE', #197, 100.0000000000000000 ) ;
#363 = ORIENTED_EDGE ( 'NONE', *, *, #205, .F. ) ;
#364 = EDGE_CURVE ( 'NONE', #283, #427, #6, .T. ) ;
#365 = LINE ( 'NONE', #319, #307 ) ;
#366 = AXIS2_PLACEMENT_3D ( 'NONE', #402, #34, #71 ) ;
#367 = DIRECTION ( 'NONE',  ( -0.000000000000000000, -1.000000000000000000, -0.000000000000000000 ) ) ;
#368 = CALENDAR_DATE ( 2025, 20, 11 ) ;
#369 = CYLINDRICAL_SURFACE ( 'NONE', #72, 0.2500000000000000555 ) ;
#370 = CYLINDRICAL_SURFACE ( 'NONE', #413, 0.2500000000000002220 ) ;
#371 = ADVANCED_FACE ( 'NONE', ( #119 ), #287, .F. ) ;
#372 = ORIENTED_EDGE ( 'NONE', *, *, #140, .F. ) ;
#373 = CARTESIAN_POINT ( 'NONE',  ( 20.98277411869203846, 0.2000000000000000944, -8.673617379884035472E-17 ) ) ;
#374 = PLANE ( 'NONE',  #366 ) ;
#375 = CYLINDRICAL_SURFACE ( 'NONE', #130, 0.2500000000000002220 ) ;
#376 = DIRECTION ( 'NONE',  ( 0.000000000000000000, 0.000000000000000000, -1.000000000000000000 ) ) ;
#377 = DIRECTION ( 'NONE',  ( 0.000000000000000000, -0.000000000000000000, 1.000000000000000000 ) ) ;
#378 = CARTESIAN_POINT ( 'NONE',  ( -15.46722588130796083, 0.1999999999999999278, -0.2500000000000016098 ) ) ;
#379 = CARTESIAN_POINT ( 'NONE',  ( 20.98277411869203846, 8.673617379884035472E-17, -0.2500000000000000555 ) ) ;
#380 = APPROVAL ( #195, 'UNSPECIFIED' ) ;
#381 = VECTOR ( 'NONE', #251, 100.0000000000000000 ) ;
#382 = ORIENTED_EDGE ( 'NONE', *, *, #454, .T. ) ;
#383 =( NAMED_UNIT ( * ) PLANE_ANGLE_UNIT ( ) SI_UNIT ( $, .RADIAN. ) );
#384 = ADVANCED_FACE ( 'NONE', ( #81 ), #8, .F. ) ;
#385 = LINE ( 'NONE', #184, #332 ) ;
#386 = PERSON ( 'UNSPECIFIED', 'UNSPECIFIED', 'UNSPECIFIED', ('UNSPECIFIED'), ('UNSPECIFIED'), ('UNSPECIFIED') ) ;
#387 = ADVANCED_FACE ( 'NONE', ( #244 ), #375, .F. ) ;
#388 = CALENDAR_DATE ( 2025, 20, 11 ) ;
#389 = ORIENTED_EDGE ( 'NONE', *, *, #77, .F. ) ;
#390 = CALENDAR_DATE ( 2025, 20, 11 ) ;
#391 = PERSON_AND_ORGANIZATION_ROLE ( 'creator' ) ;
#392 = CARTESIAN_POINT ( 'NONE',  ( -15.21722588130795728, 0.1999999999999999278, 7.694228008059196041E-17 ) ) ;
#393 = ORIENTED_EDGE ( 'NONE', *, *, #395, .F. ) ;
#394 = DIRECTION ( 'NONE',  ( -0.000000000000000000, -1.000000000000000000, -0.000000000000000000 ) ) ;
#395 = EDGE_CURVE ( 'NONE', #478, #225, #485, .T. ) ;
#396 = ORIENTED_EDGE ( 'NONE', *, *, #52, .T. ) ;
#397 = ORIENTED_EDGE ( 'NONE', *, *, #512, .F. ) ;
#398 = DIRECTION ( 'NONE',  ( 0.000000000000000000, 1.000000000000000000, 0.000000000000000000 ) ) ;
#399 = VERTEX_POINT ( 'NONE', #410 ) ;
#400 = CIRCLE ( 'NONE', #102, 0.2500000000000002220 ) ;
#401 = VECTOR ( 'NONE', #48, 100.0000000000000000 ) ;
#402 = CARTESIAN_POINT ( 'NONE',  ( -15.46722588130796083, 0.1999999999999999278, -0.2500000000000017208 ) ) ;
#403 = AXIS2_PLACEMENT_3D ( 'NONE', #487, #110, #277 ) ;
#404 = CARTESIAN_POINT ( 'NONE',  ( -14.96722588130796083, -6.505213034913026604E-17, -0.4999999999999999445 ) ) ;
#405 = CARTESIAN_POINT ( 'NONE',  ( 16.48277411869204201, 0.2000000000000000944, -1.000000000000000222 ) ) ;
#406 = DIRECTION ( 'NONE',  ( 0.000000000000000000, 0.000000000000000000, -1.000000000000000000 ) ) ;
#407 = CARTESIAN_POINT ( 'NONE',  ( -15.46722588130796083, 0.1999999999999999278, -0.7499999999999981126 ) ) ;
#408 = CC_DESIGN_PERSON_AND_ORGANIZATION_ASSIGNMENT ( #420, #213, ( #302 ) ) ;
#409 = DIRECTION ( 'NONE',  ( 0.000000000000000000, 0.000000000000000000, -1.000000000000000000 ) ) ;
#410 = CARTESIAN_POINT ( 'NONE',  ( -15.46722588130796083, -7.282535531576034013E-17, -0.2500000000000016098 ) ) ;
#411 = FACE_OUTER_BOUND ( 'NONE', #80, .T. ) ;
#412 = DIRECTION ( 'NONE',  ( -0.000000000000000000, -1.000000000000000000, -0.000000000000000000 ) ) ;
#413 = AXIS2_PLACEMENT_3D ( 'NONE', #157, #412, #523 ) ;
#414 = DIRECTION ( 'NONE',  ( -0.000000000000000000, -1.000000000000000000, -0.000000000000000000 ) ) ;
#415 = ADVANCED_FACE ( 'NONE', ( #45 ), #333, .T. ) ;
#416 = DIRECTION ( 'NONE',  ( -0.000000000000000000, -1.000000000000000000, -0.000000000000000000 ) ) ;
#417 = VERTEX_POINT ( 'NONE', #198 ) ;
#418 = PERSON_AND_ORGANIZATION ( #386, #83 ) ;
#419 = FACE_OUTER_BOUND ( 'NONE', #101, .T. ) ;
#420 = PERSON_AND_ORGANIZATION ( #386, #83 ) ;
#421 = PRODUCT_DEFINITION ( 'UNKNOWN', '', #302, #177 ) ;
#422 = CC_DESIGN_APPROVAL ( #159, ( #421 ) ) ;
#423 = AXIS2_PLACEMENT_3D ( 'NONE', #329, #484, #409 ) ;
#424 = PERSON_AND_ORGANIZATION ( #386, #83 ) ;
#425 = DIRECTION ( 'NONE',  ( 1.000000000000000000, 0.000000000000000000, 0.000000000000000000 ) ) ;
#426 = CARTESIAN_POINT ( 'NONE',  ( -15.46722588130796083, -6.505213034913026604E-17, -0.2500000000000017208 ) ) ;
#427 = VERTEX_POINT ( 'NONE', #241 ) ;
#428 = LINE ( 'NONE', #378, #401 ) ;
#429 = EDGE_LOOP ( 'NONE', ( #513, #18, #335, #78 ) ) ;
#430 = VECTOR ( 'NONE', #68, 100.0000000000000000 ) ;
#431 = ORIENTED_EDGE ( 'NONE', *, *, #86, .F. ) ;
#432 = DIRECTION ( 'NONE',  ( 0.000000000000000000, 1.000000000000000000, -0.000000000000000000 ) ) ;
#433 = ORIENTED_EDGE ( 'NONE', *, *, #36, .F. ) ;
#434 = SHAPE_DEFINITION_REPRESENTATION ( #154, #222 ) ;
#435 = ORIENTED_EDGE ( 'NONE', *, *, #77, .T. ) ;
#436 = ORIENTED_EDGE ( 'NONE', *, *, #13, .T. ) ;
#437 = AXIS2_PLACEMENT_3D ( 'NONE', #492, #494, #489 ) ;
#438 = CYLINDRICAL_SURFACE ( 'NONE', #460, 0.2500000000000001110 ) ;
#439 = AXIS2_PLACEMENT_3D ( 'NONE', #257, #504, #142 ) ;
#440 = ADVANCED_FACE ( 'NONE', ( #124, #490, #206 ), #203, .T. ) ;
#441 = CARTESIAN_POINT ( 'NONE',  ( -15.21722588130796083, 0.1999999999999999278, -0.2499999999999998890 ) ) ;
#442 = VERTEX_POINT ( 'NONE', #448 ) ;
#443 = DIRECTION ( 'NONE',  ( -1.000000000000000000, 0.000000000000000000, 0.000000000000000000 ) ) ;
#444 = DIRECTION ( 'NONE',  ( -0.000000000000000000, -1.000000000000000000, -0.000000000000000000 ) ) ;
#445 = CARTESIAN_POINT ( 'NONE',  ( -15.46722588130796083, 0.1999999999999999278, -0.2500000000000017208 ) ) ;
#446 = ADVANCED_FACE ( 'NONE', ( #247 ), #370, .F. ) ;
#447 = FACE_OUTER_BOUND ( 'NONE', #69, .T. ) ;
#448 = CARTESIAN_POINT ( 'NONE',  ( -14.96722588130796083, 0.1999999999999999278, -0.2499999999999997780 ) ) ;
#449 = SECURITY_CLASSIFICATION ( '', '', #461 ) ;
#450 = CARTESIAN_POINT ( 'NONE',  ( 20.73277411869203846, 0.2000000000000000944, -0.7500000000000003331 ) ) ;
#451 = DIRECTION ( 'NONE',  ( -0.000000000000000000, -1.000000000000000000, -0.000000000000000000 ) ) ;
#452 = VECTOR ( 'NONE', #416, 100.0000000000000000 ) ;
#453 = ORIENTED_EDGE ( 'NONE', *, *, #479, .T. ) ;
#454 = EDGE_CURVE ( 'NONE', #225, #147, #117, .T. ) ;
#455 = COORDINATED_UNIVERSAL_TIME_OFFSET ( 7, 0, .BEHIND. ) ;
#456 = VERTEX_POINT ( 'NONE', #115 ) ;
#457 = APPROVAL_PERSON_ORGANIZATION ( #424, #159, #139 ) ;
#458 = ORIENTED_EDGE ( 'NONE', *, *, #395, .T. ) ;
#459 = EDGE_LOOP ( 'NONE', ( #27, #363, #314, #99 ) ) ;
#460 = AXIS2_PLACEMENT_3D ( 'NONE', #286, #444, #75 ) ;
#461 = SECURITY_CLASSIFICATION_LEVEL ( 'unclassified' ) ;
#462 = CC_DESIGN_DATE_AND_TIME_ASSIGNMENT ( #63, #520, ( #449 ) ) ;
#463 = VECTOR ( 'NONE', #468, 100.0000000000000000 ) ;
#464 = VERTEX_POINT ( 'NONE', #47 ) ;
#465 = DIRECTION ( 'NONE',  ( 0.000000000000000000, 0.000000000000000000, -1.000000000000000000 ) ) ;
#466 = AXIS2_PLACEMENT_3D ( 'NONE', #441, #325, #525 ) ;
#467 = ORIENTED_EDGE ( 'NONE', *, *, #144, .T. ) ;
#468 = DIRECTION ( 'NONE',  ( -0.000000000000000000, -1.000000000000000000, -0.000000000000000000 ) ) ;
#469 = ORIENTED_EDGE ( 'NONE', *, *, #205, .T. ) ;
#470 = AXIS2_PLACEMENT_3D ( 'NONE', #324, #367, #406 ) ;
#471 = ORIENTED_EDGE ( 'NONE', *, *, #150, .T. ) ;
#472 = ORIENTED_EDGE ( 'NONE', *, *, #227, .T. ) ;
#473 = AXIS2_PLACEMENT_3D ( 'NONE', #51, #303, #262 ) ;
#474 = AXIS2_PLACEMENT_3D ( 'NONE', #405, #165, #79 ) ;
#475 = EDGE_CURVE ( 'NONE', #442, #132, #84, .T. ) ;
#476 = DIRECTION ( 'NONE',  ( 0.000000000000000000, 1.000000000000000000, 0.000000000000000000 ) ) ;
#477 = CARTESIAN_POINT ( 'NONE',  ( 16.48277411869204201, 0.2000000000000000944, -8.673617379884035472E-17 ) ) ;
#478 = VERTEX_POINT ( 'NONE', #407 ) ;
#479 = EDGE_CURVE ( 'NONE', #456, #107, #200, .T. ) ;
#480 = DIRECTION ( 'NONE',  ( 0.000000000000000000, 0.000000000000000000, 1.000000000000000000 ) ) ;
#481 = VERTEX_POINT ( 'NONE', #330 ) ;
#482 = CIRCLE ( 'NONE', #473, 0.2500000000000002220 ) ;
#483 = LINE ( 'NONE', #450, #452 ) ;
#484 = DIRECTION ( 'NONE',  ( 0.000000000000000000, 1.000000000000000000, -0.000000000000000000 ) ) ;
#485 = LINE ( 'NONE', #445, #348 ) ;
#486 = EDGE_CURVE ( 'NONE', #481, #464, #482, .T. ) ;
#487 = CARTESIAN_POINT ( 'NONE',  ( -14.96722588130796083, -6.505213034913026604E-17, -0.4999999999999999445 ) ) ;
#488 = CARTESIAN_POINT ( 'NONE',  ( -15.21722588130796083, 0.1999999999999999278, -0.2499999999999998890 ) ) ;
#489 = DIRECTION ( 'NONE',  ( 0.000000000000000000, 0.000000000000000000, 1.000000000000000000 ) ) ;
#490 = FACE_BOUND ( 'NONE', #188, .T. ) ;
#491 = LOCAL_TIME ( 9, 13, 43.00000000000000000, #455 ) ;
#492 = CARTESIAN_POINT ( 'NONE',  ( -14.96722588130796083, 0.1999999999999999278, -0.4999999999999999445 ) ) ;
#493 = COORDINATED_UNIVERSAL_TIME_OFFSET ( 7, 0, .BEHIND. ) ;
#494 = DIRECTION ( 'NONE',  ( 0.000000000000000000, 1.000000000000000000, 0.000000000000000000 ) ) ;
#495 = AXIS2_PLACEMENT_3D ( 'NONE', #379, #294, #377 ) ;
#496 = VERTEX_POINT ( 'NONE', #19 ) ;
#497 = CC_DESIGN_DATE_AND_TIME_ASSIGNMENT ( #252, #214, ( #421 ) ) ;
#498 = ORIENTED_EDGE ( 'NONE', *, *, #189, .T. ) ;
#499 = ORIENTED_EDGE ( 'NONE', *, *, #36, .T. ) ;
#500 = APPROVAL_DATE_TIME ( #299, #125 ) ;
#501 = CC_DESIGN_PERSON_AND_ORGANIZATION_ASSIGNMENT ( #347, #305, ( #302 ) ) ;
#502 = AXIS2_PLACEMENT_3D ( 'NONE', #193, #359, #276 ) ;
#503 = EDGE_LOOP ( 'NONE', ( #258, #89, #281, #191 ) ) ;
#504 = DIRECTION ( 'NONE',  ( 0.000000000000000000, 1.000000000000000000, 0.000000000000000000 ) ) ;
#505 = AXIS2_PLACEMENT_3D ( 'NONE', #7, #168, #334 ) ;
#506 = CYLINDRICAL_SURFACE ( 'NONE', #32, 0.2499999999999998890 ) ;
#507 = CIRCLE ( 'NONE', #280, 0.2499999999999998890 ) ;
#508 = ORIENTED_EDGE ( 'NONE', *, *, #260, .F. ) ;
#509 = CARTESIAN_POINT ( 'NONE',  ( 20.73277411869203846, 8.673617379884035472E-17, -0.5000000000000001110 ) ) ;
#510 = CIRCLE ( 'NONE', #439, 0.2500000000000001110 ) ;
#511 = VERTEX_POINT ( 'NONE', #15 ) ;
#512 = EDGE_CURVE ( 'NONE', #22, #442, #510, .T. ) ;
#513 = ORIENTED_EDGE ( 'NONE', *, *, #512, .T. ) ;
#514 = FACE_BOUND ( 'NONE', #93, .T. ) ;
#515 = CLOSED_SHELL ( 'NONE', ( #58, #387, #446, #223, #440, #337, #384, #238, #73, #371, #118, #201, #106, #415 ) ) ;
#516 = ORIENTED_EDGE ( 'NONE', *, *, #52, .F. ) ;
#517 = PLANE ( 'NONE',  #495 ) ;
#518 = LINE ( 'NONE', #116, #243 ) ;
#519 = CC_DESIGN_APPROVAL ( #125, ( #302 ) ) ;
#520 = DATE_TIME_ROLE ( 'classification_date' ) ;
#521 = EDGE_CURVE ( 'NONE', #141, #107, #133, .T. ) ;
#522 = DIRECTION ( 'NONE',  ( 0.000000000000000000, 1.000000000000000000, 0.000000000000000000 ) ) ;
#523 = DIRECTION ( 'NONE',  ( 0.000000000000000000, 0.000000000000000000, -1.000000000000000000 ) ) ;
#524 = CARTESIAN_POINT ( 'NONE',  ( -14.96722588130796083, 0.1999999999999999278, -0.7500000000000001110 ) ) ;
#525 = DIRECTION ( 'NONE',  ( 0.000000000000000000, 0.000000000000000000, -1.000000000000000000 ) ) ;
ENDSEC;
END-ISO-10303-21;
